<?xml version="1.0" encoding="UTF-8"?>
<svg width="700pt" height="700pt" version="1.1" viewBox="0 0 700 700" xmlns="http://www.w3.org/2000/svg" xmlns:xlink="http://www.w3.org/1999/xlink">
 <defs>
  <symbol id="w" overflow="visible">
   <path d="m18.766-1.125c-0.96875 0.5-1.9805 0.875-3.0312 1.125-1.043 0.25781-2.1367 0.39062-3.2812 0.39062-3.3984 0-6.0898-0.94531-8.0781-2.8438-1.9922-1.9062-2.9844-4.4844-2.9844-7.7344 0-3.2578 0.99219-5.8359 2.9844-7.7344 1.9883-1.9062 4.6797-2.8594 8.0781-2.8594 1.1445 0 2.2383 0.13281 3.2812 0.39062 1.0508 0.25 2.0625 0.625 3.0312 1.125v4.2188c-0.98047-0.65625-1.9453-1.1406-2.8906-1.4531-0.94922-0.3125-1.9492-0.46875-3-0.46875-1.875 0-3.3516 0.60547-4.4219 1.8125-1.0742 1.1992-1.6094 2.8555-1.6094 4.9688 0 2.1055 0.53516 3.7617 1.6094 4.9688 1.0703 1.1992 2.5469 1.7969 4.4219 1.7969 1.0508 0 2.0508-0.14844 3-0.45312 0.94531-0.3125 1.9102-0.80078 2.8906-1.4688z"/>
  </symbol>
  <symbol id="b" overflow="visible">
   <path d="m13.734-11.141c-0.4375-0.19531-0.87109-0.34375-1.2969-0.4375-0.41797-0.10156-0.83984-0.15625-1.2656-0.15625-1.2617 0-2.2305 0.40625-2.9062 1.2188-0.67969 0.80469-1.0156 1.9531-1.0156 3.4531v7.0625h-4.8906v-15.312h4.8906v2.5156c0.625-1 1.3438-1.7266 2.1562-2.1875 0.82031-0.46875 1.8008-0.70312 2.9375-0.70312 0.16406 0 0.34375 0.011719 0.53125 0.03125 0.19531 0.011719 0.47656 0.039062 0.84375 0.078125z"/>
  </symbol>
  <symbol id="a" overflow="visible">
   <path d="m17.641-7.7031v1.4062h-11.453c0.125 1.1484 0.53906 2.0078 1.25 2.5781 0.70703 0.57422 1.7031 0.85938 2.9844 0.85938 1.0312 0 2.082-0.14844 3.1562-0.45312 1.082-0.3125 2.1914-0.77344 3.3281-1.3906v3.7656c-1.1562 0.4375-2.3125 0.76562-3.4688 0.98438-1.1562 0.22656-2.3125 0.34375-3.4688 0.34375-2.7734 0-4.9297-0.70312-6.4688-2.1094-1.5312-1.4062-2.2969-3.3789-2.2969-5.9219 0-2.5 0.75391-4.4609 2.2656-5.8906 1.5078-1.4375 3.582-2.1562 6.2188-2.1562 2.4062 0 4.332 0.73047 5.7812 2.1875 1.4453 1.4492 2.1719 3.3828 2.1719 5.7969zm-5.0312-1.625c0-0.92578-0.27344-1.6719-0.8125-2.2344-0.54297-0.57031-1.25-0.85938-2.125-0.85938-0.94922 0-1.7188 0.26562-2.3125 0.79688s-0.96484 1.2969-1.1094 2.2969z"/>
  </symbol>
  <symbol id="e" overflow="visible">
   <path d="m9.2188-6.8906c-1.0234 0-1.793 0.17188-2.3125 0.51562-0.51172 0.34375-0.76562 0.85547-0.76562 1.5312 0 0.625 0.20703 1.1172 0.625 1.4688 0.41406 0.34375 0.98828 0.51562 1.7188 0.51562 0.92578 0 1.7031-0.32812 2.3281-0.98438 0.63281-0.66406 0.95312-1.4922 0.95312-2.4844v-0.5625zm7.4688-1.8438v8.7344h-4.9219v-2.2656c-0.65625 0.92969-1.3984 1.6055-2.2188 2.0312-0.82422 0.41406-1.8242 0.625-3 0.625-1.5859 0-2.8711-0.45703-3.8594-1.375-0.99219-0.92578-1.4844-2.1289-1.4844-3.6094 0-1.7891 0.61328-3.1016 1.8438-3.9375 1.2383-0.84375 3.1797-1.2656 5.8281-1.2656h2.8906v-0.39062c0-0.76953-0.30859-1.332-0.92188-1.6875-0.61719-0.36328-1.5703-0.54688-2.8594-0.54688-1.0547 0-2.0312 0.10547-2.9375 0.3125-0.89844 0.21094-1.7305 0.52344-2.5 0.9375v-3.7344c1.0391-0.25 2.0859-0.44141 3.1406-0.57812 1.0625-0.13281 2.125-0.20312 3.1875-0.20312 2.7578 0 4.75 0.54688 5.9688 1.6406 1.2266 1.0859 1.8438 2.8555 1.8438 5.3125z"/>
  </symbol>
  <symbol id="c" overflow="visible">
   <path d="m7.7031-19.656v4.3438h5.0469v3.5h-5.0469v6.5c0 0.71094 0.14062 1.1875 0.42188 1.4375s0.83594 0.375 1.6719 0.375h2.5156v3.5h-4.1875c-1.9375 0-3.3125-0.39844-4.125-1.2031-0.80469-0.8125-1.2031-2.1797-1.2031-4.1094v-6.5h-2.4219v-3.5h2.4219v-4.3438z"/>
  </symbol>
  <symbol id="k" overflow="visible">
   <path d="m12.766-13.078v-8.2031h4.9219v21.281h-4.9219v-2.2188c-0.66797 0.90625-1.4062 1.5703-2.2188 1.9844s-1.7578 0.625-2.8281 0.625c-1.8867 0-3.4336-0.75-4.6406-2.25-1.2109-1.5-1.8125-3.4258-1.8125-5.7812 0-2.3633 0.60156-4.2969 1.8125-5.7969 1.207-1.5 2.7539-2.25 4.6406-2.25 1.0625 0 2 0.21484 2.8125 0.64062 0.82031 0.42969 1.5664 1.0859 2.2344 1.9688zm-3.2188 9.9219c1.0391 0 1.8359-0.37891 2.3906-1.1406 0.55078-0.76953 0.82812-1.8828 0.82812-3.3438 0-1.457-0.27734-2.5664-0.82812-3.3281-0.55469-0.76953-1.3516-1.1562-2.3906-1.1562-1.043 0-1.8398 0.38672-2.3906 1.1562-0.55469 0.76172-0.82812 1.8711-0.82812 3.3281 0 1.4609 0.27344 2.5742 0.82812 3.3438 0.55078 0.76172 1.3477 1.1406 2.3906 1.1406z"/>
  </symbol>
  <symbol id="j" overflow="visible">
   <path d="m10.5-3.1562c1.0508 0 1.8516-0.37891 2.4062-1.1406 0.55078-0.76953 0.82812-1.8828 0.82812-3.3438 0-1.457-0.27734-2.5664-0.82812-3.3281-0.55469-0.76953-1.3555-1.1562-2.4062-1.1562-1.0547 0-1.8594 0.38672-2.4219 1.1562-0.55469 0.77344-0.82812 1.8828-0.82812 3.3281 0 1.4492 0.27344 2.5586 0.82812 3.3281 0.5625 0.77344 1.3672 1.1562 2.4219 1.1562zm-3.25-9.9219c0.67578-0.88281 1.4219-1.5391 2.2344-1.9688 0.82031-0.42578 1.7656-0.64062 2.8281-0.64062 1.8945 0 3.4453 0.75 4.6562 2.25 1.207 1.5 1.8125 3.4336 1.8125 5.7969 0 2.3555-0.60547 4.2812-1.8125 5.7812-1.2109 1.5-2.7617 2.25-4.6562 2.25-1.0625 0-2.0078-0.21094-2.8281-0.625-0.8125-0.42578-1.5586-1.0859-2.2344-1.9844v2.2188h-4.8906v-21.281h4.8906z"/>
  </symbol>
  <symbol id="i" overflow="visible">
   <path d="m0.34375-15.312h4.8906l4.125 10.391 3.5-10.391h4.8906l-6.4375 16.766c-0.64844 1.6953-1.4023 2.8828-2.2656 3.5625-0.86719 0.6875-2 1.0312-3.4062 1.0312h-2.8438v-3.2188h1.5312c0.83203 0 1.4375-0.13672 1.8125-0.40625 0.38281-0.26172 0.67969-0.73047 0.89062-1.4062l0.14062-0.42188z"/>
  </symbol>
  <symbol id="h" overflow="visible">
   <path d="m14.953-3.7188h-8.2188l-1.3125 3.7188h-5.2812l7.5625-20.406h6.2656l7.5625 20.406h-5.2812zm-6.9062-3.7812h5.5781l-2.7812-8.125z"/>
  </symbol>
  <symbol id="v" overflow="visible">
   <path d="m2.3594-21.281h4.8906v21.281h-4.8906z"/>
  </symbol>
  <symbol id="u" overflow="visible">
   <path d="m6.2188-7.8281-5.5156-7.4844h5.1719l3.1406 4.5312 3.1719-4.5312h5.1719l-5.5156 7.4531 5.7969 7.8594h-5.1875l-3.4375-4.8438-3.4062 4.8438h-5.1875z"/>
  </symbol>
  <symbol id="t" overflow="visible">
   <path d="m2.5781-20.406h6.6875l4.6562 10.922 4.6719-10.922h6.6875v20.406h-4.9844v-14.938l-4.7031 11.016h-3.3281l-4.7031-11.016v14.938h-4.9844z"/>
  </symbol>
  <symbol id="g" overflow="visible">
   <path d="m2.1875-5.9688v-9.3438h4.9219v1.5312c0 0.83594-0.007813 1.875-0.015625 3.125-0.011719 1.25-0.015625 2.0859-0.015625 2.5 0 1.2422 0.03125 2.1328 0.09375 2.6719 0.070313 0.54297 0.17969 0.93359 0.32812 1.1719 0.20703 0.32422 0.47266 0.57422 0.79688 0.75 0.32031 0.16797 0.69141 0.25 1.1094 0.25 1.0195 0 1.8203-0.39062 2.4062-1.1719 0.58203-0.78125 0.875-1.8672 0.875-3.2656v-7.5625h4.8906v15.312h-4.8906v-2.2188c-0.74219 0.89844-1.5234 1.5586-2.3438 1.9844-0.82422 0.41406-1.7344 0.625-2.7344 0.625-1.7617 0-3.1055-0.53906-4.0312-1.625-0.92969-1.082-1.3906-2.6602-1.3906-4.7344z"/>
  </symbol>
  <symbol id="f" overflow="visible">
   <path d="m0.42188-15.312h4.8906l3.8281 10.578 3.7969-10.578h4.9062l-6.0312 15.312h-5.375z"/>
  </symbol>
  <symbol id="s" overflow="visible">
   <path d="m12.422-21.281v3.2188h-2.7031c-0.6875 0-1.1719 0.125-1.4531 0.375-0.27344 0.25-0.40625 0.6875-0.40625 1.3125v1.0625h4.1875v3.5h-4.1875v11.812h-4.8906v-11.812h-2.4375v-3.5h2.4375v-1.0625c0-1.6641 0.46094-2.8984 1.3906-3.7031 0.92578-0.80078 2.3672-1.2031 4.3281-1.2031z"/>
  </symbol>
  <symbol id="d" overflow="visible">
   <path d="m9.6406-12.188c-1.0859 0-1.9141 0.39062-2.4844 1.1719-0.57422 0.78125-0.85938 1.9062-0.85938 3.375s0.28516 2.5938 0.85938 3.375c0.57031 0.77344 1.3984 1.1562 2.4844 1.1562 1.0625 0 1.875-0.38281 2.4375-1.1562 0.57031-0.78125 0.85938-1.9062 0.85938-3.375s-0.28906-2.5938-0.85938-3.375c-0.5625-0.78125-1.375-1.1719-2.4375-1.1719zm0-3.5c2.6328 0 4.6914 0.71484 6.1719 2.1406 1.4766 1.418 2.2188 3.3867 2.2188 5.9062 0 2.5117-0.74219 4.4805-2.2188 5.9062-1.4805 1.418-3.5391 2.125-6.1719 2.125-2.6484 0-4.7148-0.70703-6.2031-2.125-1.4922-1.4258-2.2344-3.3945-2.2344-5.9062 0-2.5195 0.74219-4.4883 2.2344-5.9062 1.4883-1.4258 3.5547-2.1406 6.2031-2.1406z"/>
  </symbol>
  <symbol id="r" overflow="visible">
   <path d="m16.547-12.766c0.61328-0.94531 1.3477-1.6719 2.2031-2.1719 0.85156-0.5 1.7891-0.75 2.8125-0.75 1.7578 0 3.0977 0.54688 4.0156 1.6406 0.92578 1.0859 1.3906 2.6562 1.3906 4.7188v9.3281h-4.9219v-7.9844-0.35938c0.007813-0.13281 0.015625-0.32031 0.015625-0.5625 0-1.082-0.16406-1.8633-0.48438-2.3438-0.3125-0.48828-0.82422-0.73438-1.5312-0.73438-0.92969 0-1.6484 0.38672-2.1562 1.1562-0.51172 0.76172-0.77344 1.8672-0.78125 3.3125v7.5156h-4.9219v-7.9844c0-1.6953-0.14844-2.7852-0.4375-3.2656-0.29297-0.48828-0.8125-0.73438-1.5625-0.73438-0.9375 0-1.6641 0.38672-2.1719 1.1562-0.51172 0.76172-0.76562 1.8594-0.76562 3.2969v7.5312h-4.9219v-15.312h4.9219v2.2344c0.60156-0.86328 1.2891-1.5156 2.0625-1.9531 0.78125-0.4375 1.6406-0.65625 2.5781-0.65625 1.0625 0 2 0.25781 2.8125 0.76562 0.8125 0.51172 1.4258 1.2305 1.8438 2.1562z"/>
  </symbol>
  <symbol id="q" overflow="visible">
   <path d="m17.75-9.3281v9.3281h-4.9219v-7.1094c0-1.3438-0.03125-2.2656-0.09375-2.7656s-0.16797-0.86719-0.3125-1.1094c-0.1875-0.3125-0.44922-0.55469-0.78125-0.73438-0.32422-0.17578-0.69531-0.26562-1.1094-0.26562-1.0234 0-1.8242 0.39844-2.4062 1.1875-0.58594 0.78125-0.875 1.8711-0.875 3.2656v7.5312h-4.8906v-21.281h4.8906v8.2031c0.73828-0.88281 1.5195-1.5391 2.3438-1.9688 0.83203-0.42578 1.75-0.64062 2.75-0.64062 1.7695 0 3.1133 0.54688 4.0312 1.6406 0.91406 1.0859 1.375 2.6562 1.375 4.7188z"/>
  </symbol>
  <symbol id="p" overflow="visible">
   <path d="m2.5781-20.406h5.875l7.4219 14v-14h4.9844v20.406h-5.875l-7.4219-14v14h-4.9844z"/>
  </symbol>
  <symbol id="o" overflow="visible">
   <path d="m17.75-9.3281v9.3281h-4.9219v-7.1406c0-1.3203-0.03125-2.2344-0.09375-2.7344s-0.16797-0.86719-0.3125-1.1094c-0.1875-0.3125-0.44922-0.55469-0.78125-0.73438-0.32422-0.17578-0.69531-0.26562-1.1094-0.26562-1.0234 0-1.8242 0.39844-2.4062 1.1875-0.58594 0.78125-0.875 1.8711-0.875 3.2656v7.5312h-4.8906v-15.312h4.8906v2.2344c0.73828-0.88281 1.5195-1.5391 2.3438-1.9688 0.83203-0.42578 1.75-0.64062 2.75-0.64062 1.7695 0 3.1133 0.54688 4.0312 1.6406 0.91406 1.0859 1.375 2.6562 1.375 4.7188z"/>
  </symbol>
  <symbol id="n" overflow="visible">
   <path d="m2.5781-20.406h8.7344c2.5938 0 4.582 0.57812 5.9688 1.7344 1.3945 1.1484 2.0938 2.7891 2.0938 4.9219 0 2.1367-0.69922 3.7812-2.0938 4.9375-1.3867 1.1562-3.375 1.7344-5.9688 1.7344h-3.4844v7.0781h-5.25zm5.25 3.8125v5.7031h2.9219c1.0195 0 1.8047-0.25 2.3594-0.75 0.5625-0.5 0.84375-1.2031 0.84375-2.1094 0-0.91406-0.28125-1.6172-0.84375-2.1094-0.55469-0.48828-1.3398-0.73438-2.3594-0.73438z"/>
  </symbol>
  <symbol id="m" overflow="visible">
   <path d="m2.3594-15.312h4.8906v15.031c0 2.0508-0.49609 3.6172-1.4844 4.7031-0.98047 1.082-2.4062 1.625-4.2812 1.625h-2.4219v-3.2188h0.85938c0.92578 0 1.5625-0.21094 1.9062-0.625 0.35156-0.41797 0.53125-1.2461 0.53125-2.4844zm0-5.9688h4.8906v4h-4.8906z"/>
  </symbol>
  <symbol id="l" overflow="visible">
   <path d="m14.719-14.828v3.9844c-0.65625-0.45703-1.3242-0.79688-2-1.0156-0.66797-0.21875-1.3594-0.32812-2.0781-0.32812-1.3672 0-2.4336 0.40234-3.2031 1.2031-0.76172 0.79297-1.1406 1.9062-1.1406 3.3438 0 1.4297 0.37891 2.543 1.1406 3.3438 0.76953 0.79297 1.8359 1.1875 3.2031 1.1875 0.75781 0 1.4844-0.10938 2.1719-0.32812 0.6875-0.22656 1.3203-0.56641 1.9062-1.0156v4c-0.76172 0.28125-1.5391 0.48828-2.3281 0.625-0.78125 0.14453-1.5742 0.21875-2.375 0.21875-2.7617 0-4.9219-0.70703-6.4844-2.125-1.5547-1.4141-2.3281-3.3828-2.3281-5.9062 0-2.5312 0.77344-4.5039 2.3281-5.9219 1.5625-1.4141 3.7227-2.125 6.4844-2.125 0.80078 0 1.5938 0.074219 2.375 0.21875 0.78125 0.13672 1.5547 0.35156 2.3281 0.64062z"/>
  </symbol>
 </defs>
 <g>
  <path d="m290.69 157.09c-2.9531 4.9102-2.582 11.129 0.93359 15.648 2.1836 3.0547 3.8984 6.4766 6.2617 9.375 12.676 15.305 23.801 31.828 33.211 49.328 1.1797 3.0156 3.1211 5.6719 5.6289 7.7148 2.0586-7.3867 3.4102-14.957 4.0352-22.602-0.25391-1.9023-1.4766-3.543-3.2305-4.3281-5.8984-4.6016-9.3438-11.668-9.3359-19.152 0.011719-7.4805 3.4727-14.539 9.3828-19.125 3.6406-3.1758 7.5859-6.0078 11.465-8.9023v0.003906c5.5117-3.3633 10.145-7.9922 13.512-13.5 0.42188-0.6875 0.96484-1.2891 1.6055-1.7773 0.48047-0.47656 1.1367-0.73438 1.8125-0.71094s1.3086 0.32422 1.7539 0.83594c0.46484 0.29687 0.76172 0.79297 0.80469 1.3438 0.046875 0.54687-0.16797 1.0859-0.57812 1.4531-6.4844 6.0742-3.8828 13.152-2.6562 20.293v-0.003906c1.1172 6.6484 1.2383 13.426 0.36328 20.105-0.24609 3.5195-1.418 6.9102-3.4023 9.8281s-4.7031 5.2578-7.8867 6.7773c-3.9453 1.668-7.2852 4.5-9.582 8.1172-2.293 3.6133-3.4297 7.8438-3.2578 12.121-0.94922 11.492 0.61719 23.051 4.5859 33.871 5.5586 14.246 9.457 29.086 11.613 44.227-0.078124 1.6914 0.69922 3.3086 2.0664 4.3047 1.7031-0.69531 2.8047-2.3672 2.7656-4.207 2.2109-8.8906 6.3711-17.18 12.176-24.27 5.3594-8.043 11.395-15.613 18.043-22.625 12.797-12.281 24.625-25.531 35.371-39.641 3.1875-3.2266 6.082-6.7344 8.6367-10.48-0.9375-2.457-3.1758-1.5625-4.7969-1.9375-13.574-3.1211-17.758-14.289-9.5-25.527 0.35938-0.39844 0.69141-0.82031 0.99219-1.2656 1.9922-3.6133 8.4922-3.9414 8.1562-8.0391-0.27734-3.3984-5.2031-5.4922-7.3242-8.9961-5.0898-8.3906-5.1641-11.008 0.49609-18.914 2.9688-3.8086 6.6797-6.9688 10.91-9.2969 4.1406-2.2461 9.1953-1.9414 13.039 0.78125 3.1875 1.8516 6.2305 3.9453 9.3555 5.9453h0.003907c1.207-1.957 1.3945-4.3789 0.50391-6.5-0.75-3.9844-0.43359-8.0977 0.91016-11.922 1.4844-6.2617 7.1172-10.652 13.551-10.566 3.0781 0.86719 5.8438 2.5938 7.9766 4.9766 2.1289 2.3828 3.5391 5.3203 4.0664 8.4766 0.27344 2.8789 0.42188 5.7695 0.67188 9.3516 2.8672-1.7383 5.3789-4.0078 7.3945-6.6875 7.4648-7.2734 14.965-5.0781 22.316 0.60547h-0.003906c3.1992 2.7148 4.3242 7.1562 2.8086 11.066-1.1641 4.6211-3.7461 8.7656-7.3867 11.84 2.6797 1.4883 5.7109 2.2227 8.7734 2.1211 3.2422 0.17188 6.3398 1.4062 8.8125 3.5117 2.4727 2.1055 4.1875 4.9609 4.8789 8.1367 0.52734 3.3125 0.011719 6.707-1.4766 9.7109-1.4922 3.0039-3.8789 5.4727-6.832 7.0625-3.2227 1.9805-6.9648 2.9453-10.746 2.7617-1.9609-0.45312-4.0234 0.058594-5.5469 1.3828 0.16016 2.0391 1.2305 3.8945 2.918 5.0508 3.0938 4.6094 4.2617 10.242 3.2539 15.699-1.0078 5.457-4.1094 10.305-8.6445 13.5-2.8242 2.1719-6.5859 2.6875-9.8906 1.3555-5.7109-1.6484-10.715-5.1406-14.23-9.9336-0.60547-1.2734-1.7578-2.2031-3.1289-2.5273-2.2578 3.2734-3.6992 7.043-4.2031 10.992-0.60938 2.3359-1.3438 4.6406-2.2031 6.9023-0.65234 2.9492-2.7188 5.3867-5.5195 6.5078-2.8047 1.1211-5.9805 0.78516-8.4844-0.90234-10.613-5.3164-17.297-12.852-14.445-26.113-9.7539 11.387-19.508 22.77-29.262 34.152-9.6914 11.266-20.797 21.281-29.703 33.578 10.352-1.3242 20.914 0.31641 29.715-7.2852l-0.007813 0.003906c5.9453-4.293 13.227-6.3203 20.535-5.7266 5.8359-0.35937 11.289 2.9219 13.707 8.25 4.1992 8.9297 7.4492 18.312 11.035 27.527 0.23438 0.64453 0.19531 1.3555-0.10938 1.9688-0.30859 0.61328-0.85156 1.0703-1.5078 1.2656-1.4648 0.66797-3.0391 1.0469-4.6445 1.1133-5.3828 0.17578-10.719 1.0273-15.887 2.5391-4.1836 1.0078-8.5547 0.96484-12.723-0.125-4.6133-0.94141-8.8086-3.332-11.973-6.8242-3.1602-3.4922-5.125-7.9023-5.6094-12.59-0.10938-1.3398-0.15234-2.6836-0.12891-4.0273 0.20703-1.2305-0.24609-2.4805-1.1992-3.293-0.94922-0.80859-2.2578-1.0586-3.4414-0.65625-3.4492 0.51562-6.8945 1.0859-10.359 1.4805v0.003906c-4.7109 0.43359-9.2227 2.1289-13.055 4.9102-3.832 2.7773-6.8438 6.5391-8.7227 10.883-6.6094 12.832-9.5742 27.227-8.5703 41.625 1.4414 19.824 1.8906 39.711 1.3398 59.582-0.73047 10.172-2.3477 20.262-4.8242 30.152-0.78516 3.9531-1.2734 7.8594-1.75 11.809h0.003906c1.9648 0.18359 3.8438-0.83984 4.7539-2.5898 6.6055-5.5469 14.293-9.6523 22.578-12.051 3.9336-1.0352 7.0469-4.0312 8.2266-7.9219 2.1445-5.793 6.25-10.652 11.602-13.727 5.3555-3.0781 11.617-4.1797 17.699-3.1133 2.3945 0.41406 4.6562 1.3867 6.6055 2.832 4.8594 3.3516 9.7773 6.6211 14.625 9.9883v0.003907c2.6172 2.7305 6.0898 4.4844 9.8398 4.9766 1.4023 0.019531 2.6133 0.98828 2.9375 2.3516 0.1875 1.3945-0.70312 2.7109-2.0703 3.0508-4.3711 2.6289-7.9961 6.3359-10.531 10.766-5.4688 8.1758-14.453 13.312-24.277 13.879-4.5938 0.32031-9.1797-0.77344-13.141-3.1289-3.957-2.3594-7.1016-5.8711-9.0117-10.066-4.6992-8.4414-4.8125-8.4609-14.047-5.1211-4.3281 1.4336-8.4766 3.3594-12.359 5.7461-9.4375 5.4805-15.777 15.051-17.141 25.879-2.0039 15.402-6.1992 30.539-5.0703 46.289h0.003907c-0.15234 0.60938-0.41797 1.1836-0.78906 1.6953-2.6406-1.3555-3.9727-4.3828-3.1836-7.2461-0.082031-4.3047 0.21484-8.6094 0.89063-12.859 3.9805-23.773 6.3125-47.828 12.086-71.297 4.0156-14.488 0.78906-30.02-8.6602-41.711-1.6172-3.0781-3.668-5.9062-6.0898-8.4023-4.7734-3.5938-10.738-5.2344-16.676-4.5898-5.9414 0.64453-11.414 3.5234-15.309 8.0508-1.3789 1.6875-1.8594 3.9336-1.293 6.0352 0.47656 3.7266 0.53906 7.4961 0.19141 11.238 0.078124 4.5586-1.3516 9.0117-4.0703 12.668-2.7188 3.6602-6.5742 6.3125-10.961 7.5508-3.0156 1.1484-6.2109 1.7695-9.4375 1.8359-4.2539-0.86328-8.6641 0.33203-11.902 3.2227-0.82031 0.78125-2.0859 0.85156-2.9883 0.16406-0.52344-0.41797-0.84766-1.0352-0.89453-1.7031-0.050781-0.66797 0.17969-1.3242 0.63672-1.8164 3.4297-6.9922 5.418-14.605 5.8398-22.383 0.49219-6.3359 3.6172-12.176 8.6211-16.094 5.0039-3.918 11.422-5.5586 17.691-4.5156 3.1016 1.0625 6.5234 0.55469 9.1797-1.3633 5.1445-4.4336 11.703-6.8789 18.492-6.8945 1.8516 0.23438 3.6836-0.55859 4.7812-2.0664-10.367-12.898-25.875-18.195-39.656-26.809-1.0469 2.8633-0.96094 6.0156 0.23438 8.8164 1.418 8.0352-0.84375 16.285-6.168 22.469-3.8008 4.8984-10.699 6.1172-15.945 2.8125-4.1992-1.9062-7.5977-5.2266-9.5977-9.3789-1.2188-2.6484-2.625-5.2148-4.207-8.332h0.003906c-1.4492 1.5156-2.5156 3.3516-3.1172 5.3555-0.99219 1.9062-1.8984 3.8672-3.043 5.6797-4.9336 7.8125-11.734 11.473-17.742 9.2539h0.003906c-4.2422-1.3398-7.9609-3.9688-10.633-7.5273-2.6758-3.5547-4.168-7.8594-4.2734-12.309-0.25-6.1094 1.3125-12.16 4.4883-17.387-4.0938-2.7773-8.6367-4.8281-13.426-6.0625-4.7344-1.3008-8.5859-4.7344-10.422-9.2891-1.4023-2.8008-1.4609-6.0898-0.15625-8.9414 1.3008-2.8516 3.8242-4.957 6.8633-5.7305 3.6289-0.39453 7.207-1.1602 10.68-2.2891-5.0742-4.5938-7.5625-11.391-6.6523-18.172 0.49609-4.2695 2.0703-8.3398 4.5703-11.832 2.7305-4.5547 8.207-6.6719 13.289-5.1289 4.1367 1.4219 8.1562 3.1602 12.023 5.1992-0.14453-5.5273 0.83594-11.023 2.8828-16.164 1.7891-4.3281 5.5625-7.5234 10.129-8.5781 4.5664-1.0547 9.3594 0.16406 12.867 3.2695 5.043 4.6836 10.301 9.5039 9.9922 17.887v0.003907c4.3477-5.2031 11.082-7.7773 17.789-6.7969 3.0117-0.29297 5.9883 0.81641 8.0703 3.0078 2.0859 2.1914 3.043 5.2188 2.6055 8.2109-0.054688 4.0352-1.0586 7.9961-2.9375 11.566-1.3086 1.418-2.0508 3.2617-2.0938 5.1875 4.5469-0.13672 9.0742 0.65234 13.305 2.3203 5.543 3.1289 9.1211 8.8516 9.5078 15.203 0.38672 6.3516-2.4727 12.469-7.5938 16.246-4.1992 3.457-9.4883 5.3164-14.93 5.2539-1.4961-0.078126-3.0078 0.13672-5.3281 0.26172v-0.003906c2.4062 3.1797 5.4922 5.7852 9.0273 7.6289 2.1758 1.5781 4.5391 2.875 7.0391 3.8594 11.02 5.0352 20.855 12.324 28.875 21.402 5.7773 6.6992 10.805 14.012 14.992 21.809 0.60547 1.9102 2.0352 3.4492 3.8984 4.1875 1.2188-2.332 1.5234-5.0312 0.85547-7.5781-0.80469-10.172-1.0508-20.379-0.74219-30.578-0.76562-12.598-2.5547-25.109-5.3477-37.418-4.4648-25.691-13.02-50.5-25.344-73.48-8.6289-16.363-18.91-31.797-30.684-46.062-3.668-4.5234-6.7266-9.5352-10.359-14.746-3.5234 3.6875-4.1445 9.2305-9.3594 10.125v-0.003907c-3.1992 0.58594-6.4961 0.30469-9.5508-0.8125-9.8945-3.7461-8.4297-12.473-8.4922-20.328-2.2148-1.082-3.1133 0.66406-4.1523 1.6992-4.8984 4.75-11.668 7.0625-18.453 6.3047-3.9688 0.085938-7.7305-1.7852-10.062-5-2.332-3.2148-2.9414-7.3672-1.6289-11.117 1.3438-4.0742 3.6328-7.7695 6.6836-10.785-6.4141-2.0859-12.688-4.5898-18.777-7.4961-2.7188-0.56641-4.9688-2.4609-5.9883-5.043-1.0195-2.582-0.66797-5.5 0.92969-7.7695 2.75-7.293 8.6328-12.957 16.023-15.43 0.15234-2.0508-0.71094-4.043-2.3086-5.332-3.125-3.8984-3.5117-9.3164-0.98047-13.621 1.8555-4.4141 6.5859-6.8828 11.266-5.8789 2.7773 0.34375 5.4453 0.5625 5.4922-3.6445 0.10938-10.105 6.9414-14.461 18.07-11.508 1.8555 0.93359 3.9258 1.3516 5.9961 1.2188 0.99609-2.582 1.3789-5.3594 1.125-8.1172 0.46094-6.875 3.5234-10.617 9.1719-11.082v0.003906c2.8359-0.39844 5.7109 0.375 7.9688 2.1406s3.6992 4.3711 3.9961 7.2227c0.26562 1.3164 0.46875 2.6445 0.60156 3.9805 2.1875-0.21875 4.0898-1.5898 4.9883-3.5938 1.8672-1.9258 3.4805-4.1289 5.5-5.8711h-0.003906c3.332-2.9258 8.1836-3.3281 11.949-0.99219 3.4531 1.8555 5.1406 5.875 4.0469 9.6406-0.75781 4.9688-2.2773 9.8203-3.6914 15.641 4.5469-1.918 8.2969-4.3047 12.441-5.7617l-0.003906 0.003906c4.3281-1.8594 9.3594-0.83984 12.625 2.5547 2.832 3.4531 2.9766 8.3828 0.34766 11.996-1.3516 2.8945-2.9883 5.6602-4.7227 8.9102 5.9453 1.8984 10.496 6.7227 12.051 12.77 0.95312 3.0898 0.91016 6.4023-0.12891 9.4688-1.0391 3.0625-3.0156 5.7227-5.6523 7.5977-4.1328 3.4961-9.2422 5.6367-14.633 6.1406-1.5508 0.20312-3.082 0.52734-4.582 0.97656 9.082 15.859 9.1797 20.707 0.82812 27.566-10.062 8.2617-12.387 7.9727-26.285-3.582zm9.4102-61.996c-5.0391 5.168 1.4844 8.4805 1.5586 13.344 5.832-2.9883 11.117-5.5156 16.227-8.3633 6.2266-3.2812 10.996-8.7773 13.367-15.406 2.0508-5.8242-0.27734-8.7773-6.3945-8.6133-5.5039 0.73437-10.715 2.9102-15.109 6.3086-4.3945 3.3945-7.8125 7.8906-9.9141 13.031zm147.35 327.32c-6.5625-4.9453-12.602-9.3594-18.488-13.965-8.8594-6.9297-26.098-2.0586-30.023 4.2539-1.6406 1.8164-2.3164 4.3047-1.8164 6.6992 1.1211 2.1992 3.5625 3.3984 5.9922 2.9414 6.8633 0.82031 13.703 1.8477 20.551 2.793-8.3711 4.6562-17.195-1.5078-25.539 2.0039 6.1289 17.586 21.121 22.199 35.363 11.645 5.8398-4.3242 8.6484-10.77 13.961-16.371zm-9.3516-132.09c-3.2109 0.25-6.3047-1.2578-8.0859-3.9453-3.957-3.6797-8.9844-6.0039-14.355-6.6367-2.3672-0.27734-4.168 0.019531-4.457 3.0859v0.003906c-0.074219 4.2539 1.1758 8.4297 3.5781 11.941 2.4023 3.5156 5.8359 6.1992 9.8281 7.6758 8.8398 2.9531 16.938-0.66406 25.352-1.8672 3.8242-0.54688 4.4883-2.3516 3.2031-5.4609-2.25-5.4609-3.8086-11.145-5.6406-16.742-0.92188-4.3438-4.1094-7.8555-8.3477-9.1875-8.6953-1.6211-17.676 0.48828-24.738 5.8125 9.6406 1.6875 18.18 7.2148 23.664 15.32zm-92.84-79.812c8.375-4.2461 14.543-11.855 16.961-20.922 2.4219-9.0703 0.86328-18.742-4.2852-26.59-6.6836 5.3672-13.574 10.422-19.898 16.105-3.9453 3.7148-6.207 8.8828-6.2578 14.305-0.050782 5.4219 2.1094 10.629 5.9883 14.418 3.043 2.4297 4.2773 2.1953 5.8008-1.4609 1.6484-3.957 2.9648-8.0547 4.6328-12.008v0.003906c0.95703-3.5195 3.6328-6.3086 7.1055-7.4141-3.8906 7.6094-7.2461 15.484-10.047 23.562zm-121.3 136.56c-0.097656 8.9844 2.625 12.516 11.762 16.625 2.6211 1.4141 5.8477 1.0195 8.0508-0.98047 8.9727-6.6641 11.375-16.41 12.738-26.68 0.24609-0.92969 0.0625-1.9219-0.5-2.7031-0.5625-0.77734-1.4414-1.2695-2.3984-1.3359-4.2344-0.89453-8-3.3008-10.582-6.7695-0.85938-1.2188-2.2344-1.9688-3.7227-2.0312-1.4883-0.0625-2.918 0.57031-3.875 1.7109-7.3008 4.9961-11.609 13.32-11.473 22.164zm59.414-47.613c3.3438 3.8047 4.457 9.0859 2.9258 13.918-0.62109 1.0625-0.60156 2.3789 0.050781 3.4219 0.65625 1.043 1.832 1.6328 3.0586 1.5391 1.5039 0.50781 2.9648 1.1406 4.3633 1.8984 4.5547 1.6406 9.5469 1.6328 14.094-0.03125 4.5508-1.6602 8.3711-4.8672 10.797-9.0625 2.582-4.1914 2.7109-9.4531 0.33984-13.77-2.375-4.3164-6.8828-7.0234-11.809-7.0859-4.5547-0.47656-9.1328 0.67578-12.918 3.25-3.2539 2.6094-6.9453 4.6133-10.902 5.9219zm8.4922 43.551h-0.003906c0.054687-6.1719-1.6328-12.234-4.8633-17.496-2.1562-3.7539-3.582-4.0312-6.8594-1.0859-4.3945 4.6992-9.9844 8.1133-16.168 9.8828-0.8125 0.12109-1.543 0.56641-2.0234 1.2344-0.48047 0.66797-0.66797 1.5-0.51953 2.3086 1.3672 9.0664 3.1836 17.984 11.797 23.414h-0.003906c1.9961 1.6484 4.5859 2.3828 7.1484 2.0312 2.5625-0.35156 4.8594-1.7617 6.3359-3.8828 3.7031-4.6367 5.543-10.488 5.1562-16.406zm-76.312-61.871c-0.058593 10.164 3.8164 15.688 11.871 18.445v-0.003906c2.3516 0.45312 4.6406 1.1992 6.8047 2.2266 0.93359 0.84375 2.2539 1.1094 3.4375 0.69141 1.1875-0.41797 2.0469-1.457 2.2383-2.6992 1.5586-4.2734 4.3672-7.9805 8.0625-10.633 0.70312-0.41797 1.1641-1.1367 1.25-1.9492 0.085937-0.80859-0.21484-1.6133-0.80859-2.1641-3.3555-5.1133-7.2305-9.8633-11.562-14.176-9.8281-7.8164-16.332-4.2773-20.496 5.6367-0.51172 1.4883-0.77734 3.0508-0.79688 4.625zm240.93-124.63c-2.9727-1.3047-4.9258-2.1094-6.8281-3.0195-1.2148-0.58203-2.5117-1.3984-1.3008-2.9414 0.37109-0.39844 0.88672-0.63672 1.4336-0.65234s1.0742 0.19141 1.4688 0.56641c1.5039 1.1133 2.8984 2.3711 4.3672 3.5312 0.50391 0.64453 1.2656 1.0391 2.082 1.0781 0.81641 0.042969 1.6133-0.27344 2.1758-0.86328 1.1055-1.3438-0.26172-2.4336-1.2148-3.3008-3.1641-2.875-6.418-5.6523-9.5625-8.5508-2.0508-1.7656-4.7383-2.6133-7.4336-2.3516-8.0625 2.0664-14.645 7.8711-17.707 15.609-0.17969 1.3281-0.085938 2.6797 0.27734 3.9727 1.7188 4.0781 4.6328 7.543 8.3594 9.9297 3.7305 2.3906 8.0898 3.5977 12.516 3.457 1.6523 0.16406 3.1602-0.95312 3.4805-2.582 1.4258-5.2148 4.1406-9.9883 7.8867-13.883zm-195.51 129.24c6.8359 0.015625 7.3359-0.38672 9.5977-6.5234l-0.003906-0.003906c1.2734-4.0977 2.0078-8.3438 2.1914-12.633 0.52734-3.582-0.09375-7.2422-1.7773-10.449-1.6836-3.2031-4.3398-5.793-7.5859-7.3945-2.7695-1.75-6.1953-2.1211-9.2734-1.0078-3.082 1.1133-5.4727 3.5898-6.4805 6.707-4.8008 9.5 0.88672 22.902 5.6211 28.531v0.003906c1.918 2.1914 4.832 3.2383 7.7109 2.7695zm41.508 86.977c-4.1875-1.2227-8.6797-0.83984-12.602 1.0625-3.9258 1.9062-7 5.1992-8.6328 9.2461-1.6719 6.4609-2.9688 13.02-3.8828 19.633-0.21094 0.76953-0.074219 1.5898 0.37109 2.2539 0.44531 0.66016 1.1562 1.0977 1.9492 1.1953 4.0039 1.1875 8.2773 1.1406 12.254-0.14062 3.9805-1.2812 7.4766-3.7344 10.039-7.0391 2.2891-2.8164 3.6602-6.2695 3.9258-9.8906 0.26562-3.6211-0.58594-7.2383-2.4453-10.359-3.8672 1.332-4.2383 7.1523-9.6289 7.8203 1.1094-6.2422 6.5508-8.9883 8.6523-13.781zm14.781-258.14c-1.9297 3.7383-5.8945 5.9688-10.09 5.6797-3.3555-0.16406-2.7305 2.5547-2.8711 4.5781-0.13672 1.9258-0.18359 4.0156 2.4492 4.168 9.3711 0.54688 18.703 1.3125 26.578-5.7617h-0.003907c2.8125-1.8906 4.6602-4.9102 5.0625-8.2695 0.40234-3.3633-0.67969-6.7344-2.9648-9.2344-4.3359-5.7109-5.6719-6.2148-12.059-3.75v0.003906c-6.3086 2.9062-12.352 6.3594-18.062 10.312-1.125 0.74219-1.5625 2.1836-1.0352 3.4219 0.53125 1.2422 1.8711 1.9258 3.1875 1.625 3.2812-0.875 6.5391-1.8438 9.8086-2.7734zm-87.344 24.895c6.2812 0.41406 12.41-2.0391 16.668-6.668 2.832-3.0234-0.80078-6.3906-0.3125-9.6641 0.042969-0.80469 0-1.6094-0.13672-2.4062-0.10547-2.4961-1.8672-4.6172-4.3008-5.1797-1.7852-0.57031-3.5508-1.2109-5.293-1.8945-11.738-4.5859-20.816 3.6211-24.152 12.363l-0.003907 0.003906c-1.2031 2.2188-0.48437 4.9922 1.6445 6.3477 4.8242 3.3047 10.207 5.707 15.887 7.0977zm21.078-3.8086c-4.5586 3.0117-8.7031 5.5-12.562 8.3672l0.003906-0.003907c-4.6328 2.8359-7.9453 7.3984-9.2031 12.684-0.53516 2.793 0.23828 5.6797 2.0938 7.8359 1.8555 2.1602 4.5938 3.3555 7.4375 3.2461 4.8008-0.37891 9.4062-2.0703 13.316-4.8828 3.9102-2.8164 6.9727-6.6484 8.8555-11.082 1.1523-3.4883 2.4023-7.0977-2.8047-9.0078-2.9102-1.7852-5.3555-4.2422-7.1328-7.1602zm206.56 80.84c0.66797-4.8008 1.7891-9.5234 3.3516-14.113 0.5-1.2656 0.15625-2.7109-0.86328-3.6172-1.3906-0.91797-3.2539-0.58203-4.2344 0.76172-2.8789 2.418-5.0391 5.582-6.2344 9.1445-2.3359 4.625-2.4609 10.055-0.33984 14.777 2.125 4.7227 6.2695 8.2383 11.277 9.5547 1.4453 0.76172 3.1406 0.89844 4.6914 0.38281s2.8281-1.6406 3.5312-3.1133c3.5273-7.5 5.8828-15.496 6.9961-23.711 0.26172-0.62109 0.24219-1.3281-0.050781-1.9375-0.28906-0.60938-0.82812-1.0664-1.4805-1.2539-0.79297-0.18359-1.625-0.007813-2.2773 0.48047-0.64844 0.48828-1.0547 1.2383-1.1016 2.0469-0.47266 3.7109-1.8633 7.2422-4.0469 10.277-2.0586-4.7539 3.3398-9.4336-0.49609-13.961h0.003906c-2.3711 1.4609-4.0664 3.8047-4.7148 6.5117-0.33594 2.9961-1.7656 5.7617-4.0117 7.7695zm30.473-18.645c1.3906 3.0195 3.4648 5.668 6.0586 7.7461 0.85156 0.92578 2.2812 1.9453 1.0859 3.3516-1.3125 1.5391-2.4297 0.10156-3.2578-0.79297-1.6406-2.125-3.7031-3.8828-6.0586-5.168-1.0625-0.83594-2.4922-1.0469-3.7539-0.55469-0.94141 0.96484-1.1953 2.4062-0.64453 3.6367 1.2266 4.2461 3.7188 8.0156 7.1484 10.801 3.4297 2.7852 7.6289 4.4531 12.035 4.7812 1.8867-0.085938 3.6758-0.85938 5.0312-2.1719 2.4883-2.0938 4.3086-4.8672 5.2422-7.9844 0.93359-3.1133 0.94141-6.4336 0.015625-9.5508-1.4336-5.793-5.5703-10.539-11.117-12.75-1.6328-1.1016-3.832-0.80469-5.1172 0.69141-1.5273 1.6016-1.6797 4.0703-0.35938 5.8438 1.5742 1.8711 2.5625 4.1641 2.8359 6.5938-1.7344-0.29688-3.2461-1.3555-4.125-2.8828-1.0859-1.6523-3.1797-2.3125-5.0195-1.5898zm-185.52 71.898c0.25391-2.4648-0.67188-4.9023-2.4961-6.5781-1.8242-1.6758-4.332-2.3945-6.7656-1.9336-10.055 0.37109-22.039 15.516-20.16 25.473 0.80859 4.2852 7.1211 9.3477 10.281 8.2461 10.059-4.8398 17.18-14.219 19.141-25.207zm205.47-94.098c-2.0078 1.7656-4.6875 2.5664-7.3359 2.1875-1.3438-0.054688-2.5352 0.87109-2.8086 2.1875-0.28906 0.76953-0.18359 1.6367 0.28516 2.3125 0.46484 0.67969 1.2344 1.0859 2.0586 1.0938 7.4961 2.0586 15.453 1.6914 22.727-1.0586 1.2305-0.55078 2.3359-1.3398 3.2539-2.3242 2.3789-2.2344 3.6523-5.3984 3.4961-8.6562-0.16016-3.2578-1.7422-6.2812-4.3242-8.2734-3.8555-2.3398-8.3711-3.3555-12.859-2.8906-4.4844 0.46484-8.6953 2.3828-11.992 5.4609 3.0078 0.53516 6.1758-1.5898 8.4766 1.1992-3.2773 3.4453-9.4297 1.6211-12.273 6.7227 3.9023 1.6836 7.9336-1.0156 11.297 2.0391zm-227.29-23.469c1.0508 0.58984 1.5703 1.8164 1.2578 2.9805-0.13672 0.82031 0.1875 1.6445 0.84375 2.1523 0.65625 0.50781 1.5352 0.61328 2.293 0.27734 1.8516-0.31641 1.3672-2.0078 1.3359-3.2031 0.49219-2.0977-0.14062-4.2969-1.6719-5.8125s-3.7383-2.125-5.832-1.6094c-1.3359-0.035156-2.6719-0.19531-4.0078-0.17969-7.3594 0.085938-10.199 2.4375-10.844 9.668h0.003906c-0.39453 4.8008-0.48047 9.625-0.26562 14.438-0.48438 4.8125 2.9883 9.1211 7.7969 9.6641 4.2773 1.5 8.9727-0.64844 10.645-4.8594 2.9258-5.082 3.6133-11.598 0.13281-13.262-6.7148-3.207-3.4453-6.3906-1.6875-10.254zm161.28 24.949c-4.4297 0.13281-8.7109 1.6484-12.238 4.332-3.5312 2.6836-6.1328 6.4023-7.4492 10.637-1.0742 1.8906-1.3086 4.1445-0.64453 6.2148 0.66406 2.0703 2.168 3.7695 4.1445 4.6797 4.0234 2.082 8.6406 2.7227 13.078 1.8086 4.4375-0.91797 8.4297-3.3281 11.297-6.8359 1.5859-2.0234 4.4258-4.2617 2.4922-6.9844-2.1719-3.0625-4.6797 0.44531-7.0859 0.71484-2.2305 0.24609-4.9844 4.2266-6.0898 1.543-1.6055-3.8867 3.0586-3.7461 5.5586-4.6953h0.003906c0.25-0.097656 0.51562-0.16016 0.78125-0.19141 3.6953-0.38281 3.8984-2.3008 3.0625-5.5352-1.1094-4.2969-3.1562-6.5391-6.9102-5.6875zm-122.85-29.23c-0.47656-3.8633-2.2852-7.4414-5.1094-10.125-2.8242-2.6797-6.4961-4.293-10.379-4.5664-6.0352 3.1211-10.891 8.1211-13.828 14.246-0.054687 4.9883 10.012 15.328 14.758 15.16h0.003906c3.7461-0.41016 7.2344-2.0977 9.8867-4.7773 2.6484-2.6758 4.2969-6.1875 4.668-9.9375zm181.25 5.4805c-2.1484 1.9961-4.3203 3.9648-6.4297 6v0.003907c-0.68359 0.48047-0.91797 1.3828-0.55469 2.1367 0.24219 0.47656 0.69141 0.8125 1.2148 0.91406 0.52344 0.10156 1.0664-0.042969 1.4688-0.39453 6.6133-3.6172 12.289-8.7383 16.562-14.949 2.7734-3.4688 3.0273-8.3164 0.63672-12.059-3.6289-3.75-9.1445-4.9727-14.02-3.1055-7.1016 3.957-12.461 10.43-15.023 18.141-0.99219 2.0352-0.26172 4.4922 1.6797 5.6562 1.7344 1.3047 4.1055 1.3789 5.918 0.17969 2.3398-2.0586 5.4648-2.9805 8.5469-2.5195zm-261.86 162.75c0.50781-2.6992-0.125-5.4883-1.7461-7.707-1.625-2.2188-4.0977-3.6602-6.8242-3.9883-5.7305-1.4922-11.695-1.8594-17.562-1.0781-3.9375-0.20703-7.4102 2.5586-8.0898 6.4414-0.66797 4.1133 1.4102 8.1875 5.1367 10.062 2.4102 1.1641 4.8984 2.1719 7.4414 3.0156 2.7617 1.6719 5.957 2.4922 9.1836 2.3555 4.543-0.92188 6.9648-5.8516 11.898-6.1992 0.91016-0.066406 0.65234-1.8438 0.5625-2.9023zm70.594-253.97c0.61719-2.4375-0.42578-4.9922-2.5742-6.3008-2.4414-1.3125-5.4648-0.83594-7.3789 1.1719-4.1992 2.9453-7.5508 6.9414-9.7148 11.59-1.9258 4.9844-3.3633 10.156-5.0039 15.246-0.74609 2.3164-1.8516 4.7148 1.7891 5.7266 3.2617 0.91016 5.8789 5.3125 9.9766 1.2969 7.3867-7.8672 11.93-17.98 12.906-28.73zm165.83 74.402c1.8945 1.4609 2.6211 3.9805 1.7969 6.2227-0.085937 1.8477-0.71875 3.668-0.84375 5.5156-0.085937 1.2305-0.33984 2.9062 1.4023 3.2891l-0.003907 0.003906c0.67188 0.085937 1.3516-0.10547 1.8789-0.52734 0.52734-0.42578 0.85938-1.043 0.92188-1.7188 2.0469-7.25 2.3672-14.883 0.9375-22.281-0.89453-4.043-4.1758-7.1211-8.2695-7.7617-4.7344-0.035156-8.8906 3.1484-10.086 7.7305-1.6094 6-1.2109 12.359 1.1289 18.113 0.64062 1.7578 0.21094 4.3984 3.9062 4.5586-0.28516-3.6016-0.56641-7.0352-0.82422-10.469v-0.003906c-0.29297-1.082 0.33594-2.1992 1.4141-2.5156 1.9766-0.39062 2.0352 1.2227 2.1016 2.5156 0.12109 2.4141-0.003907 4.8398 0.19141 7.2422 0.11328 1.3867-0.39453 3.4844 2.3086 3.2148 2.0859-3.9609-0.10547-8.5547 2.0391-13.129zm-242.15-49.52c-3.1406-0.011718-6.0547 1.6484-7.6445 4.3555-1.5938 2.707-1.6289 6.0586-0.089844 8.8008 2.207 4.0156 5.832 7.0664 10.168 8.5586 8.8867 3.0586 11.617 2.2578 16.035-5.9414h-0.003906c0.69141-0.80078 0.97266-1.8711 0.76953-2.9062-4.2227-6.8906-11.25-11.594-19.234-12.867zm10.074-6.4531c-1.3672 4.2188 2.2852 6.2344 5.0664 8.6328 2.8047 2.418 4.5781 6.918 8.2109 7.1914 3.6328 0.27344 5.3008-4.8516 8.9805-6.0664v0.003906c1.3125-0.41016 2.2461-1.582 2.3516-2.957 0.027344-4.6016-1.9375-8.9883-5.3828-12.039-3.4453-3.0469-8.043-4.4609-12.605-3.8711-4.3008 0.75391-7.2305 4.7812-6.6211 9.1055zm37.133-2.0234c0.8125-7.4141 3.2734-13.309 0.44922-19.449v0.003907c-0.91797-2.9102-3.7188-4.8047-6.7617-4.5781-3.043 0.22656-5.5312 2.5156-6.0117 5.5312-1.1797 6.4648-0.65625 13.129 1.5234 19.328 3.7266-7.6914 5.5625-7.9766 10.801-0.83203zm-9.3477 49.375c-2.7266-0.39453-5.4805 0.5-7.4531 2.4219-0.20703 4.4531 1.3828 8.8047 4.4102 12.074 2.2812 1.5039 5.1719 1.7383 7.6641 0.61328 2.7969-1.875 1.293-4.6875 0.50781-7.2266-0.37109-1.5469-0.63672-3.1172-0.78906-4.7031-0.003906-1.0586-0.51172-2.0586-1.3672-2.6836-0.85547-0.62891-1.9609-0.8125-2.9727-0.49609zm13.102-19.191c-6.0391 0.23828-7.2305 1.0156-7.1016 4.6328 0.33594 9.4336 0.99609 10.891 4.8086 10.59 6.1914-0.48828 8.2695-2.3242 8.0977-7.1602-0.24219-6.75-1.3125-8.2383-5.8047-8.0625zm191.77 72.406c-0.5625-2.5859-1.1211-5.1758-1.6836-7.7617v0.003906c-0.23828-1.3516-1.4766-2.2891-2.8438-2.1484-2.5-0.42969-5.0352 0.52344-6.6289 2.5-1.5938 1.9727-1.9922 4.6562-1.043 7.0078 0.49219 1.7852 0.85938 3.6133 1.4609 5.3555h0.003906c0.26562 0.72266 0.80078 1.3203 1.4922 1.6602 4.1836 0.019531 7.9102-2.6484 9.2422-6.6172zm-200.6 123.18c-9.0156 5.5039-9.2812 6.4531-4.6094 14.691 0.39453 0.69531 0.73437 1.4258 1.1445 2.1133h0.003906c0.39062 1.0273 1.2617 1.7969 2.3281 2.0586 1.0664 0.25781 2.1953-0.023437 3.0156-0.75391 3.3711-2.2539 5.8203-6.8398 4.0625-8.2383-3.1758-2.5195-3.4023-6.5664-5.9453-9.8711zm16.07-168.7c-0.32422-2.7227-0.57031-4.8125-0.82422-6.9062h0.003906c-0.015624-1.0781-0.76562-2.0078-1.8164-2.25-2.3359-0.64453-4.8438-0.12109-6.7266 1.4023-1.8867 1.5234-2.9219 3.8633-2.7812 6.2852-0.050782 2.125 0.37109 4.2344 1.2383 6.1758 0.26953 0.69141 0.72656 1.293 1.3242 1.7383 2.832-0.4375 5.6094-1.1719 8.2852-2.1953 0.75781-0.37109 1.3242-1.0391 1.5703-1.8438 0.24609-0.80469 0.14844-1.6758-0.27344-2.4062zm-16.859-17.973c-0.12109-7.0938-0.72656-7.9414-5.793-8.1602-6.1836-0.26563-6.7422 0.35937-6.2578 6.8203 0.14062 1.875 0.20703 3.7578 0.28906 5.6367h-0.003906c-0.085937 1.0898 0.48047 2.125 1.4453 2.6406 2.3086 1.0195 4.9766 0.78125 7.0703-0.625s3.3203-3.7891 3.25-6.3125zm21.176 15.32c9.3398-10.566 6.4414-13.938 3.1211-22.703-0.43359-1.6289-2.0898-2.6133-3.7266-2.2188-0.67187-0.046875-1.3359 0.18359-1.8398 0.63281-0.5 0.44922-0.80078 1.0859-0.82812 1.7578 0.13281 2.9219 0.75781 5.8359 0.70703 8.7422-0.070313 4.0195 4.1328 3.0469 6.1719 4.7852-5.8906 4.1211-5.8906 4.1211-3.6094 9.0039zm-36.605-22.039c-7.4961 0.89062-8.5469 2.043-9.1445 9.6641-0.36328 4.6172 1.543 6.2383 6.1094 5.4141l-0.007812-0.003907c1.0664 0.03125 2.0898-0.42187 2.7812-1.2344s0.97656-1.8945 0.77734-2.9414c-0.29297-3.6172-0.35547-7.2539-0.51953-10.898zm203.3 58.625c10.465-2.3867 11.805-4.3398 9.1602-11.844v-0.003906c-0.089844-0.94141-0.66406-1.7656-1.5195-2.1719-0.85156-0.40625-1.8555-0.33203-2.6406 0.19141-5.1484 1.9766-6.1602 4.6016-5 13.828zm-187.18-71.137c0 7.082 0.99609 7.9258 8.0469 6.8008 5.4258-0.86328 6.7578-3.9805 3.3516-8.1523-2.6523-2.1016-5.7148-3.6367-8.9883-4.5078-0.98828-0.53125-1.9258 0.80469-2.1367 1.8633v0.003907c-0.17969 1.3242-0.27344 2.6562-0.27344 3.9922zm-4.9414-5.7695c-1.9141 0.097656-3.7617 0.73828-5.3281 1.8398-2.6914 2.2617-3.6797 5.9688-2.4688 9.2695 0.33594 3.3711 4.2109 2.1211 6.7148 2.1602 1.082 0.15234 2.1641-0.28125 2.8398-1.1406s0.83984-2.0117 0.4375-3.0312c-0.12891-3.1445-0.875-6.2383-2.1953-9.0977zm-6.1445 220.89c-1.4258 1.1797-2.3047 1.7969-3.0508 2.5469-1.4648 1.4688-3.832 2.7695-2.5312 5.2969 0.75 2.8672 2.3516 5.4414 4.5977 7.3789 1.75 0.86328 3.8555 0.54297 5.2695-0.80469 1.0742-0.89453 1.3477-2.4297 0.64844-3.6367-1.082-3.8281-2.7422-7.4648-4.9336-10.781zm213.54-140c0.12891 5.4297 1.3047 7.6797 3.8906 7.457h-0.003906c3.2656 0.16797 6.1758-2.043 6.8906-5.2305-0.32812-4.9297-2.3438-7.8164-5.3242-7.625-1.4648-0.10156-2.9023 0.43359-3.9492 1.4648-1.043 1.0352-1.5938 2.4688-1.5039 3.9336zm-0.23438 14.363c-9.2773 3.7578-10.355 4.7695-9.125 8.0391 2.1602 3.207 6.4883 4.1016 9.7422 2.0195 4.8906-3.2227-0.24219-6.207-0.61719-10.059zm-209.49 106.69c-2.8555 0.21094-5.2656 2.207-6.0039 4.9727-0.24219 2.7266 1.3594 5.2812 3.9219 6.25 3.4609-1.1523 6.2227-3.8008 7.5234-7.207-0.15234-1.2734-0.82422-2.4219-1.8555-3.1797-1.0273-0.76172-2.3281-1.0625-3.5859-0.83594zm-19.75 15.43c-2.5781 0.52734-4.6758 2.4023-5.4805 4.9102 0.20312 3.2383 1.9688 6.1758 4.7305 7.875 2.6875-0.36328 4.8906-2.3086 5.5781-4.9297-0.15625-3.2734-1.9766-6.2383-4.8281-7.8555zm8.0273 4.793c6.2148-4.1719 6.9766-6.9258 3.4844-11.961v0.003906c-0.42188-0.99609-1.4766-1.5664-2.5391-1.3789-3.3008 1.1797-5.125 4.7148-4.168 8.0859 0.45703 2.0625 1.5898 3.9141 3.2227 5.2539zm203.26-138c-8.3359 0.57422-8.3008 4.3164-4.4844 9.5039l0.003906 0.003906c0.45703 0.65234 0.85547 1.3438 1.1875 2.0703 0.21484 0.92188 0.84375 1.6992 1.7031 2.1016 0.85938 0.40234 1.8555 0.39062 2.7031-0.03125 0.72266-0.35547 1.2695-0.98438 1.5234-1.7461 0.25391-0.76172 0.19141-1.5938-0.17187-2.3086-0.78125-3.0703-1.5742-6.1406-2.4609-9.5898zm24.832 17.996 0.003906 0.003906c1.6406-0.51953 3.0742-1.5508 4.0859-2.9492 0.83984-1.0195 1.5117-2.1797 2.2539-3.2773h-0.003906c1.2109-1.3594 1.2227-3.4062 0.027343-4.7812-1.1914-1.375-3.2227-1.6523-4.7383-0.64453-5.1641 1.4688-5.5664 2.3125-3.582 7.8242v0.003906c0.16406 1.4688 0.85938 2.832 1.957 3.8242zm-0.42578-32.363c-0.76172-3.2188-3.5078-5.5859-6.8047-5.8711-1.1055-0.085938-2.0859 0.71484-2.2227 1.8203-0.52734 2.9102 1.1445 5.7695 3.9375 6.7344 2.1289 0.49609 4.2969-0.64844 5.0898-2.6836zm-26.73 0.44141v-0.003907c-3.3633 2.6562-5.0938 6.8789-4.5664 11.133 7.1367-2.2227 7.1367-2.2227 4.5664-11.129zm-196.71-23.797c0.39844-2.4062 0.28125-4.8672-0.33984-7.2227 0.039062-0.68359-0.23828-1.3438-0.75-1.793-0.51172-0.44922-1.2031-0.64062-1.8711-0.51953-0.82422-0.015626-1.6094 0.34375-2.1328 0.98047-0.52344 0.63672-0.72656 1.4766-0.55469 2.2812 0.30469 3.1016 2.5938 5.6445 5.6484 6.2734zm-8.7617 161.39c2.1406-0.1875 3.9336-1.6914 4.4922-3.7656-0.23047-2.0742-1.9219-3.6836-4.0039-3.8125-1.9453-0.21094-2.668 2.3203-3.0156 4.0742h-0.003906c-0.15234 0.80469 0.03125 1.6328 0.51172 2.2969 0.47656 0.66406 1.207 1.1016 2.0195 1.207zm238.52-134.77c-0.92188 3.7461 0.36719 7.6914 3.3242 10.164 0.81641-3.7383-0.45312-7.6289-3.3242-10.164zm-247.62 142.54c4.7344-2.1641 6.1445-4.4805 3.2969-8.8164-2.5117 2.1992-3.75 5.5078-3.2969 8.8164zm24.18-19.027c-3.2852 0.73047-6.0273-1.3516-7.2109 2.2344l-0.003906-0.003907c-0.12891 0.51562 0 1.0625 0.35156 1.4648 2.7539 1.5273 4.1875-0.47266 6.8594-3.6992zm12.668 12.129c-0.51562 3.168 0.92969 6.3359 3.6641 8.0234 0.96094-3.2148-0.60547-6.6445-3.6641-8.0234zm-23.277 24.734c-0.14844-1.0859-1.0859-1.8906-2.1836-1.8672-0.53906-0.035156-1.0586 0.19922-1.3867 0.62891-0.33203 0.42578-0.42578 0.99219-0.25391 1.5039 0.16406 0.50781 0.52344 0.92969 1 1.1719 0.47656 0.24219 1.0312 0.28516 1.5391 0.11328 0.39453 0.007813 0.76953-0.16016 1.0195-0.46484 0.25-0.30469 0.34766-0.70312 0.26562-1.0859zm0.34766-222.62v-0.003906c-1.3086 0.011719-2.418 0.97266-2.6133 2.2695-0.089844 0.71484 0.69531 1.1055 1.5547 1.0117 1.3281-0.14453 2.5781-0.41797 2.5234-2.0742h0.003906c0.035156-0.37891-0.12109-0.75391-0.41406-0.99609-0.29687-0.23828-0.69141-0.32031-1.0547-0.21094z"/>
  <path d="m243.54 333.88c-1.2617 3.7266-3.0938 7.2305-5.4375 10.391-0.26953 0.45703-0.71484 0.78516-1.2305 0.91016-0.51563 0.125-1.0586 0.039062-1.5117-0.23828-1.2383-0.76172-0.57422-1.9844-0.070313-2.7734v-0.003907c1.6953-3.6406 4.6133-6.5703 8.25-8.2852z"/>
  <path d="m247 340.92c0.28516 3.1133-0.96875 6.1719-3.3555 8.1875-0.28125 0.46094-0.74219 0.78125-1.2695 0.88672-0.53125 0.10156-1.0781-0.027344-1.5078-0.34766-1.4414-1.1641-0.73438-2.3672 0.29688-3.3555 1.9102-1.8281 3.8867-3.5859 5.8359-5.3711z"/>
  <path d="m304.39 310.74c-1.7422 1.3086-3.9219 1.8945-6.0859 1.6328-0.66797 0.13672-1.3594-0.039062-1.8789-0.48438-0.51562-0.44141-0.80078-1.0977-0.76562-1.7773 0.058594-0.54297 0.34375-1.0391 0.78516-1.3594 0.44141-0.32422 1-0.44141 1.5352-0.33203 2.3945-0.41016 4.832 0.46875 6.4102 2.3203z"/>
  <path d="m293.72 306.04c2.2031-4.0469 5.4141-3.2031 9.8047-2.4883v0.003906c-2.3438 2.9258-6.3477 3.9414-9.8047 2.4844z"/>
  <path d="m280.38 333.18c1.8906 4.0938 2.918 8.5352 3.0195 13.043-4.543-4.0586-4.9023-5.4805-3.0195-13.043z"/>
  <path d="m271.79 337.64c0.72656 0.0625 1.4375 0.22266 2.1172 0.48047 2.543 3.2461 3.793 7.3203 3.5195 11.434-0.39844 0.27344-0.89453 0.375-1.3672 0.27734-2.2891-3.707-3.7422-7.8672-4.2695-12.191z"/>
  <path d="m224.46 284.77c3.8164 0.54297 7.1719 2.8008 9.1172 6.125-3.9844-0.050782-7.5625-2.4531-9.1172-6.125z"/>
  <path d="m241.12 286.84c-0.65625 0.26562-1.3594 0.39062-2.0664 0.36719-2.793-0.92969-5.0977-2.9375-6.4062-5.5742-0.03125-0.51172 0.20312-1.0039 0.61328-1.3086 3.6211-0.42969 4.2344 3.4453 6.668 4.7852h-0.003906c0.49609 0.50391 0.89844 1.0898 1.1953 1.7305z"/>
  <path d="m448.31 161.12c-3.4414 0.82812-7.0742 0.058594-9.8867-2.0977-0.52344-0.51563-0.73828-1.2656-0.5625-1.9805 0.42969-0.60156 1.1445-0.93359 1.8828-0.88281 2.4883 1.2812 4.8633 2.7773 8.5664 4.9609z"/>
  <path d="m253.64 266.32c0.54688-0.125 1.1172-0.023437 1.5859 0.28125 0.46484 0.30859 0.78906 0.79297 0.89453 1.3398 1.2969 4.3477 2.5703 8.6992 3.8203 13.059l-0.003906 0.003906c0.125 0.375 0.082032 0.78125-0.11328 1.125-0.19531 0.33984-0.52344 0.58594-0.91016 0.67188-0.38281 0.15234-0.80859 0.14453-1.1836-0.019531s-0.67188-0.46875-0.82031-0.85156c-1.6641-4.7539-3.2578-9.5391-4.7188-14.359-0.22656-0.73828 0.73047-1.2344 1.4492-1.25z"/>
  <path d="m265.58 281.36c-3.6523-3.5391-5.3555-8.6328-4.5703-13.66 0.007812-0.80469 0.61328-1.4805 1.418-1.5703 0.38672-0.097656 0.80078-0.015625 1.1211 0.22656 0.32422 0.23828 0.51953 0.61328 0.53516 1.0117 0.53516 4.3477 0.94531 8.707 1.4961 13.992z"/>
  <path d="m317.27 123.43c-0.375 0.72656-0.88672 1.3711-1.5 1.9062-1.2617 1.0469-3.1211 0.92969-4.2422-0.26953-0.30859-0.40625-0.40234-0.9375-0.25391-1.4258 0.98047-0.89453 2.3555-1.2227 3.6367-0.86328 0.80078 0.15625 1.5898 0.375 2.3594 0.65234z"/>
  <path d="m241.35 127.01c-3.3516 1.3125-6.6641 2.7305-10.07 3.8828l0.003906 0.003907c-0.57031 0.34766-1.2734 0.40625-1.8906 0.15234-0.62109-0.25781-1.0781-0.78906-1.2344-1.4414-0.24219-1.3281 1.0039-1.7148 2.0312-1.9375 3.5391-0.76562 7.0938-1.4688 10.641-2.1953z"/>
  <path d="m228.93 121.54c2.8086-1.4023 6.2227-0.47656 7.9297 2.1602-2.7891 1.5469-6.3047 0.58984-7.9297-2.1602z"/>
  <path d="m241.61 152.18c2.3945-3.3086 5.0547-6.4141 7.957-9.2852-0.94141 6.2773-1.3672 6.7461-7.957 9.2852z"/>
  <path d="m249 157.64c-0.10547-3.293 2.3008-4.3867 5.0273-6.9062h-0.003907c0.10938 3.1836-1.9648 6.0312-5.0234 6.9062z"/>
  <path d="m287.19 275.6c-1.7344 3.3047-4.2969 6.1055-7.4336 8.1289 0.30859-5.8398 1.1602-6.8281 7.4336-8.1289z"/>
  <path d="m290.41 282.91c-1.168 2.5352-3.1797 4.582-5.6953 5.793-0.89844 0.65625-2.1602 0.5-2.8672-0.35938-0.36719-0.39844-0.49219-0.96094-0.33203-1.4766 0.16406-0.51563 0.58984-0.90234 1.1211-1.0156 2.0586-2.0391 4.8828-3.1055 7.7734-2.9414z"/>
  <path d="m271.68 151.67c2.6641 4.9492 0.88672 8.8359 1.6094 12.395v0.003906c-0.41016 0.23047-0.875 0.35156-1.3477 0.35547-0.48438-0.089843-0.89844-0.39844-1.1172-0.83984-0.875-3.9688-0.57812-8.1094 0.85547-11.914z"/>
  <path d="m447.7 180.38c-3.3906 2.6562-5.7305 4.582-8.1836 6.3516-0.33984 0.19922-0.75 0.24219-1.125 0.125-0.375-0.12109-0.68359-0.39453-0.84766-0.75391-0.24609-0.42578-0.28906-0.94531-0.11719-1.4102 2.1602-3.4766 6.2812-5.207 10.273-4.3125z"/>
  <path d="m299.83 95.395c3.7969-1.2148 5.9805-5.2031 10.145-5.9414v0.003906c-1.6914 3.8633-4.9766 6.8086-9.0039 8.0703-1.1445 0.10156-1.3633-1.3047-0.87891-2.4258z"/>
  <path d="m314.08 97.34c-1.0664 2.6758-3.2617 4.7383-5.9961 5.6367-0.47656 0.24219-1.0352 0.26172-1.5273 0.058594-0.49219-0.20312-0.875-0.60938-1.0469-1.1133-0.66797-1.3398 0.53906-1.9805 1.375-2.3047 2.1016-0.82813 4.3086-1.3906 7.1953-2.2773z"/>
  <path d="m302.42 151.05c-2.3867 0.26562-4.7734-0.49219-6.5703-2.0859-1.2148-0.45703-2.9453-0.76172-2.4023-2.5039 0.68359-2.1875 2.6289-1.3125 4.0078-0.87891v0.003906c2.1953 1.2422 3.9375 3.1602 4.9648 5.4648z"/>
  <path d="m308.08 147.39c-3.1992-0.41797-5.832-2.7227-6.6602-5.8398 0.26172-0.41016 0.69531-0.67578 1.1797-0.71875 3.0547 0.76953 5.2656 3.4141 5.4805 6.5586z"/>
  <path d="m498.39 144.82c-2.2969 4.4336-6.1953 7.8281-10.902 9.4883 1.7148-4.8594 5.8516-8.4609 10.902-9.4883z"/>
  <path d="m226.02 314.18c-1.2695 1.75-3.457 2.5859-5.5742 2.1289-1.3086 0.10156-2.9492-0.11719-2.7266-1.9727 0.21094-1.7656 1.8242-1.6641 3.0938-1.375 1.8242-0.17578 3.6523 0.25 5.207 1.2188z"/>
  <path d="m227.26 309.6c-0.16797 0.51953-0.55078 0.9375-1.0508 1.1562-0.5 0.21484-1.0664 0.20312-1.5586-0.03125-1.375-0.39844-3.5273-0.23047-2.8438-2.6367 0.35937-1.2656 1.6875-1.1016 2.7109-0.69531 1.1328 0.44922 2.7305 0.44141 2.7422 2.207z"/>
  <path d="m294.41 86.902c-2.0156-2.5938 1.2969-4.8633-0.28125-7.0625-3.5391 0.5-1.2969 5.4688-5.1836 6.2695 0.17578-5.3711 1.875-10.586 4.8945-15.027 2.2422 1.9805 3.5742 4.7969 3.6836 7.7891 0.10547 2.9883-1.0195 5.8945-3.1133 8.0312z"/>
  <path d="m244.65 98.695c-2.3164 1.1836-1.1875 5.5039-3.0117 5.3711-2.0547-0.15234-6.25 0.37109-6.4023-3.1641 0.6875-2.543 2.6836-4.5234 5.2344-5.1836 1.7461-0.92578 3.2695 0.96875 4.1797 2.9766z"/>
  <path d="m252.65 81.094c1.7578 2.7266 3.5117 5.4492 5.5898 8.6758-6.332-1.5195-6.4883-1.7344-5.5898-8.6758z"/>
  <path d="m262.76 86.492c-0.29297 0.058593-0.59375 0.050781-0.88281-0.015626-2.1289-0.85156-3.4219-3.0234-3.1562-5.2969 0.33594-0.375 0.83594-0.55078 1.332-0.47266 2.082 1.1211 3.1797 3.4727 2.707 5.7852z"/>
 </g>
</svg>
