<?xml version="1.0" encoding="UTF-8"?>
<svg width="700pt" height="700pt" version="1.1" viewBox="0 0 700 700" xmlns="http://www.w3.org/2000/svg" xmlns:xlink="http://www.w3.org/1999/xlink">
 <defs>
  <symbol id="t" overflow="visible">
   <path d="m3.6562-0.21875c-0.1875 0.09375-0.38672 0.16797-0.59375 0.21875-0.19922 0.050781-0.40625 0.078125-0.625 0.078125-0.66797 0-1.1992-0.17969-1.5938-0.54688-0.38672-0.375-0.57812-0.87891-0.57812-1.5156 0-0.64453 0.19141-1.1484 0.57812-1.5156 0.39453-0.375 0.92578-0.5625 1.5938-0.5625 0.21875 0 0.42578 0.027344 0.625 0.078125 0.20703 0.054687 0.40625 0.125 0.59375 0.21875v0.82812c-0.1875-0.125-0.375-0.21875-0.5625-0.28125-0.17969-0.0625-0.37109-0.09375-0.57812-0.09375-0.36719 0-0.65625 0.12109-0.875 0.35938-0.21094 0.23047-0.3125 0.55469-0.3125 0.96875 0 0.40625 0.10156 0.73047 0.3125 0.96875 0.21875 0.23047 0.50781 0.34375 0.875 0.34375 0.20703 0 0.39844-0.023437 0.57812-0.078125 0.1875-0.0625 0.375-0.16016 0.5625-0.29688z"/>
  </symbol>
  <symbol id="d" overflow="visible">
   <path d="m2.6875-2.1719c-0.085938-0.039063-0.16797-0.070313-0.25-0.09375-0.085938-0.019531-0.16797-0.03125-0.25-0.03125-0.25 0-0.44531 0.085937-0.57812 0.25-0.125 0.15625-0.1875 0.38281-0.1875 0.67188v1.375h-0.96875v-2.9844h0.96875v0.48438c0.11328-0.19531 0.25-0.33594 0.40625-0.42188 0.16406-0.09375 0.35938-0.14062 0.57812-0.14062h0.10938c0.039063 0 0.09375 0.007812 0.15625 0.015625z"/>
  </symbol>
  <symbol id="a" overflow="visible">
   <path d="m3.4375-1.5v0.26562h-2.2344c0.03125 0.23047 0.11328 0.40234 0.25 0.51562 0.13281 0.10547 0.32812 0.15625 0.57812 0.15625 0.20703 0 0.41406-0.023438 0.625-0.078125 0.20703-0.0625 0.42188-0.15625 0.64062-0.28125v0.73438c-0.21875 0.09375-0.44531 0.16406-0.67188 0.20312-0.23047 0.039062-0.45312 0.0625-0.67188 0.0625-0.54297 0-0.96484-0.13281-1.2656-0.40625-0.30469-0.28125-0.45312-0.67188-0.45312-1.1719 0-0.47656 0.14453-0.85938 0.4375-1.1406 0.30078-0.28125 0.70703-0.42188 1.2188-0.42188 0.46875 0 0.84375 0.14062 1.125 0.42188s0.42188 0.66406 0.42188 1.1406zm-0.96875-0.32812c0-0.17578-0.058594-0.31641-0.17188-0.42188-0.10547-0.11328-0.24219-0.17188-0.40625-0.17188-0.1875 0-0.33984 0.054687-0.45312 0.15625-0.11719 0.10547-0.1875 0.25-0.21875 0.4375z"/>
  </symbol>
  <symbol id="j" overflow="visible">
   <path d="m1.7969-1.3438c-0.19922 0-0.35156 0.039062-0.45312 0.10938-0.09375 0.0625-0.14062 0.16406-0.14062 0.29688 0 0.11719 0.035156 0.21094 0.10938 0.28125 0.082031 0.0625 0.19531 0.09375 0.34375 0.09375 0.17578 0 0.32812-0.0625 0.45312-0.1875s0.1875-0.28516 0.1875-0.48438v-0.10938zm1.4688-0.35938v1.7031h-0.96875v-0.4375c-0.125 0.17969-0.27344 0.30859-0.4375 0.39062-0.15625 0.082031-0.35156 0.125-0.57812 0.125-0.3125 0-0.57031-0.085938-0.76562-0.26562-0.1875-0.1875-0.28125-0.42188-0.28125-0.70312 0-0.35156 0.11719-0.61328 0.35938-0.78125 0.23828-0.16406 0.61719-0.25 1.1406-0.25h0.5625v-0.0625c0-0.15625-0.0625-0.26562-0.1875-0.32812-0.11719-0.070312-0.29688-0.10938-0.54688-0.10938-0.21094 0-0.40234 0.023437-0.57812 0.0625-0.17969 0.042969-0.33984 0.10156-0.48438 0.17188v-0.71875c0.19531-0.050781 0.39844-0.085938 0.60938-0.10938 0.20703-0.03125 0.41406-0.046875 0.625-0.046875 0.53906 0 0.92969 0.10938 1.1719 0.32812 0.23828 0.21094 0.35938 0.55469 0.35938 1.0312z"/>
  </symbol>
  <symbol id="c" overflow="visible">
   <path d="m1.5-3.8438v0.85938h0.98438v0.67188h-0.98438v1.2812c0 0.13672 0.023438 0.23047 0.078125 0.28125 0.0625 0.042969 0.17578 0.0625 0.34375 0.0625h0.48438v0.6875h-0.8125c-0.38672 0-0.65625-0.078125-0.8125-0.23438s-0.23438-0.42188-0.23438-0.79688v-1.2812h-0.46875v-0.67188h0.46875v-0.85938z"/>
  </symbol>
  <symbol id="i" overflow="visible">
   <path d="m2.5-2.5469v-1.6094h0.95312v4.1562h-0.95312v-0.4375c-0.13672 0.17969-0.28125 0.30859-0.4375 0.39062-0.15625 0.082031-0.33984 0.125-0.54688 0.125-0.375 0-0.68359-0.14453-0.92188-0.4375-0.23047-0.28906-0.34375-0.67188-0.34375-1.1406 0-0.45703 0.11328-0.83203 0.34375-1.125 0.23828-0.28906 0.54688-0.4375 0.92188-0.4375 0.19531 0 0.375 0.042969 0.53125 0.125 0.16406 0.085938 0.31641 0.21484 0.45312 0.39062zm-0.64062 1.9375c0.20703 0 0.36328-0.070313 0.46875-0.21875 0.11328-0.15625 0.17188-0.37891 0.17188-0.67188 0-0.28125-0.058594-0.49219-0.17188-0.64062-0.10547-0.15625-0.26172-0.23438-0.46875-0.23438-0.19922 0-0.35547 0.078125-0.46875 0.23438-0.10547 0.14844-0.15625 0.35938-0.15625 0.64062 0 0.29297 0.050781 0.51562 0.15625 0.67188 0.11328 0.14844 0.26953 0.21875 0.46875 0.21875z"/>
  </symbol>
  <symbol id="h" overflow="visible">
   <path d="m2.0469-0.60938c0.20703 0 0.36328-0.070313 0.46875-0.21875 0.11328-0.15625 0.17188-0.37891 0.17188-0.67188 0-0.28125-0.058594-0.49219-0.17188-0.64062-0.10547-0.15625-0.26172-0.23438-0.46875-0.23438-0.19922 0-0.35547 0.078125-0.46875 0.23438-0.10547 0.14844-0.15625 0.35938-0.15625 0.64062 0 0.29297 0.050781 0.51562 0.15625 0.67188 0.11328 0.14844 0.26953 0.21875 0.46875 0.21875zm-0.625-1.9375c0.125-0.17578 0.26562-0.30469 0.42188-0.39062 0.16406-0.082031 0.35156-0.125 0.5625-0.125 0.36328 0 0.66406 0.14844 0.90625 0.4375 0.23828 0.29297 0.35938 0.66797 0.35938 1.125 0 0.46875-0.12109 0.85156-0.35938 1.1406-0.24219 0.29297-0.54297 0.4375-0.90625 0.4375-0.21094 0-0.39844-0.042969-0.5625-0.125-0.15625-0.082031-0.29688-0.21094-0.42188-0.39062v0.4375h-0.96875v-4.1562h0.96875z"/>
  </symbol>
  <symbol id="g" overflow="visible">
   <path d="m0.0625-2.9844h0.95312l0.8125 2.0156 0.6875-2.0156h0.95312l-1.2656 3.2656c-0.125 0.33203-0.27344 0.56641-0.4375 0.70312-0.16797 0.13281-0.39062 0.20312-0.67188 0.20312h-0.54688v-0.64062h0.29688c0.16406 0 0.28516-0.027344 0.35938-0.078125 0.070313-0.054688 0.12891-0.14062 0.17188-0.26562l0.03125-0.09375z"/>
  </symbol>
  <symbol id="f" overflow="visible">
   <path d="m0.5-3.9844h1.0312v3.5938c0 0.5-0.13672 0.86719-0.40625 1.1094-0.27344 0.25-0.67969 0.375-1.2188 0.375h-0.21875v-0.78125h0.17188c0.20703 0 0.36328-0.0625 0.46875-0.1875 0.11328-0.11719 0.17188-0.28516 0.17188-0.51562z"/>
  </symbol>
  <symbol id="s" overflow="visible">
   <path d="m0.45312-2.9844h0.96875v2.9844h-0.96875zm0-1.1719h0.96875v0.78125h-0.96875z"/>
  </symbol>
  <symbol id="e" overflow="visible">
   <path d="m3.4688-1.8281v1.8281h-0.96875v-1.3906c0-0.25781-0.007812-0.4375-0.015625-0.53125-0.011719-0.10156-0.03125-0.17578-0.0625-0.21875-0.03125-0.0625-0.085937-0.10938-0.15625-0.14062-0.0625-0.039062-0.13281-0.0625-0.20312-0.0625-0.21094 0-0.37109 0.078125-0.48438 0.23438-0.10547 0.15625-0.15625 0.37109-0.15625 0.64062v1.4688h-0.96875v-2.9844h0.96875v0.4375c0.13281-0.17578 0.28516-0.30469 0.45312-0.39062 0.16406-0.082031 0.34375-0.125 0.53125-0.125 0.34375 0 0.60156 0.10938 0.78125 0.32812 0.1875 0.21094 0.28125 0.51172 0.28125 0.90625z"/>
  </symbol>
  <symbol id="b" overflow="visible">
   <path d="m1.875-2.375c-0.21094 0-0.37109 0.078125-0.48438 0.23438-0.10547 0.14844-0.15625 0.35938-0.15625 0.64062 0 0.29297 0.050781 0.51562 0.15625 0.67188 0.11328 0.14844 0.27344 0.21875 0.48438 0.21875 0.20703 0 0.36719-0.070313 0.48438-0.21875 0.11328-0.15625 0.17188-0.37891 0.17188-0.67188 0-0.28125-0.058594-0.49219-0.17188-0.64062-0.11719-0.15625-0.27734-0.23438-0.48438-0.23438zm0-0.6875c0.51953 0 0.92188 0.14062 1.2031 0.42188 0.28906 0.27344 0.4375 0.65234 0.4375 1.1406 0 0.5-0.14844 0.89062-0.4375 1.1719-0.28125 0.27344-0.68359 0.40625-1.2031 0.40625-0.51172 0-0.91406-0.13281-1.2031-0.40625-0.29297-0.28125-0.4375-0.67188-0.4375-1.1719 0-0.48828 0.14453-0.86719 0.4375-1.1406 0.28906-0.28125 0.69141-0.42188 1.2031-0.42188z"/>
  </symbol>
  <symbol id="r" overflow="visible">
   <path d="m2.4219-4.1562v0.625h-0.51562c-0.13672 0-0.23438 0.027344-0.29688 0.078125-0.054687 0.054687-0.078125 0.13672-0.078125 0.25v0.21875h0.82812v0.67188h-0.82812v2.3125h-0.95312v-2.3125h-0.46875v-0.67188h0.46875v-0.21875c0-0.32031 0.085937-0.5625 0.26562-0.71875 0.1875-0.15625 0.47266-0.23438 0.85938-0.23438z"/>
  </symbol>
  <symbol id="q" overflow="visible">
   <path d="m3.2344-2.5c0.11328-0.17578 0.25391-0.3125 0.42188-0.40625 0.16406-0.10156 0.35156-0.15625 0.5625-0.15625 0.33203 0 0.58594 0.10938 0.76562 0.32812 0.1875 0.21094 0.28125 0.51172 0.28125 0.90625v1.8281h-0.96875v-1.5625c0.007813-0.019531 0.015625-0.039062 0.015625-0.0625v-0.10938c0-0.21875-0.03125-0.375-0.09375-0.46875s-0.16406-0.14062-0.29688-0.14062c-0.1875 0-0.33594 0.078125-0.4375 0.23438-0.09375 0.14844-0.14062 0.35938-0.14062 0.64062v1.4688h-0.96875v-1.5625c0-0.33203-0.03125-0.54688-0.09375-0.64062-0.054688-0.09375-0.15234-0.14062-0.29688-0.14062-0.17969 0-0.32031 0.078125-0.42188 0.23438-0.09375 0.14844-0.14062 0.35938-0.14062 0.64062v1.4688h-0.96875v-2.9844h0.96875v0.4375c0.11328-0.17578 0.24219-0.30469 0.39062-0.39062 0.15625-0.082031 0.32812-0.125 0.51562-0.125 0.20703 0 0.39062 0.054688 0.54688 0.15625 0.15625 0.09375 0.27344 0.23047 0.35938 0.40625z"/>
  </symbol>
  <symbol id="p" overflow="visible">
   <path d="m3.4688-1.8281v1.8281h-0.96875v-1.3906c0-0.25781-0.007812-0.4375-0.015625-0.53125-0.011719-0.10156-0.03125-0.17578-0.0625-0.21875-0.03125-0.0625-0.085937-0.10938-0.15625-0.14062-0.0625-0.039062-0.13281-0.0625-0.20312-0.0625-0.21094 0-0.37109 0.078125-0.48438 0.23438-0.10547 0.15625-0.15625 0.37109-0.15625 0.64062v1.4688h-0.96875v-4.1562h0.96875v1.6094c0.13281-0.17578 0.28516-0.30469 0.45312-0.39062 0.16406-0.082031 0.34375-0.125 0.53125-0.125 0.34375 0 0.60156 0.10938 0.78125 0.32812 0.1875 0.21094 0.28125 0.51172 0.28125 0.90625z"/>
  </symbol>
  <symbol id="o" overflow="visible">
   <path d="m0.5-3.9844h1.1562l1.4375 2.7344v-2.7344h0.98438v3.9844h-1.1562l-1.4375-2.7344v2.7344h-0.98438z"/>
  </symbol>
  <symbol id="n" overflow="visible">
   <path d="m0.42188-1.1719v-1.8125h0.96875v0.29688 0.60938 0.48438c0 0.24219 0.003906 0.41797 0.015625 0.53125 0.007812 0.10547 0.03125 0.17969 0.0625 0.21875 0.039062 0.0625 0.09375 0.11719 0.15625 0.15625 0.0625 0.03125 0.13281 0.046875 0.21875 0.046875 0.19531 0 0.35156-0.078125 0.46875-0.23438 0.11328-0.15625 0.17188-0.36719 0.17188-0.64062v-1.4688h0.95312v2.9844h-0.95312v-0.4375c-0.14844 0.17969-0.30469 0.30859-0.46875 0.39062-0.15625 0.082031-0.33594 0.125-0.53125 0.125-0.34375 0-0.60938-0.10156-0.79688-0.3125-0.17969-0.21875-0.26562-0.53125-0.26562-0.9375z"/>
  </symbol>
  <symbol id="m" overflow="visible">
   <path d="m0.5-3.9844h1.7031c0.50781 0 0.89844 0.11719 1.1719 0.34375 0.26953 0.21875 0.40625 0.53906 0.40625 0.95312 0 0.41797-0.13672 0.74219-0.40625 0.96875-0.27344 0.21875-0.66406 0.32812-1.1719 0.32812h-0.67188v1.3906h-1.0312zm1.0312 0.75v1.1094h0.5625c0.19531 0 0.34766-0.046875 0.45312-0.14062 0.11328-0.10156 0.17188-0.24219 0.17188-0.42188 0-0.17578-0.058594-0.3125-0.17188-0.40625-0.10547-0.09375-0.25781-0.14062-0.45312-0.14062z"/>
  </symbol>
  <symbol id="l" overflow="visible">
   <path d="m0.45312-2.9844h0.96875v2.9375c0 0.39453-0.10156 0.69531-0.29688 0.90625-0.1875 0.21875-0.46484 0.32812-0.82812 0.32812h-0.48438v-0.64062h0.17188c0.17578 0 0.29688-0.042969 0.35938-0.125 0.070312-0.074219 0.10938-0.23047 0.10938-0.46875zm0-1.1719h0.96875v0.78125h-0.96875z"/>
  </symbol>
  <symbol id="k" overflow="visible">
   <path d="m2.875-2.8906v0.76562c-0.125-0.082031-0.25781-0.14453-0.39062-0.1875-0.13672-0.039062-0.27344-0.0625-0.40625-0.0625-0.27344 0-0.48047 0.078125-0.625 0.23438-0.14844 0.15625-0.21875 0.37109-0.21875 0.64062 0 0.28125 0.070313 0.5 0.21875 0.65625 0.14453 0.15625 0.35156 0.23438 0.625 0.23438 0.14453 0 0.28516-0.019531 0.42188-0.0625 0.13281-0.039063 0.25781-0.10938 0.375-0.20312v0.78125c-0.14844 0.0625-0.29688 0.10156-0.45312 0.125-0.15625 0.03125-0.3125 0.046875-0.46875 0.046875-0.54297 0-0.96484-0.13281-1.2656-0.40625-0.30469-0.28125-0.45312-0.67188-0.45312-1.1719 0-0.48828 0.14844-0.86719 0.45312-1.1406 0.30078-0.28125 0.72266-0.42188 1.2656-0.42188 0.15625 0 0.3125 0.015625 0.46875 0.046875 0.15625 0.023437 0.30469 0.0625 0.45312 0.125z"/>
  </symbol>
 </defs>
 <g>
  <path d="m264.22 95.234c-2.4531-0.007813-4.6016-1.6484-5.2539-4.0117-0.65625-2.3633 0.34375-4.8711 2.4414-6.1406 14.461-8.6836 35.066-4.7578 35.93-4.5938 2.8906 0.64844 4.7344 3.4805 4.168 6.3867-0.57031 2.9062-3.3477 4.832-6.2695 4.3438-0.17578 0-17.379-3.2812-28.195 3.2812-0.85547 0.49609-1.832 0.75-2.8203 0.73438z"/>
  <path d="m193.47 67.812c-2.7656 0.023438-5.1133-2.0234-5.4688-4.7695-0.48047-3.6523-3.2812-8.0938-4.2227-9.3633-1.8125-2.4141-1.3203-5.8438 1.0938-7.6562 2.418-1.8125 5.8438-1.3203 7.6562 1.0938 0.54688 0.73437 5.3711 7.3711 6.3008 14.48v0.003906c0.38672 2.9922-1.7227 5.7305-4.7148 6.125-0.21094 0.039063-0.42578 0.070313-0.64453 0.085938z"/>
  <path d="m226.87 160.98h-83.586c-14.25-0.44531-27.426-7.6797-35.449-19.465-8.0234-11.785-9.9297-26.695-5.125-40.117 4.8047-13.422 15.738-23.738 29.418-27.754-0.066406-0.89844-0.097656-1.793-0.097656-2.7031v0.003906c0.003906-8.6758 3.2461-17.035 9.0859-23.445 5.8398-6.4141 13.863-10.414 22.496-11.227 8.6367-0.8125 17.266 1.625 24.199 6.8359 9.1367-16.875 25.746-28.406 44.75-31.062 19.008-2.6602 38.145 3.8711 51.559 17.59 13.418 13.719 19.516 33 16.434 51.938 10.84 3.5547 19.695 11.488 24.406 21.879 4.7109 10.387 4.8516 22.277 0.38281 32.773s-13.137 18.633-23.891 22.438c-1.3789 0.51953-2.9062 0.46484-4.2422-0.15625-1.3359-0.62109-2.3633-1.7539-2.8516-3.1445-0.48828-1.3867-0.39844-2.9141 0.25391-4.2344s1.8086-2.3242 3.207-2.7812c8.3086-2.9531 14.879-9.4375 17.945-17.703 3.0664-8.2695 2.3164-17.469-2.0547-25.129-4.3672-7.6562-11.906-12.988-20.582-14.555-1.4883-0.28125-2.793-1.1641-3.6055-2.4414-0.8125-1.2734-1.0586-2.832-0.68359-4.2969 4.3008-16.5-0.19531-34.051-11.902-46.445-11.707-12.395-28.973-17.891-45.691-14.539-16.715 3.3516-30.531 15.078-36.555 31.027-0.69141 1.8242-2.3047 3.1406-4.2305 3.457s-3.8711-0.41797-5.1094-1.9258c-4.1875-5.1211-10.312-8.2734-16.91-8.7109-6.6016-0.44141-13.086 1.875-17.914 6.3945-4.832 4.5195-7.5703 10.84-7.5703 17.453-0.003906 1.8984 0.21875 3.7891 0.66797 5.6328 0.35547 1.4805 0.082031 3.0391-0.75781 4.3086-0.83984 1.2656-2.1719 2.1289-3.6719 2.375-11.094 1.8164-20.547 9.0586-25.191 19.297s-3.8672 22.117 2.0742 31.664c5.9375 9.543 16.254 15.488 27.492 15.844h83.312-0.003906c3.0234 0 5.4688 2.4492 5.4688 5.4688s-2.4453 5.4688-5.4688 5.4688z"/>
  <path d="m167.34 84.535c-0.57812-0.015625-1.1523-0.12109-1.6953-0.31641-12.523-4.0586-29.125-0.54688-29.289-0.51562-1.4336 0.34766-2.9414 0.10156-4.1914-0.68359-1.2461-0.78125-2.125-2.0312-2.4375-3.4727-0.3125-1.4375-0.03125-2.9414 0.78125-4.1719 0.80859-1.2266 2.082-2.0781 3.5273-2.3555 0.79688-0.17578 19.688-4.168 35 0.85156 2.5508 0.83984 4.1133 3.4023 3.6914 6.0547-0.41797 2.6523-2.7031 4.6055-5.3867 4.6094z"/>
  <path d="m613.05 547.42h-525c-1.9219 0-3.7031-1.0078-4.6914-2.6562-0.99219-1.6523-1.0391-3.6992-0.13281-5.3945 0.74219-1.3906 74.672-140.78 93.047-278.14 0.36328-2.7344 2.707-4.7695 5.4688-4.7461h337.66c2.7617-0.023437 5.1055 2.0117 5.4688 4.7461 18.375 137.36 92.301 276.72 93.047 278.14 0.90625 1.6953 0.85938 3.7422-0.12891 5.3945-0.98828 1.6484-2.7734 2.6562-4.6953 2.6562zm-516.04-10.938h507.09c-15.828-31.488-72.492-150.31-89.445-269.06h-328.19c-16.922 118.75-73.621 237.57-89.449 269.06z"/>
  <path d="m275.34 547.42c-2.0156 0-3.8711-1.1094-4.8242-2.8867-0.75391-1.4102-75.602-142.48-94.25-281.86h0.003906c-0.22656-1.4531 0.14062-2.9375 1.0234-4.1172 0.87891-1.1797 2.1992-1.9531 3.6562-2.1484 1.4609-0.19141 2.9336 0.20703 4.0938 1.1172 1.1602 0.90625 1.9023 2.2422 2.0664 3.7031 18.387 137.36 92.312 276.72 93.055 278.14 0.90625 1.6953 0.85938 3.7422-0.12891 5.3945-0.98828 1.6484-2.7734 2.6562-4.6953 2.6562z"/>
  <path d="m461.4 442.42h-116.35c-2.2695 0-4.3008-1.4023-5.1094-3.5234-11.516-30.164-21.297-59.883-29.062-88.297-0.44922-1.6445-0.10547-3.4062 0.92969-4.7617 1.0312-1.3555 2.6406-2.1484 4.3438-2.1523l116.44 0.29688c2.457 0.007813 4.6094 1.6523 5.2617 4.0234 7.6562 27.977 17.305 57.246 28.645 86.996v0.003906c0.64062 1.6797 0.41406 3.5664-0.60938 5.0469-1.0195 1.4805-2.6992 2.3672-4.5 2.3672zm-112.58-10.938h104.67c-9.7344-26.109-18.156-51.812-25.07-76.562l-105.07-0.26172c7.0234 24.871 15.574 50.641 25.465 76.824z"/>
  <path d="m613.05 547.42c-3.0195 0-5.4688-2.4492-5.4688-5.4688v-35c0-3.0195 2.4492-5.4688 5.4688-5.4688s5.4688 2.4492 5.4688 5.4688v35c0 1.4492-0.57422 2.8398-1.6016 3.8672-1.0273 1.0273-2.418 1.6016-3.8672 1.6016z"/>
  <path d="m88.047 547.42c-3.0195 0-5.4688-2.4492-5.4688-5.4688v-35c0-3.0195 2.4492-5.4688 5.4688-5.4688s5.4688 2.4492 5.4688 5.4688v35c0 1.4492-0.57422 2.8398-1.6016 3.8672-1.0273 1.0273-2.418 1.6016-3.8672 1.6016z"/>
  <path d="m280.55 547.42c-3.0195 0-5.4688-2.4492-5.4688-5.4688v-35c0-3.0195 2.4492-5.4688 5.4688-5.4688s5.4688 2.4492 5.4688 5.4688v35c0 1.4492-0.57422 2.8398-1.6016 3.8672-1.0273 1.0273-2.418 1.6016-3.8672 1.6016z"/>
  <path d="m181.7 267.42c-3.0234 0-5.4688-2.4492-5.4688-5.4688v-25.703c0-3.0195 2.4453-5.4688 5.4688-5.4688 3.0195 0 5.4688 2.4492 5.4688 5.4688v25.703c0 1.4492-0.57812 2.8398-1.6016 3.8672-1.0273 1.0273-2.418 1.6016-3.8672 1.6016z"/>
  <path d="m518.8 267.42c-3.0195 0-5.4688-2.4492-5.4688-5.4688v-25.703c0-3.0195 2.4492-5.4688 5.4688-5.4688 3.0234 0 5.4688 2.4492 5.4688 5.4688v25.703c0 1.4492-0.57422 2.8398-1.6016 3.8672-1.0234 1.0273-2.4141 1.6016-3.8672 1.6016z"/>
  <path d="m181.7 547.42c-3.0234 0-5.4688-2.4492-5.4688-5.4688v-280c0-3.0195 2.4453-5.4688 5.4688-5.4688 3.0195 0 5.4688 2.4492 5.4688 5.4688v280c0 1.4492-0.57812 2.8398-1.6016 3.8672-1.0273 1.0273-2.418 1.6016-3.8672 1.6016z"/>
  <path d="m227.27 266.41c-3.0195 0-5.4688-2.4492-5.4688-5.4688v-120.66c0-3.0195 2.4492-5.4688 5.4688-5.4688h71.555c1.4492 0 2.8398 0.57422 3.8672 1.6016 1.0234 1.0273 1.6016 2.418 1.6016 3.8672v48.562c0 1.4492-0.57812 2.8398-1.6016 3.8672-1.0273 1.0273-2.418 1.6016-3.8672 1.6016h-66.086v66.633c0 1.4492-0.57422 2.8398-1.6016 3.8672-1.0234 1.0234-2.4141 1.6016-3.8672 1.6016zm5.4688-83.039h60.617v-37.625h-60.617z"/>
  <path d="m440.31 169.9c-21.043 0-38.16-14.012-38.16-31.25l-0.003906 0.003906c0-3.0234 2.4492-5.4688 5.4688-5.4688 3.0234 0 5.4688 2.4453 5.4688 5.4688 0 11.199 12.207 20.312 27.223 20.312s27.211-9.1094 27.211-20.312h0.003907c0-3.0234 2.4492-5.4688 5.4688-5.4688 3.0195 0 5.4688 2.4453 5.4688 5.4688 0 17.234-17.117 31.246-38.148 31.246z"/>
  <path d="m505.67 169.9c-21.031 0-38.148-14.012-38.148-31.25v0.003906c0-3.0234 2.4492-5.4688 5.4688-5.4688 3.0195 0 5.4688 2.4453 5.4688 5.4688 0 11.199 12.207 20.312 27.211 20.312 14.219 0 24.621-8.75 24.621-20.781v-0.26562c-0.25-7.4492-2.8398-14.629-7.4023-20.52-10.938-14.316-70.086-88.441-70.68-89.195l-0.085938-0.097656s-4.6172-5.8086-10.805-5.8086c-8.75 0-12.457 5.2734-12.609 5.4688h-0.003907c-0.09375 0.14453-0.19531 0.27734-0.30859 0.40625-0.58984 0.75391-59.785 74.879-70.68 89.195h0.003906c-4.5586 5.8594-7.1328 13.02-7.3516 20.441 0.007812 0.085938 0.007812 0.17578 0 0.26172 0 12.031 10.324 20.859 24.555 20.859 15.008 0 27.211-9.1094 27.211-20.312h0.003906c0-3.0195 2.4453-5.4688 5.4688-5.4688 3.0195 0 5.4688 2.4492 5.4688 5.4688 0 17.238-17.117 31.25-38.148 31.25-20.191 0-35.438-13.617-35.492-31.719h-0.003906c0.10938-9.9492 3.4727-19.586 9.5703-27.441 10.84-14.219 67.047-84.633 70.734-89.262 1.3125-1.8477 7.9727-10.16 21.57-10.16 11.266 0 18.672 9.0469 19.457 10.051 2.7031 3.3906 59.871 74.988 70.82 89.371 6.1016 7.8789 9.4844 17.527 9.6328 27.496-0.042969 18.102-15.312 31.695-35.547 31.695z"/>
  <path d="m302.84 266.41h-0.14063c-3.0156-0.078125-5.3984-2.5859-5.3281-5.6016 0.35156-10.035 3.7891-19.719 9.8438-27.727 11.789-15.508 55.52-71.434 55.957-72 1.8594-2.3828 5.3008-2.8008 7.6797-0.94141s2.8008 5.2969 0.94141 7.6758c-0.4375 0.57031-44.121 56.438-55.867 71.883h-0.003906c-4.6875 6.1719-7.3594 13.637-7.6562 21.383-0.074219 2.9492-2.4766 5.3047-5.4258 5.3281z"/>
  <path d="m546.36 296.09c-9.0469 0.070312-17.918-2.4766-25.547-7.3398-1.2383-0.78516-2.1094-2.0352-2.418-3.4688-0.30469-1.4336-0.023437-2.9297 0.78125-4.1562 0.80859-1.2227 2.0703-2.0742 3.5078-2.3555 1.4414-0.28516 2.9336 0.019531 4.1445 0.84766 5.8398 3.6953 12.621 5.6211 19.531 5.5469 15.008 0 22.969-7.2734 25.004-22.871 0.015625-0.10547 0.03125-0.20703 0.054688-0.30859 0.93359-7.9492-1.2852-15.953-6.1797-22.289-11.746-15.445-55.43-71.312-55.867-71.883-1.8594-2.3789-1.4414-5.8164 0.94141-7.6758 2.3789-1.8594 5.8164-1.4414 7.6758 0.94141 0.4375 0.57031 44.164 56.492 55.957 72 6.6992 8.7617 9.6641 19.816 8.2461 30.758-2.7773 20.789-15.496 32.254-35.832 32.254z"/>
  <path d="m580.04 422.59c-9.3711 0.14453-18.539-2.7422-26.133-8.2383-2.4141-1.8125-2.9062-5.2383-1.0938-7.6562 1.8125-2.4141 5.2422-2.9062 7.6562-1.0938 5.6914 4.0664 12.543 6.1797 19.535 6.0273 17.062 0 28.086-8.75 28.086-22.301v-0.42578h0.003906c0.027344-8.2148-2.6641-16.207-7.6562-22.73-11.758-15.453-55.43-71.324-55.879-71.883l-0.003906 0.003906c-1.8594-2.3828-1.4375-5.8203 0.94141-7.6797 2.3789-1.8594 5.8203-1.4375 7.6797 0.94141 0.4375 0.55859 44.164 56.492 55.957 71.992v-0.003906c6.5742 8.5859 10.043 19.148 9.8438 29.961 0 19.805-15.664 33.086-38.938 33.086z"/>
  <path d="m134.15 238.59c-2.4844-0.003906-4.6562-1.6836-5.2812-4.0898-1.4883-5.6875-5.3828-9.1875-11.836-10.664-3.3789-0.72266-6.8555-0.90234-10.293-0.53516-1.4531 0.25781-2.9531-0.085937-4.1523-0.95312-1.1953-0.86328-1.9961-2.1758-2.207-3.6406-0.21484-1.4609 0.17188-2.9492 1.0703-4.1211 0.89844-1.1719 2.2344-1.9297 3.7031-2.1016 6.8672-1.0078 18.594-0.23047 26.73 6.7383 3.1484-6.2656 9.418-12.578 21.875-14.219v-0.003906c1.4609-0.23828 2.957 0.125 4.1484 1.0078 1.1875 0.88281 1.9688 2.2109 2.1602 3.6797s-0.21875 2.9492-1.1406 4.1094c-0.91797 1.1602-2.2695 1.8984-3.7461 2.043-7.0547 0.92969-11.617 3.9375-13.945 9.1992-1.0391 2.418-1.5625 5.0234-1.5312 7.6562 0.21094 2.8164-1.7617 5.3281-4.5469 5.7969-0.33203 0.066406-0.67188 0.097656-1.0078 0.097656z"/>
  <path d="m574.48 72.188c-0.29297 0.003906-0.58594-0.023438-0.875-0.078125-2.7891-0.44531-4.7812-2.9414-4.5938-5.7617 0.40625-5.875-2.1875-10.414-7.875-13.902-2.9688-1.7656-6.1992-3.043-9.5703-3.7852-1.4492-0.23047-2.75-1.0352-3.5977-2.2344-0.85156-1.1953-1.1875-2.6875-0.92578-4.1328 0.26172-1.4492 1.0938-2.7305 2.3086-3.5547 1.2148-0.82812 2.7109-1.1289 4.1523-0.83984 6.8242 1.2266 17.75 5.7188 23.188 14.906 4.9883-4.9453 12.93-8.9258 25.223-6.5625 1.4453 0.25781 2.7305 1.082 3.5586 2.293 0.83203 1.2148 1.1406 2.707 0.85547 4.1484-0.28125 1.4414-1.1328 2.7109-2.3633 3.5156-1.2266 0.80859-2.7266 1.0859-4.1641 0.77344-6.9766-1.3672-12.262 0-16.133 4.2773-1.7656 1.9609-3.0938 4.2695-3.9023 6.7812-0.60156 2.4336-2.7812 4.1445-5.2852 4.1562z"/>
  <path d="m500.45 481.79h-3.2812c-3.0195 0-5.4688-2.4492-5.4688-5.4688 0-3.0195 2.4492-5.4688 5.4688-5.4688h3.2812c3.0195 0 5.4688 2.4492 5.4688 5.4688 0 3.0195-2.4492 5.4688-5.4688 5.4688zm-25.156 0h-3.2812c-3.0195 0-5.4688-2.4492-5.4688-5.4688 0-3.0195 2.4492-5.4688 5.4688-5.4688h3.2812c3.0195 0 5.4688 2.4492 5.4688 5.4688 0 3.0195-2.4492 5.4688-5.4688 5.4688zm-25.156 0h-3.2812c-3.0195 0-5.4688-2.4492-5.4688-5.4688 0-3.0195 2.4492-5.4688 5.4688-5.4688h3.2812c3.0195 0 5.4688 2.4492 5.4688 5.4688 0 3.0195-2.4492 5.4688-5.4688 5.4688zm-25.156 0h-3.2812c-3.0195 0-5.4688-2.4492-5.4688-5.4688 0-3.0195 2.4492-5.4688 5.4688-5.4688h3.2812c3.0195 0 5.4688 2.4492 5.4688 5.4688 0 3.0195-2.4492 5.4688-5.4688 5.4688zm-25.156 0h-3.2812c-3.0195 0-5.4688-2.4492-5.4688-5.4688 0-3.0195 2.4492-5.4688 5.4688-5.4688h3.2812c3.0195 0 5.4688 2.4492 5.4688 5.4688 0 3.0195-2.4492 5.4688-5.4688 5.4688zm-25.156 0h-3.2812c-3.0195 0-5.4688-2.4492-5.4688-5.4688 0-3.0195 2.4492-5.4688 5.4688-5.4688h3.2812c3.0195 0 5.4688 2.4492 5.4688 5.4688 0 3.0195-2.4492 5.4688-5.4688 5.4688zm-25.156 0h-3.2812c-3.0195 0-5.4688-2.4492-5.4688-5.4688 0-3.0195 2.4492-5.4688 5.4688-5.4688h3.2812c3.0195 0 5.4688 2.4492 5.4688 5.4688 0 3.0195-2.4492 5.4688-5.4688 5.4688zm-25.156 0h-3.2812c-3.0195 0-5.4688-2.4492-5.4688-5.4688 0-3.0195 2.4492-5.4688 5.4688-5.4688h3.2812c3.0195 0 5.4688 2.4492 5.4688 5.4688 0 3.0195-2.4492 5.4688-5.4688 5.4688z"/>
 </g>
</svg>
