<?xml version="1.0" encoding="UTF-8"?>
<svg width="700pt" height="700pt" version="1.1" viewBox="0 0 700 700" xmlns="http://www.w3.org/2000/svg" xmlns:xlink="http://www.w3.org/1999/xlink">
 <defs>
  <symbol id="w" overflow="visible">
   <path d="m13.797-0.82812c-0.71094 0.375-1.4492 0.65625-2.2188 0.84375-0.77344 0.1875-1.5781 0.28125-2.4219 0.28125-2.5 0-4.4805-0.69531-5.9375-2.0938-1.4609-1.4062-2.1875-3.3008-2.1875-5.6875 0-2.4062 0.72656-4.3047 2.1875-5.7031 1.457-1.3945 3.4375-2.0938 5.9375-2.0938 0.84375 0 1.6484 0.09375 2.4219 0.28125 0.76953 0.1875 1.5078 0.46484 2.2188 0.82812v3.1094c-0.71875-0.48828-1.4297-0.84766-2.125-1.0781-0.69922-0.22656-1.4336-0.34375-2.2031-0.34375-1.375 0-2.4609 0.44531-3.25 1.3281-0.79297 0.88672-1.1875 2.1094-1.1875 3.6719 0 1.543 0.39453 2.7578 1.1875 3.6406 0.78906 0.88672 1.875 1.3281 3.25 1.3281 0.76953 0 1.5039-0.11328 2.2031-0.34375 0.69531-0.22656 1.4062-0.58594 2.125-1.0781z"/>
  </symbol>
  <symbol id="d" overflow="visible">
   <path d="m10.094-8.1875c-0.3125-0.15625-0.625-0.26562-0.9375-0.32812-0.3125-0.070313-0.625-0.10938-0.9375-0.10938-0.92969 0-1.6406 0.29688-2.1406 0.89062s-0.75 1.4453-0.75 2.5469v5.1875h-3.5938v-11.266h3.5938v1.8594c0.45703-0.73828 0.98828-1.2734 1.5938-1.6094 0.60156-0.34375 1.3203-0.51562 2.1562-0.51562 0.125 0 0.25391 0.007812 0.39062 0.015625 0.14453 0.011719 0.34766 0.03125 0.60938 0.0625z"/>
  </symbol>
  <symbol id="b" overflow="visible">
   <path d="m12.969-5.6562v1.0156h-8.4062c0.082031 0.84375 0.38281 1.4805 0.90625 1.9062 0.51953 0.41797 1.25 0.625 2.1875 0.625 0.75781 0 1.5352-0.10938 2.3281-0.32812 0.80078-0.22656 1.6172-0.56641 2.4531-1.0156v2.7656c-0.85547 0.32422-1.7109 0.57031-2.5625 0.73438-0.84375 0.16406-1.6953 0.25-2.5469 0.25-2.0312 0-3.6172-0.51562-4.75-1.5469-1.125-1.0391-1.6875-2.5-1.6875-4.375 0-1.832 0.55078-3.2734 1.6562-4.3281 1.1133-1.0508 2.6406-1.5781 4.5781-1.5781 1.7695 0 3.1875 0.53125 4.25 1.5938s1.5938 2.4922 1.5938 4.2812zm-3.7031-1.2031c0-0.6875-0.19922-1.2383-0.59375-1.6562-0.39844-0.41406-0.91797-0.625-1.5625-0.625-0.69922 0-1.2656 0.19922-1.7031 0.59375-0.4375 0.38672-0.71094 0.94922-0.8125 1.6875z"/>
  </symbol>
  <symbol id="f" overflow="visible">
   <path d="m6.7812-5.0625c-0.75 0-1.3203 0.13281-1.7031 0.39062-0.375 0.25-0.5625 0.62109-0.5625 1.1094 0 0.46094 0.14844 0.82031 0.45312 1.0781 0.3125 0.25 0.73828 0.375 1.2812 0.375 0.67578 0 1.2422-0.23828 1.7031-0.71875 0.45703-0.48828 0.6875-1.0977 0.6875-1.8281v-0.40625zm5.5-1.3594v6.4219h-3.6406v-1.6719c-0.48047 0.6875-1.0234 1.1875-1.625 1.5-0.60547 0.3125-1.3398 0.46875-2.2031 0.46875-1.168 0-2.1172-0.33594-2.8438-1.0156-0.71875-0.6875-1.0781-1.5703-1.0781-2.6562 0-1.3203 0.45312-2.2891 1.3594-2.9062 0.90625-0.61328 2.332-0.92188 4.2812-0.92188h2.1094v-0.28125c0-0.57031-0.22656-0.98828-0.67188-1.25-0.44922-0.26953-1.1484-0.40625-2.0938-0.40625-0.77344 0-1.4922 0.078125-2.1562 0.23438-0.66797 0.15625-1.2812 0.38672-1.8438 0.6875v-2.7344c0.76953-0.1875 1.5391-0.32812 2.3125-0.42188 0.78125-0.10156 1.5625-0.15625 2.3438-0.15625 2.0312 0 3.4922 0.40234 4.3906 1.2031 0.90625 0.80469 1.3594 2.1055 1.3594 3.9062z"/>
  </symbol>
  <symbol id="a" overflow="visible">
   <path d="m5.6562-14.453v3.1875h3.7188v2.5781h-3.7188v4.7812c0 0.52344 0.10156 0.875 0.3125 1.0625 0.20703 0.17969 0.61719 0.26562 1.2344 0.26562h1.8594v2.5781h-3.0938c-1.418 0-2.4219-0.29688-3.0156-0.89062s-0.89062-1.5977-0.89062-3.0156v-4.7812h-1.7969v-2.5781h1.7969v-3.1875z"/>
  </symbol>
  <symbol id="n" overflow="visible">
   <path d="m9.3906-9.6094v-6.0312h3.625v15.641h-3.625v-1.625c-0.5 0.65625-1.0469 1.1406-1.6406 1.4531s-1.2812 0.46875-2.0625 0.46875c-1.3984 0-2.543-0.55078-3.4375-1.6562-0.88672-1.1016-1.3281-2.5234-1.3281-4.2656 0-1.7266 0.44141-3.1445 1.3281-4.25 0.89453-1.1016 2.0391-1.6562 3.4375-1.6562 0.76953 0 1.4531 0.15625 2.0469 0.46875 0.60156 0.3125 1.1562 0.79688 1.6562 1.4531zm-2.375 7.2812c0.76953 0 1.3594-0.28125 1.7656-0.84375s0.60938-1.3789 0.60938-2.4531c0-1.0703-0.20312-1.8906-0.60938-2.4531s-0.99609-0.84375-1.7656-0.84375c-0.76172 0-1.3438 0.28125-1.75 0.84375s-0.60938 1.3828-0.60938 2.4531c0 1.0742 0.20312 1.8906 0.60938 2.4531s0.98828 0.84375 1.75 0.84375z"/>
  </symbol>
  <symbol id="m" overflow="visible">
   <path d="m7.7188-2.3281c0.76953 0 1.3594-0.28125 1.7656-0.84375s0.60938-1.3789 0.60938-2.4531c0-1.0703-0.20312-1.8906-0.60938-2.4531s-0.99609-0.84375-1.7656-0.84375c-0.77344 0-1.3672 0.28906-1.7812 0.85938-0.40625 0.5625-0.60938 1.375-0.60938 2.4375 0 1.0742 0.20312 1.8906 0.60938 2.4531 0.41406 0.5625 1.0078 0.84375 1.7812 0.84375zm-2.3906-7.2812c0.5-0.65625 1.0508-1.1406 1.6562-1.4531 0.60156-0.3125 1.2969-0.46875 2.0781-0.46875 1.3828 0 2.5195 0.55469 3.4062 1.6562 0.89453 1.1055 1.3438 2.5234 1.3438 4.25 0 1.7422-0.44922 3.1641-1.3438 4.2656-0.88672 1.1055-2.0234 1.6562-3.4062 1.6562-0.78125 0-1.4766-0.15625-2.0781-0.46875-0.60547-0.3125-1.1562-0.79688-1.6562-1.4531v1.625h-3.5938v-15.641h3.5938z"/>
  </symbol>
  <symbol id="l" overflow="visible">
   <path d="m0.25-11.266h3.5938l3.0312 7.6406 2.5781-7.6406h3.5938l-4.7344 12.328c-0.46875 1.2578-1.0234 2.1328-1.6562 2.625-0.63672 0.5-1.4766 0.75-2.5156 0.75h-2.0781v-2.3594h1.125c0.61328 0 1.0547-0.10156 1.3281-0.29688 0.28125-0.1875 0.5-0.53125 0.65625-1.0312l0.09375-0.3125z"/>
  </symbol>
  <symbol id="e" overflow="visible">
   <path d="m12.344-14.547v3.1875c-0.83594-0.375-1.6406-0.65625-2.4219-0.84375s-1.5234-0.28125-2.2188-0.28125c-0.92969 0-1.6172 0.13281-2.0625 0.39062-0.4375 0.25-0.65625 0.64844-0.65625 1.1875 0 0.39844 0.14453 0.71094 0.4375 0.9375 0.30078 0.21875 0.84766 0.41406 1.6406 0.57812l1.6406 0.32812c1.6758 0.33594 2.8633 0.84375 3.5625 1.5312 0.70703 0.6875 1.0625 1.6641 1.0625 2.9219 0 1.6562-0.49609 2.8906-1.4844 3.7031-0.98047 0.80469-2.4805 1.2031-4.5 1.2031-0.94922 0-1.9023-0.09375-2.8594-0.28125-0.96094-0.17578-1.918-0.44141-2.875-0.79688v-3.2656c0.95703 0.51172 1.8828 0.89844 2.7812 1.1562 0.89453 0.25 1.7578 0.375 2.5938 0.375 0.84375 0 1.4883-0.14062 1.9375-0.42188 0.44531-0.28125 0.67188-0.67969 0.67188-1.2031 0-0.46875-0.15625-0.82812-0.46875-1.0781-0.30469-0.25781-0.90625-0.48828-1.8125-0.6875l-1.5-0.34375c-1.5-0.32031-2.6016-0.83203-3.2969-1.5312-0.6875-0.70703-1.0312-1.6562-1.0312-2.8438 0-1.5 0.47656-2.6484 1.4375-3.4531 0.96875-0.80078 2.3594-1.2031 4.1719-1.2031 0.82031 0 1.6641 0.0625 2.5312 0.1875 0.875 0.125 1.7812 0.30859 2.7188 0.54688z"/>
  </symbol>
  <symbol id="k" overflow="visible">
   <path d="m12.172-9.3906c0.44531-0.69531 0.98438-1.2266 1.6094-1.5938 0.63281-0.36328 1.3281-0.54688 2.0781-0.54688 1.2891 0 2.2734 0.40234 2.9531 1.2031 0.67578 0.79297 1.0156 1.9492 1.0156 3.4688v6.8594h-3.625v-5.875c0.007813-0.082031 0.015625-0.17188 0.015625-0.26562 0.007812-0.09375 0.015625-0.22656 0.015625-0.40625 0-0.80078-0.12109-1.3789-0.35938-1.7344-0.23047-0.35156-0.60938-0.53125-1.1406-0.53125-0.67969 0-1.2031 0.28125-1.5781 0.84375s-0.57031 1.375-0.57812 2.4375v5.5312h-3.625v-5.875c0-1.25-0.10938-2.0508-0.32812-2.4062-0.21094-0.35156-0.58984-0.53125-1.1406-0.53125-0.6875 0-1.2188 0.28125-1.5938 0.84375s-0.5625 1.3711-0.5625 2.4219v5.5469h-3.625v-11.266h3.625v1.6562c0.44531-0.63281 0.95703-1.1133 1.5312-1.4375 0.57031-0.32031 1.2031-0.48438 1.8906-0.48438 0.78125 0 1.4688 0.1875 2.0625 0.5625s1.0469 0.90234 1.3594 1.5781z"/>
  </symbol>
  <symbol id="j" overflow="visible">
   <path d="m10.531-10.906v2.7344c-0.77344-0.32031-1.5156-0.5625-2.2344-0.71875-0.71875-0.16406-1.3984-0.25-2.0312-0.25-0.6875 0-1.1992 0.089844-1.5312 0.26562-0.32422 0.16797-0.48438 0.42969-0.48438 0.78125 0 0.29297 0.125 0.51562 0.375 0.67188 0.25 0.14844 0.69531 0.25781 1.3438 0.32812l0.64062 0.09375c1.8438 0.24219 3.082 0.63281 3.7188 1.1719 0.63281 0.53125 0.95312 1.3711 0.95312 2.5156 0 1.1992-0.44531 2.1016-1.3281 2.7031-0.88672 0.60547-2.2031 0.90625-3.9531 0.90625-0.75 0-1.5234-0.0625-2.3125-0.1875-0.79297-0.11328-1.6094-0.28516-2.4531-0.51562v-2.7344c0.71875 0.34375 1.4531 0.60547 2.2031 0.78125 0.75781 0.16797 1.5234 0.25 2.2969 0.25 0.70703 0 1.2383-0.09375 1.5938-0.28125 0.35156-0.19531 0.53125-0.48828 0.53125-0.875 0-0.3125-0.125-0.54688-0.375-0.70312-0.24219-0.16406-0.72656-0.28906-1.4531-0.375l-0.625-0.078125c-1.6055-0.19531-2.7305-0.56641-3.375-1.1094-0.64844-0.55078-0.96875-1.3789-0.96875-2.4844 0-1.1875 0.40625-2.0664 1.2188-2.6406 0.82031-0.58203 2.0781-0.875 3.7656-0.875 0.66406 0 1.3633 0.054688 2.0938 0.15625 0.72656 0.09375 1.5234 0.25 2.3906 0.46875z"/>
  </symbol>
  <symbol id="i" overflow="visible">
   <path d="m13.047-6.8594v6.8594h-3.6094v-5.2344c0-0.97656-0.027344-1.6484-0.078125-2.0156-0.042969-0.375-0.11719-0.64844-0.21875-0.82812-0.14844-0.22656-0.33984-0.40625-0.57812-0.53125-0.24219-0.13281-0.51172-0.20312-0.8125-0.20312-0.76172 0-1.3555 0.29297-1.7812 0.875-0.42969 0.57422-0.64062 1.3711-0.64062 2.3906v5.5469h-3.5938v-15.641h3.5938v6.0312c0.53906-0.65625 1.1133-1.1406 1.7188-1.4531 0.61328-0.3125 1.2891-0.46875 2.0312-0.46875 1.3008 0 2.2852 0.40234 2.9531 1.2031 0.67578 0.79297 1.0156 1.9492 1.0156 3.4688z"/>
  </symbol>
  <symbol id="v" overflow="visible">
   <path d="m1.7344-11.266h3.5938v11.266h-3.5938zm0-4.375h3.5938v2.9375h-3.5938z"/>
  </symbol>
  <symbol id="h" overflow="visible">
   <path d="m13.047-6.8594v6.8594h-3.6094v-5.25c0-0.96875-0.027344-1.6328-0.078125-2-0.042969-0.375-0.11719-0.64844-0.21875-0.82812-0.14844-0.22656-0.33984-0.40625-0.57812-0.53125-0.24219-0.13281-0.51172-0.20312-0.8125-0.20312-0.76172 0-1.3555 0.29297-1.7812 0.875-0.42969 0.57422-0.64062 1.3711-0.64062 2.3906v5.5469h-3.5938v-11.266h3.5938v1.6562c0.53906-0.65625 1.1133-1.1406 1.7188-1.4531 0.61328-0.3125 1.2891-0.46875 2.0312-0.46875 1.3008 0 2.2852 0.40234 2.9531 1.2031 0.67578 0.79297 1.0156 1.9492 1.0156 3.4688z"/>
  </symbol>
  <symbol id="u" overflow="visible">
   <path d="m9.3906-1.9062c-0.5 0.65625-1.0469 1.1406-1.6406 1.4531-0.59375 0.30469-1.2812 0.45312-2.0625 0.45312-1.375 0-2.5156-0.53906-3.4219-1.625-0.89844-1.082-1.3438-2.4609-1.3438-4.1406 0-1.6758 0.44531-3.0508 1.3438-4.125 0.90625-1.082 2.0469-1.625 3.4219-1.625 0.78125 0 1.4688 0.15625 2.0625 0.46875 0.59375 0.30469 1.1406 0.78906 1.6406 1.4531v-1.6719h3.625v10.125c0 1.8125-0.57422 3.1914-1.7188 4.1406-1.1484 0.95703-2.8047 1.4375-4.9688 1.4375-0.71094 0-1.3906-0.054688-2.0469-0.15625-0.65625-0.10547-1.3203-0.26562-1.9844-0.48438v-2.8125c0.63281 0.36328 1.2539 0.63281 1.8594 0.8125 0.60156 0.17578 1.207 0.26562 1.8125 0.26562 1.1875 0 2.0508-0.26172 2.5938-0.78125 0.55078-0.51172 0.82812-1.3164 0.82812-2.4219zm-2.375-7.0156c-0.74219 0-1.3203 0.27734-1.7344 0.82812-0.41797 0.55469-0.625 1.3281-0.625 2.3281 0 1.0312 0.19531 1.8203 0.59375 2.3594 0.40625 0.53125 0.99219 0.79688 1.7656 0.79688 0.75 0 1.332-0.27344 1.75-0.82812 0.41406-0.55078 0.625-1.3281 0.625-2.3281s-0.21094-1.7734-0.625-2.3281c-0.41797-0.55078-1-0.82812-1.75-0.82812z"/>
  </symbol>
  <symbol id="c" overflow="visible">
   <path d="m7.0938-8.9531c-0.80469 0-1.4141 0.28906-1.8281 0.85938-0.41797 0.57422-0.625 1.3984-0.625 2.4688 0 1.0859 0.20703 1.9141 0.625 2.4844 0.41406 0.57422 1.0234 0.85938 1.8281 0.85938 0.78125 0 1.3789-0.28516 1.7969-0.85938 0.41406-0.57031 0.625-1.3984 0.625-2.4844 0-1.0703-0.21094-1.8945-0.625-2.4688-0.41797-0.57031-1.0156-0.85938-1.7969-0.85938zm0-2.5781c1.9375 0 3.4453 0.52734 4.5312 1.5781 1.0938 1.043 1.6406 2.4844 1.6406 4.3281 0 1.8555-0.54688 3.3086-1.6406 4.3594-1.0859 1.043-2.5938 1.5625-4.5312 1.5625-1.9492 0-3.4688-0.51953-4.5625-1.5625-1.0938-1.0508-1.6406-2.5039-1.6406-4.3594 0-1.8438 0.54688-3.2852 1.6406-4.3281 1.0938-1.0508 2.6133-1.5781 4.5625-1.5781z"/>
  </symbol>
  <symbol id="g" overflow="visible">
   <path d="m10.828-10.906v2.9375c-0.49219-0.34375-0.98047-0.59375-1.4688-0.75-0.49219-0.15625-1-0.23438-1.5312-0.23438-1.0117 0-1.7969 0.29297-2.3594 0.875-0.55469 0.58594-0.82812 1.4023-0.82812 2.4531 0 1.0547 0.27344 1.875 0.82812 2.4688 0.5625 0.58594 1.3477 0.875 2.3594 0.875 0.5625 0 1.0938-0.082031 1.5938-0.25 0.50781-0.16406 0.97656-0.41406 1.4062-0.75v2.9531c-0.5625 0.21094-1.1367 0.36328-1.7188 0.46875-0.57422 0.10156-1.1523 0.15625-1.7344 0.15625-2.0312 0-3.6211-0.51953-4.7656-1.5625-1.1484-1.0391-1.7188-2.4922-1.7188-4.3594 0-1.8516 0.57031-3.3008 1.7188-4.3438 1.1445-1.0391 2.7344-1.5625 4.7656-1.5625 0.58203 0 1.1602 0.054688 1.7344 0.15625 0.57031 0.10547 1.1445 0.26172 1.7188 0.46875z"/>
  </symbol>
  <symbol id="t" overflow="visible">
   <path d="m1.7344-15.641h3.5938v8.5156l4.1406-4.1406h4.1875l-5.5 5.1719 5.9375 6.0938h-4.375l-4.3906-4.7031v4.7031h-3.5938z"/>
  </symbol>
  <symbol id="s" overflow="visible">
   <path d="m9.1406-15.641v2.3594h-1.9844c-0.51172 0-0.87109 0.09375-1.0781 0.28125-0.19922 0.17969-0.29688 0.49609-0.29688 0.95312v0.78125h3.0781v2.5781h-3.0781v8.6875h-3.5938v-8.6875h-1.7969v-2.5781h1.7969v-0.78125c0-1.2266 0.33594-2.1328 1.0156-2.7188 0.6875-0.58203 1.75-0.875 3.1875-0.875z"/>
  </symbol>
  <symbol id="r" overflow="visible">
   <path d="m1.8906-15.016h4.3281l5.4531 10.297v-10.297h3.6719v15.016h-4.3281l-5.4531-10.297v10.297h-3.6719z"/>
  </symbol>
  <symbol id="q" overflow="visible">
   <path d="m1.6094-4.3906v-6.875h3.625v1.125c0 0.61719-0.007813 1.3867-0.015625 2.3125-0.011719 0.91797-0.015625 1.5273-0.015625 1.8281 0 0.90625 0.019531 1.5625 0.0625 1.9688 0.050781 0.39844 0.13281 0.68359 0.25 0.85938 0.14453 0.24219 0.33594 0.42188 0.57812 0.54688 0.23828 0.125 0.51562 0.1875 0.82812 0.1875 0.75 0 1.3359-0.28516 1.7656-0.85938 0.42578-0.57031 0.64062-1.375 0.64062-2.4062v-5.5625h3.6094v11.266h-3.6094v-1.625c-0.54297 0.65625-1.1172 1.1406-1.7188 1.4531-0.60547 0.3125-1.2773 0.46875-2.0156 0.46875-1.293 0-2.2812-0.39844-2.9688-1.2031-0.67969-0.80078-1.0156-1.9609-1.0156-3.4844z"/>
  </symbol>
  <symbol id="p" overflow="visible">
   <path d="m1.8906-15.016h6.4219c1.9141 0 3.3828 0.42969 4.4062 1.2812 1.0195 0.84375 1.5312 2.0547 1.5312 3.625 0 1.5742-0.51172 2.7891-1.5312 3.6406-1.0234 0.84375-2.4922 1.2656-4.4062 1.2656h-2.5469v5.2031h-3.875zm3.875 2.8125v4.1875h2.1406c0.75 0 1.3281-0.17969 1.7344-0.54688 0.40625-0.36328 0.60938-0.87891 0.60938-1.5469 0-0.67578-0.20312-1.1914-0.60938-1.5469-0.40625-0.36328-0.98438-0.54688-1.7344-0.54688z"/>
  </symbol>
  <symbol id="o" overflow="visible">
   <path d="m1.7344-11.266h3.5938v11.062c0 1.5078-0.36719 2.6602-1.0938 3.4531-0.71875 0.78906-1.7656 1.1875-3.1406 1.1875h-1.7812v-2.3594h0.625c0.6875 0 1.1562-0.15625 1.4062-0.46875 0.25781-0.30469 0.39062-0.90625 0.39062-1.8125zm0-4.375h3.5938v2.9375h-3.5938z"/>
  </symbol>
 </defs>
 <g>
  <path d="m89.559 523.42c0 1.1367 0.92188 2.0586 2.0586 2.0586h0.28906c1.1367 0 1.9141-0.92188 1.9141-2.0586s-1.0625-2.0586-2.2031-2.0586c-1.1367 0-2.0586 0.91797-2.0586 2.0586z"/>
  <path d="m100.14 521.36c-1.1367 0-2.0586 0.92188-2.0586 2.0586s0.92188 2.0586 2.0586 2.0586h25.391c1.1367 0 2.0586-0.92188 2.0586-2.0586s-0.92188-2.0586-2.0586-2.0586z"/>
  <path d="m573.16 521.36c-1.1367 0-2.0586 0.92188-2.0586 2.0586s0.92188 2.0586 2.0586 2.0586h25.348c1.1367 0 2.0586-0.92188 2.0586-2.0586s-0.92188-2.0586-2.0586-2.0586z"/>
  <path d="m608.38 521.36h-1.6445c-1.1367 0-2.0586 0.92188-2.0586 2.0586s0.92187 2.0586 2.0586 2.0586h1.6445c1.1367 0 2.0586-0.92188 2.0586-2.0586 0-1.1406-0.92188-2.0586-2.0586-2.0586z"/>
  <path d="m238.55 385.88c-1.1641 0.007813-2.0625 0.92188-2.0586 2.0625l0.054687 25.023c0.003906 1.1367 0.92188 2.0547 2.0586 2.0547h0.003906c1.1367-0.003906 2.0586-0.92578 2.0547-2.0625l-0.054687-25.023c0-1.1406-0.92188-2.0547-2.0586-2.0547z"/>
  <path d="m251.89 385.88h-0.003906c-1.1367 0.003906-2.0586 0.92578-2.0547 2.0625l0.050781 25.023c0.003907 1.1328 0.92188 2.0547 2.0586 2.0547h0.003906c1.1367-0.003906 2.0586-0.92578 2.0547-2.0625l-0.050781-25.023c0-1.1367-0.92188-2.0547-2.0586-2.0547z"/>
  <path d="m266.72 380.96h-0.003906c-1.1367 0.003907-2.0586 0.92578-2.0547 2.0625l0.074219 34.785c0.003906 1.1328 0.92188 2.0547 2.0586 2.0547h0.003906c1.1367-0.003906 2.0586-0.92578 2.0547-2.0625l-0.074218-34.785c-0.003906-1.1406-0.92188-2.0547-2.0586-2.0547z"/>
  <path d="m284.12 383.05c-0.003907-1.1367-0.92188-2.0547-2.0586-2.0547h-0.003906c-1.1367 0.003906-2.0586 0.92578-2.0547 2.0625l0.078125 34.785c0.003906 1.1367 0.92188 2.0547 2.0586 2.0547h0.003906c1.1367-0.003907 2.0586-0.92578 2.0547-2.0625z"/>
  <path d="m124.96 383.58c-1.1367 0-2.0586 0.92188-2.0586 2.0586v0.67188c0 1.1367 0.92188 2.0586 2.0586 2.0586 1.1367 0 2.0586-0.92188 2.0586-2.0586v-0.67188c0-1.1367-0.92188-2.0586-2.0586-2.0586z"/>
  <path d="m449.26 514.48h0.67188c1.1367 0 2.0586-0.92188 2.0586-2.0586s-0.92188-2.0586-2.0586-2.0586h-0.67188c-1.1367 0-2.0586 0.92188-2.0586 2.0586-0.003906 1.1406 0.91797 2.0586 2.0586 2.0586z"/>
  <path d="m596.98 436.7c0-44.133-32.77-80.664-75.234-86.793v-13.426h6.7266c4.6094 0 8.3555-3.75 8.3555-8.3594v-18.387c0-4.6094-3.7461-8.3594-8.3555-8.3594h-38.582c-4.6094 0-8.3594 3.75-8.3594 8.3594v18.387c0 4.6094 3.75 8.3594 8.3594 8.3594h6.7344v13.426c-41.996 6.0547-74.453 41.863-75.168 85.348h-12.816c0.63281-0.48438 1.2773-0.95312 1.8516-1.5273 3.3789-3.3906 5.2344-7.875 5.2266-12.625l-0.085938-41.77c-0.015624-9.8398-8.0273-17.836-17.863-17.836-0.42188 0-17.836 0.019531-17.41 0.019531-1.0664-15.172-13.719-27.199-29.16-27.199h-22.945v-22.848c77.043-6.9062 137.64-71.793 137.64-150.6 0-35.477-12.559-69.363-34.652-96.172 1.6758-2.0391 2.6328-4.5352 2.6328-7.1953 0-3.0469-1.1953-5.918-3.3633-8.0859-3.9883-3.9922-10.199-4.3789-14.836-1.0547-4.668-4.1992-9.6094-8.1406-14.836-11.777-5.2891-3.6914-12.848-2.3477-16.352 3.4883-3.0781 5.1445-1.6641 11.809 3.2188 15.18 4.1133 2.8398 8.0039 5.8867 11.703 9.1016l-4.3438 4.3438c-21.215-18.27-47.941-28.785-76.41-29.5-62.457-1.5859-115.17 44.148-123.96 104.35-0.0625 0.42188-0.10547 0.84375-0.16016 1.2656-4.8672 35.98 6.3555 70.348 28.449 96.012l-4.793 4.793c-3.0117-3.457-5.8906-7.0703-8.5742-10.895-3.4102-4.8672-10.098-6.2344-15.223-3.1016-2.7227 1.6602-4.582 4.2969-5.2305 7.4219-0.64453 3.0977 0.03125 6.3555 1.8555 8.9453 3.4219 4.8672 7.0938 9.4727 10.965 13.836l-1.4727 1.4727c-4.5117 4.6172-4.418 11.672 0.015626 16.113 4.4609 4.457 11.711 4.457 16.172 0l1.7227-1.7227c24.352 20.25 54.438 32.246 87 34.148v22.477h-22.91c-15.309 0-28.188 11.824-29.172 27.379-0.89844 0 12.664-0.015625-136.7 0.1875-6.4453 0.007812-11.691 5.2656-11.68 11.715l0.10937 54.109c0.011719 6.4375 5.2539 11.668 11.688 11.668h0.019532c64.051-0.074219-12.801 0.015625 51.375-0.066406-15.602 7.1055-26.496 22.844-26.496 41.113 0 18.176 10.84 33.828 26.375 40.941h-34.258c-1.1367 0-2.0586 0.92188-2.0586 2.0586 0 1.1367 0.92188 2.0586 2.0586 2.0586h431.15c1.1367 0 2.0586-0.92188 2.0586-2.0586 0-1.1367-0.92188-2.0586-2.0586-2.0586h-33.023c37.414-10.031 65.078-44.129 65.078-84.656zm-107.09-104.34c-2.3398 0-4.2422-1.9023-4.2422-4.2422v-18.387c0-2.3398 1.9023-4.2422 4.2422-4.2422h38.582c2.3359 0 4.2383 1.9023 4.2383 4.2422v9.0117h-13.258c-1.1367 0-2.0586 0.92187-2.0586 2.0586s0.92187 2.0586 2.0586 2.0586h13.258v5.2578c0 2.3398-1.9023 4.2422-4.2383 4.2422-37.816-0.011719-30.879 0-38.582 0zm10.852 4.1172h16.883v12.848c-5.8398-0.55859-10.844-0.57812-16.883 0zm-64.434 149.13h-49.957c-1.1367 0-2.0586 0.92188-2.0586 2.0586 0 1.1367 0.92188 2.0586 2.0586 2.0586h52.914c2.6875 3.5273 6.0117 7.2305 8.4727 9.6328l-261.05 0.003906c-10.641 0-18.98-9.0234-18.98-19.023 0-10.469 8.5156-18.98 18.98-18.98h238.25c0.54297 1.875 2.457 7.3516 3.4336 9.6328h-82.004c-1.1367 0-2.0586 0.92188-2.0586 2.0586s0.92188 2.0586 2.0586 2.0586h83.906c1.8438 3.7969 3.9219 7.3711 6.0312 10.5zm-56.73-119.97v69.25l-12.336 0.011719-0.12109-69.246zm18.191-0.03125c7.5703 0 13.734 6.1523 13.746 13.727l0.085938 41.77c0.011719 7.5547-6.168 13.758-13.727 13.766l-14.18 0.015624v-69.262c8.2539-0.007813 5.8164-0.003906 14.074-0.015625zm20.91-314.39c2.8047-1.6758 6.5039-1.3086 8.918 1.1094 1.3906 1.3906 2.1562 3.2305 2.1562 5.1758 0 1.4258-0.41797 2.7852-1.1875 3.9648-3.1055-3.5625-6.4219-6.9492-9.8672-10.227-0.003906-0.007813-0.011719-0.015625-0.019531-0.023437zm-16.238 15.918c3.7266 3.457 6.5469 6.3281 10.141 10.531 0.003906 0.003906 0.007812 0.007813 0.011718 0.011719l-4.2422 4.2461c-0.015625-0.019531-0.03125-0.035157-0.050781-0.054688-2.332-2.7188-7.0859-7.7109-10.102-10.488zm40.59 92.066c0.89062 70.828-57.52 130.06-128.39 130.06-29.875-0.003906-57.664-9.8906-80-27.812l4.7656-4.7656c12.043 9.625 25.859 16.98 40.879 21.516 0.066406 0.019532 0.12891 0.042969 0.19141 0.0625 0.023437 0.007813 0.046875 0.003907 0.066406 0.011719 11.086 3.3203 22.824 5.1289 34.977 5.1289 66.32 0 122.12-53.773 122.12-122.14 0-27.473-9.3047-54.324-26.699-76.074-0.003906-0.007813-0.011718-0.015625-0.015624-0.023438l4.3242-4.3242c17.566 21.898 27.414 49.094 27.781 78.359zm-243.36 24.504c3.9141 1.5586 8.043 2.1484 11.539 1.5938 0.40625-0.023438 1.1641-0.078125 1.2461-0.09375 2.6719 1.9961 5.1445 3.4492 8.5312 4.0664 0.14453 0.035156 0.56641 0.32031 0.90234 0.76172 0.98828 1.2734 3.5391 3.4102 14.215 7.2227 2.2891 0.81641 3.5625 3.043 2.3828 5.1211l-1.4336 2.5c-4.2891 7.3477-6.2461 10.699 0.875 18.066 0.4375 0.42578 1.0234 1.4219 1.3242 3.6445 0.39062 5.5586 4.3711 10.277 10.156 12.027 0.99219 0.29688 3.293 1.2422 3.2539 3.6094 0.042969 6.293 0.050782 12.59 0.046876 18.883-27.156-17.145-46.75-44.879-53.039-77.402zm-1.7734-31.668c0.15234-1.9258 0.34375-3.8477 0.58984-5.7578 0.070313-0.55859 0.13281-1.1172 0.21484-1.6719 2.2539-15.852 7.6719-30.578 15.309-43.445 0.17578-0.29688 0.33984-0.60547 0.51953-0.89844 1.0039 0.53516 2.3789 0.81641 4.1992 0.57813 1.8438-0.21484 1.9336-0.046876 2.1953 0.50391 0.85156 2.0625 4.1914 2.293 5.6914 2.293h0.015624c0.65234-0.027343 1.1445-0.035156 1.4727-0.015624 0.015625 0.21875 0.027343 0.54687 0.023437 1.0391-0.019531 3.8242 3.125 5.0625 5.4219 5.9688 0.55078 0.21875 1.1211 0.44141 1.6914 0.70312 0.62109 0.28906 1.3477 0.25 1.9297-0.10547 0.58594-0.35547 0.96094-0.97266 0.99219-1.6562l0.082032-1.7578c0.09375-2.0625 0.17578-3.9062 0.375-5.6758 0.12891-0.71484 0.41797-1.4258 0.69922-1.7578 0.87109-0.99609 3.1914-3.6445 1.6719-7.3359-0.14844-0.3125-0.17969-0.96875-0.20703-1.5469l-0.035156-0.64063c-0.039062-0.52734-0.027344-1.0664-0.019531-1.6094 0.015625-1.1914 0.035156-2.5273-0.36719-4.0664 0.023438-0.003906 0.046875-0.007812 0.074219-0.015625 2.918-0.50391 4.6719-0.24219 6.1562 0.85938 1.4766 1.2539 3.2344 1.9961 4.9336 2.7109 0.29297 0.12109 0.58594 0.24609 0.87891 0.37109-0.074219 1.293-0.12891 2.625-0.12109 3.957 0.003906 0.74219 0.41406 1.4297 1.0664 1.7891 0.26563 0.14844 0.56641 0.29297 0.86328 0.4375l0.67188 0.33594c0.9375 0.51953 2.1094 0.23047 2.707-0.66016 0.75781-1.1328 1.5117-2.3047 2.2422-3.4648 2.4805 5.1562 6.4414 9.2109 12.199 12.488-2.1562 1.2578-4.2695 2.5586-6.4023 3.8672l-2.6133 1.6016c-5.0703 2.9336-7.2617 6.8398-6.5117 11.727-0.023437 0.007812-0.046874 0.015624-0.074218 0.023437-0.86328 0.054687-1.8438 0.22656-2.7539 0.39062-2.2539 0.32031-3.7695 1.1211-4.625 2.4531-0.73047 1.1289-0.89453 2.5117-0.46484 4.3008-0.14062 0.039063-0.34766 0.09375-0.63672 0.13672-4.8281 0.82031-7.7852 3.7109-8.332 8.2266-0.3125 3.8672-2.168 7.0586-5.8828 10.059-2.0039 1.6875-2.8906 4.6094-2.8789 6.6953-0.039063 1.9297 0.36328 3.8281 0.75781 5.6641-1.1328-0.82812-1.832-1.5469-2.0039-2.5469-0.14062-2.0039-2.3477-3.0742-3.8125-3.7852-0.73828-0.35938-1.5391-0.4375-2.2422-0.51172-0.3125-0.03125-0.63281-0.054687-0.84766-0.10938-1.2344-0.35938-2.6641-0.625-3.9609 0.125-0.78906 0.45312-1.3555 1.1953-1.7383 2.3594-0.09375-0.039062-0.19922-0.089844-0.32031-0.14844-5.4102-2.6211-11.891 0.3125-12.887 5.9805-0.87891 5.8594-0.49609 10.609 1.1875 14.898 1.6094 4.375 6.8438 5.8555 10.816 2.7578 1.2891-0.96875 2.332-2.0938 3.3398-3.1875 0.30859-0.33203 0.62109-0.67578 0.94922-1.0156 0.19531 0.007813 0.36719 0.019532 0.51172 0.03125-0.12891 0.41016-0.28516 0.83984-0.33984 0.99609-0.88281 2.082-0.72656 4.4062-0.46875 6.2773 0.039063 0.55078 0.29688 1.3438 1.3008 1.9961 0.58984 0.38281 2.625 1.3477 4.1719 0.77734 0.49219-0.18359 0.75391-0.16406 0.78906-0.16797 0.003906 0.003906 0.1875 0.11328 0.41797 0.60547 0.49219 1.4258 2.0039 2.2109 8.8438 5.2227l3.0273 1.3477c3.375 1.5352 7.5273 0.99609 10.434-1.418 1.625-1.4414 3.9609-0.54297 4.9531-0.0625 1.7695 0.78516 4.0859 1.6484 6.2969 1.3711 5.207-0.61719 9.8008 1.6094 11.426 5.5234 1.2969 3.2891 3.7656 4.3359 7.0977 3.0234 1.2344-0.45312 2.8633-0.27734 4.2539 0.48828 1.0625 0.58203 1.7969 1.4062 1.9727 2.2344 1.1875 5.2188 4.8594 7.7031 10.887 6.2812 0.64844-0.10938 1.625-0.050781 2.4961 0.13281 4.6719 1.125 8.4492 3.6797 12.453 6.3828l1.5625 1.0547c1.4414 0.96094 1.7148 2.9648 0.65234 4.8945-0.80859 1.5195-1.125 2.9648-1.7227 4.293l-0.23047 0.53125c-0.10156 0.24609-0.25 0.61719-0.36719 0.83984-4.3359 1.7109-4.7656 5.1016-5.082 7.5977-0.21875 1.7422-0.17188 0.94531-0.39844 3.0312-0.28906 2.6172-0.55078 4.2891-2.3555 5.7656l-0.44922 0.48828c-0.070313 0.078125-0.13672 0.16016-0.21094 0.23828-2.9961 0.29297-4.6211 2.0586-5.9297 3.4922-0.68359 0.74219-1.2734 1.3828-2.0469 1.8164-1.5703 0.95312-1.8711 3.2109-1.6133 4.2695 0.54297 3.6289-0.70313 6.1953-3.9766 8.2891-1.2773 0.74219-2.1562 2.0273-2.5078 2.8789-1.293 2.7227-1.7734 3.1367-5.2148 2.3164-0.49609-0.21094-0.95312-0.30078-1.2969-0.375-0.54297-0.12891-1.3906 0.14844-1.8477 0.45703-0.23828 0.12109-0.47266 0.25-0.71094 0.41016-0.98438 0.66406-1.2031 2.0195-0.48047 2.9609 0.74219 0.97266 1.3164 2.0586 2.2266 3.1016-7.043-2.3203-13.828-5.293-20.438-8.9766-0.44922-0.25-0.89453-0.51562-1.3398-0.77344 0.011719-7.1328-0.011719-14.266-0.058594-21.352 0.054688-3.5078-2.3125-6.4062-6.1836-7.5703-4.1289-1.25-6.9688-4.5352-7.25-8.5039-0.38281-2.8633-1.2188-4.8828-2.5039-6.1328-4.9062-5.0781-4.3789-5.9883-0.23438-13.086l1.457-2.5469c2.4297-4.2852 0.17188-9.332-4.582-11.031-10.004-3.5742-11.98-5.3945-12.34-5.8633-0.35547-0.45703-1.6445-1.9883-3.4258-2.2969-2.6055-0.47266-4.5352-1.6172-6.8008-3.3086-1.2031-0.89844-2.8125-0.79688-4.1953-0.69531-3.5703 0.56641-8.0547-0.37891-11.914-2.4453-1.4805-9.918-1.5547-18.484-0.91406-26.727zm104.36 91.668c-0.023437 0.003906-0.046875 0.003906-0.070312 0.007812 0.019531-0.007812 0.035156-0.011719 0.050781-0.011719 0.007813 0 0.011719 0.003907 0.019531 0.003907zm87.902-26.953c-0.63672-2.5938-5.5391-3.5547-5.6758-3.5742l-0.67969-0.082031c-1.9414-0.21875-2.918-0.32422-4.3516-1.7969-1.9258-1.832-4.0273-2.3828-6.0742-2.3828-1.7266 0-3.4102 0.39062-4.9219 0.73828l-0.49219 0.10937c-6.3555 1.3672-12.363 2.6602-19.723-0.33203l-0.65625-0.26172c-6.543-2.582-12.727-5.0195-16.047-10.68-0.96484-1.5-2.6328-2.7188-4.125-3.8086-4.3828-3.1914-6.582-6.7109-6.9375-11.137-0.125-1.1406-0.13281-2.2734-0.14062-3.4102-0.027343-3.2383-0.058593-6.875-2.6211-10.891 0.20312-0.26953 0.47656-0.58984 0.66797-0.81641 0.23828-0.27734 0.46875-0.55078 0.6875-0.83594 0.33984-0.46484 0.72656-0.89844 1.1094-1.3281 0.80078-0.90625 1.7109-1.9258 2.2891-3.2461 0.16406-0.37891 0.30469-0.76562 0.4375-1.1484 0.52344-1.4805 0.66016-1.7617 1.8906-1.8828 1.082-0.15234 2.1719-0.98828 2.6484-2.0352 0.37891-0.83203 0.33203-1.7227 0.03125-2.1289-0.64062-1.4883-0.15234-2.1289 1.3633-3.7578 0.32812-0.35938 0.66016-0.71094 0.96875-1.082 0.027343-0.035156 0.24219-0.33594 0.26562-0.375 0.28906-0.39062 0.96094-1.3125 0.66016-2.5352-0.27734-1.1289-0.14453-1.6406-0.035157-1.75 0.027344-0.03125 0.79688-0.76953 4.6641 0.085938 0.63672 0.14453 1.2969-0.023438 1.7852-0.44922 0.49219-0.42188 0.75781-1.0508 0.71484-1.6914-0.085937-1.3359 0.066406-2.2031 0.46875-2.6523 0.54297-0.62109 1.9258-0.98047 4.2031-1.1094 2.5508-0.12109 4.875-0.6875 7.1211-1.2305 0.80078-0.19531 1.6055-0.39062 2.2812-0.54297 0.58984-0.085937 1.0703-0.32031 1.6016-0.60547 6.1797-0.046875 12.051-0.097656 18.496-0.097656-0.066406 0.48047-0.16406 2.1172-0.53125 3.375-1.3203 4.8984 2.1836 5.9688 5.2539 6.9023 4.4336 1.4023 8.8398 3.4609 13.16 5.4766 0.64453 0.27734 1.3828 0.79297 2.1602 1.3398 0.60547 0.42578 1.2227 0.85156 1.9219 1.2617 1.418 0.75391 3.2539 1.5039 4.832 0.53516 0.72656-0.44922 1.582-1.4102 1.5234-3.4883-0.046874-0.92969-0.058593-1.6172-0.027343-2.0547 0.71094 0.13281 2.0039 0.55469 3.8516 1.2656 8.0234 3.0898 15.844 4.4766 23.867 4.2148 2.2461-0.023437 4.0234-0.44141 5.3281-1.2539 0.089844 1.8789 0.14453 3.7617 0.14453 5.6641 0 30.93-11.969 59.102-31.5 80.168-2.3281-3.668-5.8047-6.7188-8.4102-9.9062-2.6055-3.2344-3.3711-4.4297-2.4883-6.2227 1.3438-2.5781 0.078124-5.8828-0.96094-8.5547zm11.82-83.98c0.19141 0.4375 0.48828 1.2461 0.30469 1.6914-0.089844 0.22266-0.35156 0.53125-1.0195 0.91797-1.8633-2.7383-3.8008-5.4414-5.1914-8.0547-0.48047-0.92578-1.2695-1.5117-2.2227-1.6523-2.0898-0.32422-3.9688 1.6016-6.1484 3.8164-0.56641 0.57422-1.375 1.3945-1.9922 1.9688-1.4062-2.3047-2.7148-4.4609-4.5352-6.4922-1.418-1.7109-3.7734-2.6328-5.8281-3.7695-0.63672-0.3125-1.2812-0.47656-1.8516-0.625-0.40234-0.10547-0.78516-0.19922-1.168-0.38281-5.6641-2.3047-11.277-3.6367-16.176-3.8398-0.78125-0.042969-3.4492-0.10547-4.6797 1.4336-1.4453 1.7734-2.793 3.6172-4.125 5.4414l-1.3828 1.9805c-1.9766 1.0742-14.215-0.14062-17.117-1.6133-0.003906-0.03125-0.003906-0.0625-0.003906-0.097657-0.035156-0.95312-0.085938-2.2578-0.99219-3.4609-0.0625-0.085938-0.12109-0.16406-0.17578-0.24219 0.22656 0.011719 0.49609 0.03125 0.80859 0.0625 1.3555 0.097656 2.5391 0.070313 3.832 0.03125 0.003906 0 0.41797-0.007812 0.42578-0.007812 3.3633-0.10547 5.8477-0.3125 7.2344-2.043 1.3125-1.6328 1.0352-3.793 0.5-6.6328-0.375-2.1562-1.043-4.6602-4.1367-7.0742 0.12109-0.019532 0.25781-0.035156 0.40625-0.042969 1.7188-0.023437 4.2461-0.53125 5.6602-1.8398 2.9453-2.5508 5.6172-5.3398 7.8867-8.2227 0.25391-0.29688 1.0391-1.1914 4.1719-0.53906 0.96484 0.16797 3.8867 0.67578 5.5625-1.125 1.0273-1.1016 1.2891-2.707 0.77734-4.7852-0.15625-0.63281-0.30469-1.2422-0.44141-1.8398 7.8906 6.5664 21.246 7.9883 27.785 2.8555 0.59375-0.47266 1.2422-0.90625 1.8867-1.332 1.9766-1.3086 4.3828-2.8984 5.1797-5.8281 0.1875-0.023437 0.42578-0.046875 0.72656-0.070313 1.3242-0.015624 2.6367-0.71875 4.1836-2.2539 16.25 16.746 26.848 37.516 31.113 59.121 0.023437 0.125 0.042969 0.25 0.066406 0.375-0.92969-0.078125-1.8047-0.125-2.5469-0.125-2.8359 0.13281-5.8867 0.089844-9.6055-0.16406-2.6797-0.17969-4.4609-1.4297-5.5938-3.9219-0.82422-1.8516-1.9805-3.5938-3.3281-5.0234-1.0508-1.1523-2.6328-1.6406-4.0273-2.0703l-0.84375-0.26562c-0.55078-0.19141-1.1523-0.11328-1.6602 0.15625-0.50781 0.27734-0.87891 0.77734-1.0156 1.3359-0.023438 0.10156-0.16406 0.37109-0.25781 0.54688-0.40625 0.79297-1.0859 2.0977-0.44531 3.7031zm-109.62-74.27c-0.050781-0.074219-0.22656-0.30469-0.29297-0.38281-0.011719-0.13672-0.042969-0.28516-0.082032-0.41016-1.0938-3.7422-2.2266-7.6055-3.0312-11.418 0.30859-0.070312 0.61328-0.14453 0.92188-0.21484 9.4062-2.0859 19.117-3.043 29.098-2.7539 5.5391 0.16016 10.926 0.6875 16.262 1.5898 0.13281 0.023438 0.26563 0.046875 0.39844 0.070312-1.8125 3.4805-2.6133 6.9766-3.1133 9.7539-0.10547 0.63672-0.17188 1.2695-0.23438 1.9023-0.23438 2.3359-0.39062 3.8789-2.5781 5.25-0.41406 0.19141-0.82812 0.45313-1.2383 0.72266-0.24609 0.16406-0.62109 0.41016-0.52344 0.4375-0.11328 0-0.22656-0.003907-0.33594-0.003907-6.3281 0-8.7461 3.0039-10.699 5.4219-0.78906 0.98437-1.5391 1.9102-2.4883 2.5859-6.2539 4.375-7.9727 9.7344-9.6367 14.918l-0.50391 1.5547c-0.23828 0.68359-0.47656 1.3359-0.73828 2.0391-6.8633-3.6172-8.2109-7.8945-8.0078-13.125l0.0625-1.7266c0.21094-5.0898 0.4375-10.867-3.2383-16.211zm-7.3711-11.23c0.83203 3.9141 1.918 7.7461 3.0039 11.445 0.11328 0.83594 0.48438 1.6055 0.97656 2.1172 2.9023 4.2188 2.7148 8.8359 2.5234 13.723l-0.0625 1.75c-0.32812 8.4766 3.5078 14.023 12.43 17.984 0.26563 0.11719 0.55078 0.17578 0.83594 0.17578 0.27344 0 0.54688-0.054688 0.80078-0.16406 0.52344-0.22266 0.93359-0.65234 1.1289-1.1875l0.60937-1.6445c0.33984-0.91797 0.64453-1.7266 0.94922-2.6094l0.52734-1.625c1.5234-4.7461 2.9609-9.2227 8.0859-12.812 1.4258-1.0078 2.4375-2.2617 3.3281-3.3672 1.7852-2.207 3.2617-4.1328 7.9375-3.8867 1.1211-0.082031 1.9883-0.65625 2.6875-1.1172 0.23047-0.14844 0.45703-0.30859 0.91016-0.53906 4.1328-2.5547 4.4648-5.832 4.7305-8.4609 0.054688-0.53906 0.10547-1.082 0.19531-1.6016 0.73438-4.0625 1.7812-7.0547 3.3438-9.6641 21.234 4.4844 40.375 14.703 55.734 28.949 0.51562 0.48047 1.0234 0.98047 1.5352 1.4727-0.82812 0.8125-1.2617 1.0117-1.3477 1.0352-0.039062 0-0.082031 0.003907-0.12109 0.003907-1.375 0.097656-4.2305 0.29687-4.375 2.5664-0.16406 1.6641-1.4688 2.6094-3.5859 4.0117-0.74609 0.49609-1.4961 0.99219-2.168 1.5312-4.6289 3.6367-15.867 3.0859-22.863-3.0195l-3.6055-3.2578c-0.59375-0.53906-1.4453-0.67969-2.1797-0.37109-0.73828 0.3125-1.2266 1.0234-1.2539 1.8242-0.10938 3.0312 0.51562 5.5703 1.125 8.0469 0.13281 0.53516 0.14062 0.83984 0.17969 0.92969-0.19922 0.046875-0.71875 0.11328-1.75-0.070312-3.6133-0.76172-6.3242-0.12891-8.125 1.957-2.168 2.7539-4.6602 5.3555-7.457 7.7773-0.34766 0.31641-1.6406 0.77734-3.0664 0.79688-2.5039 0.15234-4.2461 1.1758-4.7695 2.8047-0.28516 0.87891-0.42578 2.6328 1.8906 4.5273 2.0391 1.5781 2.4062 2.9023 2.707 4.6367 0.35938 1.9023 0.46484 3.0273 0.36719 3.293-0.23438 0.1875-1.1445 0.43359-4.1602 0.52734l-0.41406 0.011719c-1.168 0.019531-2.2383 0.054687-3.3789-0.019531-1.3008-0.14453-4.3203-0.44922-5.4883 1.625-1.1406 2.0234 0.57422 4.2852 1.2148 5.1367 0.125 0.16797 0.14453 0.64063 0.16406 1.1367 0.011719 0.33594 0.027343 0.68359 0.0625 1.0312 0.19922 1.8242 2.0977 2.6484 3.9258 3.2109 3.293 1.0195 17.328 3.4766 20.254 0.058593l1.6953-2.3047c1.2891-1.7656 2.5938-3.5508 3.7305-5.043 0.1875-0.09375 0.85156-0.19141 1.5234-0.14844 4.418 0.18359 9.6914 1.4453 14.723 3.4805 0.62891 0.30859 1.2656 0.46875 1.8242 0.61719 0.40625 0.10547 0.79297 0.20703 0.96094 0.28516 1.7109 0.94922 3.7969 1.8203 4.6211 2.8086 1.6016 1.793 2.7656 3.7031 4.1172 5.9219l1.0391 1.6875c0.39062 0.625 1.0898 0.97656 1.8164 0.96875 1.875-0.0625 3.6055-1.8203 5.6055-3.8555 0.64453-0.65625 1.6055-1.6289 2.3047-2.2031 1.7031 3 3.9414 6.0078 5.8672 8.9453 0.53516 0.81641 1.5625 1.1367 2.4766 0.78906 1.7852-0.70312 3.9414-1.7773 4.8047-3.8711 0.55078-1.3281 0.49609-2.8047-0.16406-4.4922 0.55078 0.1875 1.0859 0.41406 1.2852 0.63672 1.0547 1.1172 1.9492 2.4609 2.5898 3.9102 1.7617 3.8672 4.9023 6.0586 9.0742 6.3398 3.8828 0.25781 7.0898 0.3125 9.9766 0.16797 0.67969 0.003906 1.8125 0.066406 3.207 0.22266 0.33594 2.125 0.62109 4.2617 0.83984 6.4219-0.49219 0.47656-0.91406 1.0547-1.043 1.7891-0.11328 0.58203-0.32422 1.6641-3.9062 1.6992-7.5156 0.25-14.801-1.0547-22.305-3.9414-3.7539-1.4414-6.1562-2.2188-7.9336-0.93359-1.4648 1.0625-1.5898 2.9727-1.5352 5.0156-0.48438-0.24219-1.3008-0.82422-1.7461-1.1328-0.91406-0.64062-1.8633-1.3047-2.8359-1.7227-4.3828-2.0469-8.9141-4.1641-13.625-5.6523-0.59766-0.17969-2.4102-0.73437-2.6602-0.93359-0.003906-0.023438-0.035156-0.25 0.14453-0.92188 0.57422-1.9414 0.58203-3.9219 0.92578-6.25 0.18359-1.2305-0.77344-2.3594-2.0312-2.3594-7.418-0.011719-13.715 0.042969-20.695 0.10156-0.90234-0.054687-1.6367 0.29297-2.4453 0.66797-0.85938 0.18359-1.6992 0.39062-2.5391 0.59375-2.1523 0.52344-4.1875 1.0156-6.3633 1.1211-2.5312 0.14062-5.3516 0.55078-7.0703 2.4883-0.83203 0.9375-1.2266 2.0312-1.4062 3.0938-2.1953-0.25781-4.5664-0.085937-6.0898 1.4766-1.1523 1.1797-1.5391 2.8477-1.1523 4.9531-0.24609 0.29297-0.51172 0.57422-0.77344 0.85938-1.3242 1.4258-3.2305 3.4883-2.5195 6.7969-2.957 0.69922-3.7734 3.0039-4.2773 4.4336-0.10547 0.29297-0.21094 0.58984-0.32812 0.86719-0.31641 0.71875-0.9375 1.418-1.5977 2.1641-0.46875 0.53125-0.9375 1.0625-1.3242 1.5938-0.15234 0.19531-0.33594 0.41016-0.52344 0.63281-1 1.1758-2.8672 3.3633-1.3281 5.2109 2.2422 3.1484 2.2656 5.957 2.293 9.1992 0.011719 1.2773 0.023437 2.5508 0.16016 3.7695 0.44531 5.5742 3.2617 10.176 8.6289 14.09 1.1211 0.82031 2.5195 1.8359 3.0273 2.6211 3.9961 6.8164 11.137 9.6289 18.043 12.355l0.63672 0.25c8.5195 3.4688 15.434 1.9805 22.125 0.53906l0.83594-0.18359c3.1211-0.73047 5.1406-1.0469 6.8906 0.625 2.4062 2.4727 4.6328 2.7227 6.7891 2.9648l0.55859 0.058594c0.73438 0.12109 1.9453 0.63281 2.4219 0.96094 0.003906 0.011719 0.007813 0.019532 0.011719 0.027344 0.56641 1.4766 1.6172 4.2266 1.1094 5.1992-2.1445 4.3477 0.44531 7.5586 2.9609 10.68 2.9219 3.5781 6.6289 6.7422 8.6289 10.441-21.371 21.441-50.91 34.727-83.496 34.727-10.91 0-21.465-1.5195-31.5-4.3008 0.23828-1.6211-0.67188-2.8945-1.7148-3.7773 3.543 0.28125 5.5586-1.207 7.3906-5.0664 0.16016-0.38281 0.51953-0.82031 0.89062-1.0391 4.7031-3 6.6875-7.1797 5.9062-12.414-0.007812-0.039063 0.019532-0.22656 0.035156-0.35938 1.0664-0.68359 1.8711-1.5547 2.5859-2.3359 1.2188-1.3281 1.9766-2.082 3.1172-2.1836 1.5938 0.10547 2.543-0.99609 3.1875-1.7539 3.0469-2.4727 3.4062-5.7461 3.6992-8.375 0.058594-0.53125 0.11719-1.0625 0.19141-1.5391 0.082032-0.46875 0.14453-0.94531 0.20313-1.4219 0.3125-2.4648 0.54297-3.5898 2.7422-4.3711 1.418-0.51562 1.9844-1.9141 2.4414-3.0391l0.16797-0.41406c0.60547-1.332 1.0039-2.918 1.5742-3.9922 2.0859-3.793 1.25-8.1094-1.9883-10.277l-1.543-1.0391c-4.1289-2.7891-8.3945-5.6758-13.848-6.9883-0.67969-0.14844-2.4414-0.44531-4.2109-0.15234-1.9844 0.45703-3.4531 0.40234-4.375-0.17188-0.79297-0.5-1.3477-1.4766-1.6836-2.957-0.92969-4.3867-6.8984-7.4844-11.723-5.6836-1.3203 0.51953-1.3555 0.42188-1.8086-0.72266-2.3516-5.6797-8.6641-8.9141-15.746-8.0664-1.3789 0.19141-3.4414-0.74609-4.0586-1.0195-3.4766-1.6914-7.0039-1.4258-9.4258 0.71484-1.5898 1.3281-4.0625 1.6289-5.9961 0.75781l-3.0664-1.3672c-2.3633-1.043-5.8711-2.5859-6.8164-3.2539-1.7539-3.5859-4.707-3.1172-5.9492-2.5781-0.097657-0.003906-0.26172-0.042969-0.42578-0.10156-0.12109-1.2109-0.12109-2.4766 0.30859-3.5078 0.66406-1.8359 1.293-3.5742 0.29297-5.0508-1.0312-1.5195-3.082-1.5781-5.0664-1.6367-0.57812 0.003906-1.1094 0.19531-1.5117 0.59375-1.6602 1.6484-2.9492 3.3242-4.5039 4.4922-0.89844 0.69531-1.9141 0.95312-2.8047 0.69531-0.76562-0.21875-1.3516-0.78906-1.668-1.6445-1.4453-3.6836-1.7422-7.6367-0.97266-12.77 0.21875-1.2383 1.043-2.3086 2.2617-2.9297 1.4531-0.74609 3.2344-0.74219 4.7617-0.003906 0.73438 0.35547 2.4492 1.1836 4.0781 0.41797 0.64453-0.30859 1.4844-0.98828 1.9609-2.6602 0.16016 0.03125 0.38672 0.085938 0.71094 0.17578 0.47656 0.11719 0.99609 0.17578 1.5 0.23047 0.29688 0.027344 0.74219 0.078125 0.86328 0.12109 0.91797 0.44141 1.3633 0.71484 1.582 0.87891 0.66016 3.125 3.0352 4.7148 4.957 6.0039 0.69922 0.46875 1.4102 0.9375 2.0195 1.4922 0.51172 0.46484 1.2266 0.64844 1.8867 0.46875 0.66797-0.16406 1.207-0.66016 1.4414-1.3086 0.42969-1.2188 0.36328-2.1406 0.29688-2.9844-0.14453-0.91406-0.33594-1.832-0.53516-2.7539-0.36328-1.6953-0.70312-3.2969-0.67188-4.8164-0.007812-1.3281 0.61328-2.8984 1.3828-3.5469 4.5547-3.6836 6.9609-7.9023 7.3594-12.82 0.32031-2.6445 1.8398-4.0586 4.9062-4.582 1.0859-0.17188 2.6328-0.55859 3.5234-1.8633 0.91016-1.332 0.58594-2.832 0.44531-3.457-0.16797-0.58203-0.125-0.87109-0.078125-0.94531 0.089843-0.14062 0.56641-0.44141 1.8203-0.625 0.82422-0.14453 1.6445-0.29688 2.6484-0.38672 3.6406-0.74609 3.8359-3.2188 3.6133-4.6758-0.33984-1.9414-0.25-4.8359 4.5234-7.6055l2.6641-1.6328c2.3398-1.4336 4.6523-2.8555 7.1016-4.2734 0.46875-0.29688 0.98828-0.52734 1.4883-0.75391 0.37891-0.17188 0.75-0.33984 1.1055-0.52734 0.69922-0.36328 1.1328-1.0898 1.1133-1.8789-0.019532-0.78516-0.48438-1.4922-1.1992-1.8203-7.8438-3.6016-12.398-8.0938-14.77-14.559-0.27734-0.75781-0.96484-1.2773-1.7656-1.3438l-1.2227-0.097656c-0.76953-0.082032-1.5195 0.3125-1.9258 0.98047-0.38281 0.62891-0.77734 1.2695-1.1836 1.918 0.019531-0.35547 0.042968-0.70312 0.066406-1.0508 0.054687-0.82812-0.39453-1.6094-1.1367-1.9766-0.76172-0.37891-1.5508-0.71484-2.3438-1.0469-1.4766-0.625-2.8672-1.2109-3.9609-2.1328-3.2109-2.4062-6.7227-2.168-9.4688-1.6914-1.0469 0.20703-2.3398 0.58984-3.082 1.793-0.81641 1.3203-0.40625 2.7812-0.24219 3.3633 0.27734 0.82422 0.26172 1.8398 0.24609 2.918-0.007812 0.66016-0.015624 1.3164 0.027344 1.9531l0.03125 0.54297c0.042969 0.91406 0.097656 2.0508 0.55469 3.0156 0.33594 0.82031 0.27734 1.5039-1.0117 2.9805-1.0586 1.2344-1.4805 2.8516-1.6602 3.8438-0.1875 1.6289-0.28125 3.2109-0.36328 4.9141-1.75-0.73828-1.9453-1.0547-1.9414-1.7617 0.011719-1.6484-0.0625-3.1016-1.1406-4.1406-1.1992-1.1562-2.957-1.0938-4.5508-1.0195-0.80078 0-1.6562-0.14453-2.0859-0.27734-1.6914-3.0273-4.6172-2.6836-6.2227-2.4844-0.6875 0.085938-1.1328 0.042969-1.4297-0.0625 15.699-23.902 39.844-41.801 68.172-49.398zm-59.32 196.7c2.3516 2.543 8.0273 7.9922 10.531 10.125l-4.6914 4.6875c-3.9922-3.4258-7.5039-6.8086-10.555-10.098zm-11.887 32.539c-2.8555 2.8477-7.4922 2.8555-10.348 0-1.3906-1.3906-2.1562-3.2188-2.1562-5.1367 0-1.9141 0.77344-3.7539 2.1562-5.1719l1.3281-1.3281c0.45312 0.48047 0.9375 0.94141 1.3984 1.418 2.9297 3.0469 5.9297 6 9.0742 8.7617zm-19.398-30.879c-1.1875-1.6836-1.6094-3.7266-1.1914-5.7422 0.41406-1.9961 1.6016-3.6836 3.3438-4.7461 1.1953-0.72656 2.5156-1.0742 3.8242-1.0742 2.2812 0 4.5039 1.0625 5.8867 3.0234 25.059 35.719 64.559 56.289 108.41 56.293 73.129 0 133.43-61.078 132.5-134.23-0.57031-45.445-23.281-83.945-57.109-107.29-3.1016-2.1445-3.9922-6.3945-2.0195-9.6875 2.168-3.6094 6.9453-4.668 10.465-2.2188 38.105 26.52 63.289 71.281 63.289 120.91 0 78.395-62.066 144.53-143.23 147.03-0.92578 0.023437-1.8516 0.0625-2.7812 0.070312-51.266 0.48047-94.199-23.656-121.39-62.336zm115.15 66.375c0.78125 0.03125 1.5664 0.011718 2.3477 0.027344 0.41406 0.007812 4.1289 0.25391 12.09-0.23438 0.0625-0.003906 0.11719-0.003906 0.17969-0.007812v22.527h-14.617zm-27.027 26.434c0.67578 0 50.156 0.003906 68.707 0 13.172 0 24.012 10.18 25.062 23.086l-118.83-0.003906c1.0547-13.059 12.008-23.082 25.062-23.082zm-149.39 96.805v-69.258l20.336-0.023437 0.12109 69.254zm-16.344 0.019531h-0.011719c-4.168 0-7.5625-3.3906-7.5703-7.5586l-0.10938-54.109c-0.007812-4.1797 3.4141-7.5859 7.5664-7.5859l6.2656-0.007812v12.742c0 1.1367 0.92188 2.0586 2.0586 2.0586 1.1367 0 2.0586-0.92188 2.0586-2.0586v-12.746l1.9648-0.003906v69.258zm40.797-69.312 205.45-0.28125 0.125 69.262-205.45 0.28125zm-11.793 114.48c0-22.637 18.359-41.051 40.93-41.051h234.74c0.16406 5.668 1.0781 12.406 2.4062 17.871h-237.15c-12.738 0-23.098 10.363-23.098 23.098 0 12.562 10.184 23.184 23.098 23.184l265.6-0.003906c0.84375 0.72266 6 4.6797 9.332 6.8359h-1.6055c-1.1367 0-2.0586 0.92188-2.0586 2.0586 0 1.1367 0.92188 2.0586 2.0586 2.0586h8.5781c4.3125 2.2617 9.6562 4.5312 15.34 6.2422 0.69922 0.21094 1.3906 0.44141 2.0977 0.63672h-299.34c-22.57 0-40.93-18.363-40.93-40.93zm355.11 39.488-0.28906-0.03125c-27.414-2.832-51.758-19.094-64.957-43.328-0.003906-0.011719-0.011718-0.019531-0.015624-0.027344-5.1797-9.5234-8.7031-20.938-9.7305-32.285-4.4492-49.5 34.684-91.219 83.297-91.219 46.145 0 83.684 37.539 83.684 83.68-0.003907 49.039-42.402 88.117-91.988 83.211z"/>
  <path d="m509.18 369.56c-37.016 0-67.125 30.113-67.125 67.129 0 36.996 30.113 67.09 67.125 67.09 37.016 0 67.125-30.094 67.125-67.09 0-37.012-30.109-67.129-67.125-67.129zm2.0586 130v-7.3555c0-1.1367-0.92188-2.0586-2.0586-2.0586-1.1367 0-2.0586 0.92188-2.0586 2.0586v7.3555c-33.102-1.0781-59.781-27.742-60.848-60.828h7.375c1.1367 0 2.0586-0.92188 2.0586-2.0586s-0.92188-2.0586-2.0586-2.0586h-7.375c1.0859-33.086 27.758-59.75 60.844-60.828v7.3555c0 1.1367 0.92188 2.0586 2.0586 2.0586 1.1367 0 2.0586-0.92188 2.0586-2.0586v-7.3555c33.09 1.0781 59.758 27.742 60.844 60.828h-7.3711c-1.1367 0-2.0586 0.92188-2.0586 2.0586s0.92188 2.0586 2.0586 2.0586h7.375c-1.0664 33.086-27.742 59.754-60.844 60.828z"/>
  <path d="m553.59 434.45-30.875-5.25 8.082-11.457c0.57812-0.82031 0.48047-1.9336-0.23047-2.6445-0.71094-0.70312-1.8281-0.79687-2.6445-0.22266l-11.426 8.1094-5.3203-30.875c-0.17188-0.98828-1.0273-1.7109-2.0273-1.7109h-0.003906c-1.0039 0-1.8594 0.72266-2.0273 1.7148l-5.25 30.879-11.461-8.082c-0.8125-0.57812-1.9336-0.48828-2.6445 0.22656-0.70703 0.71094-0.80078 1.8242-0.22266 2.6445l8.0781 11.426-30.836 5.2852c-0.98828 0.17188-1.7109 1.0312-1.7109 2.0312s0.72266 1.8633 1.7109 2.0312l30.875 5.2891-8.0781 11.422c-0.57812 0.82031-0.48438 1.9375 0.22656 2.6445 0.71094 0.70703 1.8281 0.80469 2.6445 0.22656l11.426-8.0781 5.2852 30.875c0.16797 0.98828 1.0234 1.7148 2.0273 1.7148s1.8594-0.72266 2.0273-1.7148l5.2891-30.875 11.426 8.0781c0.81641 0.57812 1.9375 0.48438 2.6445-0.22656 0.71094-0.70703 0.80469-1.8242 0.22656-2.6445l-8.082-11.426 30.879-5.3242c0.98828-0.17188 1.7109-1.0312 1.7109-2.0352-0.007812-1.0078-0.73438-1.8633-1.7188-2.0312zm-34.793 5.8789c-0.69531 0.12109-1.2812 0.58984-1.5508 1.2422-0.26953 0.65625-0.1875 1.3984 0.22266 1.9766l3.0352 4.2852-4.2891-3.0312c-0.57422-0.41016-1.3281-0.49219-1.9766-0.22266-0.65234 0.26953-1.1211 0.85547-1.2422 1.5547l-3.8086 22.242-3.8086-22.242c-0.11719-0.69922-0.58594-1.2852-1.2422-1.5547-0.25391-0.10547-0.51953-0.15625-0.78906-0.15625-0.42187 0-0.83594 0.12891-1.1875 0.37891l-4.2891 3.0312 3.0352-4.2852c0.40625-0.57812 0.49219-1.3281 0.22266-1.9766-0.26953-0.65234-0.85937-1.1211-1.5547-1.2422l-22.254-3.8086 22.211-3.8086c0.69922-0.12109 1.2812-0.58984 1.5547-1.2422 0.26953-0.65234 0.1875-1.3984-0.22266-1.9766l-3.0625-4.3281 4.3594 3.0703c0.57813 0.41016 1.3242 0.48828 1.9766 0.22266 0.65234-0.27344 1.1211-0.85938 1.2422-1.5547l3.7812-22.242 3.8359 22.246c0.12109 0.69531 0.58984 1.2812 1.2422 1.5508 0.65625 0.27344 1.3984 0.18359 1.9766-0.22266l4.2852-3.043-3.0352 4.3008c-0.40625 0.57812-0.49219 1.3242-0.21875 1.9766 0.26953 0.65234 0.85938 1.1172 1.5547 1.2383l22.242 3.7812z"/>
  <path d="m508 322.86h1.1836c1.1367 0 2.0586-0.92188 2.0586-2.0586s-0.92188-2.0586-2.0586-2.0586h-1.1836c-1.1367 0-2.0586 0.92187-2.0586 2.0586s0.91797 2.0586 2.0586 2.0586z"/>
 </g>
</svg>
