<?xml version="1.0" encoding="UTF-8"?>
<svg width="700pt" height="700pt" version="1.1" viewBox="0 0 700 700" xmlns="http://www.w3.org/2000/svg" xmlns:xlink="http://www.w3.org/1999/xlink">
 <defs>
  <symbol id="t" overflow="visible">
   <path d="m14.703-0.875c-0.75 0.38672-1.5391 0.67969-2.3594 0.875-0.82422 0.20703-1.6836 0.3125-2.5781 0.3125-2.668 0-4.7812-0.74219-6.3438-2.2344-1.5547-1.4883-2.3281-3.5078-2.3281-6.0625 0-2.5625 0.77344-4.5859 2.3281-6.0781 1.5625-1.4883 3.6758-2.2344 6.3438-2.2344 0.89453 0 1.7539 0.10547 2.5781 0.3125 0.82031 0.19922 1.6094 0.49219 2.3594 0.875v3.3125c-0.76172-0.51953-1.5156-0.89844-2.2656-1.1406-0.74219-0.23828-1.5234-0.35938-2.3438-0.35938-1.4688 0-2.625 0.47656-3.4688 1.4219-0.84375 0.9375-1.2656 2.2344-1.2656 3.8906 0 1.6484 0.42188 2.9453 1.2656 3.8906 0.84375 0.9375 2 1.4062 3.4688 1.4062 0.82031 0 1.6016-0.11719 2.3438-0.35938 0.75-0.23828 1.5039-0.61719 2.2656-1.1406z"/>
  </symbol>
  <symbol id="c" overflow="visible">
   <path d="m10.766-8.7344c-0.33594-0.15625-0.66797-0.26953-1-0.34375-0.33594-0.082031-0.67188-0.125-1.0156-0.125-0.98047 0-1.7344 0.32031-2.2656 0.95312-0.53125 0.63672-0.79688 1.543-0.79688 2.7188v5.5312h-3.8438v-12h3.8438v1.9688c0.48828-0.78906 1.0508-1.3633 1.6875-1.7188 0.64453-0.36328 1.4102-0.54688 2.2969-0.54688 0.13281 0 0.27344 0.007813 0.42188 0.015625 0.15625 0.011719 0.375 0.039062 0.65625 0.078125z"/>
  </symbol>
  <symbol id="b" overflow="visible">
   <path d="m13.828-6.0312v1.0938h-8.9688c0.09375 0.89844 0.41406 1.5742 0.96875 2.0312 0.5625 0.44922 1.3438 0.67188 2.3438 0.67188 0.80078 0 1.625-0.11719 2.4688-0.35938 0.85156-0.23828 1.7266-0.60156 2.625-1.0938v2.9531c-0.91797 0.34375-1.8281 0.60547-2.7344 0.78125s-1.8125 0.26562-2.7188 0.26562c-2.168 0-3.8555-0.55078-5.0625-1.6562-1.2109-1.1016-1.8125-2.6484-1.8125-4.6406 0-1.957 0.58594-3.5 1.7656-4.625 1.1875-1.125 2.8164-1.6875 4.8906-1.6875 1.8945 0 3.4062 0.57031 4.5312 1.7031 1.1328 1.1367 1.7031 2.6562 1.7031 4.5625zm-3.9375-1.2812c0-0.72656-0.21484-1.3164-0.64062-1.7656-0.42969-0.44531-0.98438-0.67188-1.6719-0.67188-0.74219 0-1.3438 0.21484-1.8125 0.64062-0.46875 0.41797-0.75781 1.0156-0.85938 1.7969z"/>
  </symbol>
  <symbol id="m" overflow="visible">
   <path d="m7.2188-5.4062c-0.79297 0-1.3906 0.13672-1.7969 0.40625-0.40625 0.27344-0.60938 0.67188-0.60938 1.2031 0 0.49219 0.16016 0.875 0.48438 1.1562 0.32031 0.27344 0.77344 0.40625 1.3594 0.40625 0.71875 0 1.3203-0.25781 1.8125-0.78125 0.5-0.51953 0.75-1.1719 0.75-1.9531v-0.4375zm5.875-1.4375v6.8438h-3.875v-1.7812c-0.51172 0.73047-1.0898 1.2617-1.7344 1.5938-0.64844 0.33203-1.4297 0.5-2.3438 0.5-1.25 0-2.2656-0.35938-3.0469-1.0781-0.77344-0.72656-1.1562-1.6758-1.1562-2.8438 0-1.4062 0.48438-2.4375 1.4531-3.0938s2.4883-0.98438 4.5625-0.98438h2.2656v-0.29688c0-0.60156-0.24219-1.0469-0.71875-1.3281-0.48047-0.28906-1.2266-0.4375-2.2344-0.4375-0.82422 0-1.5898 0.085938-2.2969 0.25-0.71094 0.16797-1.3672 0.41797-1.9688 0.75v-2.9375c0.8125-0.19531 1.6328-0.34766 2.4688-0.45312 0.83203-0.10156 1.6602-0.15625 2.4844-0.15625 2.1641 0 3.7266 0.42969 4.6875 1.2812 0.96875 0.85547 1.4531 2.2461 1.4531 4.1719z"/>
  </symbol>
  <symbol id="d" overflow="visible">
   <path d="m6.0312-15.422v3.4219h3.9531v2.7344h-3.9531v5.0938c0 0.5625 0.10938 0.94531 0.32812 1.1406 0.22656 0.1875 0.67188 0.28125 1.3281 0.28125h1.9688v2.75h-3.2812c-1.5234 0-2.6016-0.3125-3.2344-0.9375-0.625-0.63281-0.9375-1.7109-0.9375-3.2344v-5.0938h-1.9062v-2.7344h1.9062v-3.4219z"/>
  </symbol>
  <symbol id="l" overflow="visible">
   <path d="m10.016-10.25v-6.4219h3.8594v16.672h-3.8594v-1.7344c-0.53125 0.71094-1.1172 1.2305-1.75 1.5625-0.63672 0.32031-1.3711 0.48438-2.2031 0.48438-1.4805 0-2.6992-0.58594-3.6562-1.7656-0.94922-1.1758-1.4219-2.6875-1.4219-4.5312 0-1.8516 0.47266-3.3672 1.4219-4.5469 0.95703-1.1758 2.1758-1.7656 3.6562-1.7656 0.82031 0 1.5508 0.16797 2.1875 0.5 0.64453 0.33594 1.2344 0.85156 1.7656 1.5469zm-2.5312 7.7812c0.82031 0 1.4453-0.30078 1.875-0.90625 0.4375-0.60156 0.65625-1.4727 0.65625-2.6094 0-1.1445-0.21875-2.0195-0.65625-2.625-0.42969-0.60156-1.0547-0.90625-1.875-0.90625-0.8125 0-1.4375 0.30469-1.875 0.90625-0.42969 0.60547-0.64062 1.4805-0.64062 2.625 0 1.1367 0.21094 2.0078 0.64062 2.6094 0.4375 0.60547 1.0625 0.90625 1.875 0.90625z"/>
  </symbol>
  <symbol id="k" overflow="visible">
   <path d="m8.2344-2.4688c0.82031 0 1.4453-0.30078 1.875-0.90625 0.4375-0.60156 0.65625-1.4727 0.65625-2.6094 0-1.1445-0.21875-2.0195-0.65625-2.625-0.42969-0.60156-1.0547-0.90625-1.875-0.90625-0.82422 0-1.4531 0.30469-1.8906 0.90625-0.4375 0.60547-0.65625 1.4805-0.65625 2.625 0 1.1367 0.21875 2.0078 0.65625 2.6094 0.4375 0.60547 1.0664 0.90625 1.8906 0.90625zm-2.5469-7.7812c0.51953-0.69531 1.1016-1.2109 1.75-1.5469 0.64453-0.33203 1.3828-0.5 2.2188-0.5 1.4766 0 2.6914 0.58984 3.6406 1.7656 0.95703 1.1797 1.4375 2.6953 1.4375 4.5469 0 1.8438-0.48047 3.3555-1.4375 4.5312-0.94922 1.1797-2.1641 1.7656-3.6406 1.7656-0.83594 0-1.5742-0.16797-2.2188-0.5-0.64844-0.33203-1.2305-0.84766-1.75-1.5469v1.7344h-3.8438v-16.672h3.8438z"/>
  </symbol>
  <symbol id="j" overflow="visible">
   <path d="m0.26562-12h3.8438l3.2188 8.1406 2.75-8.1406h3.8281l-5.0469 13.141c-0.5 1.332-1.0898 2.2656-1.7656 2.7969-0.67969 0.53125-1.5703 0.79688-2.6719 0.79688h-2.2188v-2.5156h1.1875c0.65625 0 1.1289-0.10547 1.4219-0.3125 0.30078-0.21094 0.53516-0.57812 0.70312-1.1094l0.09375-0.34375z"/>
  </symbol>
  <symbol id="i" overflow="visible">
   <path d="m2.0156-16h4.125v16h-4.125z"/>
  </symbol>
  <symbol id="h" overflow="visible">
   <path d="m11.547-11.625v3.125c-0.52344-0.35156-1.0469-0.61328-1.5781-0.78125-0.52344-0.17578-1.0625-0.26562-1.625-0.26562-1.0742 0-1.9141 0.3125-2.5156 0.9375-0.59375 0.625-0.89062 1.5-0.89062 2.625 0 1.1172 0.29688 1.9844 0.89062 2.6094 0.60156 0.625 1.4414 0.9375 2.5156 0.9375 0.59375 0 1.1602-0.085938 1.7031-0.26562 0.53906-0.17578 1.0391-0.44141 1.5-0.79688v3.1406c-0.60547 0.23047-1.2148 0.39453-1.8281 0.5-0.61719 0.11328-1.2344 0.17188-1.8594 0.17188-2.168 0-3.8672-0.55078-5.0938-1.6562-1.2188-1.1133-1.8281-2.6602-1.8281-4.6406 0-1.9883 0.60938-3.5352 1.8281-4.6406 1.2266-1.1133 2.9258-1.6719 5.0938-1.6719 0.625 0 1.2422 0.058594 1.8594 0.17188 0.61328 0.10547 1.2227 0.27344 1.8281 0.5z"/>
  </symbol>
  <symbol id="a" overflow="visible">
   <path d="m7.5625-9.5469c-0.85547 0-1.5078 0.30859-1.9531 0.92188-0.44922 0.60547-0.67188 1.4844-0.67188 2.6406 0 1.1484 0.22266 2.0273 0.67188 2.6406 0.44531 0.60547 1.0977 0.90625 1.9531 0.90625 0.83203 0 1.4688-0.30078 1.9062-0.90625 0.44531-0.61328 0.67188-1.4922 0.67188-2.6406 0-1.1562-0.22656-2.0352-0.67188-2.6406-0.4375-0.61328-1.0742-0.92188-1.9062-0.92188zm0-2.75c2.0625 0 3.6719 0.55859 4.8281 1.6719 1.1641 1.1172 1.75 2.6641 1.75 4.6406 0 1.9688-0.58594 3.5117-1.75 4.625-1.1562 1.1172-2.7656 1.6719-4.8281 1.6719-2.0742 0-3.6992-0.55469-4.875-1.6719-1.168-1.1133-1.75-2.6562-1.75-4.625 0-1.9766 0.58203-3.5234 1.75-4.6406 1.1758-1.1133 2.8008-1.6719 4.875-1.6719z"/>
  </symbol>
  <symbol id="g" overflow="visible">
   <path d="m13.906-7.3125v7.3125h-3.8438v-5.5938c0-1.0391-0.027344-1.7539-0.078125-2.1406-0.042969-0.39453-0.12109-0.6875-0.23438-0.875-0.15625-0.25-0.36719-0.44141-0.625-0.57812-0.25-0.14453-0.54297-0.21875-0.875-0.21875-0.80469 0-1.4336 0.3125-1.8906 0.9375-0.44922 0.61719-0.67188 1.4688-0.67188 2.5625v5.9062h-3.8438v-12h3.8438v1.75c0.57031-0.69531 1.1797-1.2109 1.8281-1.5469 0.65625-0.33203 1.375-0.5 2.1562-0.5 1.3945 0 2.4453 0.42969 3.1562 1.2812 0.71875 0.84375 1.0781 2.0781 1.0781 3.7031z"/>
  </symbol>
  <symbol id="f" overflow="visible">
   <path d="m9.75-16.672v2.5156h-2.125c-0.54297 0-0.92188 0.10156-1.1406 0.29688-0.21875 0.1875-0.32812 0.52734-0.32812 1.0156v0.84375h3.2812v2.7344h-3.2812v9.2656h-3.8281v-9.2656h-1.9062v-2.7344h1.9062v-0.84375c0-1.3008 0.36328-2.2656 1.0938-2.8906 0.72656-0.625 1.8594-0.9375 3.3906-0.9375z"/>
  </symbol>
  <symbol id="s" overflow="visible">
   <path d="m-0.21875-16h4.5156l3.6406 5.7031 3.6562-5.7031h4.5156l-6.0938 9.25v6.75h-4.125v-6.75z"/>
  </symbol>
  <symbol id="e" overflow="visible">
   <path d="m1.7188-4.6719v-7.3281h3.8594v1.1875c0 0.65625-0.007813 1.4805-0.015625 2.4688-0.011719 0.98047-0.015625 1.6328-0.015625 1.9531 0 0.96875 0.023437 1.668 0.078125 2.0938 0.050781 0.41797 0.14062 0.72656 0.26562 0.92188 0.15625 0.25 0.35938 0.44531 0.60938 0.57812 0.25 0.13672 0.53906 0.20312 0.875 0.20312 0.80078 0 1.4297-0.30469 1.8906-0.92188 0.45703-0.61328 0.6875-1.4688 0.6875-2.5625v-5.9219h3.8281v12h-3.8281v-1.7344c-0.58594 0.69922-1.1992 1.2148-1.8438 1.5469-0.64844 0.33203-1.3594 0.5-2.1406 0.5-1.3867 0-2.4453-0.42188-3.1719-1.2656-0.71875-0.85156-1.0781-2.0938-1.0781-3.7188z"/>
  </symbol>
  <symbol id="r" overflow="visible">
   <path d="m12.969-10.016c0.48828-0.73828 1.0664-1.3008 1.7344-1.6875 0.66406-0.39453 1.3984-0.59375 2.2031-0.59375 1.375 0 2.4219 0.42969 3.1406 1.2812 0.72656 0.84375 1.0938 2.0781 1.0938 3.7031v7.3125h-3.8594v-6.2656c0.007812-0.09375 0.015625-0.1875 0.015625-0.28125v-0.4375c0-0.84375-0.125-1.457-0.375-1.8438-0.25-0.38281-0.65234-0.57812-1.2031-0.57812-0.73047 0-1.293 0.30469-1.6875 0.90625-0.39844 0.60547-0.60547 1.4766-0.625 2.6094v5.8906h-3.8594v-6.2656c0-1.3203-0.11719-2.1758-0.34375-2.5625-0.23047-0.38281-0.63672-0.57812-1.2188-0.57812-0.74219 0-1.3086 0.30469-1.7031 0.90625-0.39844 0.60547-0.59375 1.4688-0.59375 2.5938v5.9062h-3.8594v-12h3.8594v1.75c0.46875-0.67578 1.0039-1.1875 1.6094-1.5312 0.61328-0.34375 1.2891-0.51562 2.0312-0.51562 0.82031 0 1.5508 0.20312 2.1875 0.60938 0.64453 0.39844 1.1289 0.95312 1.4531 1.6719z"/>
  </symbol>
  <symbol id="q" overflow="visible">
   <path d="m13.906-7.3125v7.3125h-3.8438v-5.5781c0-1.0508-0.027344-1.7695-0.078125-2.1562-0.042969-0.39453-0.12109-0.6875-0.23438-0.875-0.15625-0.25-0.36719-0.44141-0.625-0.57812-0.25-0.14453-0.54297-0.21875-0.875-0.21875-0.80469 0-1.4336 0.3125-1.8906 0.9375-0.44922 0.61719-0.67188 1.4688-0.67188 2.5625v5.9062h-3.8438v-16.672h3.8438v6.4219c0.57031-0.69531 1.1797-1.2109 1.8281-1.5469 0.65625-0.33203 1.375-0.5 2.1562-0.5 1.3945 0 2.4453 0.42969 3.1562 1.2812 0.71875 0.84375 1.0781 2.0781 1.0781 3.7031z"/>
  </symbol>
  <symbol id="p" overflow="visible">
   <path d="m2.0156-16h4.6094l5.8125 10.969v-10.969h3.9219v16h-4.6094l-5.8281-10.984v10.984h-3.9062z"/>
  </symbol>
  <symbol id="o" overflow="visible">
   <path d="m2.0156-16h6.8438c2.0391 0 3.6016 0.45312 4.6875 1.3594 1.0938 0.89844 1.6406 2.1836 1.6406 3.8594 0 1.6797-0.54688 2.9688-1.6406 3.875-1.0859 0.90625-2.6484 1.3594-4.6875 1.3594h-2.7188v5.5469h-4.125zm4.125 2.9844v4.4688h2.2812c0.80078 0 1.4219-0.19141 1.8594-0.57812 0.4375-0.39453 0.65625-0.94531 0.65625-1.6562 0-0.71875-0.21875-1.2695-0.65625-1.6562-0.4375-0.38281-1.0586-0.57812-1.8594-0.57812z"/>
  </symbol>
  <symbol id="n" overflow="visible">
   <path d="m1.8438-12h3.8438v11.781c0 1.6133-0.39062 2.8438-1.1719 3.6875-0.77344 0.84375-1.8867 1.2656-3.3438 1.2656h-1.9062v-2.5156h0.67188c0.72656 0 1.2266-0.16797 1.5-0.5 0.26953-0.32422 0.40625-0.96875 0.40625-1.9375zm0-4.6719h3.8438v3.125h-3.8438z"/>
  </symbol>
 </defs>
 <g>
  <path d="m350 501.07c-1.8164 0-3.293-1.4766-3.293-3.293l0.003906-435.55c0-1.8164 1.4766-3.293 3.293-3.293s3.293 1.4766 3.293 3.293v435.56c-0.003907 1.8164-1.4766 3.2891-3.2969 3.2891z"/>
  <path d="m329.59 85.918c-0.84375 0-1.6875-0.32031-2.3281-0.96484-1.2852-1.2852-1.2852-3.3711 0-4.6562l20.406-20.406c1.2852-1.2852 3.3711-1.2852 4.6562 0s1.2852 3.3711 0 4.6562l-20.406 20.406c-0.64453 0.64453-1.4883 0.96484-2.3281 0.96484z"/>
  <path d="m370.41 85.918c-0.84375 0-1.6875-0.32031-2.3281-0.96484l-20.406-20.406c-1.2852-1.2852-1.2852-3.3711 0-4.6562s3.3711-1.2852 4.6562 0l20.406 20.406c1.2852 1.2852 1.2852 3.3711 0 4.6562-0.64062 0.64453-1.4844 0.96484-2.3281 0.96484z"/>
  <path d="m350 501.07c-0.84375 0-1.6875-0.32031-2.3281-0.96484l-20.406-20.406c-1.2852-1.2852-1.2852-3.3711 0-4.6562 1.2852-1.2852 3.3711-1.2852 4.6562 0l20.406 20.406c1.2852 1.2852 1.2852 3.3711 0 4.6562-0.64062 0.64453-1.4805 0.96484-2.3281 0.96484z"/>
  <path d="m350 501.07c-0.84375 0-1.6875-0.32031-2.3281-0.96484-1.2852-1.2852-1.2852-3.3711 0-4.6562l20.406-20.406c1.2852-1.2852 3.3711-1.2852 4.6562 0 1.2852 1.2852 1.2852 3.3711 0 4.6562l-20.406 20.406c-0.64062 0.64453-1.4805 0.96484-2.3281 0.96484z"/>
  <path d="m567.77 283.29h-435.55c-1.8164 0-3.293-1.4766-3.293-3.293s1.4766-3.293 3.293-3.293h435.55c1.8164 0 3.293 1.4766 3.293 3.293 0 1.8203-1.4727 3.293-3.293 3.293z"/>
  <path d="m152.63 303.7c-0.84375 0-1.6875-0.32031-2.3281-0.96484l-20.406-20.406c-1.2852-1.2852-1.2852-3.3711 0-4.6562 1.2852-1.2852 3.3711-1.2852 4.6562 0l20.406 20.406c1.2852 1.2852 1.2852 3.3711 0 4.6562-0.64453 0.64062-1.4844 0.96484-2.3281 0.96484z"/>
  <path d="m132.23 283.29c-0.84375 0-1.6875-0.32031-2.3281-0.96484-1.2852-1.2852-1.2852-3.3711 0-4.6562l20.406-20.406c1.2852-1.2852 3.3711-1.2852 4.6562 0 1.2852 1.2852 1.2852 3.3711 0 4.6562l-20.406 20.406c-0.64453 0.64453-1.4844 0.96484-2.3281 0.96484z"/>
  <path d="m547.38 303.7c-0.84375 0-1.6875-0.32031-2.3281-0.96484-1.2852-1.2852-1.2852-3.3711 0-4.6562l20.398-20.406c1.2852-1.2852 3.3711-1.2852 4.6562 0 1.2852 1.2852 1.2852 3.3711 0 4.6562l-20.398 20.406c-0.64453 0.64062-1.4805 0.96484-2.3281 0.96484z"/>
  <path d="m567.77 283.29c-0.84375 0-1.6875-0.32031-2.3281-0.96484l-20.398-20.406c-1.2852-1.2852-1.2852-3.3711 0-4.6562 1.2852-1.2852 3.3711-1.2852 4.6562 0l20.398 20.406c1.2852 1.2852 1.2852 3.3711 0 4.6562-0.64062 0.64453-1.4883 0.96484-2.3281 0.96484z"/>
  <path d="m248.11 248.18c-37.051 0-67.199-30.145-67.199-67.199 0-37.059 30.148-67.199 67.199-67.199s67.199 30.148 67.199 67.203c0.003906 37.055-30.141 67.195-67.199 67.195zm0-127.82c-33.422 0-60.613 27.191-60.613 60.617s27.188 60.613 60.613 60.613 60.613-27.188 60.613-60.613c0.003906-33.422-27.184-60.617-60.613-60.617z"/>
  <path d="m240.81 203.09c-0.94141 0-1.8359-0.39844-2.457-1.1016l-19.152-21.488c-1.2109-1.3594-1.0938-3.4375 0.26953-4.6484 1.3516-1.2109 3.4375-1.0938 4.6484 0.26953l16.684 18.711 35.277-40.18c1.2031-1.3711 3.2812-1.4961 4.6484-0.29688 1.3672 1.1992 1.5 3.2812 0.29688 4.6484l-37.738 42.977c-0.625 0.70703-1.5195 1.1133-2.4609 1.1211l-0.015625-0.003906z"/>
  <path d="m248.11 445.8c-37.051 0-67.199-30.148-67.199-67.203 0-37.059 30.148-67.199 67.199-67.199s67.199 30.145 67.199 67.199c0.003906 37.059-30.141 67.203-67.199 67.203zm0-127.82c-33.422 0-60.613 27.188-60.613 60.613s27.188 60.617 60.613 60.617 60.613-27.191 60.613-60.617c0.003906-33.426-27.184-60.613-60.613-60.613z"/>
  <path d="m230.02 405.33c-0.67969 0-1.3672-0.21094-1.9336-0.63281-1.0156-0.73828-1.5234-1.9844-1.3125-3.2188l3.1641-18.434-13.391-13.047c-0.89453-0.875-1.2188-2.1836-0.82812-3.375 0.38672-1.1914 1.4141-2.0625 2.6562-2.2422l18.504-2.6875 8.2812-16.766c0.55859-1.125 1.7031-1.8359 2.9531-1.8359s2.3984 0.71094 2.9531 1.8359l8.2695 16.766 18.496 2.6875c1.2422 0.17969 2.2734 1.0508 2.6562 2.2422 0.39062 1.1914 0.066406 2.4961-0.82812 3.375l-13.383 13.047 3.1641 18.434c0.21094 1.2344-0.29297 2.4844-1.3125 3.2188-1.0039 0.74609-2.3477 0.83594-3.4688 0.25391l-16.551-8.707-16.559 8.707c-0.48047 0.25391-1.0078 0.37891-1.5312 0.37891zm-4.0898-35.391 9.8477 9.6016c0.77734 0.75391 1.1328 1.8477 0.94922 2.9141l-2.3281 13.566 12.188-6.4102c0.95312-0.50391 2.1016-0.50391 3.0625 0l12.172 6.4102-2.3281-13.566c-0.18359-1.0664 0.17188-2.1562 0.94922-2.9141l9.8438-9.6016-13.609-1.9766c-1.0742-0.15234-2-0.82422-2.4805-1.8008l-6.0859-12.34-6.0938 12.34c-0.48047 0.97266-1.4062 1.6445-2.4805 1.8008z"/>
  <path d="m452.72 248.18c-37.051 0-67.199-30.145-67.199-67.199 0-37.059 30.145-67.203 67.199-67.203 37.047 0 67.191 30.148 67.191 67.203s-30.145 67.199-67.191 67.199zm0-127.82c-33.422 0-60.613 27.191-60.613 60.617s27.188 60.613 60.613 60.613c33.418 0 60.605-27.188 60.605-60.613 0-33.422-27.188-60.617-60.605-60.617z"/>
  <path d="m431.2 205.81c-0.84375 0-1.6875-0.32031-2.3281-0.96484-1.2852-1.2852-1.2852-3.3711 0-4.6562l43.047-43.062c1.2852-1.2852 3.3711-1.2852 4.6562 0 1.2852 1.2852 1.2852 3.3711 0 4.6562l-43.047 43.062c-0.64453 0.64453-1.4844 0.96484-2.3281 0.96484z"/>
  <path d="m474.24 205.81c-0.84375 0-1.6875-0.32031-2.3281-0.96484l-43.047-43.062c-1.2852-1.2852-1.2852-3.3711 0-4.6562 1.2852-1.2891 3.3711-1.2812 4.6562 0l43.047 43.066c1.2852 1.2852 1.2852 3.3711 0 4.6562-0.64062 0.64062-1.4883 0.96094-2.3281 0.96094z"/>
  <path d="m452.72 445.8c-37.051 0-67.199-30.148-67.199-67.203 0-37.059 30.145-67.199 67.199-67.199 37.047 0 67.191 30.145 67.191 67.199s-30.145 67.203-67.191 67.203zm0-127.82c-33.422 0-60.613 27.188-60.613 60.613s27.188 60.617 60.613 60.617c33.418 0 60.605-27.191 60.605-60.617s-27.188-60.613-60.605-60.613z"/>
  <path d="m459.57 411.07c0 3.7773-3.0625 6.8438-6.8438 6.8438s-6.8438-3.0664-6.8438-6.8438c0-3.7812 3.0625-6.8438 6.8438-6.8438s6.8438 3.0625 6.8438 6.8438"/>
  <path d="m452.72 393.41c-1.8164 0-3.293-1.4766-3.293-3.293v-53.398c0-1.8164 1.4766-3.293 3.293-3.293s3.293 1.4766 3.293 3.293v53.398c0 1.8164-1.4766 3.293-3.293 3.293z"/>
 </g>
</svg>
