<?xml version="1.0" encoding="UTF-8"?>
<svg width="700pt" height="700pt" version="1.1" viewBox="0 0 700 700" xmlns="http://www.w3.org/2000/svg" xmlns:xlink="http://www.w3.org/1999/xlink">
 <defs>
  <symbol id="w" overflow="visible">
   <path d="m18.766-1.125c-0.96875 0.5-1.9805 0.875-3.0312 1.125-1.043 0.25781-2.1367 0.39062-3.2812 0.39062-3.3984 0-6.0898-0.94531-8.0781-2.8438-1.9922-1.9062-2.9844-4.4844-2.9844-7.7344 0-3.2578 0.99219-5.8359 2.9844-7.7344 1.9883-1.9062 4.6797-2.8594 8.0781-2.8594 1.1445 0 2.2383 0.13281 3.2812 0.39062 1.0508 0.25 2.0625 0.625 3.0312 1.125v4.2188c-0.98047-0.65625-1.9453-1.1406-2.8906-1.4531-0.94922-0.3125-1.9492-0.46875-3-0.46875-1.875 0-3.3516 0.60547-4.4219 1.8125-1.0742 1.1992-1.6094 2.8555-1.6094 4.9688 0 2.1055 0.53516 3.7617 1.6094 4.9688 1.0703 1.1992 2.5469 1.7969 4.4219 1.7969 1.0508 0 2.0508-0.14844 3-0.45312 0.94531-0.3125 1.9102-0.80078 2.8906-1.4688z"/>
  </symbol>
  <symbol id="b" overflow="visible">
   <path d="m13.734-11.141c-0.4375-0.19531-0.87109-0.34375-1.2969-0.4375-0.41797-0.10156-0.83984-0.15625-1.2656-0.15625-1.2617 0-2.2305 0.40625-2.9062 1.2188-0.67969 0.80469-1.0156 1.9531-1.0156 3.4531v7.0625h-4.8906v-15.312h4.8906v2.5156c0.625-1 1.3438-1.7266 2.1562-2.1875 0.82031-0.46875 1.8008-0.70312 2.9375-0.70312 0.16406 0 0.34375 0.011719 0.53125 0.03125 0.19531 0.011719 0.47656 0.039062 0.84375 0.078125z"/>
  </symbol>
  <symbol id="a" overflow="visible">
   <path d="m17.641-7.7031v1.4062h-11.453c0.125 1.1484 0.53906 2.0078 1.25 2.5781 0.70703 0.57422 1.7031 0.85938 2.9844 0.85938 1.0312 0 2.082-0.14844 3.1562-0.45312 1.082-0.3125 2.1914-0.77344 3.3281-1.3906v3.7656c-1.1562 0.4375-2.3125 0.76562-3.4688 0.98438-1.1562 0.22656-2.3125 0.34375-3.4688 0.34375-2.7734 0-4.9297-0.70312-6.4688-2.1094-1.5312-1.4062-2.2969-3.3789-2.2969-5.9219 0-2.5 0.75391-4.4609 2.2656-5.8906 1.5078-1.4375 3.582-2.1562 6.2188-2.1562 2.4062 0 4.332 0.73047 5.7812 2.1875 1.4453 1.4492 2.1719 3.3828 2.1719 5.7969zm-5.0312-1.625c0-0.92578-0.27344-1.6719-0.8125-2.2344-0.54297-0.57031-1.25-0.85938-2.125-0.85938-0.94922 0-1.7188 0.26562-2.3125 0.79688s-0.96484 1.2969-1.1094 2.2969z"/>
  </symbol>
  <symbol id="e" overflow="visible">
   <path d="m9.2188-6.8906c-1.0234 0-1.793 0.17188-2.3125 0.51562-0.51172 0.34375-0.76562 0.85547-0.76562 1.5312 0 0.625 0.20703 1.1172 0.625 1.4688 0.41406 0.34375 0.98828 0.51562 1.7188 0.51562 0.92578 0 1.7031-0.32812 2.3281-0.98438 0.63281-0.66406 0.95312-1.4922 0.95312-2.4844v-0.5625zm7.4688-1.8438v8.7344h-4.9219v-2.2656c-0.65625 0.92969-1.3984 1.6055-2.2188 2.0312-0.82422 0.41406-1.8242 0.625-3 0.625-1.5859 0-2.8711-0.45703-3.8594-1.375-0.99219-0.92578-1.4844-2.1289-1.4844-3.6094 0-1.7891 0.61328-3.1016 1.8438-3.9375 1.2383-0.84375 3.1797-1.2656 5.8281-1.2656h2.8906v-0.39062c0-0.76953-0.30859-1.332-0.92188-1.6875-0.61719-0.36328-1.5703-0.54688-2.8594-0.54688-1.0547 0-2.0312 0.10547-2.9375 0.3125-0.89844 0.21094-1.7305 0.52344-2.5 0.9375v-3.7344c1.0391-0.25 2.0859-0.44141 3.1406-0.57812 1.0625-0.13281 2.125-0.20312 3.1875-0.20312 2.7578 0 4.75 0.54688 5.9688 1.6406 1.2266 1.0859 1.8438 2.8555 1.8438 5.3125z"/>
  </symbol>
  <symbol id="c" overflow="visible">
   <path d="m7.7031-19.656v4.3438h5.0469v3.5h-5.0469v6.5c0 0.71094 0.14062 1.1875 0.42188 1.4375s0.83594 0.375 1.6719 0.375h2.5156v3.5h-4.1875c-1.9375 0-3.3125-0.39844-4.125-1.2031-0.80469-0.8125-1.2031-2.1797-1.2031-4.1094v-6.5h-2.4219v-3.5h2.4219v-4.3438z"/>
  </symbol>
  <symbol id="k" overflow="visible">
   <path d="m12.766-13.078v-8.2031h4.9219v21.281h-4.9219v-2.2188c-0.66797 0.90625-1.4062 1.5703-2.2188 1.9844s-1.7578 0.625-2.8281 0.625c-1.8867 0-3.4336-0.75-4.6406-2.25-1.2109-1.5-1.8125-3.4258-1.8125-5.7812 0-2.3633 0.60156-4.2969 1.8125-5.7969 1.207-1.5 2.7539-2.25 4.6406-2.25 1.0625 0 2 0.21484 2.8125 0.64062 0.82031 0.42969 1.5664 1.0859 2.2344 1.9688zm-3.2188 9.9219c1.0391 0 1.8359-0.37891 2.3906-1.1406 0.55078-0.76953 0.82812-1.8828 0.82812-3.3438 0-1.457-0.27734-2.5664-0.82812-3.3281-0.55469-0.76953-1.3516-1.1562-2.3906-1.1562-1.043 0-1.8398 0.38672-2.3906 1.1562-0.55469 0.76172-0.82812 1.8711-0.82812 3.3281 0 1.4609 0.27344 2.5742 0.82812 3.3438 0.55078 0.76172 1.3477 1.1406 2.3906 1.1406z"/>
  </symbol>
  <symbol id="j" overflow="visible">
   <path d="m10.5-3.1562c1.0508 0 1.8516-0.37891 2.4062-1.1406 0.55078-0.76953 0.82812-1.8828 0.82812-3.3438 0-1.457-0.27734-2.5664-0.82812-3.3281-0.55469-0.76953-1.3555-1.1562-2.4062-1.1562-1.0547 0-1.8594 0.38672-2.4219 1.1562-0.55469 0.77344-0.82812 1.8828-0.82812 3.3281 0 1.4492 0.27344 2.5586 0.82812 3.3281 0.5625 0.77344 1.3672 1.1562 2.4219 1.1562zm-3.25-9.9219c0.67578-0.88281 1.4219-1.5391 2.2344-1.9688 0.82031-0.42578 1.7656-0.64062 2.8281-0.64062 1.8945 0 3.4453 0.75 4.6562 2.25 1.207 1.5 1.8125 3.4336 1.8125 5.7969 0 2.3555-0.60547 4.2812-1.8125 5.7812-1.2109 1.5-2.7617 2.25-4.6562 2.25-1.0625 0-2.0078-0.21094-2.8281-0.625-0.8125-0.42578-1.5586-1.0859-2.2344-1.9844v2.2188h-4.8906v-21.281h4.8906z"/>
  </symbol>
  <symbol id="i" overflow="visible">
   <path d="m0.34375-15.312h4.8906l4.125 10.391 3.5-10.391h4.8906l-6.4375 16.766c-0.64844 1.6953-1.4023 2.8828-2.2656 3.5625-0.86719 0.6875-2 1.0312-3.4062 1.0312h-2.8438v-3.2188h1.5312c0.83203 0 1.4375-0.13672 1.8125-0.40625 0.38281-0.26172 0.67969-0.73047 0.89062-1.4062l0.14062-0.42188z"/>
  </symbol>
  <symbol id="h" overflow="visible">
   <path d="m14.953-3.7188h-8.2188l-1.3125 3.7188h-5.2812l7.5625-20.406h6.2656l7.5625 20.406h-5.2812zm-6.9062-3.7812h5.5781l-2.7812-8.125z"/>
  </symbol>
  <symbol id="v" overflow="visible">
   <path d="m2.3594-21.281h4.8906v21.281h-4.8906z"/>
  </symbol>
  <symbol id="u" overflow="visible">
   <path d="m6.2188-7.8281-5.5156-7.4844h5.1719l3.1406 4.5312 3.1719-4.5312h5.1719l-5.5156 7.4531 5.7969 7.8594h-5.1875l-3.4375-4.8438-3.4062 4.8438h-5.1875z"/>
  </symbol>
  <symbol id="t" overflow="visible">
   <path d="m2.5781-20.406h6.6875l4.6562 10.922 4.6719-10.922h6.6875v20.406h-4.9844v-14.938l-4.7031 11.016h-3.3281l-4.7031-11.016v14.938h-4.9844z"/>
  </symbol>
  <symbol id="g" overflow="visible">
   <path d="m2.1875-5.9688v-9.3438h4.9219v1.5312c0 0.83594-0.007813 1.875-0.015625 3.125-0.011719 1.25-0.015625 2.0859-0.015625 2.5 0 1.2422 0.03125 2.1328 0.09375 2.6719 0.070313 0.54297 0.17969 0.93359 0.32812 1.1719 0.20703 0.32422 0.47266 0.57422 0.79688 0.75 0.32031 0.16797 0.69141 0.25 1.1094 0.25 1.0195 0 1.8203-0.39062 2.4062-1.1719 0.58203-0.78125 0.875-1.8672 0.875-3.2656v-7.5625h4.8906v15.312h-4.8906v-2.2188c-0.74219 0.89844-1.5234 1.5586-2.3438 1.9844-0.82422 0.41406-1.7344 0.625-2.7344 0.625-1.7617 0-3.1055-0.53906-4.0312-1.625-0.92969-1.082-1.3906-2.6602-1.3906-4.7344z"/>
  </symbol>
  <symbol id="f" overflow="visible">
   <path d="m0.42188-15.312h4.8906l3.8281 10.578 3.7969-10.578h4.9062l-6.0312 15.312h-5.375z"/>
  </symbol>
  <symbol id="s" overflow="visible">
   <path d="m12.422-21.281v3.2188h-2.7031c-0.6875 0-1.1719 0.125-1.4531 0.375-0.27344 0.25-0.40625 0.6875-0.40625 1.3125v1.0625h4.1875v3.5h-4.1875v11.812h-4.8906v-11.812h-2.4375v-3.5h2.4375v-1.0625c0-1.6641 0.46094-2.8984 1.3906-3.7031 0.92578-0.80078 2.3672-1.2031 4.3281-1.2031z"/>
  </symbol>
  <symbol id="d" overflow="visible">
   <path d="m9.6406-12.188c-1.0859 0-1.9141 0.39062-2.4844 1.1719-0.57422 0.78125-0.85938 1.9062-0.85938 3.375s0.28516 2.5938 0.85938 3.375c0.57031 0.77344 1.3984 1.1562 2.4844 1.1562 1.0625 0 1.875-0.38281 2.4375-1.1562 0.57031-0.78125 0.85938-1.9062 0.85938-3.375s-0.28906-2.5938-0.85938-3.375c-0.5625-0.78125-1.375-1.1719-2.4375-1.1719zm0-3.5c2.6328 0 4.6914 0.71484 6.1719 2.1406 1.4766 1.418 2.2188 3.3867 2.2188 5.9062 0 2.5117-0.74219 4.4805-2.2188 5.9062-1.4805 1.418-3.5391 2.125-6.1719 2.125-2.6484 0-4.7148-0.70703-6.2031-2.125-1.4922-1.4258-2.2344-3.3945-2.2344-5.9062 0-2.5195 0.74219-4.4883 2.2344-5.9062 1.4883-1.4258 3.5547-2.1406 6.2031-2.1406z"/>
  </symbol>
  <symbol id="r" overflow="visible">
   <path d="m16.547-12.766c0.61328-0.94531 1.3477-1.6719 2.2031-2.1719 0.85156-0.5 1.7891-0.75 2.8125-0.75 1.7578 0 3.0977 0.54688 4.0156 1.6406 0.92578 1.0859 1.3906 2.6562 1.3906 4.7188v9.3281h-4.9219v-7.9844-0.35938c0.007813-0.13281 0.015625-0.32031 0.015625-0.5625 0-1.082-0.16406-1.8633-0.48438-2.3438-0.3125-0.48828-0.82422-0.73438-1.5312-0.73438-0.92969 0-1.6484 0.38672-2.1562 1.1562-0.51172 0.76172-0.77344 1.8672-0.78125 3.3125v7.5156h-4.9219v-7.9844c0-1.6953-0.14844-2.7852-0.4375-3.2656-0.29297-0.48828-0.8125-0.73438-1.5625-0.73438-0.9375 0-1.6641 0.38672-2.1719 1.1562-0.51172 0.76172-0.76562 1.8594-0.76562 3.2969v7.5312h-4.9219v-15.312h4.9219v2.2344c0.60156-0.86328 1.2891-1.5156 2.0625-1.9531 0.78125-0.4375 1.6406-0.65625 2.5781-0.65625 1.0625 0 2 0.25781 2.8125 0.76562 0.8125 0.51172 1.4258 1.2305 1.8438 2.1562z"/>
  </symbol>
  <symbol id="q" overflow="visible">
   <path d="m17.75-9.3281v9.3281h-4.9219v-7.1094c0-1.3438-0.03125-2.2656-0.09375-2.7656s-0.16797-0.86719-0.3125-1.1094c-0.1875-0.3125-0.44922-0.55469-0.78125-0.73438-0.32422-0.17578-0.69531-0.26562-1.1094-0.26562-1.0234 0-1.8242 0.39844-2.4062 1.1875-0.58594 0.78125-0.875 1.8711-0.875 3.2656v7.5312h-4.8906v-21.281h4.8906v8.2031c0.73828-0.88281 1.5195-1.5391 2.3438-1.9688 0.83203-0.42578 1.75-0.64062 2.75-0.64062 1.7695 0 3.1133 0.54688 4.0312 1.6406 0.91406 1.0859 1.375 2.6562 1.375 4.7188z"/>
  </symbol>
  <symbol id="p" overflow="visible">
   <path d="m2.5781-20.406h5.875l7.4219 14v-14h4.9844v20.406h-5.875l-7.4219-14v14h-4.9844z"/>
  </symbol>
  <symbol id="o" overflow="visible">
   <path d="m17.75-9.3281v9.3281h-4.9219v-7.1406c0-1.3203-0.03125-2.2344-0.09375-2.7344s-0.16797-0.86719-0.3125-1.1094c-0.1875-0.3125-0.44922-0.55469-0.78125-0.73438-0.32422-0.17578-0.69531-0.26562-1.1094-0.26562-1.0234 0-1.8242 0.39844-2.4062 1.1875-0.58594 0.78125-0.875 1.8711-0.875 3.2656v7.5312h-4.8906v-15.312h4.8906v2.2344c0.73828-0.88281 1.5195-1.5391 2.3438-1.9688 0.83203-0.42578 1.75-0.64062 2.75-0.64062 1.7695 0 3.1133 0.54688 4.0312 1.6406 0.91406 1.0859 1.375 2.6562 1.375 4.7188z"/>
  </symbol>
  <symbol id="n" overflow="visible">
   <path d="m2.5781-20.406h8.7344c2.5938 0 4.582 0.57812 5.9688 1.7344 1.3945 1.1484 2.0938 2.7891 2.0938 4.9219 0 2.1367-0.69922 3.7812-2.0938 4.9375-1.3867 1.1562-3.375 1.7344-5.9688 1.7344h-3.4844v7.0781h-5.25zm5.25 3.8125v5.7031h2.9219c1.0195 0 1.8047-0.25 2.3594-0.75 0.5625-0.5 0.84375-1.2031 0.84375-2.1094 0-0.91406-0.28125-1.6172-0.84375-2.1094-0.55469-0.48828-1.3398-0.73438-2.3594-0.73438z"/>
  </symbol>
  <symbol id="m" overflow="visible">
   <path d="m2.3594-15.312h4.8906v15.031c0 2.0508-0.49609 3.6172-1.4844 4.7031-0.98047 1.082-2.4062 1.625-4.2812 1.625h-2.4219v-3.2188h0.85938c0.92578 0 1.5625-0.21094 1.9062-0.625 0.35156-0.41797 0.53125-1.2461 0.53125-2.4844zm0-5.9688h4.8906v4h-4.8906z"/>
  </symbol>
  <symbol id="l" overflow="visible">
   <path d="m14.719-14.828v3.9844c-0.65625-0.45703-1.3242-0.79688-2-1.0156-0.66797-0.21875-1.3594-0.32812-2.0781-0.32812-1.3672 0-2.4336 0.40234-3.2031 1.2031-0.76172 0.79297-1.1406 1.9062-1.1406 3.3438 0 1.4297 0.37891 2.543 1.1406 3.3438 0.76953 0.79297 1.8359 1.1875 3.2031 1.1875 0.75781 0 1.4844-0.10938 2.1719-0.32812 0.6875-0.22656 1.3203-0.56641 1.9062-1.0156v4c-0.76172 0.28125-1.5391 0.48828-2.3281 0.625-0.78125 0.14453-1.5742 0.21875-2.375 0.21875-2.7617 0-4.9219-0.70703-6.4844-2.125-1.5547-1.4141-2.3281-3.3828-2.3281-5.9062 0-2.5312 0.77344-4.5039 2.3281-5.9219 1.5625-1.4141 3.7227-2.125 6.4844-2.125 0.80078 0 1.5938 0.074219 2.375 0.21875 0.78125 0.13672 1.5547 0.35156 2.3281 0.64062z"/>
  </symbol>
 </defs>
 <g>
  <path d="m409.59 270.66c-1.668 0.30859-2.6133 0.51953-3.5703 0.66016-7.293 1.0625-10.84-2.668-9.1406-9.9609v-0.003906c0.57422-1.6094 0.40234-3.3906-0.47266-4.8633-1.5938-2.0664-2.1719-4.7461-1.5742-7.2891 0.60156-2.543 2.3164-4.6797 4.668-5.8164 1.3047-0.85547 2.7422-1.5078 4.5898-2.5078 0.1875-0.95312 0.44922-1.8906 0.78906-2.8008 0.53516-2.0664 2.1055-3.7031 4.1445-4.3281 2.043-0.62109 4.2617-0.13672 5.8555 1.2773 0.49219 0.32812 0.94922 0.70703 1.3672 1.125 4.332 4.1484 7.8047 9.0859 12.312 13.117h0.003906c0.95312 1.1641 1.4023 2.6641 1.25 4.1641s-0.89453 2.875-2.0664 3.8242c-1.1133 1.3164-1.6836 3.0039-1.6016 4.7266 0.48047 2.8516-0.28906 5.7734-2.1172 8.0156-1.8281 2.2422-4.5312 3.5859-7.4219 3.6914-1.1406 0.19141-2.3047 0.22656-3.3867 0.32812-0.72656 10.809 0.67969 21.66 4.1328 31.93 3.1992-3.4648 6.2734-6.9609 9.5273-10.277 3.5742-3.6406 7.1641-7.2969 11.035-10.613 4.3438-4.0117 7.8555-8.8438 10.332-14.215 0.53516-1.4023 0.66406-2.9297 0.37109-4.4023-0.88672-4.8086 1.4727-9.6367 5.8164-11.887 2.6016-1.5703 5-3.4805 7.582-5.3008 1.4336 4.9219 1.5234 10.141 0.26172 15.109-0.86719 1.7031-2.1914 3.1367-3.8242 4.1367-4.7148 2.3945-8.6484 6.0898-11.328 10.648-2.2461 3.2148-4.8945 6.1328-7.8789 8.6758-2.7617 2.7266-5.7383 5.2344-8.3359 8.3242l-0.003906-0.003907c6.5664 0.078125 13.027-1.6562 18.672-5.0117 4.5312-3.0117 4.8203-3.1328 8.7656 1.0352 0.66406 0.69922 1.2656 1.457 1.8359 2.1172-3.5 8.5703-8.6641 9.5273-15.105 2.6836l-8.668 2.125 3.6328 7.8203c1.6719-0.23437 3.3555-0.35547 5.043-0.36328 1.2188-0.12109 2.4102 0.42188 3.1172 1.418 0.71094 1 0.82813 2.3047 0.3125 3.4141-0.97266 2.3477-2.418 4.4727-4.25 6.2383-0.96875 1.0742-2.4883 1.4531-3.8477 0.96094-1.3555-0.49219-2.2812-1.7617-2.332-3.2031-0.36719-1.4961-0.085937-3.1406-0.30078-4.6914 0.13672-4.0547-2.1953-7.7891-5.8984-9.4453-3.7773-0.4375-7.5 1.1758-9.7539 4.2383-4.4336 5.0586-6.9922 11.488-7.2422 18.211-0.64062 4.2422-1.6016 8.4336-2.8672 12.535-2.1875 9.7617-6.2383 19.012-11.922 27.242l0.98438 0.96094h-0.003906c4.9297-1.668 9.7734-3.582 14.508-5.7383 8.8555-4.2344 17.43-9.0234 25.676-14.34 6.6914-4.8594 12.898-10.352 18.535-16.398 7.168-7.2891 13.805-15.105 20.594-22.762v-0.003906c2.4531-2.6211 3.5625-6.2266 3.0078-9.7734-0.98438-4.5586 0.90234-9.2539 4.7617-11.863 3.2969-2.3633 6.4492-4.9336 9.7031-7.4414 1.707 3.1016 2.3398 6.6797 1.7969 10.18s-2.2266 6.7188-4.793 9.1602c-1.8438 1.457-3.9062 2.6289-5.832 3.9883v-0.003906c-1.1719 0.69922-2.2383 1.5625-3.1641 2.5625-4.0781 5.2539-8.0352 10.602-11.957 15.809v0.003906c6.2031-0.44141 12.227-2.2812 17.617-5.3789 0.83203-0.51953 1.7109-0.96484 2.6211-1.332 2.1133-1.3516 4.9219-0.74219 6.2891 1.3633 0.89453 2.0898 0.042969 4.5195-1.9609 5.5938-1.2422 1.8164-3.1875 3.0312-5.3633 3.3477-2.1797 0.31641-4.3867-0.28906-6.0977-1.6758-2.5391-1.168-5.5078-0.91406-7.8125 0.66797l1.5898 6.043c1.4414 0 2.8789 0.089844 4.3086 0.27344 1.5469-0.054688 2.9648 0.85156 3.5625 2.2773 0.60156 1.4258 0.26172 3.0703-0.85547 4.1406-1.2539 2.3359-3.8086 3.668-6.4453 3.3633-2.5742-0.84766-4.0312-3.5586-3.3164-6.1719 0.14062-3.2031-0.95312-6.3359-3.0586-8.7539-3.5586 0.011719-6.9219 1.6289-9.1562 4.3984-6.3203 6.4648-12.926 12.656-19.527 18.84-2.1562 1.7422-4.4141 3.3477-6.7656 4.8164 2.0938 0 3.0742-0.035156 4.0508 0.007812 6.4609 0.28125 12.93 0.41406 19.375 0.91797 5.875 0.45703 11.707 1.4023 17.574 1.9805 3.6836 0.92969 7.5508-0.57031 9.6445-3.7383 3.7773-5.4727 10.32-5.1094 16.199-4.8477 3.6914 0.35938 7.3438 1.0742 10.898 2.1367 0.67969 0.4375 1.2344 1.0469 1.6055 1.7656-4.0547 3.0195-7.7422 5.8594-11.531 8.5469-3.9648 3.168-9.3555 3.8867-14.012 1.875-8.4531-3.793-17.297-2.5781-26.48-3.1875l4.9219 11.066c1.7227 0.22656 3.4023 0.71094 4.9805 1.4375 0.91797 0.98438 1.4297 2.2812 1.4258 3.6289 0.43359 1.7266 0.16016 3.5586-0.75781 5.0859-0.91797 1.5234-2.4062 2.625-4.1367 3.0508-1.832 0.88672-4.0352 0.42188-5.3555-1.1328-1.4453-1.668-1.8281-4.0117-0.98438-6.0547 1.4023-3.9805 0.95703-8.375-1.2109-11.992-2.168-3.6172-5.8359-6.0781-10.004-6.7188-11.754-1.5898-23.711 0.50391-34.227 5.9922-12.438 6.3867-25.699 11.02-39.406 13.762-5.7578 1.2148-11.43 2.875-17.062 4.5938v0.003906c-2.6055 0.88672-5.1211 2.0195-7.5156 3.3789-4.1797 1.5938-6.625 5.9492-5.8125 10.348 0.53516 4.1016 0.59375 8.25 0.16406 12.359-0.71094 7.6055-2.0195 15.148-2.8281 22.746-2.5664 20.324-2.7383 40.875-0.51172 61.234-0.058594 0.51562-0.19531 1.0195-0.40234 1.4922-4.7812 2.1094-6.0273-4.1055-10.312-4.1172 0.49609-6.418 0.73438-12.469 1.4766-18.457 1.6445-13.254 3.5352-26.477 5.3398-39.711v-0.003907c3.9375-22.906 4.375-46.277 1.3008-69.316-1.4258-6.8828-3.6992-13.566-6.7617-19.895-2.4258-5.5039-4.4805-6.1367-10.438-4.4297-5.082 1.457-10.008 3.4688-14.977 5.3047-2.2109 0.81641-4.3438 1.8398-6.5352 2.7188v0.003906c-3.832 1.5508-7.2344 4-9.9219 7.1445-9.5664 11.754-19.965 22.805-31.113 33.07-10.398 9.0625-22.227 16.344-35 21.543-6.1445 2.6055-12.523 4.6289-19.047 6.0352-3.6875 0.74609-7.0156 2.707-9.4492 5.5742-1.375 1.6758-2.918 3.207-4.6055 4.5664-1.6328 1.375-3.5781 2.3281-5.6641 2.7812-5.9219 0.67969-11.219-2.207-17.125-2.9453 1.3672-4.9648 4.2812-9.3672 8.3203-12.566 4.0391-3.1992 8.9883-5.0312 14.137-5.2266 1.9375-0.082032 3.8164 0.64844 5.1953 2.0117 2.6172 2.9609 6.832 3.918 10.473 2.375 9.7188-2.4414 19.094-6.0977 27.898-10.887 1.0586-0.66016 2.0625-1.3984 3.0078-2.2148l-18.52-6.457c-0.625 0.57812-1.3359 1.2148-2.0273 1.875v-0.003907c-0.875 0.96875-2.0977 1.5469-3.4023 1.6055-1.3008 0.058594-2.5742-0.40234-3.5312-1.2891-1.0586-0.76953-1.7422-1.9492-1.8867-3.25-0.14844-1.3008 0.25781-2.6016 1.1133-3.5898 0.31641-0.72266 0.71094-1.4062 1.1758-2.043 0.88281-1.6211 2.6602-2.5508 4.4961-2.3516 1.8359 0.19531 3.3711 1.4805 3.8906 3.2539 1.0273 2.7812 3.4414 4.8125 6.3555 5.3477 3.7461 1.1797 7.5391 2.2109 11.312 3.3047 3.5078 1.4219 7.5234 0.72266 10.348-1.7969 8.5586-7.8242 17.398-15.348 25.754-23.379 4.8047-4.6172 8.8906-9.9805 13.277-15.031v0.003907c0.61719-0.85156 1.1797-1.7344 1.6914-2.6484-4.2773 1.457-8.6719 2.5508-13.133 3.2734-8.5977 0.64062-17.258 0.77344-25.883 0.60547-2.2539-0.38281-4.5547 0.32422-6.1992 1.9102-3.7109 3.5938-9.5742 3.6875-13.398 0.21484-2.707-2.2344-5.4883-4.3789-8.1602-6.6523h0.003907c-0.625-0.69141-1.1562-1.4609-1.582-2.2891 3.8945-2.0781 7.3984-4.0625 11-5.8438h0.003906c4.6875-2.1758 10.266-0.51562 13 3.8711 2.4766 4.6133 7.7188 7.0195 12.836 5.8906 2.4922-0.070312 4.9805-0.32422 8.3203-0.55469-1.4727-2.1367-2.5195-3.7031-3.6094-5.2344-1.7109-2.4023-3.6289-4.6758-5.125-7.2031l-0.003907 0.003907c-0.98828-2.1445-2.7539-3.832-4.9414-4.7266-1.2578-0.55859-2.3594-1.4258-3.1914-2.5195-1.6641-2.0938-1.5117-5.0977 0.35938-7.0117 1.3906-2.0586 4.1211-2.7148 6.2969-1.5156 3.9531 1.6992 5.8398 6.2305 4.2578 10.23-1.1406 1.6445-0.97656 3.8672 0.39453 5.3242 2.9766 3.8945 6.1641 7.6367 9.4297 11.293v0.003906c1.9453 1.8086 4.8008 2.2422 7.1992 1.0977 8.0234-1.9219 15.891-4.4414 23.535-7.5391 7.8008-3.6914 16.027-6.4727 24.062-9.668 0.67969-0.26953 1.3086-0.66406 2.8438-1.457-5.1016-5.3203-9.6367-10.43-14.57-15.117h0.003907c-9.0312-8.6719-19.156-16.129-30.121-22.172-10.758-5.8516-20.645-12.918-31.012-19.285v-0.003907c-6.1758-4.3711-11.781-9.4922-16.695-15.246-7.1016 0.42969-14.379-2.7031-21.586 1.4258-0.11719 0.84766-0.28516 1.6875-0.50391 2.5156-0.20312 1.2812-0.96094 2.4141-2.0742 3.0859-1.1133 0.67578-2.4648 0.82422-3.6953 0.40625-2.6328-0.22656-4.7734-2.2148-5.1836-4.8242-0.40234-1.5898 0.13281-3.2695 1.3789-4.332 1.2422-1.0664 2.9844-1.332 4.4922-0.69141 2.6055 0.6875 5.3477 0.65625 7.9414-0.085937 5.0117-0.69922 10.078-1.0156 15.969-1.5703-1.5547-2.4531-2.7656-4.6133-4.2148-6.5938-2.7852-3.793-5.6094-7.5664-8.625-11.176h-0.003906c-1.207-1.1641-2.5508-2.1797-4-3.0234-4.2031 1.6094-7.4727 5.8164-12.246 2.5-4.6133-3.2031-3.543-7.8438-3.0781-12.16-8.4375-7.3984-8.5859-14.934 3.6953-19.102 1.9531-7.1016 4.0938-9.0273 9.582-8.6094 4.6211 0.35156 5.4375 1.6484 6.3906 10.438v-0.003906c3.7227 0.0625 7.1758 1.957 9.2305 5.0625 1.2969 3.5703 0.42188 7.5664-2.2422 10.27 3.0156 7.6641 3.0156 7.6641-4.4609 14.078 7.1953 8.0859 12.777 17.492 20.828 26.102-0.57031-5.0078-0.85547-10.043-0.85547-15.082-0.21875-5.4336-2.4453-10.598-6.2539-14.48-0.042969-0.49219-0.011719-0.98828 0.085937-1.4727 0.47656-2.8203 2.8047-4.957 5.6523-5.1992 2.6797 0.11719 4.9414 2.0352 5.5 4.6602 0.87891 3.1016 2.7031 6.457-1.0898 9.0664v-0.003906c-0.28125 0.1875-0.53125 0.41406-0.75 0.67578 0 5.0703-0.20703 9.6016 0.046875 14.105-0.097656 3.5391 0.74219 7.0391 2.4453 10.141 1.6992 3.1016 4.1953 5.6992 7.2305 7.5156 12.785 7.6875 25.156 16.066 38.27 24.523h-0.003906c0.20703-0.76562 0.27344-1.5586 0.19531-2.3477-6.4805-10.383-10.441-22.133-11.574-34.316-0.6875-2.6641-1.1523-5.3789-1.3867-8.1211 0.18359-4.6914-1.6016-9.25-4.9258-12.57-4.5352-5.1094-4.4453-12.824 0.20312-17.828 1.8789-2.4102 3.418-5.082 5.1328-7.668 2.8828 2.4922 5.0508 5.7031 6.2812 9.3086 1.2266 3.6016 1.4766 7.4688 0.71484 11.199-0.40625 1.5117-1.0938 2.9336-2.0195 4.1914-2.3633 2.957-3.2773 6.8086-2.5 10.508 1.2578 7.9609 1.9531 16.066 3.9336 23.848 3.2617 13.289 10.617 25.219 21.031 34.102 10.121 8.4688 19.109 18.207 26.746 28.973 0.82812 1.2852 2.0781 2.2422 3.5312 2.707-0.59766-5.5469-1.2734-11.09-1.7773-16.645-0.76562-8.4219-1.3672-16.859-2.125-25.281-0.86328-9.5977-2.2148-19.168-2.6211-28.777v-0.003906c-0.19531-8.2383 0.023438-16.48 0.66406-24.695 0.28125-4.6914 1.5039-9.3242 1.8711-14.016v0.003907c0.085937-3.3125-0.035157-6.625-0.36719-9.9219-0.30078-2.9336-0.44531-5.8828-0.4375-8.8359 0.52734-11.938-3.5977-23.613-11.508-32.574-3.8359-3.2891-8.207-5.9023-12.918-7.7344-6.3086-3.9688-13.961-3.8008-20.84-6.0742-10.246-3.3906-20.719-6.2773-30.609-10.512h0.003906c-5.4531-2.7031-10.406-6.3125-14.648-10.676-5.2852-4.9453-9.7812-10.727-14.723-16.051h-0.003906c-1.3203-1.1953-2.7383-2.2734-4.2422-3.2266-1.4766 1.5898-2.5547 2.9648-3.8477 4.0859-1.9805 1.7461-4.8164 2.1289-7.1875 0.96875-2.125-0.79297-3.4414-2.9297-3.1953-5.1836 0.65625-3.1406-1.125-6.2812-4.1641-7.3242-2.1406-1.4453-3.5703-3.7305-3.9297-6.2891-0.35938-2.5586 0.38672-5.1523 2.0508-7.1289 2.6875-2.2383 4.2383-5.5508 4.2461-9.0508 0.074219-2.6328 1.6172-5 3.9961-6.1328 2.3789-1.1328 5.1914-0.83984 7.2812 0.76172 3.2695 1.9922 5.5352 5.2812 6.2305 9.0469 0.89062-0.11719 1.8438-0.20703 2.7812-0.36719 2.7383-1 5.8125-0.27734 7.8125 1.8438 2 2.125 2.5469 5.2344 1.3867 7.9102-1.1836 2.5703-1.1875 5.5312-0.011718 8.1055 1.0625 2.668 0.27344 5.7188-1.9531 7.5391-1.1016 1.0781-2.3789 1.9766-3.8438 3.1719v0.003906c6.1016 8.3203 13.562 15.555 22.066 21.402 0-6.9961 0.30859-13.207-0.14062-19.359v-0.003906c-0.52344-2.8516-1.5312-5.5977-2.9805-8.1094-0.6875-0.85547-0.99219-1.957-0.84375-3.043 0.14453-1.0859 0.73047-2.0664 1.6133-2.7109 1.8867-1.2539 4.4023-0.97266 5.9688 0.66016 1.6484 0.95312 2.7617 2.6211 3.0039 4.5117 0.24219 1.8906-0.41406 3.7891-1.7695 5.125-0.99219 1.1406-1.6445 2.5352-1.8828 4.0273-0.17188 5.4922-0.042969 11 0.0625 16.496h-0.003907c-0.070312 3.2656 2.0273 6.1875 5.1445 7.1602 4.2109 1.6445 8.2812 3.7422 12.598 5.0039 12.582 3.6758 25.258 7.0312 38.793 10.758-2.0078-2.6484-4.1758-5.1719-6.4844-7.5625-5.8203-5.332-10.445-11.836-13.578-19.082-1.3438-3.3125-4.1875-5.7812-7.6523-6.6523-4.9961-1.2695-8.3945-5.8906-8.1211-11.035-0.007812-3.9219 0.31641-7.8516 0.64453-11.766h-0.003906c0.49609-0.86328 1.1602-1.6172 1.957-2.2109 4.5312 4.3242 8.7891 8.9297 12.746 13.789 1.168 2.875 1.6719 5.9766 1.4727 9.0742-0.15234 1.5039-0.074219 3.0195 0.23437 4.5 3.1641 7.1992 7.457 13.848 12.715 19.691 8.8828 8.6562 16.715 18.328 23.34 28.816 3.1328 5.707 5.0938 11.984 5.7656 18.465 0.13281 1.8125 0.69922 3.5664 1.6523 5.1133 0.98047-4.5703 2.0273-9.1289 2.9336-13.715v0.003906c3.0273-15.043 5.2617-30.234 6.6875-45.512 0.22656-1.9102-0.12891-3.8438-1.0156-5.5469-5.918-11.234-15.355-20.219-26.867-25.582-1.1875-0.17578-2.25-0.84375-2.9258-1.8398s-0.89844-2.2344-0.61719-3.4023c0.96094-2.4844 3.5156-3.9688 6.1445-3.5703 4.6953 0.39844 6.7305 3.8398 5.7852 10.465 8.6172 4.3438 13.84 12.598 20.586 19.668 0.54688-9.8555 5.75-19.332 1.3672-29.484-2.1367 0-3.8594 0.019531-5.5859-0.003906h0.007813c-2.5156 0.375-5.0508-0.51172-6.7773-2.375s-2.4219-4.4609-1.8555-6.9375c0.94531-4.0703 2.2461-8.0547 3.8828-11.902-2.0664-4.6797-0.35547-10.164 4.0039-12.84 3.8555-3.1914 9.4609-3.1055 13.211 0.20703 1.1641-0.66797 2.3008-1.3984 3.5039-2 3.9766-2.5625 9.2109-1.9453 12.48 1.4727 3.0508 3.1445 3.0742 5.5938 0.10156 11.188h0.003906c0.070313 0.37109 0.19141 0.73438 0.35938 1.0742 5.6445 8.4961 5.4375 9.7891-2.5312 16.523-0.75 0.56641-1.3242 1.3398-1.6445 2.2266-1.0781 6.293-6.5781 10.863-12.961 10.77-0.33203 0.097656-0.63672 0.27344-0.89062 0.51172-1.2891 8.4062-2.6641 16.715-3.7656 25.059h0.003907c0.078125 1.8242 0.42969 3.625 1.0508 5.3438-3.9883 4.9766-3.1836 11.352-4.0586 18.77 1.0586-0.94922 2.0508-1.9648 2.9648-3.0508 3.8242-5.5117 8.6641-10.246 14.258-13.949 3.3672-1.4023 5.1484-5.1055 4.1367-8.6094-0.65234-3.3711 0.375-6.8477 2.75-9.3203 1.6992-2.0977 2.8398-4.5859 3.3203-7.2383 0.53125-3.1602 2.6719-5.8125 5.6445-7.0078 2.9766-1.1914 6.3555-0.75 8.9219 1.168 1.1016 0.67188 2.3828 0.98047 3.668 0.87891 7.7695-1.0391 10.594 4.9688 9.3672 11.805-0.43359 1.4023-0.55469 2.8789-0.35156 4.3281 0.85938 3.1172-0.25391 6.4414-2.8164 8.4141-2.3203 2.375-4.6602 4.7266-7.0742 7.0039-1.2305 1.2695-2.6133 2.375-4.125 3.2852-1.3828 1.0156-3.1406 1.375-4.8086 0.98438-1.6719-0.38672-3.0859-1.4844-3.8828-3.0039-1.1562-1.5664-2.0781-3.3008-3.3008-5.2695-1.3242 0.10938-2.6172 0.44531-3.832 0.98828-11.289 6.9102-20.281 17.012-25.836 29.023-1.5664 5.2734-2.6719 10.672-3.3086 16.137-1.7539 8.2539-3.9062 16.43-5.3906 24.73-1.4688 8.2031-2.2695 16.512-2.3906 24.844 0.84375-0.91016 1.6172-1.8828 2.3086-2.9102 3.6719-5.8281 8.1875-11.078 13.398-15.582 12.602-11.906 26.488-22.203 40.012-32.98 9.6484-7.6875 17.98-17.031 26.895-25.645 0.44531-0.38672 0.83594-0.83984 1.1562-1.3359 5.957-10.586 11.98-21.137 17.734-31.832v-0.003906c0.6875-1.7695 0.75-3.7227 0.18359-5.5391-1.5898-4.2188-0.082031-8.9766 3.6484-11.512 3.9727-2.793 8.1562-5.2891 12.105-7.8203 0.84766 0.027344 1.6211 0.49609 2.0352 1.2383 0.41797 0.73828 0.42188 1.6406 0.003907 2.3828-1.1914 3.2695-2.3906 6.5547-3.2578 9.918h0.003906c-0.64062 3.9414-3.1797 7.3203-6.7891 9.0312-2.0586 1.0352-3.7969 2.6094-5.0273 4.5586-2.8516 4.4492-5.2734 9.1758-8.0273 14.074h-0.003906c5.7852-0.94922 11.07-3.8477 14.98-8.2148 1.4102-1.9844 3.8672-2.9414 6.2461-2.4258 1.8516 0.3125 3.5195 1.2969 4.6875 2.7656 0.22266 1.6602-0.085938 3.3438-0.87891 4.8164-0.37891 0.69141-0.89453 1.2969-1.5156 1.7773-4.1758 4.3906-5.9727 4.3867-11.617-0.20312h-0.003907c-8.8516 3.2578-16.387 9.3438-21.434 17.316-1.9766 2.9258-4.3008 5.6016-6.9258 7.9688-8.0312 9.1953-17.117 17.418-27.062 24.5-0.82422 0.52734-1.7344 0.92578-3.4961 1.8555h-0.003906c1.3008 0.70703 2.668 1.2812 4.082 1.7227 10.926 1.2656 21.832 2.875 32.797 3.5 5.6992-0.074218 11.379-0.69922 16.957-1.8711 1.3555-0.17188 2.6211-0.76562 3.6133-1.7031 7.4805-6.75 12.859-15.512 15.492-25.234 0.43359-2.2383 1.6055-4.3203 2.2227-6.5352v0.003907c0.14062-1.0938 0.73438-2.0742 1.6328-2.7109 0.89844-0.63281 2.0234-0.85938 3.1016-0.625 1.2031 0.10547 2.3008 0.73047 3.0078 1.7109 0.70312 0.98047 0.94922 2.2227 0.66406 3.3984 0.074219 4.4141-3.3047 8.1211-7.707 8.457-3.7578 6.6797-7.2852 12.941-11.105 19.73 1.375-0.52344 2.4219-0.82031 3.3789-1.3008v-0.003906c11.66-6.1484 22.742-13.332 33.113-21.469 0.85156-0.44141 1.5273-1.1641 1.9141-2.043 0.09375-5.7617 4.7383-8.2812 8.2773-11.848-0.94141-1.7539-1.1406-3.8086-0.55859-5.7109 0.58594-1.9023 1.9062-3.4961 3.668-4.418 3.3828-2.3164 7.8555-2.25 11.168 0.16406 2.9336-1.0938 5.9258-2.0156 8.9648-2.7539 2.2305-0.65234 4.6406-0.11719 6.3867 1.4141 1.75 1.5312 2.5977 3.8477 2.2461 6.1445-0.39844 2.7148-1.0508 5.3828-1.9531 7.9727 0.25 0.39062 0.85547 1.375 1.4961 2.3398h-0.003906c1.6445 1.6406 2.3438 4.0039 1.8594 6.2773-0.48438 2.2734-2.0898 4.1445-4.2578 4.9727-2.5625 1.2539-4.7266 3.1875-6.2578 5.5938-1.4844 2.9023-4.5352 4.668-7.7891 4.5078-3.2578-0.15625-6.1211-2.207-7.3164-5.2422-0.38672-0.66406-0.69141-1.375-1.1836-2.3789h-0.003906c-4.8086 1.1602-9.8789-0.17578-13.492-3.5508l-18.457 13.523c1.5 2.8125 4.0703 4.8984 7.1289 5.7852 3.0586 0.89062 6.3477 0.50391 9.1172-1.0664 2.9609-1.4297 6.5195-0.28125 8.082 2.6094 0.64453 1.25 0.70703 2.7148 0.17578 4.0156-0.52734 1.3008-1.6016 2.3047-2.9336 2.75-5.6133 3.3125-8.457 2.1758-10.785-4-4.3359-1.9961-8.5273-3.6875-12.473-5.832-2.168-1.0312-4.7305-0.79297-6.6719 0.61719-4.2344 2.0664-8.2422 4.6875-12.621 6.3516-11.965 4.6445-24.934 6.0898-37.629 4.1953-8.3555-1.2422-16.785-1.9688-25.176-2.9727-3.7383-0.63281-7.5625 0.40625-10.469 2.8398-1.9492 1.6523-4.0938 3.0781-6.0234 4.75-5.5 4.7656-10.879 9.6719-16.414 14.395h-0.003906c-7.5195 6.6953-13.52 14.918-17.602 24.117-1.8906 4.5234-2.8672 9.375-2.8711 14.273 0.09375 5.7031 0.53125 11.398 1.3164 17.047 1.0859 12.34 2.0625 24.691 3.3086 37.016 1.2461 12.332 2.7734 24.633 4.1523 36.949 0.72266 6.4453 1.3789 12.898 2.1094 19.34 0.28125 2.4727 0.67969 4.9297 1.1094 8.0039 12.656-7.5664 26.574-8.9492 39.652-12.984l0.003906 0.003907c2.2695-0.55859 4.2148-2.0195 5.3789-4.0469 2.2852-3.9102 4.5078-7.8555 6.8555-11.727 3.4805-5.5742 2.5547-12.828-2.207-17.355-2.332-2.6719-4.8516-5.1758-7.543-7.4844-2.8555-3.3828-7.4453-4.7578-11.691-3.4961-2.0508 0.51172-4.2266 0.070313-5.918-1.1992-1.6914-1.2734-2.7188-3.2383-2.7969-5.3516-0.41406-1.2539-0.17969-2.6328 0.62891-3.6758s2.0859-1.6133 3.4023-1.5195c4.1719-0.24609 8.0977 1.9922 10.008 5.7109 0.67188 1.3633 1.5898 2.5938 2.707 3.625 2.9688 2.5742 6.2383 4.8086 9.1367 7.4492 2.8711 2.6172 5.4414 5.5703 8.3867 8.6289v0.003907c2.1289-3.6211 3.5312-7.6211 4.1289-11.773 2.0469-13.844 1.2578-27.953-2.3203-41.48-0.46875-4.2812-0.51172-8.6016-0.12891-12.891zm-39.516-183.78 0.14063-1.4883h-0.003907c1.0234-0.45703 2.0195-0.96875 2.9883-1.5312 2.5273-1.2773 3.8945-4.0781 3.3516-6.8516-1.5273-2.6641-4.7578-3.8281-7.6328-2.7539-1.2656 0.49219-2.4492 1.1758-3.5078 2.0234-1.0586 0.73047-2.0117 1.6133-3.0781 2.4883-1.0547-0.86328-1.8008-1.4844-2.5547-2.0898-1.9297-1.6797-4.582-2.2461-7.0312-1.5117-2.4453 0.73828-4.3438 2.6836-5.0234 5.1484-1.0508 3.1875-0.26172 4.4258 3.1719 5.2891v-0.003907c1.5547 0.52734 3.0742 1.1367 4.5586 1.8242-2.6992 1.0898-4.1055 1.582-5.4414 2.2148-3.7383 1.5859-6.0586 5.3633-5.7812 9.4141-0.22656 2.2344 1.0352 4.3477 3.1016 5.2148 2.3828 1.1797 5.2656 0.55859 6.957-1.4922 0.75391-0.92969 1.6602-1.7344 2.9141-3.0234 0.38672 0.93359 0.69531 1.8984 0.91797 2.8828 0.078124 0.76172-0.25 1.5703-0.16406 2.3281 0 3.0117 1.9531 5.6758 4.8242 6.5859 2.8281 0.19141 5.5234-1.2188 6.9805-3.6484 2.043-2.0547 2.1406-5.3398 0.22266-7.5117-0.41797-0.93359-0.60938-1.9531-0.55469-2.9766 0.55078-0.082031 1.1055-0.125 1.6641-0.125 1.543 0.50781 3.1797 0.67188 4.793 0.48047 1.5469-0.80469 2.7266-2.1641 3.3047-3.8086 0.070312-1.5508-0.50391-3.0625-1.5898-4.1758-1.082-1.1133-2.582-1.7266-4.1328-1.6914-1.1602-0.31641-2.2969-0.71875-3.3945-1.2109zm140.7 76.02c-0.72656 0.36328-1.5078 0.60938-2.3086 0.73047-1.7734-1.0078-4-0.71875-5.457 0.70703-1.793 1.7773-3.3008 3.8203-4.4688 6.0586-0.21484 1.4844 0.28125 2.9844 1.3398 4.0469 1.1875 1.1797 2.8242 1.793 4.4922 1.6797 1.6719-0.11328 3.2109-0.94141 4.2227-2.2734 0.86328-0.90234 1.7891-1.7422 3.4844-3.3867 0.21094 2.3125 0.22266 3.5547 0.45312 4.7578 0.24219 1.9141 0.72266 3.793 1.4297 5.5859 0.65625 1.1875 1.7383 2.082 3.0273 2.5039 1.8359 0.089844 3.6289-0.59766 4.9297-1.8945s1.9961-3.0859 1.9141-4.9219c-0.27344-1.2266-0.80859-2.3945-1.6094-4.6914 1.5078 0.20312 2.9844 0.61328 4.3828 1.2227 0.72656 0.70312 1.7539 1 2.7461 0.79688 0.99219-0.20703 1.8164-0.88672 2.2031-1.8203 0.48047-1.582 0.24609-3.293-0.64844-4.6797-1.1055-1-2.4609-1.6719-3.9258-1.9492-1.2969-0.47656-2.6719-0.73047-4.8906-1.3164 0.78516-0.80078 1.6484-1.5195 2.5781-2.1445 0.88281-0.39062 1.957-0.37109 2.8125-0.80469v0.003906c2.75-1.6914 4.0781-4.9688 3.2812-8.0977-0.92188-2.3242-3.6523-3.0195-7.125-1.1133v0.003906c-2.3008 1.6133-4.4336 3.457-6.3594 5.5039-1.1211-1.2812-2.25-2.75-3.5664-4.0273l0.003906 0.003907c-2.2891-1.6797-5.4805-1.332-7.3594 0.79297-1.7344 1.8359-1.2656 3.2148 1.6289 5.5156l0.003906 0.003907c1.0156 0.98828 1.9453 2.0625 2.7852 3.2031zm-289.88-62.848c-2.3906 0-3.8945-0.027344-5.4023 0.007812-2.2969-0.023438-4.2109 1.7461-4.375 4.0352-0.28516 2.0586 0.058594 4.1562 0.98828 6.0195 1.1719 2.0898 3.3164 1.3203 5.2344 0.375v-0.003907c1.668-0.63672 3.3828-1.1484 5.1289-1.5352-0.91406 2.1641-1.3086 3.1562-1.7461 4.125h-0.003906c-0.9375 1.6562-1.7109 3.3984-2.3008 5.207-0.40234 0.91797-0.38281 1.9688 0.0625 2.8711 0.44141 0.90234 1.2617 1.5625 2.2344 1.8086 1.6484-0.32422 3.0938-1.2969 4.0195-2.6953 1.2656-1.9062 2.3594-3.918 3.2695-6.0156 1.5781 1.5234 2.5234 2.4141 3.4492 3.3281v-0.003906c1.5 1.7344 4.1094 1.9492 5.8711 0.48438 1.293-1.3711 2.0234-3.1758 2.043-5.0625 0.054687-2.3711-2.168-2.2891-3.9766-2.3594h0.003907c-0.85938 0.17578-1.75-0.035156-2.4375-0.58203-0.6875-0.54297-1.0977-1.3633-1.1211-2.2383 8.9531-3.5391 9.7109-4.9258 5.5547-10.984-2.1875 0.75781-4.5156 1.6602-6.9062 2.3438-1.1484 0.51562-2.4414 0.60547-3.6523 0.25391-0.82813-0.96094-1.2109-2.2305-1.0508-3.4922 0.39844-5.6445 0.14844-6.1328-5.6133-8.4727-5.2852 4.1875-5.2812 4.7539 0.72656 12.586zm-1.9023 109.83c-0.14062-1.2852-0.12109-2.5859 0.0625-3.8672 0.39062-1.2695 1.4453-2.3398 1.8164-3.6133v0.003906c0.48828-0.98438 0.51953-2.1328 0.082031-3.1406-0.44141-1.0039-1.3008-1.7656-2.3555-2.0742-1.2422-0.33594-2.5664-0.16016-3.6797 0.48438-1.1133 0.64453-1.9258 1.707-2.2539 2.9492-0.22266 1.5195-0.015625 3.0703 0.60156 4.4805 0.71094 1.4727 1.9688 2.875 0.035157 3.9219v-0.003906c-1.2188 0.16406-2.4492-0.19531-3.3906-0.98828-1.6055-1.1484-3.2695-1.9805-4.6797-0.32812-1.2812 1.3555-2.1055 3.0742-2.3594 4.9219-0.0625 1.3086 0.45703 2.5781 1.4141 3.4688 0.96094 0.89453 2.2656 1.3164 3.5664 1.1602 2.0508 0.042969 3.9883-0.10156 4.3906 2.8672-1.082 0.73047-2.0938 1.5664-3.0195 2.4922-1.9805 2.0938-1.9375 5.3789 0.089844 7.4258 1.1367 0.8125 2.5703 1.0938 3.9297 0.76562 1.3594-0.33203 2.5078-1.2344 3.1445-2.4766 0.82422-1.2969 1.5742-2.6406 2.2461-4.0273 1.4961 1.375 2.6641 2.3008 3.6445 3.3906v0.003906c0.55078 0.83203 1.4258 1.4023 2.4102 1.5625 0.98828 0.16016 1.9961-0.097656 2.7852-0.71094 1.1641-0.62891 2.0625-1.6602 2.5156-2.9062-0.054688-2.0625-1.7422-3.707-3.8047-3.7148-1.0352 0.039062-2.0352-0.38281-2.7344-1.1445-0.69922-0.76562-1.0312-1.7969-0.90234-2.8242 1.2969 0 2.4141 0.066406 3.5156-0.015625 2.8789-0.64062 5.0156-3.0586 5.3047-5.9961-0.63281-2.6016-3.2227-4.2305-5.8438-3.6758-2.2031 0.41406-4.3867 0.95312-6.5312 1.6094zm198.7 49.492 0.58984-1.4688c1.0859-0.23047 2.1914-0.39062 3.2461-0.70703h0.003906c2.5-0.69141 4.2539-2.9336 4.3164-5.5273-0.74609-2.5352-3.2344-4.1406-5.8516-3.7734-1.3008 0.078125-2.5859 0.35938-3.793 0.53516l-3.0039-5.1875 1.9258-3.082-6.668-2.0586-0.54688 9.7031c-0.75-0.125-1.4883-0.3125-2.2031-0.56641-1.1992-0.97266-2.8047-1.2812-4.2812-0.82812-1.4727 0.45312-2.625 1.6094-3.0742 3.0859-1.2227 2.8711-0.23828 4.4141 3.4336 5.8711 1.1914 0.65625 2.3086 1.4375 3.332 2.332-1.3008 1.0391-2.1055 1.5742-2.7812 2.2461-2.1992 1.7734-2.7266 4.9102-1.2227 7.3047 2.2656 1.2695 5.0664 1.0938 7.1602-0.44141 0.60547-0.46484 0.96875-1.2461 1.5586-1.7461 0.8125-0.69141 1.7305-1.2539 3.375-2.418v6.5898c3.1016 1.3125 6.6992 0.4375 8.8477-2.1562 0.86328-0.53906 1.3633-1.5078 1.293-2.5234-0.070312-1.0156-0.69531-1.9062-1.625-2.3203-1.3086-1-2.6836-1.9102-4.0312-2.8633zm-21.312-134.43c-1-1.7422-2.0977-3.4219-3.2969-5.0312-0.67188-0.87891-1.6641-1.457-2.7617-1.6055-1.9688 0.10938-3.7344 1.25-4.6445 3-0.91016 1.75-0.83203 3.8477 0.21094 5.5234 0.39453 0.74219 0.73828 1.5117 1.1484 2.3594-7.0898 1.6953-8.6602 3.9805-7.7422 11.27l9.3164-1.2344-0.003906 0.003906c-0.003907 1.3633-0.12891 2.7227-0.36719 4.0625-0.93359 3.5508-0.089843 6.0781 2.4375 6.6875 2.8555-0.22656 5.375-1.957 6.6133-4.543l-0.875-5.25c6.9922 1.2031 7.6797 0.76562 8.7344-5.1758-2.2695-1.2148-6.2852 0.69531-7.0664-4.0234h0.003907c1.7031-0.015626 3.3867-0.33594 4.9766-0.94141 1.4258-0.84375 2.4141-2.2695 2.707-3.9023-0.15234-1.8711-0.98828-3.6211-2.3438-4.9141-1.6055-1.5078-3.2109-0.25-4.4414 1.2617-0.82031 0.86328-1.6914 1.6836-2.6055 2.4531zm-214.9 290.89c3.4805 2.8789 8.2656 3.5938 12.434 1.8555 2.6484-1.625 5.0312-3.6523 7.0586-6.0078 1.0352-1.043 1.5273-2.5078 1.3359-3.9648-0.92969-1.4414-2.3984-2.4492-4.082-2.7969-3.5859-0.17969-7.1367 0.78125-10.145 2.7422-3.0078 1.957-5.3164 4.8203-6.6016 8.1719zm52.383-71.375c5.6992 8.6133 10.051 9.1445 15.289 1.8633-3.543-7.6797-8.0664-8.2305-15.289-1.8633zm51.316-107.68c7-6.0977 7.1953-10.449 1.0859-17.457-6.7617 5.1758-7.1992 10.703-1.0898 17.457zm225.06 111.86c-4.8438-2.3047-10.492-2.168-15.219 0.36328-1.3906 0.91406-2.3203 2.3789-2.5586 4.0234 0.79297 1.1836 1.9531 2.0742 3.3008 2.5312 0.89844 0.37891 1.8867 0.47656 2.8398 0.28906 4.7695-0.51953 9.0469-3.168 11.637-7.207zm-214.97-219.59c1.2695-5.9883-2.293-11.941-8.1719-13.652-2.5859 7.6836 0.46875 13.023 8.1719 13.652zm192.27 166.82c7.4609-3.375 8.7891-5.5664 7.5547-11.914-7.0156 2.9844-8.5234 5.2539-7.5547 11.914zm-32.402-182.18-1.6367-0.71094c-2.0469 1.3984-3.9336 3.0195-5.625 4.832-0.9375 1.6094-1.3945 3.4531-1.3164 5.3125 0.54297 0.90234 1.4883 1.4883 2.5391 1.5742 1.7773-0.59766 3.3164-1.7461 4.3906-3.2773 0.84766-2.5039 1.4023-5.0977 1.6484-7.7305zm-2.1992 152.5c6.3125-1.2188 7.7344-3.5117 5.8906-9.4883-6.1914 3.4141-6.7266 4.2734-5.8906 9.4922zm-76.102 49.324c2.5391 5.6445 4.0703 6 7.8594 2.3594-1.582-3.5859-4.5156-2.6172-7.8594-2.3594zm84.875-175.51-5.1484-0.94141-1.8438 6.3125c4.2461 0.50391 5.3008-2.1406 6.9922-5.3711zm-212.95 93.625 1.3203-1.1562c-0.48828-1.7461-1.1367-3.4414-1.9414-5.0664-0.39062-0.56641-1.0703-0.86328-1.7539-0.75391-0.67969 0.10547-1.2383 0.59766-1.4336 1.2578-0.16797 1.332 0.070313 2.6836 0.6875 3.875 0.89453 0.83203 1.957 1.4609 3.1211 1.8438zm251.21-34.914-4.3359-3.2305-3.8242 5.4766c3.7539 2.082 5.4023-0.003906 8.1562-2.2461zm-48.176 94.301-1.3828 4.6484 0.875 0.90234 6.0742-3.2773zm46.578 21.543c-5.1016 0.097656-5.1016 0.097656-7.1406 4.8086zm-23.691 55.539-4.6562 5.418c4.4141 0.52344 4.4141 0.52344 4.6523-5.418zm-29.23-61.469c-2.168 2.2969-4.5898 3.1406-3.375 6.4531v-0.003906c1.3789-0.28516 2.5586-1.1797 3.2109-2.4258 0.65625-1.25 0.71484-2.7266 0.16406-4.0234zm-226.75 77.234c4.5391-1.582 4.5586-1.6211 2.6445-5.4609zm41.781-272.26-1.5664 0.72656c-0.4375 2.1758 0.8125 3.1758 3.7812 3.0625zm69.141-0.82422c-2.3242-2.7031-2.3242-2.7031-4.5508-0.58594zm151.75 221.32 4.8086-2.9102-0.75781-1.2656c-1.7422-0.019532-3.3828 0.13672-4.0508 4.1758zm-224.33-9.7109 0.82813 0.82031 4.5547-1.7109c-1.2422-0.78125-2.6133-1.3438-4.0508-1.6562-0.63672 0.73047-1.0938 1.6055-1.332 2.5469zm213.51-158-1.3242 4.9258c1.9961-0.91406 3.4688-1.9688 1.3281-4.9258zm-259.42 92.41 0.28906 1.1172h2.8398l-0.15625-2.0586z"/>
  <path d="m365.93 88.223c-0.082032 2.6758-1.9922 4.9453-4.6133 5.4883-1.2812-0.55859-2.2383-1.6758-2.5938-3.0273-0.097656-2.3906 1.6055-4.4766 3.9688-4.8633 1.2266 0.57813 2.3281 1.3945 3.2383 2.4023z"/>
  <path d="m519.35 163.72c-1.1016 1.1758-2.3086 2.25-3.6055 3.207-0.75781-0.38281-1.4414-0.90625-2.0117-1.5391 0.80859-1.1094 1.7305-2.1367 2.75-3.0625 1.0312 0.28516 2.0039 0.75781 2.8672 1.3945z"/>
  <path d="m228.59 104.92c-0.95703 0.80078-2.043 1.4297-3.2109 1.8633-0.78906-0.28516-1.3867-0.9375-1.6055-1.75 0.27344-1 0.98828-1.8242 1.9375-2.2422 1.1172 0.46875 2.1055 1.1992 2.8789 2.1289z"/>
  <path d="m219.77 215.02c-0.77344 0.60156-1.6719 1.0195-2.625 1.2305-0.82812-0.58203-1.4336-1.4258-1.7188-2.3945 0.41016-0.67969 1.0742-1.1719 1.8438-1.3672 0.96094 0.70703 1.8047 1.5625 2.5 2.5312z"/>
  <path d="m416.65 253.98c-2.2656 2.7539-4.1016 3.5781-6.0898 1.625-0.53125-0.93359-0.53516-2.082-0.007812-3.0195 2.3203-2.0586 3.7305 0.22266 6.0977 1.3945z"/>
  <path d="m394.89 132.2c-0.73047 0.76563-1.6289 1.3516-2.625 1.7148-0.83984-0.24609-1.4961-0.91016-1.7305-1.7578 0.25781-0.80469 0.72266-1.5273 1.3477-2.0977z"/>
 </g>
</svg>
