<?xml version="1.0" encoding="UTF-8"?>
<svg width="700pt" height="700pt" version="1.1" viewBox="0 0 700 700" xmlns="http://www.w3.org/2000/svg" xmlns:xlink="http://www.w3.org/1999/xlink">
 <defs>
  <symbol id="t" overflow="visible">
   <path d="m3.6562-0.21875c-0.1875 0.09375-0.38672 0.16797-0.59375 0.21875-0.19922 0.050781-0.40625 0.078125-0.625 0.078125-0.66797 0-1.1992-0.17969-1.5938-0.54688-0.38672-0.375-0.57812-0.87891-0.57812-1.5156 0-0.64453 0.19141-1.1484 0.57812-1.5156 0.39453-0.375 0.92578-0.5625 1.5938-0.5625 0.21875 0 0.42578 0.027344 0.625 0.078125 0.20703 0.054687 0.40625 0.125 0.59375 0.21875v0.82812c-0.1875-0.125-0.375-0.21875-0.5625-0.28125-0.17969-0.0625-0.37109-0.09375-0.57812-0.09375-0.36719 0-0.65625 0.12109-0.875 0.35938-0.21094 0.23047-0.3125 0.55469-0.3125 0.96875 0 0.40625 0.10156 0.73047 0.3125 0.96875 0.21875 0.23047 0.50781 0.34375 0.875 0.34375 0.20703 0 0.39844-0.023437 0.57812-0.078125 0.1875-0.0625 0.375-0.16016 0.5625-0.29688z"/>
  </symbol>
  <symbol id="d" overflow="visible">
   <path d="m2.6875-2.1719c-0.085938-0.039063-0.16797-0.070313-0.25-0.09375-0.085938-0.019531-0.16797-0.03125-0.25-0.03125-0.25 0-0.44531 0.085937-0.57812 0.25-0.125 0.15625-0.1875 0.38281-0.1875 0.67188v1.375h-0.96875v-2.9844h0.96875v0.48438c0.11328-0.19531 0.25-0.33594 0.40625-0.42188 0.16406-0.09375 0.35938-0.14062 0.57812-0.14062h0.10938c0.039063 0 0.09375 0.007812 0.15625 0.015625z"/>
  </symbol>
  <symbol id="a" overflow="visible">
   <path d="m3.4375-1.5v0.26562h-2.2344c0.03125 0.23047 0.11328 0.40234 0.25 0.51562 0.13281 0.10547 0.32812 0.15625 0.57812 0.15625 0.20703 0 0.41406-0.023438 0.625-0.078125 0.20703-0.0625 0.42188-0.15625 0.64062-0.28125v0.73438c-0.21875 0.09375-0.44531 0.16406-0.67188 0.20312-0.23047 0.039062-0.45312 0.0625-0.67188 0.0625-0.54297 0-0.96484-0.13281-1.2656-0.40625-0.30469-0.28125-0.45312-0.67188-0.45312-1.1719 0-0.47656 0.14453-0.85938 0.4375-1.1406 0.30078-0.28125 0.70703-0.42188 1.2188-0.42188 0.46875 0 0.84375 0.14062 1.125 0.42188s0.42188 0.66406 0.42188 1.1406zm-0.96875-0.32812c0-0.17578-0.058594-0.31641-0.17188-0.42188-0.10547-0.11328-0.24219-0.17188-0.40625-0.17188-0.1875 0-0.33984 0.054687-0.45312 0.15625-0.11719 0.10547-0.1875 0.25-0.21875 0.4375z"/>
  </symbol>
  <symbol id="j" overflow="visible">
   <path d="m1.7969-1.3438c-0.19922 0-0.35156 0.039062-0.45312 0.10938-0.09375 0.0625-0.14062 0.16406-0.14062 0.29688 0 0.11719 0.035156 0.21094 0.10938 0.28125 0.082031 0.0625 0.19531 0.09375 0.34375 0.09375 0.17578 0 0.32812-0.0625 0.45312-0.1875s0.1875-0.28516 0.1875-0.48438v-0.10938zm1.4688-0.35938v1.7031h-0.96875v-0.4375c-0.125 0.17969-0.27344 0.30859-0.4375 0.39062-0.15625 0.082031-0.35156 0.125-0.57812 0.125-0.3125 0-0.57031-0.085938-0.76562-0.26562-0.1875-0.1875-0.28125-0.42188-0.28125-0.70312 0-0.35156 0.11719-0.61328 0.35938-0.78125 0.23828-0.16406 0.61719-0.25 1.1406-0.25h0.5625v-0.0625c0-0.15625-0.0625-0.26562-0.1875-0.32812-0.11719-0.070312-0.29688-0.10938-0.54688-0.10938-0.21094 0-0.40234 0.023437-0.57812 0.0625-0.17969 0.042969-0.33984 0.10156-0.48438 0.17188v-0.71875c0.19531-0.050781 0.39844-0.085938 0.60938-0.10938 0.20703-0.03125 0.41406-0.046875 0.625-0.046875 0.53906 0 0.92969 0.10938 1.1719 0.32812 0.23828 0.21094 0.35938 0.55469 0.35938 1.0312z"/>
  </symbol>
  <symbol id="c" overflow="visible">
   <path d="m1.5-3.8438v0.85938h0.98438v0.67188h-0.98438v1.2812c0 0.13672 0.023438 0.23047 0.078125 0.28125 0.0625 0.042969 0.17578 0.0625 0.34375 0.0625h0.48438v0.6875h-0.8125c-0.38672 0-0.65625-0.078125-0.8125-0.23438s-0.23438-0.42188-0.23438-0.79688v-1.2812h-0.46875v-0.67188h0.46875v-0.85938z"/>
  </symbol>
  <symbol id="i" overflow="visible">
   <path d="m2.5-2.5469v-1.6094h0.95312v4.1562h-0.95312v-0.4375c-0.13672 0.17969-0.28125 0.30859-0.4375 0.39062-0.15625 0.082031-0.33984 0.125-0.54688 0.125-0.375 0-0.68359-0.14453-0.92188-0.4375-0.23047-0.28906-0.34375-0.67188-0.34375-1.1406 0-0.45703 0.11328-0.83203 0.34375-1.125 0.23828-0.28906 0.54688-0.4375 0.92188-0.4375 0.19531 0 0.375 0.042969 0.53125 0.125 0.16406 0.085938 0.31641 0.21484 0.45312 0.39062zm-0.64062 1.9375c0.20703 0 0.36328-0.070313 0.46875-0.21875 0.11328-0.15625 0.17188-0.37891 0.17188-0.67188 0-0.28125-0.058594-0.49219-0.17188-0.64062-0.10547-0.15625-0.26172-0.23438-0.46875-0.23438-0.19922 0-0.35547 0.078125-0.46875 0.23438-0.10547 0.14844-0.15625 0.35938-0.15625 0.64062 0 0.29297 0.050781 0.51562 0.15625 0.67188 0.11328 0.14844 0.26953 0.21875 0.46875 0.21875z"/>
  </symbol>
  <symbol id="h" overflow="visible">
   <path d="m2.0469-0.60938c0.20703 0 0.36328-0.070313 0.46875-0.21875 0.11328-0.15625 0.17188-0.37891 0.17188-0.67188 0-0.28125-0.058594-0.49219-0.17188-0.64062-0.10547-0.15625-0.26172-0.23438-0.46875-0.23438-0.19922 0-0.35547 0.078125-0.46875 0.23438-0.10547 0.14844-0.15625 0.35938-0.15625 0.64062 0 0.29297 0.050781 0.51562 0.15625 0.67188 0.11328 0.14844 0.26953 0.21875 0.46875 0.21875zm-0.625-1.9375c0.125-0.17578 0.26562-0.30469 0.42188-0.39062 0.16406-0.082031 0.35156-0.125 0.5625-0.125 0.36328 0 0.66406 0.14844 0.90625 0.4375 0.23828 0.29297 0.35938 0.66797 0.35938 1.125 0 0.46875-0.12109 0.85156-0.35938 1.1406-0.24219 0.29297-0.54297 0.4375-0.90625 0.4375-0.21094 0-0.39844-0.042969-0.5625-0.125-0.15625-0.082031-0.29688-0.21094-0.42188-0.39062v0.4375h-0.96875v-4.1562h0.96875z"/>
  </symbol>
  <symbol id="g" overflow="visible">
   <path d="m0.0625-2.9844h0.95312l0.8125 2.0156 0.6875-2.0156h0.95312l-1.2656 3.2656c-0.125 0.33203-0.27344 0.56641-0.4375 0.70312-0.16797 0.13281-0.39062 0.20312-0.67188 0.20312h-0.54688v-0.64062h0.29688c0.16406 0 0.28516-0.027344 0.35938-0.078125 0.070313-0.054688 0.12891-0.14062 0.17188-0.26562l0.03125-0.09375z"/>
  </symbol>
  <symbol id="f" overflow="visible">
   <path d="m0.5-3.9844h1.0312v3.5938c0 0.5-0.13672 0.86719-0.40625 1.1094-0.27344 0.25-0.67969 0.375-1.2188 0.375h-0.21875v-0.78125h0.17188c0.20703 0 0.36328-0.0625 0.46875-0.1875 0.11328-0.11719 0.17188-0.28516 0.17188-0.51562z"/>
  </symbol>
  <symbol id="s" overflow="visible">
   <path d="m0.45312-2.9844h0.96875v2.9844h-0.96875zm0-1.1719h0.96875v0.78125h-0.96875z"/>
  </symbol>
  <symbol id="e" overflow="visible">
   <path d="m3.4688-1.8281v1.8281h-0.96875v-1.3906c0-0.25781-0.007812-0.4375-0.015625-0.53125-0.011719-0.10156-0.03125-0.17578-0.0625-0.21875-0.03125-0.0625-0.085937-0.10938-0.15625-0.14062-0.0625-0.039062-0.13281-0.0625-0.20312-0.0625-0.21094 0-0.37109 0.078125-0.48438 0.23438-0.10547 0.15625-0.15625 0.37109-0.15625 0.64062v1.4688h-0.96875v-2.9844h0.96875v0.4375c0.13281-0.17578 0.28516-0.30469 0.45312-0.39062 0.16406-0.082031 0.34375-0.125 0.53125-0.125 0.34375 0 0.60156 0.10938 0.78125 0.32812 0.1875 0.21094 0.28125 0.51172 0.28125 0.90625z"/>
  </symbol>
  <symbol id="b" overflow="visible">
   <path d="m1.875-2.375c-0.21094 0-0.37109 0.078125-0.48438 0.23438-0.10547 0.14844-0.15625 0.35938-0.15625 0.64062 0 0.29297 0.050781 0.51562 0.15625 0.67188 0.11328 0.14844 0.27344 0.21875 0.48438 0.21875 0.20703 0 0.36719-0.070313 0.48438-0.21875 0.11328-0.15625 0.17188-0.37891 0.17188-0.67188 0-0.28125-0.058594-0.49219-0.17188-0.64062-0.11719-0.15625-0.27734-0.23438-0.48438-0.23438zm0-0.6875c0.51953 0 0.92188 0.14062 1.2031 0.42188 0.28906 0.27344 0.4375 0.65234 0.4375 1.1406 0 0.5-0.14844 0.89062-0.4375 1.1719-0.28125 0.27344-0.68359 0.40625-1.2031 0.40625-0.51172 0-0.91406-0.13281-1.2031-0.40625-0.29297-0.28125-0.4375-0.67188-0.4375-1.1719 0-0.48828 0.14453-0.86719 0.4375-1.1406 0.28906-0.28125 0.69141-0.42188 1.2031-0.42188z"/>
  </symbol>
  <symbol id="r" overflow="visible">
   <path d="m2.4219-4.1562v0.625h-0.51562c-0.13672 0-0.23438 0.027344-0.29688 0.078125-0.054687 0.054687-0.078125 0.13672-0.078125 0.25v0.21875h0.82812v0.67188h-0.82812v2.3125h-0.95312v-2.3125h-0.46875v-0.67188h0.46875v-0.21875c0-0.32031 0.085937-0.5625 0.26562-0.71875 0.1875-0.15625 0.47266-0.23438 0.85938-0.23438z"/>
  </symbol>
  <symbol id="q" overflow="visible">
   <path d="m3.2344-2.5c0.11328-0.17578 0.25391-0.3125 0.42188-0.40625 0.16406-0.10156 0.35156-0.15625 0.5625-0.15625 0.33203 0 0.58594 0.10938 0.76562 0.32812 0.1875 0.21094 0.28125 0.51172 0.28125 0.90625v1.8281h-0.96875v-1.5625c0.007813-0.019531 0.015625-0.039062 0.015625-0.0625v-0.10938c0-0.21875-0.03125-0.375-0.09375-0.46875s-0.16406-0.14062-0.29688-0.14062c-0.1875 0-0.33594 0.078125-0.4375 0.23438-0.09375 0.14844-0.14062 0.35938-0.14062 0.64062v1.4688h-0.96875v-1.5625c0-0.33203-0.03125-0.54688-0.09375-0.64062-0.054688-0.09375-0.15234-0.14062-0.29688-0.14062-0.17969 0-0.32031 0.078125-0.42188 0.23438-0.09375 0.14844-0.14062 0.35938-0.14062 0.64062v1.4688h-0.96875v-2.9844h0.96875v0.4375c0.11328-0.17578 0.24219-0.30469 0.39062-0.39062 0.15625-0.082031 0.32812-0.125 0.51562-0.125 0.20703 0 0.39062 0.054688 0.54688 0.15625 0.15625 0.09375 0.27344 0.23047 0.35938 0.40625z"/>
  </symbol>
  <symbol id="p" overflow="visible">
   <path d="m3.4688-1.8281v1.8281h-0.96875v-1.3906c0-0.25781-0.007812-0.4375-0.015625-0.53125-0.011719-0.10156-0.03125-0.17578-0.0625-0.21875-0.03125-0.0625-0.085937-0.10938-0.15625-0.14062-0.0625-0.039062-0.13281-0.0625-0.20312-0.0625-0.21094 0-0.37109 0.078125-0.48438 0.23438-0.10547 0.15625-0.15625 0.37109-0.15625 0.64062v1.4688h-0.96875v-4.1562h0.96875v1.6094c0.13281-0.17578 0.28516-0.30469 0.45312-0.39062 0.16406-0.082031 0.34375-0.125 0.53125-0.125 0.34375 0 0.60156 0.10938 0.78125 0.32812 0.1875 0.21094 0.28125 0.51172 0.28125 0.90625z"/>
  </symbol>
  <symbol id="o" overflow="visible">
   <path d="m0.5-3.9844h1.1562l1.4375 2.7344v-2.7344h0.98438v3.9844h-1.1562l-1.4375-2.7344v2.7344h-0.98438z"/>
  </symbol>
  <symbol id="n" overflow="visible">
   <path d="m0.42188-1.1719v-1.8125h0.96875v0.29688 0.60938 0.48438c0 0.24219 0.003906 0.41797 0.015625 0.53125 0.007812 0.10547 0.03125 0.17969 0.0625 0.21875 0.039062 0.0625 0.09375 0.11719 0.15625 0.15625 0.0625 0.03125 0.13281 0.046875 0.21875 0.046875 0.19531 0 0.35156-0.078125 0.46875-0.23438 0.11328-0.15625 0.17188-0.36719 0.17188-0.64062v-1.4688h0.95312v2.9844h-0.95312v-0.4375c-0.14844 0.17969-0.30469 0.30859-0.46875 0.39062-0.15625 0.082031-0.33594 0.125-0.53125 0.125-0.34375 0-0.60938-0.10156-0.79688-0.3125-0.17969-0.21875-0.26562-0.53125-0.26562-0.9375z"/>
  </symbol>
  <symbol id="m" overflow="visible">
   <path d="m0.5-3.9844h1.7031c0.50781 0 0.89844 0.11719 1.1719 0.34375 0.26953 0.21875 0.40625 0.53906 0.40625 0.95312 0 0.41797-0.13672 0.74219-0.40625 0.96875-0.27344 0.21875-0.66406 0.32812-1.1719 0.32812h-0.67188v1.3906h-1.0312zm1.0312 0.75v1.1094h0.5625c0.19531 0 0.34766-0.046875 0.45312-0.14062 0.11328-0.10156 0.17188-0.24219 0.17188-0.42188 0-0.17578-0.058594-0.3125-0.17188-0.40625-0.10547-0.09375-0.25781-0.14062-0.45312-0.14062z"/>
  </symbol>
  <symbol id="l" overflow="visible">
   <path d="m0.45312-2.9844h0.96875v2.9375c0 0.39453-0.10156 0.69531-0.29688 0.90625-0.1875 0.21875-0.46484 0.32812-0.82812 0.32812h-0.48438v-0.64062h0.17188c0.17578 0 0.29688-0.042969 0.35938-0.125 0.070312-0.074219 0.10938-0.23047 0.10938-0.46875zm0-1.1719h0.96875v0.78125h-0.96875z"/>
  </symbol>
  <symbol id="k" overflow="visible">
   <path d="m2.875-2.8906v0.76562c-0.125-0.082031-0.25781-0.14453-0.39062-0.1875-0.13672-0.039062-0.27344-0.0625-0.40625-0.0625-0.27344 0-0.48047 0.078125-0.625 0.23438-0.14844 0.15625-0.21875 0.37109-0.21875 0.64062 0 0.28125 0.070313 0.5 0.21875 0.65625 0.14453 0.15625 0.35156 0.23438 0.625 0.23438 0.14453 0 0.28516-0.019531 0.42188-0.0625 0.13281-0.039063 0.25781-0.10938 0.375-0.20312v0.78125c-0.14844 0.0625-0.29688 0.10156-0.45312 0.125-0.15625 0.03125-0.3125 0.046875-0.46875 0.046875-0.54297 0-0.96484-0.13281-1.2656-0.40625-0.30469-0.28125-0.45312-0.67188-0.45312-1.1719 0-0.48828 0.14844-0.86719 0.45312-1.1406 0.30078-0.28125 0.72266-0.42188 1.2656-0.42188 0.15625 0 0.3125 0.015625 0.46875 0.046875 0.15625 0.023437 0.30469 0.0625 0.45312 0.125z"/>
  </symbol>
 </defs>
 <g>
  <path d="m185.94 467.49c-1.6953 0-3.4141 0-5.1094-0.097657-36.672-1.3672-66.859-19.129-84.996-49.996-20.715-35.25-20.617-79.844 0.25-116.28 19.547-34.148 54.008-54.535 92.203-54.535 34.375 0 62.824 13.867 80.641 25.496 17.5 11.406 28.898 23.273 31.914 27.027l26.602 26.602 0.003906-0.003907c1.0586 1.0195 1.6562 2.4219 1.6719 3.8867 0.011718 1.4688-0.56641 2.8789-1.6016 3.9141-1.0391 1.0391-2.4492 1.6133-3.9141 1.6016-1.4688-0.011719-2.8672-0.61328-3.8867-1.668l-26.754-26.754c-0.25391-0.25-0.48047-0.52344-0.67969-0.82031-1.3008-1.543-42.996-48.344-103.99-48.344-34.223 0-65.145 18.332-82.711 49.031-18.922 33.074-19.055 73.422-0.31641 105.3 16.176 27.539 43.172 43.379 75.984 44.613 1.5547 0.054687 3.1406 0.085937 4.6914 0.085937 22.125 0 42.656-5.9609 62.641-18.223 18.781-11.496 35.316-27.453 50.652-42.809l70-70.141c5.5234-5.5352 11.004-11.234 16.297-16.746 15.738-16.406 32.023-33.305 50.051-46.527 23.984-17.598 50.891-26.48 75.785-24.992 26.73 1.5859 50.793 11.945 69.594 29.945 18.387 17.598 31.336 41.891 37.449 70.262v0.003907c0.63672 2.9531-1.2422 5.8633-4.1953 6.5-2.9531 0.64062-5.8633-1.2383-6.5-4.1914-5.6562-26.25-17.5-48.594-34.312-64.672-16.812-16.082-38.555-25.5-62.695-26.93-22.344-1.3359-46.727 6.8047-68.664 22.891-17.258 12.664-33.207 29.258-48.629 45.293-5.3281 5.5469-10.852 11.289-16.406 16.887l-70 70.141c-15.793 15.828-32.867 32.297-52.664 44.418-21.84 13.344-44.199 19.832-68.402 19.832zm106.15-161.94c0 0.054688 0.078124 0.14062 0.14062 0.24219z"/>
  <path d="m186.07 432.68c-1.3008 0-2.6016 0-3.9375-0.078125-24.742-0.91797-44.199-12.281-56.285-32.812-14.406-24.512-14.219-55.684 0.46094-81.344 13.453-23.527 36.094-37.012 61.984-37.012 38.797 0 74.07 26.664 81.746 34.484l-0.003906 0.003907c0.16797 0.13281 0.32812 0.27734 0.48047 0.42578l29.312 29.312 44.758-44.844c5.2266-5.25 10.578-10.797 15.738-16.164l0.10938-0.12109c16.766-17.434 34.102-35.469 54.547-50.465 30.504-22.379 65.484-33.633 98.438-31.719 35.086 2.0781 66.719 15.762 91.602 39.551 4.3438 4.1641 8.4414 8.582 12.262 13.234 1.918 2.332 1.5781 5.7812-0.75781 7.6992-2.332 1.918-5.7812 1.5781-7.6992-0.75391-3.5391-4.3164-7.3359-8.418-11.363-12.285-22.969-21.973-52.238-34.605-84.688-36.531-30.438-1.8047-62.879 8.75-91.328 29.531-19.688 14.438-36.695 32.125-53.133 49.219l-0.10938 0.12109c-5.207 5.4023-10.578 10.938-15.883 16.309l-70 70.141c-31.457 31.578-57.008 54.098-96.25 54.098zm2.1875-140.34c-21.875 0-41.039 11.484-52.5 31.512-12.754 22.27-12.949 49.219-0.52344 70.371 10.094 17.184 26.445 26.676 47.273 27.453 37.023 1.3789 61.512-20.156 92.039-50.75l17.5-17.555-28.633-28.625-0.007812 0.003906c-0.35547-0.27344-0.67969-0.58984-0.96094-0.94141-1.4766-1.4531-34.629-31.469-74.156-31.469z"/>
  <path d="m86.328 547.37c-3.0195 0-5.4688-2.4492-5.4688-5.4688v-173.24c0-3.0195 2.4492-5.4688 5.4688-5.4688 3.0234 0 5.4688 2.4492 5.4688 5.4688v173.24c0 1.4492-0.57422 2.8398-1.6016 3.8672-1.0234 1.0273-2.4141 1.6016-3.8672 1.6016z"/>
  <path d="m613.05 547.37c-3.0195 0-5.4688-2.4492-5.4688-5.4688v-283.28c0-3.0195 2.4492-5.4688 5.4688-5.4688s5.4688 2.4492 5.4688 5.4688v283.28c0 1.4492-0.57422 2.8398-1.6016 3.8672-1.0273 1.0273-2.418 1.6016-3.8672 1.6016z"/>
  <path d="m525.26 337.42c-3.0195 0-5.4688-2.4492-5.4688-5.4688v-87.094c0-3.0234 2.4492-5.4688 5.4688-5.4688s5.4688 2.4453 5.4688 5.4688v87.094c0 1.4492-0.57422 2.8398-1.6016 3.8672-1.0234 1.0273-2.4141 1.6016-3.8672 1.6016z"/>
  <path d="m437.5 336.33c-3.0195 0-5.4688-2.4492-5.4688-5.4688v-63.25c0-3.0234 2.4492-5.4688 5.4688-5.4688s5.4688 2.4453 5.4688 5.4688v63.25c0 1.4492-0.57422 2.8398-1.6016 3.8672-1.0273 1.0273-2.418 1.6016-3.8672 1.6016z"/>
  <path d="m349.68 547.37c-3.0195 0-5.4688-2.4492-5.4688-5.4688v-188.62c0-3.0195 2.4492-5.4688 5.4688-5.4688 3.0195 0 5.4688 2.4492 5.4688 5.4688v188.62c0 1.4492-0.57812 2.8398-1.6016 3.8672-1.0273 1.0273-2.418 1.6016-3.8672 1.6016z"/>
  <path d="m261.9 547.37c-3.0195 0-5.4688-2.4492-5.4688-5.4688v-105.88c0-3.0195 2.4492-5.4688 5.4688-5.4688 3.0195 0 5.4688 2.4492 5.4688 5.4688v105.88c0 1.4492-0.57422 2.8398-1.6016 3.8672s-2.418 1.6016-3.8672 1.6016z"/>
  <path d="m261.9 394.62c-3.0195 0-5.4688-2.4492-5.4688-5.4688v-72.352c0-3.0195 2.4492-5.4688 5.4688-5.4688 3.0195 0 5.4688 2.4492 5.4688 5.4688v72.352c0 1.4492-0.57422 2.8398-1.6016 3.8672-1.0273 1.0273-2.418 1.6016-3.8672 1.6016z"/>
  <path d="m174.11 547.37c-3.0195 0-5.4688-2.4492-5.4688-5.4688v-79.844c0-3.0195 2.4492-5.4688 5.4688-5.4688s5.4688 2.4492 5.4688 5.4688v79.844c0 1.4492-0.57422 2.8398-1.6016 3.8672-1.0234 1.0273-2.4141 1.6016-3.8672 1.6016z"/>
  <path d="m174.11 427.3c-3.0195 0-5.4688-2.4453-5.4688-5.4688v-130.45c0-3.0195 2.4492-5.4688 5.4688-5.4688s5.4688 2.4492 5.4688 5.4688v130.45c0 1.4531-0.57422 2.8438-1.6016 3.8672-1.0234 1.0273-2.4141 1.6016-3.8672 1.6016z"/>
  <path d="m205.96 258.88c-2.0547 0-3.9336-1.1484-4.8672-2.9727-12.285-23.734-18.664-50.082-18.594-76.805 0-92.629 75.371-167.99 168-167.99 42.055 0.011719 82.574 15.793 113.55 44.23 30.984 28.434 50.176 67.453 53.789 109.35 0.25781 3.0234-1.9844 5.6797-5.0039 5.9336-3.0195 0.25781-5.6758-1.9805-5.9336-5.0039-3.3711-39.156-21.305-75.625-50.25-102.2-28.949-26.582-66.812-41.344-106.11-41.371-86.602 0-157.06 70.461-157.06 157.05-0.074219 24.98 5.8711 49.609 17.336 71.805 0.87109 1.6953 0.80078 3.7227-0.19141 5.3477-0.99219 1.6289-2.7578 2.625-4.6641 2.625z"/>
  <path d="m345.68 312.81h-0.20703c-26.855-0.98047-52.785-10.07-74.375-26.074-2.1289-1.8828-2.4648-5.0781-0.76953-7.3594 1.6914-2.2812 4.8477-2.8867 7.2656-1.3906 19.824 14.68 43.629 23.008 68.281 23.887 3.0234 0.054688 5.4258 2.5469 5.3711 5.5664-0.054688 3.0195-2.5469 5.4258-5.5664 5.3711z"/>
  <path d="m274.3 287.82c-1.1836 0-2.332-0.38281-3.2812-1.0938-36.52-26.992-56.855-70.66-54.016-115.98 2.8438-45.32 28.477-86.109 68.082-108.33 39.605-22.215 87.777-22.828 127.94-1.6289 40.156 21.203 66.824 61.324 70.82 106.56 0.26172 3.0195-1.9727 5.6836-4.9961 5.9453-3.0195 0.26172-5.6797-1.9727-5.9414-4.9922-3.6641-41.551-28.156-78.402-65.043-97.871-36.883-19.473-81.129-18.898-117.5 1.5156-36.371 20.418-59.902 57.891-62.492 99.52-2.5859 41.629 16.117 81.727 49.68 106.49 1.8828 1.4141 2.6523 3.8711 1.9062 6.1055-0.74609 2.2344-2.8359 3.7383-5.1875 3.7383z"/>
  <path d="m374.35 282.73c-1.5547 0-3.0312-0.66016-4.0703-1.8164-0.097656-0.10938-10.359-11.527-17.312-19.621-8.5742-9.9648-2.418-21.734 2.0352-26.566l0.19531-0.19531c0.75391-0.74219 18.508-18.102 22.969-22.312v-0.003906c18.559-17.371 40.371-30.906 64.18-39.82 39.059-14.59 80.73-15.664 123.87-3.1953h0.14453c4.7773 1.6328 9.3945 3.7031 13.793 6.1914 10.074 5.7188 16.559 12.426 19.281 19.906 2.7227 7.4805 1.5625 15.246-3.4141 23.09-4.1016 6.3125-16.93 15.586-36.391 5.9844l0.003906-0.003906c-2.7188-1.3359-3.8398-4.625-2.5-7.3438s4.625-3.8359 7.3438-2.5c14.953 7.3945 21.523-0.94141 22.355-2.1016 3.0625-4.8672 3.8281-9.2539 2.3203-13.41-3.6758-10.172-19.984-17.434-26.055-19.414-40.809-11.77-80.141-10.773-116.93 2.9648l0.003906 0.003906c-22.43 8.3906-42.977 21.137-60.453 37.504-4.1797 3.9688-21.043 20.453-22.695 22.07-0.86328 0.99609-5.875 7.1094-1.7188 11.945 6.8789 8.0078 17.062 19.328 17.16 19.445h0.003907c1.4414 1.6055 1.8008 3.9102 0.92187 5.8828-0.87891 1.9688-2.832 3.2383-4.9922 3.2383z"/>
  <path d="m537.21 216.74c-0.42969-0.003906-0.85547-0.0625-1.2695-0.17578-2.9297-0.69922-4.7422-3.6328-4.0586-6.5625l9.7773-41.148c0.69922-2.9375 3.6484-4.7539 6.5859-4.0547 2.9375 0.69531 4.7539 3.6445 4.0586 6.582l-9.8008 41.148c-0.58203 2.457-2.7695 4.1953-5.293 4.2109z"/>
  <path d="m492 213.87c-2.8438 0.011718-5.2227-2.1641-5.4688-4.9961l-3.5-41.32v-0.003907c-0.12109-1.4492 0.33984-2.8906 1.2773-4 0.94141-1.1133 2.2812-1.8047 3.7344-1.9258 3.0195-0.25391 5.6719 1.9883 5.9258 5.0078l3.5 41.312c0.125 1.4453-0.33203 2.8828-1.2656 3.9922s-2.2734 1.8008-3.7188 1.9219z"/>
  <path d="m449.72 225.57c-2.1719-0.003907-4.1328-1.293-5-3.2812l-16.898-37.887c-0.64062-1.332-0.71094-2.8633-0.20312-4.25 0.51172-1.3867 1.5586-2.5078 2.9062-3.1094 1.3516-0.60156 2.8828-0.63281 4.2578-0.085937 1.3711 0.55078 2.4609 1.6289 3.0234 2.9922l16.898 37.875v0.003906c0.73828 1.6875 0.57422 3.6289-0.42969 5.1719-1.0039 1.543-2.7148 2.4766-4.5547 2.4844z"/>
  <path d="m413.85 247.19c-1.6641 0-3.2383-0.75781-4.2734-2.0547l-25.156-31.531v-0.003906c-1.8164-2.3633-1.3984-5.7461 0.92969-7.6055 2.332-1.8555 5.7227-1.5039 7.6211 0.79297l25.156 31.531c1.3047 1.6445 1.5547 3.8867 0.64453 5.7773-0.91016 1.8906-2.8242 3.0898-4.9219 3.0938z"/>
  <path d="m120.37 155.5h-0.1875c-13.078-0.40625-25.18-7.0234-32.582-17.816-7.4023-10.789-9.2188-24.465-4.8867-36.812 4.3281-12.348 14.285-21.895 26.805-25.699 0-0.6875-0.078125-1.3906-0.078125-2.0898l0.003906 0.003907c0.007813-7.957 2.957-15.633 8.2812-21.543 5.3281-5.9102 12.652-9.6445 20.566-10.477 7.9141-0.83203 15.855 1.293 22.297 5.9648 6.3594-11.496 16.59-20.359 28.871-25.02 12.285-4.6602 25.82-4.8164 38.207-0.43359 12.383 4.3789 22.812 13.012 29.434 24.359 0.82812 1.2578 1.1055 2.8008 0.75781 4.2656-0.34375 1.4688-1.2773 2.7266-2.582 3.4805-1.3047 0.75781-2.8633 0.94141-4.3047 0.50781-1.4453-0.42969-2.6445-1.4375-3.3203-2.7852-5.6797-9.7461-14.844-16.973-25.645-20.23-10.801-3.2539-22.43-2.293-32.551 2.6875-10.117 4.9844-17.973 13.617-21.977 24.16-0.69141 1.8242-2.3047 3.1406-4.2305 3.457-1.9258 0.31641-3.875-0.41797-5.1133-1.9258-3.7344-4.5625-9.1914-7.3711-15.074-7.7578-5.8828-0.38672-11.664 1.6836-15.965 5.7188-4.2969 4.0352-6.7305 9.6719-6.7148 15.57-0.003906 1.6758 0.19922 3.3477 0.60156 4.9766 0.35938 1.4688 0.089843 3.0234-0.73828 4.2891-0.82813 1.2656-2.1445 2.1328-3.6367 2.3906-9.8789 1.6094-18.312 8.0156-22.508 17.102-4.1914 9.0859-3.5977 19.664 1.5859 28.223s14.285 13.98 24.277 14.473c0.52344-0.12891 1.0586-0.19531 1.5977-0.19531h68.535c3.0195 0 5.4688 2.4453 5.4688 5.4688 0 3.0195-2.4492 5.4688-5.4688 5.4688h-68.031c-0.55469 0.14062-1.125 0.21484-1.6953 0.21875z"/>
  <path d="m251.79 155.31h-25.66c-3.0195 0-5.4688-2.4492-5.4688-5.4688s2.4492-5.4688 5.4688-5.4688h25.496c2.1328-0.14062 26.883-2.3633 26.883-26.25 0.011719-5.6406-1.7656-11.141-5.0781-15.703-3.3125-4.5664-7.9844-7.9648-13.352-9.7031-1.4297-0.41016-2.6289-1.3828-3.3281-2.6914-0.69531-1.3125-0.83203-2.8516-0.37109-4.2656 0.46094-1.4141 1.4805-2.5781 2.8164-3.2266 1.3359-0.64453 2.8789-0.72266 4.2734-0.20703 7.5625 2.4492 14.148 7.2344 18.816 13.668 4.668 6.4336 7.1758 14.18 7.1602 22.129 0 18.234-10.324 27.441-18.988 31.949-5.8125 2.9648-12.16 4.7461-18.668 5.2383z"/>
  <path d="m566.11 515.21c-12.098 0-22.738-5.2188-28.777-13.059-6.0391 7.8438-16.68 13.059-28.777 13.059-11.824 0-22.367-5.0312-28.438-12.699-6.1016 7.6562-16.648 12.699-28.438 12.699-11.789 0-22.488-5.0977-28.559-12.785-6.0703 7.6562-16.602 12.785-28.559 12.785-0.76562 0-1.5195-0.023438-2.2656-0.066407-17.359-0.91797-29.98-12.609-29.98-27.805l0.007813 0.003906c0.42969-9.0273 3.5898-17.711 9.0547-24.906 8.8281-11.594 39.625-51.023 44.691-57.5 0.98828-2.6797 3.8789-4.1484 6.6289-3.3633 2.7461 0.78125 4.4297 3.5508 3.8594 6.3516l-0.10938 0.54688c-0.17188 0.84375-0.54688 1.6328-1.0938 2.2969-0.35156 0.46094-35.777 45.762-45.305 58.285-4.0078 5.3086-6.3789 11.672-6.8242 18.309 0 9.1562 8.2695 16.266 19.688 16.867h1.6523c12.73 0 23.09-7.6562 23.09-17.051 0-3.0234 2.4492-5.4688 5.4688-5.4688 3.0195 0 5.4688 2.4453 5.4688 5.4688 0 9.4062 10.359 17.051 23.09 17.051 12.184 0 22.301-7.0312 23.023-16.023 0-3.0195 2.4453-5.4688 5.4688-5.4688 3.0195 0 5.4688 2.4492 5.4688 5.4688 0.73437 8.9922 10.84 16.023 23.023 16.023 12.73 0 23.09-7.6562 23.09-17.051h-0.003907c0-3.0234 2.4492-5.4688 5.4688-5.4688h0.4375c1.4531 0 2.8438 0.57422 3.8672 1.6016 1.0273 1.0234 1.6016 2.4141 1.6016 3.8672 0 9.4062 10.359 17.051 23.09 17.051h1.7188c11.375-0.65625 19.59-7.7539 19.59-16.887-0.44922-6.6328-2.8203-12.988-6.8281-18.289-9.5273-12.523-44.953-57.828-45.305-58.285h0.003906c-0.55078-0.67578-0.92969-1.4766-1.0938-2.332l-0.12109-0.625v0.003906c-0.53516-2.8125 1.1875-5.5625 3.9531-6.3047 2.7617-0.74219 5.6328 0.76953 6.5781 3.4727 5.1523 6.5625 35.852 45.938 44.656 57.453h0.003906c5.4648 7.1953 8.625 15.879 9.0547 24.906 0 15.117-12.547 26.809-29.836 27.805-0.78906 0.007812-1.5977 0.0625-2.4844 0.0625z"/>
  <path d="m533.11 412.88c-11.016 0-20.781-4.625-26.5-11.648-5.7539 7.0234-15.5 11.648-26.512 11.648-11.016 0-20.781-4.625-26.512-11.648-5.7539 7.0234-15.488 11.648-26.512 11.648h-0.003906c-2.3398 0.003906-4.6719-0.21484-6.9688-0.64453-13.977-2.6133-23.375-12.918-23.375-25.637h0.003906c0.41016-8.4648 3.3711-16.605 8.4961-23.352 8.75-11.484 53.801-67.934 57.324-72.328 2.2852-3.3789 8.5078-8.75 18.352-8.75 9.6133 0 15.738 7.4258 16.613 8.5625 2.3828 2.9844 48.574 60.836 57.434 72.484v-0.003906c5.1328 6.7461 8.0938 14.887 8.5 23.352 0 12.512-9.1875 22.773-22.883 25.551-2.4531 0.5-4.9531 0.75781-7.457 0.76562zm-21.031-26.383c0 8.5078 9.4375 15.445 21.031 15.445 1.7812 0.003906 3.5586-0.16797 5.3047-0.51172 8.5625-1.7383 14.098-7.5586 14.098-14.832-0.42187-6.0664-2.6016-11.875-6.2656-16.723-8.8281-11.605-56.82-71.73-57.336-72.375 0 0-3.5-4.375-8.0078-4.375-6.4961 0-9.2656 3.8516-9.375 4.0156h0.003906c-0.082032 0.14062-0.17578 0.27344-0.28516 0.39062-0.48047 0.60156-48.484 60.727-57.312 72.328v0.003906c-3.6719 4.8477-5.8477 10.656-6.2656 16.723 0 7.2852 5.8086 13.266 14.461 14.887h-0.003906c1.6289 0.30859 3.2852 0.46094 4.9453 0.45703 11.605 0 21.043-6.9336 21.043-15.445v0.003906c0-3.0195 2.4492-5.4688 5.4688-5.4688s5.4688 2.4492 5.4688 5.4688c0 8.5078 9.4375 15.445 21.043 15.445 11.605 0 21.043-6.9336 21.043-15.445 0-3.0195 2.4492-5.4688 5.4688-5.4688 3.0234 0 5.4688 2.4492 5.4688 5.4688z"/>
  <path d="m367.71 547.97c-2.0859 0-3.9883-1.1914-4.9062-3.0625s-0.69141-4.1055 0.58594-5.7539l25.363-32.812c1.8516-2.3867 5.2852-2.8281 7.6758-0.97656 2.3867 1.8477 2.8242 5.2812 0.97656 7.6719l-25.363 32.812c-1.0352 1.3398-2.6367 2.1211-4.332 2.1211z"/>
  <path d="m593.64 548.07c-1.7109 0.015625-3.3281-0.76953-4.375-2.1211l-25.441-32.922c-1.8438-2.3906-1.4023-5.8281 0.98828-7.6719 2.3945-1.8477 5.8281-1.4023 7.6758 0.98828l25.473 32.879c1.2773 1.6484 1.5039 3.8828 0.58594 5.7539s-2.8203 3.0586-4.9062 3.0625z"/>
  <path d="m327.85 194.17c-2.5938-0.003906-4.8281-1.832-5.3477-4.375-4.0586-19.391-25.734-15.16-26.656-14.973-1.4453 0.35547-2.9727 0.10547-4.2305-0.6875-1.2539-0.79688-2.1328-2.0703-2.4336-3.5273-0.29688-1.457 0.011718-2.9727 0.85547-4.1992 0.84766-1.2266 2.1523-2.0547 3.6211-2.293 5.5898-0.99219 11.32-0.90234 16.879 0.26172 6.8867 1.3398 13.039 5.1719 17.281 10.762 5.3359-7.4805 15.016-14.438 31.105-14.645 3.0195-0.035156 5.4961 2.3828 5.5352 5.4023 0.035156 3.0234-2.3828 5.5-5.4062 5.5352-22.969 0.29688-25.66 17.293-25.77 18.016h0.003906c-0.375 2.625-2.5781 4.6016-5.2305 4.6914z"/>
  <path d="m547.87 100.62c-0.23828 0.015625-0.47656 0.015625-0.71094 0-2.6133-0.33984-4.6133-2.4883-4.7578-5.1172-0.98438-19.305-21.68-19.02-24.062-18.922-3.0195 0.13672-5.582-2.1992-5.7227-5.2188-0.13672-3.0195 2.1992-5.582 5.2188-5.7188 5.6758-0.11328 11.324 0.85937 16.637 2.8633 6.5938 2.4023 12.074 7.1445 15.398 13.324 6.4297-6.5625 17.074-11.945 33-9.6484 1.4766 0.15625 2.8281 0.91016 3.7383 2.082 0.91406 1.1719 1.3086 2.668 1.0977 4.1406-0.21484 1.4688-1.0156 2.7891-2.2227 3.6562-1.207 0.86719-2.7148 1.207-4.1797 0.9375-22.082-3.1836-27.695 12.098-28.262 13.848-0.73047 2.2422-2.8164 3.7617-5.1719 3.7734z"/>
 </g>
</svg>
