<?xml version="1.0" encoding="UTF-8"?>
<svg width="700pt" height="700pt" version="1.1" viewBox="0 0 700 700" xmlns="http://www.w3.org/2000/svg" xmlns:xlink="http://www.w3.org/1999/xlink">
 <defs>
  <symbol id="t" overflow="visible">
   <path d="m18.766-1.125c-0.96875 0.5-1.9805 0.875-3.0312 1.125-1.043 0.25781-2.1367 0.39062-3.2812 0.39062-3.3984 0-6.0898-0.94531-8.0781-2.8438-1.9922-1.9062-2.9844-4.4844-2.9844-7.7344 0-3.2578 0.99219-5.8359 2.9844-7.7344 1.9883-1.9062 4.6797-2.8594 8.0781-2.8594 1.1445 0 2.2383 0.13281 3.2812 0.39062 1.0508 0.25 2.0625 0.625 3.0312 1.125v4.2188c-0.98047-0.65625-1.9453-1.1406-2.8906-1.4531-0.94922-0.3125-1.9492-0.46875-3-0.46875-1.875 0-3.3516 0.60547-4.4219 1.8125-1.0742 1.1992-1.6094 2.8555-1.6094 4.9688 0 2.1055 0.53516 3.7617 1.6094 4.9688 1.0703 1.1992 2.5469 1.7969 4.4219 1.7969 1.0508 0 2.0508-0.14844 3-0.45312 0.94531-0.3125 1.9102-0.80078 2.8906-1.4688z"/>
  </symbol>
  <symbol id="c" overflow="visible">
   <path d="m13.734-11.141c-0.4375-0.19531-0.87109-0.34375-1.2969-0.4375-0.41797-0.10156-0.83984-0.15625-1.2656-0.15625-1.2617 0-2.2305 0.40625-2.9062 1.2188-0.67969 0.80469-1.0156 1.9531-1.0156 3.4531v7.0625h-4.8906v-15.312h4.8906v2.5156c0.625-1 1.3438-1.7266 2.1562-2.1875 0.82031-0.46875 1.8008-0.70312 2.9375-0.70312 0.16406 0 0.34375 0.011719 0.53125 0.03125 0.19531 0.011719 0.47656 0.039062 0.84375 0.078125z"/>
  </symbol>
  <symbol id="a" overflow="visible">
   <path d="m17.641-7.7031v1.4062h-11.453c0.125 1.1484 0.53906 2.0078 1.25 2.5781 0.70703 0.57422 1.7031 0.85938 2.9844 0.85938 1.0312 0 2.082-0.14844 3.1562-0.45312 1.082-0.3125 2.1914-0.77344 3.3281-1.3906v3.7656c-1.1562 0.4375-2.3125 0.76562-3.4688 0.98438-1.1562 0.22656-2.3125 0.34375-3.4688 0.34375-2.7734 0-4.9297-0.70312-6.4688-2.1094-1.5312-1.4062-2.2969-3.3789-2.2969-5.9219 0-2.5 0.75391-4.4609 2.2656-5.8906 1.5078-1.4375 3.582-2.1562 6.2188-2.1562 2.4062 0 4.332 0.73047 5.7812 2.1875 1.4453 1.4492 2.1719 3.3828 2.1719 5.7969zm-5.0312-1.625c0-0.92578-0.27344-1.6719-0.8125-2.2344-0.54297-0.57031-1.25-0.85938-2.125-0.85938-0.94922 0-1.7188 0.26562-2.3125 0.79688s-0.96484 1.2969-1.1094 2.2969z"/>
  </symbol>
  <symbol id="f" overflow="visible">
   <path d="m9.2188-6.8906c-1.0234 0-1.793 0.17188-2.3125 0.51562-0.51172 0.34375-0.76562 0.85547-0.76562 1.5312 0 0.625 0.20703 1.1172 0.625 1.4688 0.41406 0.34375 0.98828 0.51562 1.7188 0.51562 0.92578 0 1.7031-0.32812 2.3281-0.98438 0.63281-0.66406 0.95312-1.4922 0.95312-2.4844v-0.5625zm7.4688-1.8438v8.7344h-4.9219v-2.2656c-0.65625 0.92969-1.3984 1.6055-2.2188 2.0312-0.82422 0.41406-1.8242 0.625-3 0.625-1.5859 0-2.8711-0.45703-3.8594-1.375-0.99219-0.92578-1.4844-2.1289-1.4844-3.6094 0-1.7891 0.61328-3.1016 1.8438-3.9375 1.2383-0.84375 3.1797-1.2656 5.8281-1.2656h2.8906v-0.39062c0-0.76953-0.30859-1.332-0.92188-1.6875-0.61719-0.36328-1.5703-0.54688-2.8594-0.54688-1.0547 0-2.0312 0.10547-2.9375 0.3125-0.89844 0.21094-1.7305 0.52344-2.5 0.9375v-3.7344c1.0391-0.25 2.0859-0.44141 3.1406-0.57812 1.0625-0.13281 2.125-0.20312 3.1875-0.20312 2.7578 0 4.75 0.54688 5.9688 1.6406 1.2266 1.0859 1.8438 2.8555 1.8438 5.3125z"/>
  </symbol>
  <symbol id="b" overflow="visible">
   <path d="m7.7031-19.656v4.3438h5.0469v3.5h-5.0469v6.5c0 0.71094 0.14062 1.1875 0.42188 1.4375s0.83594 0.375 1.6719 0.375h2.5156v3.5h-4.1875c-1.9375 0-3.3125-0.39844-4.125-1.2031-0.80469-0.8125-1.2031-2.1797-1.2031-4.1094v-6.5h-2.4219v-3.5h2.4219v-4.3438z"/>
  </symbol>
  <symbol id="m" overflow="visible">
   <path d="m12.766-13.078v-8.2031h4.9219v21.281h-4.9219v-2.2188c-0.66797 0.90625-1.4062 1.5703-2.2188 1.9844s-1.7578 0.625-2.8281 0.625c-1.8867 0-3.4336-0.75-4.6406-2.25-1.2109-1.5-1.8125-3.4258-1.8125-5.7812 0-2.3633 0.60156-4.2969 1.8125-5.7969 1.207-1.5 2.7539-2.25 4.6406-2.25 1.0625 0 2 0.21484 2.8125 0.64062 0.82031 0.42969 1.5664 1.0859 2.2344 1.9688zm-3.2188 9.9219c1.0391 0 1.8359-0.37891 2.3906-1.1406 0.55078-0.76953 0.82812-1.8828 0.82812-3.3438 0-1.457-0.27734-2.5664-0.82812-3.3281-0.55469-0.76953-1.3516-1.1562-2.3906-1.1562-1.043 0-1.8398 0.38672-2.3906 1.1562-0.55469 0.76172-0.82812 1.8711-0.82812 3.3281 0 1.4609 0.27344 2.5742 0.82812 3.3438 0.55078 0.76172 1.3477 1.1406 2.3906 1.1406z"/>
  </symbol>
  <symbol id="l" overflow="visible">
   <path d="m10.5-3.1562c1.0508 0 1.8516-0.37891 2.4062-1.1406 0.55078-0.76953 0.82812-1.8828 0.82812-3.3438 0-1.457-0.27734-2.5664-0.82812-3.3281-0.55469-0.76953-1.3555-1.1562-2.4062-1.1562-1.0547 0-1.8594 0.38672-2.4219 1.1562-0.55469 0.77344-0.82812 1.8828-0.82812 3.3281 0 1.4492 0.27344 2.5586 0.82812 3.3281 0.5625 0.77344 1.3672 1.1562 2.4219 1.1562zm-3.25-9.9219c0.67578-0.88281 1.4219-1.5391 2.2344-1.9688 0.82031-0.42578 1.7656-0.64062 2.8281-0.64062 1.8945 0 3.4453 0.75 4.6562 2.25 1.207 1.5 1.8125 3.4336 1.8125 5.7969 0 2.3555-0.60547 4.2812-1.8125 5.7812-1.2109 1.5-2.7617 2.25-4.6562 2.25-1.0625 0-2.0078-0.21094-2.8281-0.625-0.8125-0.42578-1.5586-1.0859-2.2344-1.9844v2.2188h-4.8906v-21.281h4.8906z"/>
  </symbol>
  <symbol id="k" overflow="visible">
   <path d="m0.34375-15.312h4.8906l4.125 10.391 3.5-10.391h4.8906l-6.4375 16.766c-0.64844 1.6953-1.4023 2.8828-2.2656 3.5625-0.86719 0.6875-2 1.0312-3.4062 1.0312h-2.8438v-3.2188h1.5312c0.83203 0 1.4375-0.13672 1.8125-0.40625 0.38281-0.26172 0.67969-0.73047 0.89062-1.4062l0.14062-0.42188z"/>
  </symbol>
  <symbol id="e" overflow="visible">
   <path d="m2.5781-20.406h5.875l7.4219 14v-14h4.9844v20.406h-5.875l-7.4219-14v14h-4.9844z"/>
  </symbol>
  <symbol id="j" overflow="visible">
   <path d="m2.3594-15.312h4.8906v15.312h-4.8906zm0-5.9688h4.8906v4h-4.8906z"/>
  </symbol>
  <symbol id="i" overflow="visible">
   <path d="m14.719-14.828v3.9844c-0.65625-0.45703-1.3242-0.79688-2-1.0156-0.66797-0.21875-1.3594-0.32812-2.0781-0.32812-1.3672 0-2.4336 0.40234-3.2031 1.2031-0.76172 0.79297-1.1406 1.9062-1.1406 3.3438 0 1.4297 0.37891 2.543 1.1406 3.3438 0.76953 0.79297 1.8359 1.1875 3.2031 1.1875 0.75781 0 1.4844-0.10938 2.1719-0.32812 0.6875-0.22656 1.3203-0.56641 1.9062-1.0156v4c-0.76172 0.28125-1.5391 0.48828-2.3281 0.625-0.78125 0.14453-1.5742 0.21875-2.375 0.21875-2.7617 0-4.9219-0.70703-6.4844-2.125-1.5547-1.4141-2.3281-3.3828-2.3281-5.9062 0-2.5312 0.77344-4.5039 2.3281-5.9219 1.5625-1.4141 3.7227-2.125 6.4844-2.125 0.80078 0 1.5938 0.074219 2.375 0.21875 0.78125 0.13672 1.5547 0.35156 2.3281 0.64062z"/>
  </symbol>
  <symbol id="d" overflow="visible">
   <path d="m9.6406-12.188c-1.0859 0-1.9141 0.39062-2.4844 1.1719-0.57422 0.78125-0.85938 1.9062-0.85938 3.375s0.28516 2.5938 0.85938 3.375c0.57031 0.77344 1.3984 1.1562 2.4844 1.1562 1.0625 0 1.875-0.38281 2.4375-1.1562 0.57031-0.78125 0.85938-1.9062 0.85938-3.375s-0.28906-2.5938-0.85938-3.375c-0.5625-0.78125-1.375-1.1719-2.4375-1.1719zm0-3.5c2.6328 0 4.6914 0.71484 6.1719 2.1406 1.4766 1.418 2.2188 3.3867 2.2188 5.9062 0 2.5117-0.74219 4.4805-2.2188 5.9062-1.4805 1.418-3.5391 2.125-6.1719 2.125-2.6484 0-4.7148-0.70703-6.2031-2.125-1.4922-1.4258-2.2344-3.3945-2.2344-5.9062 0-2.5195 0.74219-4.4883 2.2344-5.9062 1.4883-1.4258 3.5547-2.1406 6.2031-2.1406z"/>
  </symbol>
  <symbol id="s" overflow="visible">
   <path d="m2.3594-21.281h4.8906v21.281h-4.8906z"/>
  </symbol>
  <symbol id="h" overflow="visible">
   <path d="m2.5781-20.406h8.7344c2.5938 0 4.582 0.57812 5.9688 1.7344 1.3945 1.1484 2.0938 2.7891 2.0938 4.9219 0 2.1367-0.69922 3.7812-2.0938 4.9375-1.3867 1.1562-3.375 1.7344-5.9688 1.7344h-3.4844v7.0781h-5.25zm5.25 3.8125v5.7031h2.9219c1.0195 0 1.8047-0.25 2.3594-0.75 0.5625-0.5 0.84375-1.2031 0.84375-2.1094 0-0.91406-0.28125-1.6172-0.84375-2.1094-0.55469-0.48828-1.3398-0.73438-2.3594-0.73438z"/>
  </symbol>
  <symbol id="g" overflow="visible">
   <path d="m17.75-9.3281v9.3281h-4.9219v-7.1406c0-1.3203-0.03125-2.2344-0.09375-2.7344s-0.16797-0.86719-0.3125-1.1094c-0.1875-0.3125-0.44922-0.55469-0.78125-0.73438-0.32422-0.17578-0.69531-0.26562-1.1094-0.26562-1.0234 0-1.8242 0.39844-2.4062 1.1875-0.58594 0.78125-0.875 1.8711-0.875 3.2656v7.5312h-4.8906v-15.312h4.8906v2.2344c0.73828-0.88281 1.5195-1.5391 2.3438-1.9688 0.83203-0.42578 1.75-0.64062 2.75-0.64062 1.7695 0 3.1133 0.54688 4.0312 1.6406 0.91406 1.0859 1.375 2.6562 1.375 4.7188z"/>
  </symbol>
  <symbol id="r" overflow="visible">
   <path d="m12.422-21.281v3.2188h-2.7031c-0.6875 0-1.1719 0.125-1.4531 0.375-0.27344 0.25-0.40625 0.6875-0.40625 1.3125v1.0625h4.1875v3.5h-4.1875v11.812h-4.8906v-11.812h-2.4375v-3.5h2.4375v-1.0625c0-1.6641 0.46094-2.8984 1.3906-3.7031 0.92578-0.80078 2.3672-1.2031 4.3281-1.2031z"/>
  </symbol>
  <symbol id="q" overflow="visible">
   <path d="m16.547-12.766c0.61328-0.94531 1.3477-1.6719 2.2031-2.1719 0.85156-0.5 1.7891-0.75 2.8125-0.75 1.7578 0 3.0977 0.54688 4.0156 1.6406 0.92578 1.0859 1.3906 2.6562 1.3906 4.7188v9.3281h-4.9219v-7.9844-0.35938c0.007813-0.13281 0.015625-0.32031 0.015625-0.5625 0-1.082-0.16406-1.8633-0.48438-2.3438-0.3125-0.48828-0.82422-0.73438-1.5312-0.73438-0.92969 0-1.6484 0.38672-2.1562 1.1562-0.51172 0.76172-0.77344 1.8672-0.78125 3.3125v7.5156h-4.9219v-7.9844c0-1.6953-0.14844-2.7852-0.4375-3.2656-0.29297-0.48828-0.8125-0.73438-1.5625-0.73438-0.9375 0-1.6641 0.38672-2.1719 1.1562-0.51172 0.76172-0.76562 1.8594-0.76562 3.2969v7.5312h-4.9219v-15.312h4.9219v2.2344c0.60156-0.86328 1.2891-1.5156 2.0625-1.9531 0.78125-0.4375 1.6406-0.65625 2.5781-0.65625 1.0625 0 2 0.25781 2.8125 0.76562 0.8125 0.51172 1.4258 1.2305 1.8438 2.1562z"/>
  </symbol>
  <symbol id="p" overflow="visible">
   <path d="m17.75-9.3281v9.3281h-4.9219v-7.1094c0-1.3438-0.03125-2.2656-0.09375-2.7656s-0.16797-0.86719-0.3125-1.1094c-0.1875-0.3125-0.44922-0.55469-0.78125-0.73438-0.32422-0.17578-0.69531-0.26562-1.1094-0.26562-1.0234 0-1.8242 0.39844-2.4062 1.1875-0.58594 0.78125-0.875 1.8711-0.875 3.2656v7.5312h-4.8906v-21.281h4.8906v8.2031c0.73828-0.88281 1.5195-1.5391 2.3438-1.9688 0.83203-0.42578 1.75-0.64062 2.75-0.64062 1.7695 0 3.1133 0.54688 4.0312 1.6406 0.91406 1.0859 1.375 2.6562 1.375 4.7188z"/>
  </symbol>
  <symbol id="o" overflow="visible">
   <path d="m2.1875-5.9688v-9.3438h4.9219v1.5312c0 0.83594-0.007813 1.875-0.015625 3.125-0.011719 1.25-0.015625 2.0859-0.015625 2.5 0 1.2422 0.03125 2.1328 0.09375 2.6719 0.070313 0.54297 0.17969 0.93359 0.32812 1.1719 0.20703 0.32422 0.47266 0.57422 0.79688 0.75 0.32031 0.16797 0.69141 0.25 1.1094 0.25 1.0195 0 1.8203-0.39062 2.4062-1.1719 0.58203-0.78125 0.875-1.8672 0.875-3.2656v-7.5625h4.8906v15.312h-4.8906v-2.2188c-0.74219 0.89844-1.5234 1.5586-2.3438 1.9844-0.82422 0.41406-1.7344 0.625-2.7344 0.625-1.7617 0-3.1055-0.53906-4.0312-1.625-0.92969-1.082-1.3906-2.6602-1.3906-4.7344z"/>
  </symbol>
  <symbol id="n" overflow="visible">
   <path d="m2.3594-15.312h4.8906v15.031c0 2.0508-0.49609 3.6172-1.4844 4.7031-0.98047 1.082-2.4062 1.625-4.2812 1.625h-2.4219v-3.2188h0.85938c0.92578 0 1.5625-0.21094 1.9062-0.625 0.35156-0.41797 0.53125-1.2461 0.53125-2.4844zm0-5.9688h4.8906v4h-4.8906z"/>
  </symbol>
 </defs>
 <g>
  <path d="m438.05 177.46c0.17969 1.2812 0.82812 3.7461 3.1367 5.9414-0.49219 1.707-0.69531 3.2695-0.77344 4.2344-0.19141 2.2891-0.25781 8.0078 3.1094 11.574 3.2969 3.5 8.668 4.3555 14.039 2.2305 0.34766-0.13281 0.68359-0.28125 1.0078-0.4375 1.2305 1.3555 2.793 2.4531 4.6367 3.2305 1.9336 0.8125 4.0547 1.1992 6.2148 1.1992 5.4766 0 11.184-2.4688 14.469-6.707 2.4375-3.1289 3.3359-6.8164 2.7383-10.605 1.5898-0.79688 3.0469-1.9727 4.2773-3.5 4.5859-5.7109 5.0781-14.785 1.0938-20.223-1.7656-2.4062-4.1992-3.9219-7.0391-4.4805-0.17188-4.6719-2.75-7.2031-4.2266-8.2773-5.8008-4.1992-14.812-1.8047-20.16 2.957-2.1992 1.9609-3.7422 4.2266-4.5977 6.6523-3.625-0.11719-7.2852 0.96484-10.629 3.1133-5.1641 3.3164-7.9648 8.3398-7.2969 13.098zm14.711-4.3945c0.91406-0.37891 2.4766-0.85156 4.082-0.49219 0.11719 0.23438 0.24219 0.46484 0.37109 0.69531 1.5195 2.6992 4.9297 3.6641 7.6211 2.1523 2.6484-1.4844 3.625-4.793 2.2344-7.4648-0.078125-0.76172-0.3125-1.5-0.69531-2.1719 0.023438-0.69922 0.33594-1.4336 1.082-2.2695 1.9219-2.1289 4.9766-2.8555 6.3008-2.8398-0.042969 0.59766-0.26953 1.6797-0.96875 3.2812-0.90234 2.0703-0.46875 4.4844 1.0977 6.1133s3.9648 2.1602 6.0664 1.3398c1.6016-0.62109 2.793-0.6875 3-0.39844 0.90234 1.2266 0.66797 4.7773-0.79688 6.5898-0.48828 0.60938-0.67578 0.69922-1.5625 0.32031-2.3398-1.0352-5.0742-0.34766-6.6523 1.6523-1.5859 2-1.6133 4.8203-0.066406 6.8555 2.6562 3.5 1.5234 4.9492 1.1523 5.4258-1.5117 1.9414-5.2852 2.9805-7.5 2.0547-0.44141-0.18359-1.2227-0.51562-1.1484-2.4414 0.089844-0.55469 0.13281-1.1094 0.13281-1.668-0.003906-2.9414-2.2891-5.375-5.2266-5.5781-2.9414-0.30078-5.5234 1.9102-5.9258 4.8281-0.027343 0.23047-0.054687 0.45312-0.085937 0.67578-0.48828 0.82812-2.5195 1.7148-3.5781 1.6758-0.4375-1.5234-0.14062-4.8789 0.35938-5.668 1.668-1.2773 2.4883-3.3828 2.1094-5.4492-0.375-2.0664-1.875-3.7539-3.8906-4.3633-0.37109-0.11328-0.65625-0.22266-0.86719-0.32031 0.52344-0.71484 1.625-1.8008 3.3555-2.5352z"/>
  <path d="m195.16 205.78c-0.49219 1.707-0.69531 3.2695-0.77344 4.2344-0.19141 2.2891-0.25781 8.0078 3.1094 11.574 3.3047 3.5 8.6758 4.3672 14.039 2.2305 0.34766-0.13281 0.68359-0.28125 1.0078-0.4375 1.2305 1.3555 2.793 2.4531 4.6367 3.2305 1.9336 0.8125 4.0547 1.1992 6.2148 1.1992 5.4766 0 11.184-2.4688 14.469-6.707 2.4375-3.1289 3.3359-6.8164 2.7383-10.605 1.5898-0.79688 3.0469-1.9727 4.2773-3.5 4.5859-5.7109 5.0781-14.785 1.0938-20.223-1.7656-2.4062-4.1992-3.9219-7.0391-4.4805-0.17188-4.6719-2.75-7.2031-4.2266-8.2773-5.8008-4.207-14.805-1.8047-20.16 2.957-2.1992 1.9609-3.7422 4.2266-4.5977 6.6523-3.6172-0.12891-7.2852 0.96484-10.629 3.1133-5.1641 3.3203-7.9648 8.3438-7.2969 13.105 0.18359 1.2812 0.83203 3.7461 3.1367 5.9336zm11.578-10.336c0.91406-0.37891 2.4766-0.85547 4.082-0.49219 0.11719 0.23438 0.24219 0.46484 0.37109 0.69531 1.5195 2.6992 4.9297 3.6641 7.6211 2.1523 2.6484-1.4844 3.625-4.793 2.2344-7.4648-0.078125-0.76172-0.3125-1.5-0.69531-2.1719 0.023438-0.69922 0.33594-1.4336 1.082-2.2695 1.9219-2.1328 4.9727-2.8633 6.3008-2.8398-0.042969 0.59766-0.26953 1.6797-0.96875 3.2812-0.90234 2.0703-0.46875 4.4844 1.0977 6.1133 1.5664 1.6367 3.9609 2.168 6.0664 1.3398 1.6016-0.62109 2.793-0.6875 3-0.39844 0.90234 1.2266 0.66797 4.7773-0.79688 6.5898-0.48828 0.60938-0.67578 0.69922-1.5625 0.32031-2.3359-1.0352-5.0664-0.34766-6.6523 1.6523-1.5859 2-1.6133 4.8203-0.066406 6.8555 2.6562 3.5 1.5234 4.9492 1.1523 5.4258-1.5117 1.9414-5.2812 2.9805-7.5 2.0547-0.44141-0.18359-1.2227-0.51562-1.1484-2.4414 0.089844-0.55469 0.13281-1.1094 0.13281-1.668-0.003906-2.9414-2.2891-5.375-5.2266-5.5781-2.9414-0.29687-5.5234 1.9102-5.9258 4.8281-0.027343 0.23047-0.054687 0.45312-0.085937 0.67578-0.48828 0.82812-2.5273 1.7422-3.5781 1.6758-0.4375-1.5234-0.14062-4.8789 0.35938-5.668 1.668-1.2773 2.4883-3.3828 2.1094-5.4492-0.375-2.0664-1.875-3.7539-3.8906-4.3633-0.37109-0.11328-0.65625-0.22266-0.86719-0.32031 0.51562-0.71094 1.6211-1.8008 3.3555-2.5352z"/>
  <path d="m328.26 157.43c6.4688 0.24219 10.723 6.2148 13.703 11.395 0.95703 1.668 2.4141 4.1953 5.7734 4.1953 1.9414 0 3.7852-1.0352 4.8047-2.6875 0.62891-1.0195 0.91406-2.2188 0.8125-3.4102-0.58984-6.9219 9.2305-11.949 12.453-13.602 1.5625-0.80078 2.6875-1.3789 3.5781-2.8242 1.1797-1.9336 1.0938-4.3867-0.23438-6.2148-1.3281-1.8359-3.6172-2.6875-5.8359-2.1602-8.4102 1.9922-12.621-8.4844-13.312-10.484-0.078125-0.46094-0.16797-0.92969-0.28516-1.3984-0.34766-1.4453-1.25-2.6953-2.5195-3.4766-1.2695-0.77734-2.8008-1.0117-4.2383-0.67188-1.4961 0.35938-2.793 1.332-3.5547 2.6719-1.1484 2-0.75 3.9688-0.36328 5.3203 0.76562 8.1602-12.129 12.383-12.246 12.414-2.6055 0.81641-4.2383 3.3828-3.8789 6.0859 0.35156 2.7031 2.6211 4.7461 5.3438 4.8477zm17.824-10.746c1.2031 1.3047 2.5586 2.5156 4.0664 3.5391-1.5508 1.3789-3.0352 2.9453-4.3008 4.7266-1.2109-1.3438-2.5977-2.6758-4.168-3.875 1.6094-1.2852 3.1094-2.7461 4.4023-4.3906z"/>
  <path d="m507.01 333.5c-1.3281-1.8359-3.625-2.6992-5.8359-2.1602-8.4102 2.0117-12.621-8.4883-13.312-10.484-0.078125-0.46094-0.16797-0.92969-0.28516-1.3984-0.34766-1.4453-1.25-2.6953-2.5195-3.4766-1.2695-0.77344-2.793-1.0195-4.2383-0.67187-1.4961 0.35937-2.793 1.332-3.5547 2.6719-1.1484 2-0.75 3.9688-0.36328 5.3203 0.76562 8.1602-12.129 12.383-12.246 12.414-2.6055 0.81641-4.2383 3.3828-3.8789 6.0859s2.6133 4.7539 5.3438 4.8555c6.4688 0.24219 10.723 6.2148 13.703 11.395 0.95703 1.668 2.4141 4.1953 5.7734 4.1953 1.9414 0 3.7852-1.0352 4.8047-2.6875 0.62891-1.0195 0.91406-2.2188 0.8125-3.4102-0.58984-6.9219 9.2305-11.949 12.453-13.602 1.5625-0.80078 2.6875-1.3789 3.5781-2.8242 1.1836-1.9375 1.0898-4.3906-0.23438-6.2227zm-23.312 10.676c-1.2109-1.3438-2.5977-2.6758-4.168-3.875 1.6133-1.2812 3.1133-2.7422 4.4062-4.3906 1.2031 1.3047 2.5586 2.5156 4.0664 3.5391-1.5547 1.375-3.0391 2.9492-4.3047 4.7266z"/>
  <path d="m232.38 331.34c-8.4062 2.0117-12.621-8.4883-13.312-10.484-0.078125-0.46094-0.16797-0.92969-0.28516-1.3984-0.34766-1.4453-1.25-2.6953-2.5195-3.4766-1.2656-0.77344-2.8008-1.0195-4.2383-0.67187-1.4961 0.35937-2.793 1.332-3.5547 2.6719-1.1484 2-0.75 3.9688-0.36328 5.3203 0.76562 8.1602-12.129 12.383-12.246 12.414-2.6055 0.81641-4.2383 3.3828-3.8789 6.0859s2.6133 4.7539 5.3438 4.8555c6.4688 0.24219 10.723 6.2148 13.703 11.395 0.95703 1.668 2.4141 4.1953 5.7734 4.1953 1.9414 0 3.7852-1.0352 4.8047-2.6875 0.62891-1.0195 0.91406-2.2188 0.8125-3.4102-0.58984-6.9219 9.2305-11.949 12.453-13.602 1.5625-0.80078 2.6875-1.3789 3.5781-2.8242 1.1797-1.9336 1.0938-4.3867-0.23438-6.2148-1.3359-1.8438-3.625-2.7109-5.8359-2.168zm-17.48 12.836c-1.2109-1.3438-2.5977-2.6758-4.168-3.875 1.6133-1.2812 3.1133-2.7422 4.4062-4.3906 1.2031 1.3047 2.5586 2.5156 4.0664 3.5391-1.5547 1.375-3.0391 2.9492-4.3047 4.7266z"/>
  <path d="m440.25 309.52c35.27-8.5625 60.508-22.566 60.508-41.539 0-25.199-44.496-41.609-97.898-48.16l44.883-106.08c0.074218-0.17188 0.14062-0.35156 0.19531-0.53906 2.918-9.5039 8.7656-32.426 0.12891-40.078-2.4023-2.1211-6.6992-4.0273-13.551-0.98047-20.637 9.1719-31.215 32.652-31.852 34.164l-34.184 103.91c-6.4023-2.0156-13.199-3.1211-20.262-3.1211-6.7461 0-13.254 1.0234-19.41 2.8711l-34.07-103.57v-0.003906l-0.027344-0.09375c-0.039063-0.12891-0.15234-0.21875-0.20312-0.33984-0.23438-0.57812-0.51953-1.1133-0.93359-1.5859-0.19531-0.22266-0.45312-0.36328-0.68359-0.55859-0.29297-0.24219-0.53125-0.53906-0.87891-0.71875-0.09375-0.050781-0.19531-0.039062-0.29297-0.085937-0.085937-0.039063-0.13281-0.11719-0.22266-0.15234l-43.16-17.5c-0.59375-0.23438-1.2109-0.34766-1.8242-0.375-0.050781 0-0.089844-0.027343-0.14062-0.035156-0.17188-0.011719-0.32031 0.066406-0.48828 0.066406-0.36328 0.023438-0.72266 0.054688-1.082 0.15234-0.4375 0.10156-0.82813 0.23438-1.2148 0.44141-0.027344 0.011719-0.050782 0.035157-0.078125 0.050781-0.78906 0.44141-1.4297 1.0586-1.9102 1.832-0.11719 0.17969-0.26172 0.33594-0.35937 0.52734-0.10547 0.21875-0.16406 0.44922-0.23438 0.68359-0.15625 0.44922-0.25781 0.90234-0.30078 1.3789-0.003906 0.11328-0.066406 0.21094-0.074219 0.32422-0.68359 26.969 0.77734 60.195 11.602 65.32 1.1328 0.53906 2.3242 0.80469 3.5781 0.80469 3.0312 0 6.4102-1.5781 10.125-4.6992l28.648 68.078c-53.031 6.625-97.066 22.992-97.066 48.059 0 18.977 25.246 32.984 60.52 41.547-1.0742 0.89453-1.832 2.1719-1.9922 3.6719l-15.926 148.82c-0.16406 1.5 0.29297 3 1.25 4.1602 1.9648 2.3789 21.711 23.258 108.57 23.258 87.02 0 105.33-21.062 107.13-23.457 0.85156-1.1328 1.2422-2.5469 1.0859-3.9609l-15.934-148.82c-0.15625-1.4961-0.89844-2.7734-1.9766-3.668zm-61.375-95.066 34.328-104.34c1.0547-2.2344 10.16-20.758 25.867-27.738 0.84375-0.375 1.4062-0.51953 1.7344-0.57812 1.625 3.2422 0.015625 16.277-3.4883 27.848l-47.387 112c-3.4453-2.7148-7.1562-5.0977-11.094-7.1133 0.011718-0.023438 0.035156-0.042969 0.039062-0.070313zm-30.652 3.8477c31.039 0 56.297 25.258 56.297 56.297 0 1.5195-0.19141 2.9805-0.3125 4.4648-14.211 2.5977-32.598 4.4414-55.066 4.4414-23.504 0-42.469-2.0273-56.934-4.8164-0.10547-1.3594-0.28516-2.6992-0.28516-4.0898-0.003906-31.039 25.258-56.297 56.301-56.297zm-91.449-73.266c-2.957-4.9297-5.0391-24.254-5.0469-45.898l29.73 11.777c-9.4062 16.824-19.98 31.484-24.684 34.121zm17.551-2.1484c4.2461-5.375 8.8359-12.324 13.766-20.871l30.309 92.125c-3.9609 1.9609-7.6875 4.2891-11.16 6.957zm-65.605 125.09c0-14.699 34.52-30.656 88.352-37.168-2.4062 2.8047-4.6094 5.7969-6.5391 8.9727-25.105 4.7148-43.457 12.926-43.457 25.016 0 20.547 52.91 29.91 102.07 29.91 49.152 0 102.06-9.3594 102.06-29.91 0-12.414-19.344-20.727-45.473-25.379-1.9336-3.1289-4.1328-6.0742-6.5312-8.8477 54.988 6.3516 90.355 22.523 90.355 37.402 0 19.02-57.664 40.215-140.41 40.215-82.75 0.003906-140.42-21.191-140.42-40.211zm72.078 8.1484c-14.918-3.9531-22.52-8.5586-22.52-11.328 0-2.9922 8.8945-8.1133 26.246-12.246-2.418 6.9141-3.8086 14.312-3.8086 22.055 0.003906 0.50781 0.070312 1.0039 0.082031 1.5195zm130.97-24.016c18.652 4.207 28.234 9.5938 28.234 12.691 0 2.8828-8.2656 7.75-24.414 11.805 0.023438-0.67188 0.13281-1.3203 0.13281-2-0.003906-7.9023-1.4336-15.457-3.9531-22.496zm-145.18 59.336c25.02 5.2344 54.125 7.9414 82.551 7.9414 28.426 0 57.523-2.7031 82.543-7.9414-0.42578 0.90234-0.69922 1.875-0.58984 2.9414l3.1406 29.367c-8.3047 3.707-37.379 14.957-84.32 14.957-47.863 0-77.965-11.715-85.859-15.199l3.1211-29.125c0.11719-1.0664-0.16016-2.0391-0.58594-2.9414zm83.348 166.79c-68.711 0-92.547-13.586-98.375-17.891l11.258-105.18c12.062 4.8984 41.883 14.746 87.102 14.746 44.328 0 73.336-9.4805 85.566-14.488l11.238 105.02c-5.5508 4.332-28.348 17.797-96.789 17.797z"/>
  <path d="m323.82 263.93c0 3.0117-2.4414 5.4531-5.4531 5.4531-3.0156 0-5.457-2.4414-5.457-5.4531 0-3.0156 2.4414-5.457 5.457-5.457 3.0117 0 5.4531 2.4414 5.4531 5.457"/>
  <path d="m380.6 263.93c0 3.0117-2.4414 5.4531-5.4531 5.4531s-5.4531-2.4414-5.4531-5.4531c0-3.0156 2.4414-5.457 5.4531-5.457s5.4531 2.4414 5.4531 5.457"/>
 </g>
</svg>
