<?xml version="1.0" encoding="UTF-8"?>
<svg width="700pt" height="700pt" version="1.1" viewBox="0 0 700 700" xmlns="http://www.w3.org/2000/svg" xmlns:xlink="http://www.w3.org/1999/xlink">
 <defs>
  <symbol id="w" overflow="visible">
   <path d="m18.766-1.125c-0.96875 0.5-1.9805 0.875-3.0312 1.125-1.043 0.25781-2.1367 0.39062-3.2812 0.39062-3.3984 0-6.0898-0.94531-8.0781-2.8438-1.9922-1.9062-2.9844-4.4844-2.9844-7.7344 0-3.2578 0.99219-5.8359 2.9844-7.7344 1.9883-1.9062 4.6797-2.8594 8.0781-2.8594 1.1445 0 2.2383 0.13281 3.2812 0.39062 1.0508 0.25 2.0625 0.625 3.0312 1.125v4.2188c-0.98047-0.65625-1.9453-1.1406-2.8906-1.4531-0.94922-0.3125-1.9492-0.46875-3-0.46875-1.875 0-3.3516 0.60547-4.4219 1.8125-1.0742 1.1992-1.6094 2.8555-1.6094 4.9688 0 2.1055 0.53516 3.7617 1.6094 4.9688 1.0703 1.1992 2.5469 1.7969 4.4219 1.7969 1.0508 0 2.0508-0.14844 3-0.45312 0.94531-0.3125 1.9102-0.80078 2.8906-1.4688z"/>
  </symbol>
  <symbol id="b" overflow="visible">
   <path d="m13.734-11.141c-0.4375-0.19531-0.87109-0.34375-1.2969-0.4375-0.41797-0.10156-0.83984-0.15625-1.2656-0.15625-1.2617 0-2.2305 0.40625-2.9062 1.2188-0.67969 0.80469-1.0156 1.9531-1.0156 3.4531v7.0625h-4.8906v-15.312h4.8906v2.5156c0.625-1 1.3438-1.7266 2.1562-2.1875 0.82031-0.46875 1.8008-0.70312 2.9375-0.70312 0.16406 0 0.34375 0.011719 0.53125 0.03125 0.19531 0.011719 0.47656 0.039062 0.84375 0.078125z"/>
  </symbol>
  <symbol id="a" overflow="visible">
   <path d="m17.641-7.7031v1.4062h-11.453c0.125 1.1484 0.53906 2.0078 1.25 2.5781 0.70703 0.57422 1.7031 0.85938 2.9844 0.85938 1.0312 0 2.082-0.14844 3.1562-0.45312 1.082-0.3125 2.1914-0.77344 3.3281-1.3906v3.7656c-1.1562 0.4375-2.3125 0.76562-3.4688 0.98438-1.1562 0.22656-2.3125 0.34375-3.4688 0.34375-2.7734 0-4.9297-0.70312-6.4688-2.1094-1.5312-1.4062-2.2969-3.3789-2.2969-5.9219 0-2.5 0.75391-4.4609 2.2656-5.8906 1.5078-1.4375 3.582-2.1562 6.2188-2.1562 2.4062 0 4.332 0.73047 5.7812 2.1875 1.4453 1.4492 2.1719 3.3828 2.1719 5.7969zm-5.0312-1.625c0-0.92578-0.27344-1.6719-0.8125-2.2344-0.54297-0.57031-1.25-0.85938-2.125-0.85938-0.94922 0-1.7188 0.26562-2.3125 0.79688s-0.96484 1.2969-1.1094 2.2969z"/>
  </symbol>
  <symbol id="e" overflow="visible">
   <path d="m9.2188-6.8906c-1.0234 0-1.793 0.17188-2.3125 0.51562-0.51172 0.34375-0.76562 0.85547-0.76562 1.5312 0 0.625 0.20703 1.1172 0.625 1.4688 0.41406 0.34375 0.98828 0.51562 1.7188 0.51562 0.92578 0 1.7031-0.32812 2.3281-0.98438 0.63281-0.66406 0.95312-1.4922 0.95312-2.4844v-0.5625zm7.4688-1.8438v8.7344h-4.9219v-2.2656c-0.65625 0.92969-1.3984 1.6055-2.2188 2.0312-0.82422 0.41406-1.8242 0.625-3 0.625-1.5859 0-2.8711-0.45703-3.8594-1.375-0.99219-0.92578-1.4844-2.1289-1.4844-3.6094 0-1.7891 0.61328-3.1016 1.8438-3.9375 1.2383-0.84375 3.1797-1.2656 5.8281-1.2656h2.8906v-0.39062c0-0.76953-0.30859-1.332-0.92188-1.6875-0.61719-0.36328-1.5703-0.54688-2.8594-0.54688-1.0547 0-2.0312 0.10547-2.9375 0.3125-0.89844 0.21094-1.7305 0.52344-2.5 0.9375v-3.7344c1.0391-0.25 2.0859-0.44141 3.1406-0.57812 1.0625-0.13281 2.125-0.20312 3.1875-0.20312 2.7578 0 4.75 0.54688 5.9688 1.6406 1.2266 1.0859 1.8438 2.8555 1.8438 5.3125z"/>
  </symbol>
  <symbol id="c" overflow="visible">
   <path d="m7.7031-19.656v4.3438h5.0469v3.5h-5.0469v6.5c0 0.71094 0.14062 1.1875 0.42188 1.4375s0.83594 0.375 1.6719 0.375h2.5156v3.5h-4.1875c-1.9375 0-3.3125-0.39844-4.125-1.2031-0.80469-0.8125-1.2031-2.1797-1.2031-4.1094v-6.5h-2.4219v-3.5h2.4219v-4.3438z"/>
  </symbol>
  <symbol id="k" overflow="visible">
   <path d="m12.766-13.078v-8.2031h4.9219v21.281h-4.9219v-2.2188c-0.66797 0.90625-1.4062 1.5703-2.2188 1.9844s-1.7578 0.625-2.8281 0.625c-1.8867 0-3.4336-0.75-4.6406-2.25-1.2109-1.5-1.8125-3.4258-1.8125-5.7812 0-2.3633 0.60156-4.2969 1.8125-5.7969 1.207-1.5 2.7539-2.25 4.6406-2.25 1.0625 0 2 0.21484 2.8125 0.64062 0.82031 0.42969 1.5664 1.0859 2.2344 1.9688zm-3.2188 9.9219c1.0391 0 1.8359-0.37891 2.3906-1.1406 0.55078-0.76953 0.82812-1.8828 0.82812-3.3438 0-1.457-0.27734-2.5664-0.82812-3.3281-0.55469-0.76953-1.3516-1.1562-2.3906-1.1562-1.043 0-1.8398 0.38672-2.3906 1.1562-0.55469 0.76172-0.82812 1.8711-0.82812 3.3281 0 1.4609 0.27344 2.5742 0.82812 3.3438 0.55078 0.76172 1.3477 1.1406 2.3906 1.1406z"/>
  </symbol>
  <symbol id="j" overflow="visible">
   <path d="m10.5-3.1562c1.0508 0 1.8516-0.37891 2.4062-1.1406 0.55078-0.76953 0.82812-1.8828 0.82812-3.3438 0-1.457-0.27734-2.5664-0.82812-3.3281-0.55469-0.76953-1.3555-1.1562-2.4062-1.1562-1.0547 0-1.8594 0.38672-2.4219 1.1562-0.55469 0.77344-0.82812 1.8828-0.82812 3.3281 0 1.4492 0.27344 2.5586 0.82812 3.3281 0.5625 0.77344 1.3672 1.1562 2.4219 1.1562zm-3.25-9.9219c0.67578-0.88281 1.4219-1.5391 2.2344-1.9688 0.82031-0.42578 1.7656-0.64062 2.8281-0.64062 1.8945 0 3.4453 0.75 4.6562 2.25 1.207 1.5 1.8125 3.4336 1.8125 5.7969 0 2.3555-0.60547 4.2812-1.8125 5.7812-1.2109 1.5-2.7617 2.25-4.6562 2.25-1.0625 0-2.0078-0.21094-2.8281-0.625-0.8125-0.42578-1.5586-1.0859-2.2344-1.9844v2.2188h-4.8906v-21.281h4.8906z"/>
  </symbol>
  <symbol id="i" overflow="visible">
   <path d="m0.34375-15.312h4.8906l4.125 10.391 3.5-10.391h4.8906l-6.4375 16.766c-0.64844 1.6953-1.4023 2.8828-2.2656 3.5625-0.86719 0.6875-2 1.0312-3.4062 1.0312h-2.8438v-3.2188h1.5312c0.83203 0 1.4375-0.13672 1.8125-0.40625 0.38281-0.26172 0.67969-0.73047 0.89062-1.4062l0.14062-0.42188z"/>
  </symbol>
  <symbol id="h" overflow="visible">
   <path d="m14.953-3.7188h-8.2188l-1.3125 3.7188h-5.2812l7.5625-20.406h6.2656l7.5625 20.406h-5.2812zm-6.9062-3.7812h5.5781l-2.7812-8.125z"/>
  </symbol>
  <symbol id="v" overflow="visible">
   <path d="m2.3594-21.281h4.8906v21.281h-4.8906z"/>
  </symbol>
  <symbol id="u" overflow="visible">
   <path d="m6.2188-7.8281-5.5156-7.4844h5.1719l3.1406 4.5312 3.1719-4.5312h5.1719l-5.5156 7.4531 5.7969 7.8594h-5.1875l-3.4375-4.8438-3.4062 4.8438h-5.1875z"/>
  </symbol>
  <symbol id="t" overflow="visible">
   <path d="m2.5781-20.406h6.6875l4.6562 10.922 4.6719-10.922h6.6875v20.406h-4.9844v-14.938l-4.7031 11.016h-3.3281l-4.7031-11.016v14.938h-4.9844z"/>
  </symbol>
  <symbol id="g" overflow="visible">
   <path d="m2.1875-5.9688v-9.3438h4.9219v1.5312c0 0.83594-0.007813 1.875-0.015625 3.125-0.011719 1.25-0.015625 2.0859-0.015625 2.5 0 1.2422 0.03125 2.1328 0.09375 2.6719 0.070313 0.54297 0.17969 0.93359 0.32812 1.1719 0.20703 0.32422 0.47266 0.57422 0.79688 0.75 0.32031 0.16797 0.69141 0.25 1.1094 0.25 1.0195 0 1.8203-0.39062 2.4062-1.1719 0.58203-0.78125 0.875-1.8672 0.875-3.2656v-7.5625h4.8906v15.312h-4.8906v-2.2188c-0.74219 0.89844-1.5234 1.5586-2.3438 1.9844-0.82422 0.41406-1.7344 0.625-2.7344 0.625-1.7617 0-3.1055-0.53906-4.0312-1.625-0.92969-1.082-1.3906-2.6602-1.3906-4.7344z"/>
  </symbol>
  <symbol id="f" overflow="visible">
   <path d="m0.42188-15.312h4.8906l3.8281 10.578 3.7969-10.578h4.9062l-6.0312 15.312h-5.375z"/>
  </symbol>
  <symbol id="s" overflow="visible">
   <path d="m12.422-21.281v3.2188h-2.7031c-0.6875 0-1.1719 0.125-1.4531 0.375-0.27344 0.25-0.40625 0.6875-0.40625 1.3125v1.0625h4.1875v3.5h-4.1875v11.812h-4.8906v-11.812h-2.4375v-3.5h2.4375v-1.0625c0-1.6641 0.46094-2.8984 1.3906-3.7031 0.92578-0.80078 2.3672-1.2031 4.3281-1.2031z"/>
  </symbol>
  <symbol id="d" overflow="visible">
   <path d="m9.6406-12.188c-1.0859 0-1.9141 0.39062-2.4844 1.1719-0.57422 0.78125-0.85938 1.9062-0.85938 3.375s0.28516 2.5938 0.85938 3.375c0.57031 0.77344 1.3984 1.1562 2.4844 1.1562 1.0625 0 1.875-0.38281 2.4375-1.1562 0.57031-0.78125 0.85938-1.9062 0.85938-3.375s-0.28906-2.5938-0.85938-3.375c-0.5625-0.78125-1.375-1.1719-2.4375-1.1719zm0-3.5c2.6328 0 4.6914 0.71484 6.1719 2.1406 1.4766 1.418 2.2188 3.3867 2.2188 5.9062 0 2.5117-0.74219 4.4805-2.2188 5.9062-1.4805 1.418-3.5391 2.125-6.1719 2.125-2.6484 0-4.7148-0.70703-6.2031-2.125-1.4922-1.4258-2.2344-3.3945-2.2344-5.9062 0-2.5195 0.74219-4.4883 2.2344-5.9062 1.4883-1.4258 3.5547-2.1406 6.2031-2.1406z"/>
  </symbol>
  <symbol id="r" overflow="visible">
   <path d="m16.547-12.766c0.61328-0.94531 1.3477-1.6719 2.2031-2.1719 0.85156-0.5 1.7891-0.75 2.8125-0.75 1.7578 0 3.0977 0.54688 4.0156 1.6406 0.92578 1.0859 1.3906 2.6562 1.3906 4.7188v9.3281h-4.9219v-7.9844-0.35938c0.007813-0.13281 0.015625-0.32031 0.015625-0.5625 0-1.082-0.16406-1.8633-0.48438-2.3438-0.3125-0.48828-0.82422-0.73438-1.5312-0.73438-0.92969 0-1.6484 0.38672-2.1562 1.1562-0.51172 0.76172-0.77344 1.8672-0.78125 3.3125v7.5156h-4.9219v-7.9844c0-1.6953-0.14844-2.7852-0.4375-3.2656-0.29297-0.48828-0.8125-0.73438-1.5625-0.73438-0.9375 0-1.6641 0.38672-2.1719 1.1562-0.51172 0.76172-0.76562 1.8594-0.76562 3.2969v7.5312h-4.9219v-15.312h4.9219v2.2344c0.60156-0.86328 1.2891-1.5156 2.0625-1.9531 0.78125-0.4375 1.6406-0.65625 2.5781-0.65625 1.0625 0 2 0.25781 2.8125 0.76562 0.8125 0.51172 1.4258 1.2305 1.8438 2.1562z"/>
  </symbol>
  <symbol id="q" overflow="visible">
   <path d="m17.75-9.3281v9.3281h-4.9219v-7.1094c0-1.3438-0.03125-2.2656-0.09375-2.7656s-0.16797-0.86719-0.3125-1.1094c-0.1875-0.3125-0.44922-0.55469-0.78125-0.73438-0.32422-0.17578-0.69531-0.26562-1.1094-0.26562-1.0234 0-1.8242 0.39844-2.4062 1.1875-0.58594 0.78125-0.875 1.8711-0.875 3.2656v7.5312h-4.8906v-21.281h4.8906v8.2031c0.73828-0.88281 1.5195-1.5391 2.3438-1.9688 0.83203-0.42578 1.75-0.64062 2.75-0.64062 1.7695 0 3.1133 0.54688 4.0312 1.6406 0.91406 1.0859 1.375 2.6562 1.375 4.7188z"/>
  </symbol>
  <symbol id="p" overflow="visible">
   <path d="m2.5781-20.406h5.875l7.4219 14v-14h4.9844v20.406h-5.875l-7.4219-14v14h-4.9844z"/>
  </symbol>
  <symbol id="o" overflow="visible">
   <path d="m17.75-9.3281v9.3281h-4.9219v-7.1406c0-1.3203-0.03125-2.2344-0.09375-2.7344s-0.16797-0.86719-0.3125-1.1094c-0.1875-0.3125-0.44922-0.55469-0.78125-0.73438-0.32422-0.17578-0.69531-0.26562-1.1094-0.26562-1.0234 0-1.8242 0.39844-2.4062 1.1875-0.58594 0.78125-0.875 1.8711-0.875 3.2656v7.5312h-4.8906v-15.312h4.8906v2.2344c0.73828-0.88281 1.5195-1.5391 2.3438-1.9688 0.83203-0.42578 1.75-0.64062 2.75-0.64062 1.7695 0 3.1133 0.54688 4.0312 1.6406 0.91406 1.0859 1.375 2.6562 1.375 4.7188z"/>
  </symbol>
  <symbol id="n" overflow="visible">
   <path d="m2.5781-20.406h8.7344c2.5938 0 4.582 0.57812 5.9688 1.7344 1.3945 1.1484 2.0938 2.7891 2.0938 4.9219 0 2.1367-0.69922 3.7812-2.0938 4.9375-1.3867 1.1562-3.375 1.7344-5.9688 1.7344h-3.4844v7.0781h-5.25zm5.25 3.8125v5.7031h2.9219c1.0195 0 1.8047-0.25 2.3594-0.75 0.5625-0.5 0.84375-1.2031 0.84375-2.1094 0-0.91406-0.28125-1.6172-0.84375-2.1094-0.55469-0.48828-1.3398-0.73438-2.3594-0.73438z"/>
  </symbol>
  <symbol id="m" overflow="visible">
   <path d="m2.3594-15.312h4.8906v15.031c0 2.0508-0.49609 3.6172-1.4844 4.7031-0.98047 1.082-2.4062 1.625-4.2812 1.625h-2.4219v-3.2188h0.85938c0.92578 0 1.5625-0.21094 1.9062-0.625 0.35156-0.41797 0.53125-1.2461 0.53125-2.4844zm0-5.9688h4.8906v4h-4.8906z"/>
  </symbol>
  <symbol id="l" overflow="visible">
   <path d="m14.719-14.828v3.9844c-0.65625-0.45703-1.3242-0.79688-2-1.0156-0.66797-0.21875-1.3594-0.32812-2.0781-0.32812-1.3672 0-2.4336 0.40234-3.2031 1.2031-0.76172 0.79297-1.1406 1.9062-1.1406 3.3438 0 1.4297 0.37891 2.543 1.1406 3.3438 0.76953 0.79297 1.8359 1.1875 3.2031 1.1875 0.75781 0 1.4844-0.10938 2.1719-0.32812 0.6875-0.22656 1.3203-0.56641 1.9062-1.0156v4c-0.76172 0.28125-1.5391 0.48828-2.3281 0.625-0.78125 0.14453-1.5742 0.21875-2.375 0.21875-2.7617 0-4.9219-0.70703-6.4844-2.125-1.5547-1.4141-2.3281-3.3828-2.3281-5.9062 0-2.5312 0.77344-4.5039 2.3281-5.9219 1.5625-1.4141 3.7227-2.125 6.4844-2.125 0.80078 0 1.5938 0.074219 2.375 0.21875 0.78125 0.13672 1.5547 0.35156 2.3281 0.64062z"/>
  </symbol>
 </defs>
 <g>
  <path d="m279.64 433.8c-1.8672 0.089844-3.5664 1.1055-4.5273 2.7109-8.875 9.2695-18.332 17.965-28.312 26.031-14.043 12.312-30.641 21.359-48.598 26.488-3.7227 0.91406-7.5352 1.3945-11.367 1.4297-1.3672 0.25391-2.7734-0.20312-3.7305-1.2109-0.95703-1.0117-1.3359-2.4375-1.0039-3.793-0.12891-9.8594 1.6484-19.652 5.2305-28.844 4.5664-13.805 11.418-26.746 20.266-38.289 0.28906-0.73047 0.45312-1.5078 0.49219-2.293-2.6211 0.082031-5.1641 0.9375-7.2969 2.4648-18.812 11.516-39.699 13.074-60.984 12.762-2.5625-0.039062-4.5117-0.45312-3.2383-3.7539 2.6562-6.8711 5.0977-13.832 7.9766-20.609v0.003906c7.0391-16.488 18.555-30.672 33.238-40.953 0.60547-0.55859 1.1406-1.1875 1.5938-1.8711-1.793-2.2852-3.5977-0.5-5.1055-0.03125-16.492 5.2422-33.91 6.9258-51.102 4.9453-10.496-1.832-20.773-4.7578-30.66-8.7305-3.5781-1.1953-2.9453-3.4961-0.87891-5.6172 6.0703-6.7031 12.914-12.664 20.395-17.75 18.668-11.992 38.781-21.566 59.863-28.492 5.2031-1.6367 10.672-2.4062 15.977-3.75 2.3984-0.089843 4.625-1.2734 6.043-3.2109-6.0273-1.5938-11.801-2.7656-17.418-4.0664l0.003907 0.003906c-21.5-5.4219-41.977-14.293-60.633-26.266-6.75-4.6992-12.934-10.168-18.422-16.293-1.0664-0.72656-1.625-2-1.4414-3.2773 0.1875-1.2812 1.082-2.3398 2.3125-2.7344 1.1719-0.71484 2.4141-1.3047 3.7031-1.7695 11.961-3.9023 24.477-5.8398 37.059-5.7422 13.938 0.13672 27.801 0.875 41.688 1.6406 0.57422-0.20703 1.0977-0.53906 1.5273-0.97266-3.7852-2.6484-7.8477-4.8711-12.117-6.6328-15.957-9.6055-30.316-21.645-42.551-35.688-3.4492-4.2188-6.5391-8.7383-9.75-13.152-1-1.0039-1.2422-2.5391-0.59375-3.8008 0.62891-0.96094 1.8633-1.3242 2.9141-0.85156 8.5898 3.5391 17.277 0.68359 25.922 0.50781v0.003906c19.504-0.11328 38.797 4.0117 56.547 12.086 6.5 2.8047 13.145 5.2852 19.695 7.9062 1.4062-2.5938-0.60547-3.2578-1.7773-4.0039-11.727-7.5664-22.336-16.73-31.527-27.23-9.0547-10.203-17.453-21.039-25.512-32.059-4.1797-6.4766-7.0742-13.691-8.5352-21.258-0.76953-3.0547 0.83594-4.6992 3.2969-3.1875l0.003906-0.003906c8.3594 4.0625 17.262 6.9062 26.426 8.457 22.465 6.3086 43.336 17.309 61.238 32.273 4.1836 3.2852 8.7344 6.0781 13.559 8.3164-22.582-28.949-37.156-60.477-33.285-99.844 12.117 8.75 23.699 18.211 34.691 28.336 11.156 10.309 21.691 21.27 31.551 32.824 0.16016-5.7031-0.63281-11.391-2.3438-16.836-4.1211-16.789-4.9688-34.219-2.5-51.328 1.3477-9.4258 6.1992-18.008 6.9023-28 31.395 25.035 46.129 59.625 57.062 97.777l0.003907-0.003906c1.7617-3.6836 2.2461-7.8477 1.3789-11.84-1.1328-13.641 0.125-27.375 3.7148-40.586 3.3984-13.523 8.1406-26.672 14.152-39.254 3.1914-7 7.9531-13.168 13.918-18.027 3.875-3.0664 4.9609-2.8789 6.2812 1.4805 8.8672 29.309 14.441 58.977 10.129 89.805-1.125 8.043 0.39453 16.191-0.42969 24.375 3.7969-5.6328 6.6758-11.836 8.5234-18.371 10.363-26.344 26.176-50.203 46.395-70.016 3.1992-2.9922 6.6172-5.7461 10.223-8.2383 3.4805-2.5547 4.2383-2.2305 5.457 1.8984v0.003906c2.4492 8.4297 3.4414 17.211 2.9414 25.973-0.0625 15.617-2.3125 31.152-6.6875 46.141 2.8438 1.2656 3.582-1.1289 4.7109-2.3555v0.003906c15.375-17.531 34.109-31.801 55.102-41.957 3.6953-1.8086 7.6211-3.0898 11.672-3.8086 4.3594-0.66016 5.4414 0.45312 4.4922 4.9141-1.7852 10.277-4.8711 20.285-9.1797 29.785-10.695 22.266-25.328 42.418-43.195 59.477-0.80469 0.74219-1.543 1.5547-2.2031 2.4297-0.33203 0.77344-0.56641 1.5898-0.69531 2.4219 5.1289-3.3945 10.691-4.1719 15.387-7.2383 6.4922-3.5312 13.312-6.4219 20.363-8.6406 11.562-4.9922 23.664-8.6289 36.062-10.84 14.711-1.7031 29.609-0.76172 43.988 2.7891-4.7617 6.2461-10.391 9.6953-14.473 14.715h-0.003906c-13.594 16.121-29.441 30.195-47.051 41.789-9.0625 6.1367-18.82 11.184-29.07 15.023-8.2383 3.0312-16.168 6.8438-23.672 11.395 4.5703 1.3398 9.4531 1.1836 13.93-0.45312 11.027-2.2422 22.359-2.5234 33.48-0.82812 17.707 1.8203 35.168 5.5508 52.07 11.133 6.5078 2.1445 12.191 6.0195 18.652 8.1992 1 0.15625 1.8008 0.91016 2.0273 1.8945 0.22266 0.98828-0.17578 2.0117-1.0078 2.5859-1.7891 2.4219-4.1133 4.3984-6.7891 5.7773-3.8984 1.3164-7.4336 3.5234-10.324 6.4492-11.539 10.672-25.953 14.762-40.695 18.211v0.003906c-3.1758 0.26953-6.2969 1.0078-9.2578 2.1914 0.91016 1.8828 2.7656 3.125 4.8516 3.25 14.766 4.2305 28.871 10.508 41.898 18.648 6.2891 3.4492 11.527 8.5391 15.164 14.723 2.1289 3.5547 1.6289 5.2617-2.2891 5.8125-15.523 2.1719-29.883 9.3164-45.551 10.629-8.1406 1.0977-16.398 0.96484-24.5-0.39062-3.7695-1.4297-7.9531-1.3086-11.629 0.34766 4.125 2.8477 7.8203 5.668 11.766 8.0703 16.465 9.9219 30.75 23.07 42 38.656 4.4219 6.5742 8.4062 13.434 11.934 20.527 1.6172 3.0078 0.26172 4.8359-3.1641 4.4805-24.148-2.5195-48.648-3.332-71.641-12.219h-0.003907c-12.27-3.8672-24.059-9.1289-35.129-15.684-1.2383-1.0586-3.0273-1.168-4.3867-0.26562 2.668 3.7812 5.1523 7.6211 7.9492 11.223h0.003906c15.359 19.316 27.148 41.223 34.809 64.684 3.5586 11.508 5.6055 23.43 6.0977 35.465 0.24219 4.8984-1.375 6.0586-5.0273 3.4141-13.312-9.6445-28.625-15.949-41.949-25.527v0.003907c-6.6953-4.7773-12.625-10.551-17.586-17.117-1.4922-2.5586-3.5625-4.7344-6.043-6.3555-2.75 1.0742-1.1875 2.8477-0.87109 4.168 3.3008 13 5.375 26.281 6.1992 39.668 1.1875 11.199 0.23438 22.523-2.8086 33.367-0.62891 2.0977-1.4141 4.1445-2.3477 6.125-3.3359 6.4609-5.2578 6.6992-11.398 2.5508v-0.003907c-12.645-9.6328-23.457-21.465-31.918-34.926-6.1484-9.0391-11.207-18.773-15.066-29.004-0.38672-1.5312-1.6797-2.6602-3.2461-2.8398-1.4414 6.5625-3.3633 13.121-4.25 19.816h-0.003906c-1.6211 13.07-5.0625 25.844-10.227 37.957-4.8086 11.379-12.23 21.461-21.664 29.434-2.9961 2.4922-4.9258 2.0195-7.0898-1.6133-8.8672-14.867-17.625-29.773-16.109-48.129h-0.003906c-0.19141-0.71094-0.50781-1.3867-0.93359-1.9883-2.8164 3.2422-5.2109 6.8281-7.1328 10.672-4.6328 8.082-10.375 15.477-17.066 21.965-4.1445 3.9961-9.1172 7.0312-14.566 8.8867-1.4414 0.83984-3.1875 0.95312-4.7227 0.30859-1.5352-0.64453-2.6797-1.9727-3.0898-3.582-6.9766-15.195-10.527-31.738-10.402-48.453 0.46484-11.203 2.1172-22.324 4.9297-33.18 1.1367-4.8945 2.5781-9.7148 3.9297-14.754zm-79.961 50.809c4.4141-2.0352 8.957-3.7812 13.598-5.2344 8.1289-3.2695 15.789-7.6094 22.77-12.906 14-10.93 27.191-22.859 39.469-35.695 3.7422-3.6211 6.7344-7.9375 8.8164-12.711 6.2461-15.797 13.469-31.188 21.629-46.086 3.332-6.2344 7.6797-11.938 10.652-18.422 1.1172-2.4297 5.4961-2.7695 4.7227-6.1055-0.64062-2.7578-4.2148-3.1992-6.0586-5.1914v0.003906c-0.40234-0.375-0.83594-0.71094-1.293-1.0156-7.8086-6.0273-8.5352-6.1953-16.398-0.55078-19.594 14.062-37 30.738-55.141 46.539-1.2656 1.0469-2.2383 2.4062-2.8203 3.9414-1.3906 3.3086-3.8789 6.0352-7.0469 7.7227-1.8555 1.1406-3.6406 2.3945-5.3398 3.7578-20.703 18.684-34.578 43.742-39.426 71.203-2.4219 13.059-1.7734 12.375 11.867 10.75zm-56.289-58.914c0.82812 0.45703 1.7188 0.79688 2.6445 1.0078 17.836 1.3711 35.707-2.1797 51.668-10.266 8.3164-4.6094 17.391-7.707 24.395-14.848 9.9453-10.141 20.359-19.891 31.199-29.066 14.309-13.113 29.547-25.18 45.594-36.098 4.1992-2.625 4.332-4.7656 0.51562-8.3867-2.3008-2.3359-4.2266-5.0156-5.7148-7.9375-4.9297-8.7734-6.2227-9.293-15.562-5.9297h0.003906c-1.2773 0.49219-2.5234 1.0664-3.7266 1.7148-6.7227 3.5938-13.684 6.7148-20.836 9.3438-11.555 4.2266-22.77 9.3398-33.543 15.289-13.293 7.6211-25.812 16.516-37.387 26.559-6.4141 5.1328-12.473 10.695-18.129 16.652-10.707 11.82-18.004 26.324-21.121 41.965zm136.41 85.285c1.0312 2.8281 2.0508 5.6602 3.0938 8.4844 3.3555 9.0898 5.625 9.8125 13.367 4.1797v-0.003906c1.1133-0.80078 2.1406-1.7109 3.0742-2.7148 13.945-15.27 25.832-30.844 27.098-53.379 1.1719-20.867 7.2695-41.332 11.875-61.844 2.9961-13.355 8.1562-26.039 11.668-39.223 1.7617-6.6211 1.4844-7.1094-5.1602-9.2695l-0.003906-0.003906c-4.7969-1.1406-9.4414-2.8516-13.836-5.0977-2.5586-1.6289-5.9219-1.1406-7.9141 1.1484-5.1992 4.8281-9.2656 10.75-11.895 17.34-4.9766 8.6836-12.176 16.938-11.188 28.23-0.26562 2.4766-1.3281 4.793-3.0234 6.6133-6.4805 10.141-11.18 21.316-13.895 33.043-0.93359 3.9883-2.1406 7.9141-3.0898 11.898-4.8242 20.176-7.8828 40.363-0.17188 60.598zm314.46-371.4c-1.4023-0.54297-2.8438-0.97656-4.3125-1.2969-14.957-2.1328-30.195-1.0117-44.676 3.2852-14.789 5.0195-29.18 10.914-43.516 17.125-12.383 5.7773-23.949 13.16-34.398 21.961-9.625 7.6211-18.555 16.145-28.082 23.961h-0.003906c-6.4844 4.5938-12.27 10.102-17.172 16.355-1.2617 1.8555-2.0664 3.1562 0.050781 4.7266h0.003907c5.4258 4.2031 9.9258 9.4844 13.211 15.512 0.36719 1.0586 1.2773 1.8359 2.3828 2.0312 1.1016 0.19531 2.2266-0.22266 2.9336-1.0898 6.9688-4.3242 14.215-8.1836 21.691-11.555 4.4102-2.3945 9.6406-2.5742 13.734-5.3281 13.285-9.1289 27.551-16.73 42.535-22.66 17.73-6.832 31.215-19.992 45.938-31.312 11.043-9.4336 21-20.07 29.68-31.715zm-258.77 371.23c3.4805 8.4297 7.6641 16.551 12.508 24.277 1.4336 2.3672 3.0938 1.5312 4.8477 0.5h0.003906c4.2383-3.4766 7.6523-7.8555 9.9844-12.82 6.8945-9.8438 11.789-20.945 14.406-32.676 2.3203-10.141 3.1953-20.465 5.2578-30.633 2.5703-11.777 2.4922-23.973-0.22266-35.715-1.9453-9.0352-2.7773-18.281-2.4688-27.52 0.035157-10.574 1.0898-21.156 1.9961-31.711 0.33203-3.8438-0.92578-5.1484-4.5352-4.2695-5.2695 1.5195-10.809 1.8633-16.227 1-1.6836-0.51953-3.5195-0.21875-4.9492 0.8125-1.4336 1.0312-2.2969 2.6797-2.332 4.4453-2.7227 10.008-6.0156 19.863-8.6641 29.891l-0.003906-0.003906c-5.5391 20.008-9.6172 40.395-12.199 60.996-1.8281 17.836-0.95312 35.848 2.5977 53.426zm56.852-61.023c7.4805 21.531 19.43 41.234 35.062 57.82 2.6328 3.1484 5.6641 5.9414 9.0195 8.3047 6.3281 3.9219 8.7812 1.9219 10.188-3.6758l-0.003907-0.003906c2.6992-10.871 3.832-22.07 3.3711-33.262-1.3477-15.23-3.9219-30.328-7.6992-45.141-1.5664-8.3828-4.8281-16.355-9.5898-23.43-1.3203-2.0703-2.4414-4.2578-3.3555-6.5352-6.1523-13.977-13.133-27.59-17.992-42.133h-0.003907c-1.3008-3.0117-2.9141-5.8828-4.8047-8.5625-0.58984-1.3008-1.9883-2.0352-3.3945-1.7773-4.7812 1.2227-9.3008 3.2891-13.359 6.0977-2.3672 2.3594-3.5742 5.6445-3.293 8.9727-0.88672 8.1602-0.37109 16.457-1.293 24.551-2.418 21.199 3.0273 41.188 7.1484 58.773zm-293.78-93.512c7.0508 3.3398 14.434 5.9336 22.023 7.7422 31.68 5.7617 60.066-2.8203 86.484-19.746 6.4961-4.0273 13.223-7.6758 20.145-10.922 15.008-7.3242 30.691-13.035 46.043-19.527 13.254-5.6016 13.148-5.6523 9.4141-18.164h-0.003907c-0.36719-2.2148-2.2266-3.8789-4.4688-4-2.1797-0.17969-4.3672-0.1875-6.5469-0.027344-15.504 1.1914-30.852 3.8984-45.824 8.0859-10.805 3.0117-21.836 4.9102-32.723 7.4688-15.605 2.9336-30.762 7.8711-45.102 14.688-9.1484 4.8516-18.23 9.8047-27.176 15.059-8.0586 5.6758-15.52 12.156-22.266 19.344zm479.38 37.383c0.29297-4.7109-3.1367-7.2148-4.7812-10.484-8.3867-15.398-20.215-28.656-34.559-38.742-11.793-8.9062-25-15.77-39.066-20.301-4.6758-1.5195-9.5117-2.4844-14.25-4.1133-12.41-4.2656-24.898-8.3047-36.93-13.551-1.2383-0.86719-2.8164-1.0859-4.2422-0.58984-1.4258 0.5-2.5273 1.6484-2.9609 3.0977-3.6445 7.0469-7.707 13.871-12.164 20.434-2.9844 4.2891-2.9219 4.5938 2.0781 7.1758l-0.003906-0.003906c5.9609 3.3359 11.5 7.3711 16.504 12.02 12.129 10.242 25.551 18.84 39.926 25.57 5.3789 2.6016 11.324 3.9961 16.816 6.3945 19.371 7.5352 39.832 11.906 60.59 12.949 4.2578 0.39844 8.582 0.11328 13.043 0.14453zm-100.04-163.59c-8.1406 2.4141-16.062 5.5312-23.668 9.3125-15.188 7.2969-15.395 7.6992-11.688 23.953 0.12109 0.53516 0.25391 1.0664 0.37109 1.6016v-0.003906c0.082032 2.5898 1.2227 5.0312 3.1523 6.7539 1.9336 1.7227 4.4883 2.5781 7.0664 2.3672 6.5508 0.35547 13.102 1.0273 19.652 0.98828 13.547-0.082031 27.305 2.3711 40.48-2.9688v0.003907c0.78125-0.28516 1.6289-0.33203 2.4375-0.14062 8.4102 1.0742 16.945 0.54688 25.156-1.5547 12.512-1.4531 24.625-5.2969 35.688-11.316 7.9219-4.4922 14.273-11.004 22-15.695 3.0352-1.8438 2.1055-4.1094-0.79688-5.4609-2.7148-1.2617-5.4961-2.4102-8.3203-3.4141-13.77-4.4883-27.867-7.9023-42.164-10.215-23.242-3.9023-47.094-1.9102-69.367 5.7891zm-9.25-186.02c-0.81641-3.832-1.7578-4.0117-5.3516-0.9375-22.277 20.039-39.645 44.934-50.766 72.758-8.2188 19.668-15.148 39.848-20.75 60.414-1.5156 5.25-2.5273 10.645-3.7383 15.98h0.003906c-1.4141 3.7695 0.48438 7.9727 4.25 9.3984 4.4258 2.1172 8.5 4.9648 12.766 7.4297 6.9141 4 7.0156 4.0234 10.57-3.4102 6.8477-14.324 13.469-28.758 20.406-43.035h-0.003906c3.1602-8.1758 7.1641-16.004 11.945-23.352 12.078-15.387 19.141-34.105 20.234-53.637 0.16797-2.7188 0.64844-5.4141 0.9375-8.1289v0.003906c1.5312-11.121 1.3633-22.414-0.50391-33.484zm-365.16 207.59c1.3047 3.3555 3.4648 6.3086 6.2656 8.5742 10.184 9.1641 21.953 16.395 34.734 21.332 10.707 4.7891 21.777 8.7109 33.109 11.738 15.66 4.082 31.398 6.9922 47.574 2.8086 4.4844-1.1602 9.0977-1.8242 13.605-2.9141 12.004-2.9141 24.387-2.7188 36.527-4.5781 3.4531-0.52734 4.9922-1.6484 4.5625-5.1328-0.19922-1.6289-0.29297-3.2695-0.44141-4.9023-0.72266-8.082-0.875-8.3203-8.9336-10.191l0.003906-0.003906c-8.8477-1.7109-17.602-3.875-26.227-6.4844-23.652-7.5586-48.074-12.473-72.812-14.648-9.5195-1.0469-19.16-0.32422-28.586-1.2148-13.562-1.2852-25.918 2.5547-39.383 5.6172zm242.79-130.96c-1.2305-4.7109-2.6992-9.3555-4.4023-13.918-6.1367-14.879-13.219-29.348-21.207-43.32-5.7148-8.6719-12.301-16.738-19.652-24.078-2.4805-2.8438-3.9805-2.3438-5.1367 0.99219v0.003906c-6.2422 17.355-7.8867 36.031-4.7695 54.215 3.8594 21.465 8.4375 42.914 21.816 61.312v-0.003906c6.8477 10.879 12.621 22.402 17.234 34.402 0.23047 1.3594 1.0195 2.5625 2.168 3.3242 1.1523 0.76172 2.5703 1.0117 3.9141 0.69531 7.4062-1.9531 15.027-2.9648 22.688-3.0156 2.9297-0.035157 3.707-1.3555 3.0195-4.2305-5.082-21.246-10.055-42.52-15.672-66.379zm167.49 358.68c0.74609-2.457 1-5.0391 0.73828-7.5938-2.75-17.043-7.8438-33.625-15.133-49.273-7.3047-14.352-16.016-27.941-25.996-40.574-12.086-15.879-26.941-29.445-43.848-40.047-7.0781-4.6797-7.0938-4.6602-13.281 0.50391v0.003907c-0.55078 0.60547-1.1719 1.1484-1.8438 1.6211-1.6445 0.71094-2.8906 2.1094-3.4141 3.8203-0.52734 1.7109-0.27344 3.5703 0.6875 5.0781 4.2422 12.129 9.1328 24.02 14.645 35.629 2.9062 6.332 4.9805 13.301 11.246 17.715 1.4805 1.6133 2.5117 3.5859 2.9922 5.7227 7.2031 18.137 19.266 33.938 34.859 45.672 6.4023 4.1641 13.102 7.8633 20.039 11.059 5.8438 3.4141 11.699 6.8164 18.309 10.664zm-386.43-290.16c0.019531 0.94141 0.21094 1.875 0.55859 2.7461 7.9766 10.012 15.359 20.605 26.707 27.359 2.3516 1.3984 4.5391 3.0547 6.5156 4.9453 5.4883 4.9492 11.777 8.9336 18.594 11.789 13.582 6.3711 27.754 11.406 42.316 15.027 17.48 4.2578 34.48 10.406 52.215 13.793 2.5 0.47656 4.3555 0.48047 4.668-2.6758h-0.003907c0.72656-5.9805 2.1562-11.855 4.25-17.5 1.3047-2.5547 0.35547-5.6836-2.1484-7.082-5.4766-4.0625-11.168-7.832-17.051-11.289-13.281-7.0664-26.969-13.336-40.996-18.781-7.7109-2.7773-15.273-5.9766-22.82-9.1797-16.66-6.9609-34.469-10.75-52.516-11.184-6.9102-0.23047-13.254 2.3242-20.289 2.0312zm33.711-68.148c1.0117 4.3711 2.6133 8.582 4.7617 12.516 8.8125 14.797 19.559 28.352 31.953 40.305 19.617 18.668 41.551 34.727 65.27 47.789 6.2656 3.2656 11.844 7.8242 17.871 11.586 4.2422 2.6484 6.9141 2.0391 8.4727-2.3008h-0.003906c2.8242-6.1758 6.7148-11.805 11.496-16.625 3.5195-4.2695 3.7617-4.5195-0.44141-8.4922-5.1602-4.875-10.469-9.5938-15.723-14.371v0.003906c-17.648-15.961-36.379-30.684-56.059-44.055-14.023-9.5977-29.695-16.535-46.23-20.457-7.3867-0.83984-14.598-2.8281-21.367-5.8984zm230.87-86.969c-0.25781-1.0664-0.58984-2.1094-0.99609-3.1289-1.3633-2.8555-1.1445-7.7539-4.3398-8.1328-4.0312-0.48047-5.9141 4.1133-8.1172 7.1641-0.47656 0.66016-0.73047 1.4766-1.1719 2.1641l0.003906 0.003906c-8.1484 13.953-14.078 29.086-17.574 44.859-2.6172 10.32-3.75 20.965-3.3594 31.605 1.2773 26.988 4.7109 53.832 10.258 80.273 0.21875 2.5195 2.1016 4.582 4.5898 5.0273 1.8906 0.28906 3.7461 0.76953 5.5391 1.4336 1.0234 0.73438 2.3633 0.86328 3.5078 0.33594 1.1445-0.52344 1.918-1.625 2.0273-2.8789 5.4453-14.598 9.6328-29.637 12.516-44.949 2.4375-18.402 3.8242-36.926 4.1406-55.48 0.89453-19.688-1.4805-39.387-7.0234-58.297zm189.81 283.13c2.6445-0.69531 5.2578-1.5312 7.8203-2.4922 2.0859-0.89062 5.543 0.73438 6.1758-2.6758-0.058594-2.7969-1.5859-5.3516-4.0234-6.7227-0.92969-1.0039-1.9609-1.9023-3.082-2.6875-13.719-9.0625-28.578-16.266-44.188-21.426-9.6406-3.1523-19.84-4.2148-29.918-3.1133-14.957 1.2773-29.98 1.5078-44.969 0.69531-6.7891-0.72656-13.613-1.082-20.441-1.0625-1.375-0.19141-2.75 0.32812-3.6602 1.375-0.91016 1.0469-1.2344 2.4805-0.85547 3.8164 0.51562 2.957 0.73047 5.957 0.64453 8.957-0.88281 9.2617-0.79297 9.2773 7.9336 12.969 1.0039 0.42578 2.0664 0.71484 3.0781 1.1328l-0.003906-0.003907c22.941 9.0039 47.008 14.812 71.531 17.258 18.207 2.3164 36.703 0.25391 53.957-6.0195zm-166.91-98.086c0.91797 0.10547 1.8477 0.042969 2.75-0.17578 9.5977-9.3672 20.531-17.18 30.492-26.09 20.02-17.422 38.816-36.203 56.258-56.207 11.586-13.191 20.949-28.18 27.723-44.379 3.7227-7.7812 5.8438-16.23 6.2383-24.848-7.6875 1.2852-15 4.2305-21.434 8.6289-14.383 8.9375-27.605 19.613-39.375 31.785-10.047 10.09-18.246 21.863-24.223 34.789-7.8281 18.391-17.082 36.141-27.676 53.086-4.7109 7.2344-8.3359 15.121-10.754 23.41zm-182.65-145.22c-3.2148 6.6953-0.35938 11.93-0.011719 17.301h-0.003906c0.89844 10.609 3.4023 21.02 7.4258 30.875 7.8945 20.625 22.879 36.508 35.98 53.645v-0.003907c7.6875 8.9102 16.125 17.137 25.223 24.598 7.1523 6.6172 7.1602 9.6953 15.93 1.6445 3.2031-2.9414 9.5977-2.0273 10.641-6.6836 1.0078-4.5-3.8203-8.2031-4.6445-12.824-0.33203-1.043-0.78516-2.043-1.3555-2.9805-13.375-28.57-31.781-54.504-54.336-76.559-10.953-10.438-22.598-20.133-34.848-29.012zm173.2 206.75c5.5078 2.8711 11.273 5.2109 17.223 6.9805 3.7383 1.6758 7.9648 1.9141 11.867 0.66406 2.3047-0.62891 5.5586-0.55078 5.2891-3.8203-0.32422-3.9102 1.4219-9.3008-2.3438-11.406h-0.003906c-5.4102-2.4844-11.086-4.3477-16.918-5.5586-1.0742-0.10938-2.1406 0.25391-2.9258 0.99219-4.7734 3.2656-8.9062 7.3828-12.188 12.148zm-27.977-7.418c3.7734-1.0742 13.438-12.008 12.234-13.816-2.6289-3.9609-7.4922-2.0508-11.184-3.4102-0.24609-0.089843-0.55469-0.011719-0.80859-0.09375h0.003906c-3.4453-1.6875-7.4297-1.9023-11.039-0.59375-3.6094 1.3047-6.5312 4.0234-8.0977 7.5273-0.33203 0.42969-0.71875 0.81641-1.1523 1.1484-2.4727 2.625-1.5391 4.3555 1.5391 5.2891 5.6055 1.0703 11.148 2.4375 16.609 4.0938 0.63281 0.12109 1.2891 0.070313 1.8945-0.14453zm26.344-30.113 0.003906 0.003907c-6.8594-2.3984-13.941-4.1211-21.137-5.1367-1.3398-0.41797-2.8047 0-3.7266 1.0625-3.6836 3.1641-6.8828 6.8555-9.4922 10.953 6.0195 2.1914 11.812 2.4258 17.168 4.0859h-0.003906c5.2266 2.1719 11.242-0.085937 13.75-5.1602 1.6641-1.5781 2.8555-3.5898 3.4414-5.8047zm-71.035 56.805c2.6016 1.0508 5.3477 1.6953 8.1484 1.9102 2.5938 0.83594 5.1641 1.7383 7.7617 2.5508v0.003906c1.7227 0.98047 3.8789 0.75781 5.3633-0.5625 2.9141-3.543 7.5547-7.1523 7.1172-11.43-0.42188-4.1445-6.4531-2.3672-9.8086-3.7773l-0.003906 0.003907c-0.51953-0.16016-1.0547-0.26953-1.5977-0.32422-10.613-2.0703-10.625-2.0781-15.832 7.3711-1.0156 1.1641-1.4375 2.7344-1.1484 4.2539zm41.926-62.199c-3.0625-4.3906-7.5234-2.5195-10.988-3.9102v0.003906c-5.9805-2.6289-12.969-0.09375-15.871 5.7539-0.61719 0.89844-1.4219 1.6641-2.0586 2.5508-2.3828 3.3281-2.0742 4.5234 2.0547 5.6133 5.2461 1.6211 10.766 2.1445 16.219 1.5352 3.8086-0.60547 5.1055-5.3984 7.7266-8.1367 0.92969-0.97266 1.7539-2.043 2.918-3.4102zm40.078 27.887c-5.1758-2.3555-10.551-4.25-16.059-5.6641-1.5156-0.78906-3.3672-0.48438-4.5547 0.74609-2.8555 3.3047-5.7891 6.5469-8.5664 9.9141l0.003906 0.003906c-0.50391 0.46875-0.75781 1.1523-0.67969 1.8359 0.078125 0.6875 0.47656 1.293 1.0703 1.6406 2.9766 2.5938 6.8281 3.9531 10.773 3.8086 3.9414-0.14844 7.6836-1.7891 10.457-4.5938 2.8359-2.2305 5.375-4.8164 7.5547-7.6914zm-29.559-31.598c6.2188 1.5742 11.828 2.7656 17.293 4.4336h-0.003906c2.9648 1.2891 6.3281 1.2969 9.2969 0.015624 2.9688-1.2773 5.2734-3.7266 6.3672-6.7695-5.6289-3.3633-11.945-5.4141-18.48-6.0078-9.3203-1.3125-9.875-1.2852-14.473 8.3281zm-11.059 42.566c-5.3125-1.2734-10.652-2.2695-15.801-3.875-3.9609-1.5312-8.4492-0.03125-10.691 3.5781-4.4492 5.6797-4.25 6.6328 2.5664 8.2422 2.1289 0.50391 4.2852 0.88672 6.4102 1.4141 10.387 2.5859 12.926 1.2812 17.516-9.3633zm49.922 15.871c-5.4805-2.0156-10.785-4.0742-16.164-5.9141v-0.003906c-2.375-1.375-5.207-1.7266-7.8438-0.96484-2.6367 0.75781-4.8516 2.5586-6.1328 4.9883-1.8945 2.3672-1.4023 4.0742 1.2539 5.0039 3.8633 1.3516 7.8125 2.4648 11.75 3.5898 8.1367 2.3242 10.777 1.3164 17.137-6.7031zm-73.922-25.676c3.7461-1.375 10.402-9.543 9.3906-11.648-1.5742-3.2773-5.6914-1.8164-8.5039-3.1055v0.003906c-1.5547-0.51562-3.1797-0.77734-4.8164-0.77344-3.0742 0.066406-6.0469 1.1172-8.4805 3-2.4297 1.8867-4.1914 4.5-5.0195 7.4648-0.27344 0.78906 0.058594 1.6602 0.79297 2.0625 5.4141 1.6211 10.996 2.6289 16.637 2.9961zm50.77-11.242h-0.003906c0.54688 0.54688 1.1523 1.0234 1.8086 1.4219 4.9688 2.2227 10.277 3.6055 15.699 4.0859 4.1914-1.1289 7.8086-3.7812 10.137-7.4453 0.20312-0.64844 0.12891-1.3555-0.21094-1.9492-0.33594-0.58984-0.90625-1.0156-1.5703-1.1719-4.6719-2.2031-9.5977-3.8281-14.668-4.8359-3.1758-0.94922-10.5 4.9297-11.266 8.2266-0.046874 0.55469-0.023437 1.1172 0.070313 1.668zm8.3594 49.164c-5.7656-3.8555-12.133-3.4219-17.531-5.9648-1.2773-0.60547-2.8008-0.35547-3.8203 0.62891-2.2617 2.3164-4.4023 4.7539-6.4062 7.3008-0.49219 0.5-0.6875 1.2227-0.51562 1.9023 0.16797 0.67969 0.67969 1.2227 1.3477 1.4336 5.0117 2.7773 10.703 4.0938 16.422 3.8008 4.6211-1.4258 8.4336-4.7305 10.504-9.1016zm-24.922-8.3828c-4.8594-1.4805-9.832-2.5547-14.867-3.2227-2.1641-0.59766-4.4609 0.33203-5.5977 2.2695-1.2695 1.7656-2.5195 3.5469-3.6875 5.3789-2.1602 3.3945-1.793 4.7969 1.9727 5.875l0.003906 0.003906c3.168 0.78125 6.3711 1.4062 9.5977 1.8711 1.918 0.41016 3.9023-0.28125 5.1445-1.7969 3.2773-2.8125 5.8242-6.375 7.4336-10.379zm-72.652-0.11719c17.246 4.6172 17.5 5.5 23.305-9.9922-15.672-5.1406-19.141-3.6562-23.305 9.9922zm81.465 23.02-0.003906-0.003907c-1.8906-1.9141-4.3086-3.2188-6.9492-3.7461-8.7578-3.418-12.531-2.0742-17.785 5.6328-1.6211 2.3789-1.5195 4.2148 1.2578 4.9883 10.996 3.0742 15.055 5.832 23.477-6.875zm-33.574-90.777c3.5703 1.8594 7.5234 2.8711 11.547 2.9531 9.793 2.3047 11.262 1.4492 15.012-8.0859-3.9258-1.8828-8.2109-2.8828-12.566-2.9336-8.7734-0.91016-9.1523-0.70703-13.992 8.0664zm11.059 116.35c1.4141-1.5586 3.1719-3.2656 4.6641-5.1797 4.4531-5.707 4.3086-6.0703-2.7266-8.4727-9.7695-3.3398-10.188-3.1914-14.973 3.8945-2.832 4.1953-3.1992 6.0547 2.457 7.2617l0.003907-0.003906c3.2773 1.6562 6.9023 2.5117 10.574 2.4961zm-55.668-12.832c14.582 5.6562 18.164 4.0391 21.516-9.6445v-0.003906c-1.1211-0.79297-2.4844-1.168-3.8555-1.0508-1.3594-0.125-2.7109-0.32422-4.0508-0.58984-7.9023-1.4648-7.9531-1.4961-11.344 5.3516v-0.003906c-1.2891 1.7344-2.0742 3.7891-2.2656 5.9414zm20.414 3.6055c15.453 5.0469 17.73 4.6758 21.855-8.3711-15.691-6.125-16.598-4.25-21.855 8.3711zm13.605-103.88c-17.754-2.7148-14.195-3.4453-24.109 10.812 3.5352 2.1016 7.6211 3.0938 11.727 2.8477 1.6484 0.28516 3.3242-0.36328 4.3438-1.6914 3.2969-3.5391 6.0078-7.5781 8.0391-11.969zm46.711 51.457c-17.359-8.3633-17.109-6.293-24.402 4.9102 12.16 7.082 15.562 6.4648 24.402-4.9102zm-82.855-23.18c2.9805 1.8008 6.4023 2.7344 9.8828 2.6992 2.918 1.0742 6.1719-0.28125 7.4648-3.1094 1.2188-2.0977 2.7695-4 4.0469-6.0703 1.5859-2.5664 0.55469-3.7305-2.1992-4.5039-9.8867-2.7734-11.648-2.1641-17.105 6.6055-1.0938 1.2344-1.8203 2.75-2.0898 4.3789zm9.668 19.75c4.8125 0.58594 9.6367 1.1719 14.465 1.7578 1.9375 0.37109 3.8984-0.49609 4.9258-2.1797 2.0859-2.2461 3.6367-4.9336 4.5469-7.8594-4.9336-2.2461-10.273-3.4609-15.691-3.5664-1.3867-0.30078-2.8125 0.29688-3.5703 1.5-2.7031 2.8086-4.3555 6.4609-4.6758 10.348zm53.105 67.73c0.28516 0.44531 0.66797 0.82422 1.1211 1.1016 3.6406 1.0586 7.3047 2.043 10.969 3.0234 1.0781 0.35938 2.2617-0.10156 2.8125-1.0977 1.7852-3.0586 3.5352-6.1406 5.168-9.2852 0.35547-0.59375 0.39844-1.3242 0.11719-1.957-0.27734-0.63672-0.84766-1.0938-1.5273-1.2344-1.5078-0.63672-2.9883-1.3398-4.4922-1.9844h0.003906c-2.0312-1.5469-4.8594-1.4961-6.8359 0.12109-3.2969 2.8633-5.8594 6.4766-7.4688 10.535-0.007812 0.26562 0.035157 0.53125 0.13281 0.77734zm-27.027-38.781v0.003906c-5.4258-2.3125-11.152-3.8594-17.004-4.5938-2.3867-0.49219-7.957 7.8711-7.1602 10.371 0.42188 1.0156 1.4297 1.6602 2.5273 1.6172 1.8711 0.26953 3.75 0.51563 5.6094 0.84375 9.7656 1.707 10.512 1.3438 16.027-8.2383zm23.621-93.168v0.003906c4.0391 1.4297 8.25 2.332 12.52 2.6836 8.6406 1.668 8.8281 1.5156 13.941-6.7227-12.328-7.3633-19.43-6.4492-26.461 4.0391zm-69.684 60.617c13.488 5.6992 18.152 3.4727 20.613-8.3242-15.18-5.2344-17.395-2.5547-20.613 8.3242zm12.781-29.34c-3.0625-0.55078-5.7109-1.1445-8.3945-1.4844-2.9961 0.39453-5.7969 1.7148-8.0078 3.7812-2.2109 2.0625-3.7188 4.7617-4.3242 7.7266 0.015625 0.53125 0.19922 1.043 0.53125 1.4609 4.1797 1.6914 8.8008 1.957 13.145 0.75 2.8203-3.5 7.0039-6.2383 7.0508-12.234zm-11.438 64.355c0.35156 0.57031 0.85547 1.0312 1.4492 1.3438 4 0.77734 8.0391 1.3125 12.098 1.6055 3.9141-1.3398 6.6836-4.8359 7.0898-8.9492-0.51172-3.8242-3.9805-2.8906-6.4688-3.3203l0.003906-0.003906c-2.1367-0.41797-4.3047-0.65625-6.4805-0.71484-4.6914 0.98438-7.9609 5.25-7.6914 10.039zm8.9883-27.328c-14.234-4.4609-17.27-2.8945-19.586 10.125 14.969 2.6367 15.883 2.1602 19.586-10.125zm57.781 28.836h-0.003906c-4.582-1.8359-9.4453-2.8789-14.379-3.0859-3.9961 0.89062-7.2031 3.8711-8.3828 7.793 0.34375 3.5977 3.9062 3.0508 6.2383 3.9727 1.5078 0.59766 3.168 0.78906 4.707 1.3203l0.003906 0.003907c1.5195 0.74609 3.3555 0.33203 4.4062-0.99219 2.9531-2.5742 5.457-5.6172 7.4062-9.0117zm-42.906-82.281c-15.219-3.0195-12.754-1.9766-20.875 10.332 14.062 4.0391 13.137 3.4414 20.875-10.332zm-42.969 44.805c10.422 3.2539 13.82 2.6797 17.945-10.043-12.441-4.0859-14.539-2.9141-17.945 10.043zm104.57 55.199c10.344 4.5352 13.879 3.8398 18.863-3.4062v0.003906c0.62109-0.53906 0.94141-1.3438 0.86328-2.1602-0.078125-0.81641-0.55078-1.543-1.2656-1.9492-1.75-1.6914-4.1484-2.5391-6.5703-2.3203-2.4258 0.21875-4.6328 1.4805-6.0547 3.4531-2.3242 1.7461-4.3047 3.9102-5.8359 6.3789zm-50.727-105.29c14.168 4.5508 16.895 3.75 21.816-6.0117-11.211-3.7734-13.801-3.1172-21.816 6.0117zm34.484-18.766c-13.668-3.9297-17.609-2.1367-20.996 5.6172 12.617 4.4375 17.574 3.9766 20.996-5.6172zm-64.066 23.273c-3.1875-1.8828-7.0273-2.3164-10.555-1.1953-4.0625 2.082-6.582 6.293-6.4961 10.855 0.46094 0.99219 1.4336 1.6523 2.5312 1.707 2.3867 0.76953 5.0039 0.22656 6.8867-1.4297 3.4141-2.543 6.0586-5.9844 7.6328-9.9375zm116.6 81.695c-10.664-6.0508-11.062-6.207-19.836 5.1094 7.4141 4.4141 12.48 3.1094 19.836-5.1094zm-105.69-87.543c10.656 3.1719 14.375 2.6484 19.012-6.3633-10.812-4.4219-13.883-3.4609-19.012 6.3633zm101.08 79.57c2.6992 1.9336 5.7305 3.3633 8.9375 4.2148 2.6094 1.2266 5.7227 0.26562 7.1875-2.2148 1.6445-1.6133 1.8477-4.1914 0.47656-6.043-1.6523-2.6484-4.9023-3.8281-7.8711-2.8594-3.707 1.0625-6.8438 3.543-8.7305 6.9023zm-105.02 15.297c-4.3242-0.72656-8.6836-1.2109-13.059-1.4531-3.4961-0.023438-4.4258 2.7812-2.2578 5.6172 7.2812 9.5469 10.266 9.1406 15.238-2.0859v0.003906c0.089844-0.69141 0.11719-1.3867 0.078126-2.082zm50.566 31.582c-0.97266-0.75391-2.0117-1.4141-3.1055-1.9727-2.0312-0.75781-4.1016-1.4062-6.1992-1.9492-5.7305-1.5-6.0469-1.3359-8.6953 3.9102-1.4375 2.8477-0.37891 4.5938 2.7852 4.5273v0.003907c1.6562-0.83203 3.5391-1.0898 5.3555-0.73828 5.7773 2.9336 5.8359 2.8164 9.8594-3.7812zm-15.008-145.69c-7.9062-0.95703-15.531-3.0859-20.246 5.7305 11.828 4.7422 14.098 4.168 20.246-5.7305zm-60.668 100.21c0.43359 2.1094 1.25 4.125 2.4102 5.9414 2.5195 2.9609 4.1367 3.0195 6.0625-0.30469 1.3242-2.3516 2.4805-4.793 3.4648-7.3047 0.40625-0.73438 0.40625-1.625-0.003906-2.3594-0.41016-0.73047-1.168-1.1992-2.0039-1.2383-1.8516-0.37109-3.7266-0.60156-5.6094-0.67969-5.6445-0.23047-6.0234 0.33594-4.3203 5.9453zm55.73 39.109v-0.003906c-3.4258-1.5391-7.0312-2.6445-10.734-3.2891-2.5391-0.50781-5.0391 1.0391-5.7188 3.5352-0.6875 0.84375-0.61719 2.0664 0.15625 2.8281 5.7617 6.4336 12.09 5.4023 16.297-3.0742zm-45.371-121.55c10.867 4.1172 13.992 3.0234 16.43-5.7617-10.391-1.6406-11.59-1.2227-16.43 5.7617zm120.91 107.68c-6.8789-4.4883-8.8281-3.8555-13.926 2.8555-2.2188 2.9219-0.32422 4.3633 1.0469 6.2461 1.6992 2.3281 3.3672 0.89844 4.8242-0.23828v-0.003906c3.2383-2.3984 5.9727-5.4062 8.0547-8.8594zm9.0547-83.465c0.29688-4.0391-1.9336-7.8438-5.6055-9.5547-3.9844-0.96875-8.1133 0.91797-9.9883 4.5664 4.6367 3.0742 10.035 4.8008 15.594 4.9883zm5.875 14.266c-0.79688-2.4883-1.3398-5.1328-4.8555-4.0703-3.0195 1.168-5.3203 3.6797-6.2266 6.7891 2.8711 2.4375 6.5586 3.6914 10.32 3.5078 3.1719-1.6172 1.0156-4.1602 0.76172-6.2266zm-141.91-15.07c-1.1641-0.95703-2.6914-1.3555-4.1719-1.0898-1.4844 0.26172-2.7773 1.1641-3.5391 2.4648-1.1094 2.1367-1.9141 4.418-2.3984 6.7773-0.37109 1.207-1.1562 2.6445 0.41797 3.543h0.003906c0.65625 0.5 1.5039 0.67578 2.3047 0.47656s1.4727-0.75 1.8203-1.5c2.5391-3.1523 4.4297-6.7812 5.5625-10.672zm102.26-25.617c4.9609 2.1484 10.262 3.4062 15.664 3.7109-7.8594-10.652-8.418-10.805-15.664-3.7109zm-102.75 61.242c-9.7695-1.1719-9.7461-1.1758-8.4844 6.9258-0.21484 1.6133 0.60938 3.1836 2.0586 3.918 1.9414-3.2773 3.9141-6.6055 6.4258-10.844zm34.406-77.137c-6.2773 0.81641-11.539 1.5117-14.957 7.1172 6.6094 1.0664 11.875 0.39063 14.957-7.1172zm91.348 117.72v0.003906c1.0977 2.3945 3.9297 3.4414 6.3242 2.3438 2.5312-2.0469 4.2969-4.8867 5.0156-8.0586 0.12109-0.6875-0.21484-1.375-0.83203-1.7031-0.61328-0.32812-1.3711-0.21875-1.8711 0.26563-2.9805 2.1797-5.7148 4.6953-8.6367 7.1523zm-13.602 20.902c-6.5117-1.8242-6.5117-1.8242-9.2227 5.082v0.003906c3.7656 0.082032 7.2852-1.8555 9.2227-5.0859zm-60.293-144.12c3.6914-1.0039 8.0469 2.8789 12.527-1.8984-4.2695-0.71094-8.6562-0.046875-12.527 1.8984zm30.59 1.9297c-8.4375-3.4062-8.4375-3.4062-13.094-0.039063h0.003906c4.3477 0.51172 8.7422 0.52344 13.094 0.039063zm-7.418 155.53c2.5234-0.93359 5.8164 1.5508 8.3516-2.2734-3.6641-1.5312-6.5195-2.4258-8.3516 2.2734zm-44.637-13.934c0.42578-0.53516 0.71875-1.1641 0.85938-1.832-1.0234-1.1484-2.6211-1.5977-4.0898-1.1523-0.39453 0.21875-0.66406 0.60547-0.73047 1.0508 0.26562 0.78516 0.83203 1.4297 1.5742 1.793 0.74609 0.36328 1.6055 0.41406 2.3867 0.14062z"/>
 </g>
</svg>
