<?xml version="1.0" encoding="UTF-8"?>
<svg width="700pt" height="700pt" version="1.1" viewBox="0 0 700 700" xmlns="http://www.w3.org/2000/svg" xmlns:xlink="http://www.w3.org/1999/xlink">
 <defs>
  <symbol id="t" overflow="visible">
   <path d="m19.547-1.1719c-1.0117 0.52344-2.0625 0.91406-3.1562 1.1719-1.0938 0.26953-2.2344 0.40625-3.4219 0.40625-3.543 0-6.3516-0.98828-8.4219-2.9688-2.0625-1.9766-3.0938-4.6602-3.0938-8.0469 0-3.4062 1.0312-6.0977 3.0938-8.0781 2.0703-1.9766 4.8789-2.9688 8.4219-2.9688 1.1875 0 2.3281 0.13672 3.4219 0.40625 1.0938 0.26172 2.1445 0.65625 3.1562 1.1875v4.3906c-1.0234-0.6875-2.0273-1.1914-3.0156-1.5156-0.98047-0.32031-2.0156-0.48438-3.1094-0.48438-1.9609 0-3.5 0.625-4.625 1.875-1.1172 1.25-1.6719 2.9805-1.6719 5.1875 0 2.1875 0.55469 3.9141 1.6719 5.1719 1.125 1.25 2.6641 1.875 4.625 1.875 1.0938 0 2.1289-0.16016 3.1094-0.48438 0.98828-0.32031 1.9922-0.82812 3.0156-1.5156z"/>
  </symbol>
  <symbol id="a" overflow="visible">
   <path d="m14.297-11.609c-0.44922-0.20703-0.89062-0.35938-1.3281-0.45312-0.4375-0.10156-0.88281-0.15625-1.3281-0.15625-1.3125 0-2.3242 0.42188-3.0312 1.2656-0.71094 0.83594-1.0625 2.0391-1.0625 3.6094v7.3438h-5.0938v-15.953h5.0938v2.625c0.65625-1.0508 1.4062-1.8164 2.25-2.2969 0.85156-0.47656 1.875-0.71875 3.0625-0.71875 0.17578 0 0.36328 0.011719 0.5625 0.03125 0.19531 0.011719 0.48438 0.042969 0.85938 0.09375z"/>
  </symbol>
  <symbol id="c" overflow="visible">
   <path d="m18.375-8.0156v1.4531h-11.922c0.125 1.1992 0.55469 2.0938 1.2969 2.6875 0.73828 0.59375 1.7734 0.89062 3.1094 0.89062 1.0703 0 2.1719-0.15625 3.2969-0.46875 1.125-0.32031 2.2812-0.80469 3.4688-1.4531v3.9375c-1.2109 0.46094-2.418 0.80469-3.625 1.0312-1.2109 0.22656-2.4141 0.34375-3.6094 0.34375-2.8984 0-5.1484-0.72656-6.75-2.1875-1.5938-1.4688-2.3906-3.5312-2.3906-6.1875 0-2.5938 0.78516-4.6328 2.3594-6.125 1.5703-1.5 3.7344-2.25 6.4844-2.25 2.5078 0 4.5156 0.75781 6.0156 2.2656 1.5078 1.5117 2.2656 3.5312 2.2656 6.0625zm-5.2344-1.7031c0-0.96875-0.28906-1.75-0.85938-2.3438-0.5625-0.59375-1.2969-0.89062-2.2031-0.89062-0.99219 0-1.7969 0.28125-2.4219 0.84375-0.61719 0.55469-0.99609 1.3516-1.1406 2.3906z"/>
  </symbol>
  <symbol id="b" overflow="visible">
   <path d="m9.5938-7.1719c-1.0625 0-1.8672 0.18359-2.4062 0.54688-0.53125 0.35547-0.79688 0.88281-0.79688 1.5781 0 0.64844 0.21094 1.1523 0.64062 1.5156 0.4375 0.36719 1.0391 0.54688 1.8125 0.54688 0.95703 0 1.7656-0.34375 2.4219-1.0312s0.98438-1.5469 0.98438-2.5781v-0.57812zm7.7969-1.9375v9.1094h-5.1406v-2.3594c-0.6875 0.96875-1.4609 1.6719-2.3125 2.1094-0.85547 0.4375-1.8906 0.65625-3.1094 0.65625-1.6562 0-3-0.47656-4.0312-1.4375-1.0312-0.96875-1.5469-2.2188-1.5469-3.75 0-1.875 0.64062-3.25 1.9219-4.125 1.2891-0.875 3.3164-1.3125 6.0781-1.3125h3v-0.39062c0-0.8125-0.32031-1.4062-0.95312-1.7812-0.63672-0.375-1.6328-0.5625-2.9844-0.5625-1.0859 0-2.1016 0.10938-3.0469 0.32812-0.9375 0.21875-1.8086 0.54688-2.6094 0.98438v-3.8906c1.082-0.25781 2.1758-0.45703 3.2812-0.59375 1.1016-0.14453 2.207-0.21875 3.3125-0.21875 2.875 0 4.9453 0.57031 6.2188 1.7031 1.2812 1.1367 1.9219 2.9805 1.9219 5.5312z"/>
  </symbol>
  <symbol id="e" overflow="visible">
   <path d="m8.0156-20.484v4.5312h5.2656v3.6406h-5.2656v6.7656c0 0.74219 0.14453 1.2461 0.4375 1.5156 0.30078 0.26172 0.89062 0.39062 1.7656 0.39062h2.6094v3.6406h-4.3594c-2.0234 0-3.4531-0.41406-4.2969-1.25-0.83594-0.84375-1.25-2.2734-1.25-4.2969v-6.7656h-2.5312v-3.6406h2.5312v-4.5312z"/>
  </symbol>
  <symbol id="l" overflow="visible">
   <path d="m13.297-13.625v-8.5312h5.1406v22.156h-5.1406v-2.3125c-0.69922 0.94922-1.4688 1.6406-2.3125 2.0781-0.84375 0.42578-1.8242 0.64062-2.9375 0.64062-1.9688 0-3.5859-0.77344-4.8438-2.3281-1.2617-1.5625-1.8906-3.5781-1.8906-6.0469 0-2.457 0.62891-4.4688 1.8906-6.0312 1.2578-1.5625 2.875-2.3438 4.8438-2.3438 1.1016 0 2.0781 0.22656 2.9219 0.67188 0.85156 0.4375 1.6289 1.1211 2.3281 2.0469zm-3.3594 10.328c1.0938 0 1.9258-0.39453 2.5-1.1875 0.57031-0.80078 0.85938-1.9609 0.85938-3.4844 0-1.5078-0.28906-2.6641-0.85938-3.4688-0.57422-0.80078-1.4062-1.2031-2.5-1.2031-1.0859 0-1.9141 0.40234-2.4844 1.2031-0.57422 0.80469-0.85938 1.9609-0.85938 3.4688 0 1.5234 0.28516 2.6836 0.85938 3.4844 0.57031 0.79297 1.3984 1.1875 2.4844 1.1875z"/>
  </symbol>
  <symbol id="k" overflow="visible">
   <path d="m10.938-3.2969c1.0938 0 1.9258-0.39453 2.5-1.1875 0.57031-0.80078 0.85938-1.9609 0.85938-3.4844 0-1.5078-0.28906-2.6641-0.85938-3.4688-0.57422-0.80078-1.4062-1.2031-2.5-1.2031s-1.9336 0.40234-2.5156 1.2031c-0.58594 0.80469-0.875 1.9609-0.875 3.4688 0 1.5117 0.28906 2.668 0.875 3.4688 0.58203 0.80469 1.4219 1.2031 2.5156 1.2031zm-3.3906-10.328c0.70703-0.92578 1.4883-1.6094 2.3438-2.0469 0.85156-0.44531 1.832-0.67188 2.9375-0.67188 1.9688 0 3.582 0.78125 4.8438 2.3438 1.2695 1.5625 1.9062 3.5742 1.9062 6.0312 0 2.4688-0.63672 4.4844-1.9062 6.0469-1.2617 1.5547-2.875 2.3281-4.8438 2.3281-1.1055 0-2.0859-0.21875-2.9375-0.65625-0.85547-0.4375-1.6367-1.125-2.3438-2.0625v2.3125h-5.0938v-22.156h5.0938z"/>
  </symbol>
  <symbol id="j" overflow="visible">
   <path d="m0.35938-15.953h5.0938l4.2969 10.828 3.6406-10.828h5.0938l-6.7031 17.469c-0.67969 1.7695-1.4648 3.0078-2.3594 3.7188-0.89844 0.70703-2.0781 1.0625-3.5469 1.0625h-2.9531v-3.3438h1.5938c0.86328 0 1.4922-0.14062 1.8906-0.42188 0.39453-0.27344 0.70312-0.76562 0.92188-1.4844l0.14062-0.4375z"/>
  </symbol>
  <symbol id="i" overflow="visible">
   <path d="m13.297-2.7031c-0.69922 0.92969-1.4688 1.6094-2.3125 2.0469s-1.8242 0.65625-2.9375 0.65625c-1.9492 0-3.5586-0.76562-4.8281-2.2969-1.2734-1.5312-1.9062-3.4844-1.9062-5.8594 0-2.3828 0.63281-4.3359 1.9062-5.8594 1.2695-1.5312 2.8789-2.2969 4.8281-2.2969 1.1133 0 2.0938 0.21875 2.9375 0.65625s1.6133 1.125 2.3125 2.0625v-2.3594h5.1406v14.344c0 2.5625-0.8125 4.5195-2.4375 5.875-1.6172 1.3516-3.9648 2.0312-7.0469 2.0312-0.99219 0-1.9531-0.078125-2.8906-0.23438-0.92969-0.14844-1.8594-0.375-2.7969-0.6875v-3.9844c0.88281 0.51953 1.7539 0.90625 2.6094 1.1562 0.86328 0.25 1.7266 0.375 2.5938 0.375 1.6641 0 2.8828-0.37109 3.6562-1.1094 0.78125-0.73047 1.1719-1.8672 1.1719-3.4219zm-3.3594-9.9375c-1.0547 0-1.875 0.39062-2.4688 1.1719-0.58594 0.78125-0.875 1.8867-0.875 3.3125 0 1.4609 0.28125 2.5703 0.84375 3.3281 0.57031 0.75 1.4062 1.125 2.5 1.125 1.0625 0 1.8828-0.39062 2.4688-1.1719 0.59375-0.78125 0.89062-1.875 0.89062-3.2812 0-1.4258-0.29688-2.5312-0.89062-3.3125-0.58594-0.78125-1.4062-1.1719-2.4688-1.1719z"/>
  </symbol>
  <symbol id="h" overflow="visible">
   <path d="m2.2812-6.2031v-9.75h5.125v1.5938c0 0.86719-0.007812 1.9531-0.015625 3.2656-0.011719 1.3047-0.015625 2.1719-0.015625 2.6094 0 1.2812 0.03125 2.2031 0.09375 2.7656 0.070312 0.5625 0.1875 0.97656 0.34375 1.2344 0.21875 0.33594 0.49219 0.58984 0.82812 0.76562 0.33203 0.17969 0.71875 0.26562 1.1562 0.26562 1.0625 0 1.8945-0.40625 2.5-1.2188 0.61328-0.8125 0.92188-1.9453 0.92188-3.4062v-7.875h5.0938v15.953h-5.0938v-2.3125c-0.77344 0.9375-1.5898 1.625-2.4531 2.0625-0.85547 0.4375-1.7969 0.65625-2.8281 0.65625-1.8438 0-3.25-0.5625-4.2188-1.6875-0.96094-1.1328-1.4375-2.7734-1.4375-4.9219z"/>
  </symbol>
  <symbol id="s" overflow="visible">
   <path d="m14.906-15.453v3.875c-1.0859-0.45703-2.1367-0.80078-3.1562-1.0312-1.0117-0.22656-1.9688-0.34375-2.875-0.34375-0.96875 0-1.6875 0.125-2.1562 0.375-0.46875 0.24219-0.70312 0.60938-0.70312 1.1094 0 0.40625 0.17578 0.71875 0.53125 0.9375 0.35156 0.21875 0.99219 0.38281 1.9219 0.48438l0.89062 0.14062c2.6133 0.32422 4.3672 0.86719 5.2656 1.625 0.90625 0.76172 1.3594 1.9531 1.3594 3.5781 0 1.6992-0.63281 2.9766-1.8906 3.8281-1.25 0.85547-3.1211 1.2812-5.6094 1.2812-1.0547 0-2.1406-0.085938-3.2656-0.25-1.125-0.15625-2.2812-0.39844-3.4688-0.73438v-3.875c1.0195 0.49219 2.0625 0.85938 3.125 1.1094 1.0703 0.24219 2.1602 0.35938 3.2656 0.35938 0.98828 0 1.7344-0.13281 2.2344-0.40625 0.50781-0.26953 0.76562-0.67578 0.76562-1.2188 0-0.45703-0.17969-0.79688-0.53125-1.0156-0.34375-0.22656-1.0312-0.40625-2.0625-0.53125l-0.89062-0.10938c-2.2734-0.28125-3.8672-0.80469-4.7812-1.5781-0.90625-0.76953-1.3594-1.9414-1.3594-3.5156 0-1.6875 0.57812-2.9375 1.7344-3.75 1.1562-0.82031 2.9297-1.2344 5.3281-1.2344 0.9375 0 1.9219 0.074219 2.9531 0.21875 1.0391 0.14844 2.1641 0.37109 3.375 0.67188z"/>
  </symbol>
  <symbol id="g" overflow="visible">
   <path d="m18.484-9.7188v9.7188h-5.125v-7.4062c0-1.3945-0.03125-2.3516-0.09375-2.875-0.0625-0.51953-0.16797-0.90625-0.3125-1.1562-0.19922-0.33203-0.46875-0.58594-0.8125-0.76562-0.34375-0.1875-0.73438-0.28125-1.1719-0.28125-1.0625 0-1.9023 0.41406-2.5156 1.2344-0.60547 0.8125-0.90625 1.9492-0.90625 3.4062v7.8438h-5.0938v-22.156h5.0938v8.5312c0.76953-0.92578 1.5859-1.6094 2.4531-2.0469 0.86328-0.44531 1.8164-0.67188 2.8594-0.67188 1.8438 0 3.2383 0.57031 4.1875 1.7031 0.95703 1.125 1.4375 2.7656 1.4375 4.9219z"/>
  </symbol>
  <symbol id="f" overflow="visible">
   <path d="m2.4531-15.953h5.0938v15.672c0 2.1328-0.51562 3.7656-1.5469 4.8906-1.0234 1.125-2.5078 1.6875-4.4531 1.6875h-2.5156v-3.3438h0.89062c0.96875 0 1.6289-0.21875 1.9844-0.65625 0.36328-0.4375 0.54688-1.2969 0.54688-2.5781zm0-6.2031h5.0938v4.1562h-5.0938z"/>
  </symbol>
  <symbol id="d" overflow="visible">
   <path d="m10.047-12.688c-1.1367 0-2 0.40625-2.5938 1.2188s-0.89062 1.9805-0.89062 3.5c0 1.5312 0.29688 2.7031 0.89062 3.5156s1.457 1.2188 2.5938 1.2188c1.1016 0 1.9453-0.40625 2.5312-1.2188 0.59375-0.8125 0.89062-1.9844 0.89062-3.5156 0-1.5195-0.29688-2.6875-0.89062-3.5-0.58594-0.8125-1.4297-1.2188-2.5312-1.2188zm0-3.6562c2.7383 0 4.8789 0.74609 6.4219 2.2344 1.5391 1.4805 2.3125 3.5273 2.3125 6.1406 0 2.625-0.77344 4.6797-2.3125 6.1562-1.543 1.4805-3.6836 2.2188-6.4219 2.2188-2.7617 0-4.918-0.73828-6.4688-2.2188-1.5547-1.4766-2.3281-3.5312-2.3281-6.1562 0-2.6133 0.77344-4.6602 2.3281-6.1406 1.5508-1.4883 3.707-2.2344 6.4688-2.2344z"/>
  </symbol>
  <symbol id="r" overflow="visible">
   <path d="m12.953-22.156v3.3438h-2.8281c-0.71875 0-1.2266 0.13281-1.5156 0.39062-0.28125 0.26172-0.42188 0.71484-0.42188 1.3594v1.1094h4.3594v3.6406h-4.3594v12.312h-5.0938v-12.312h-2.5312v-3.6406h2.5312v-1.1094c0-1.7383 0.48438-3.0195 1.4531-3.8438 0.96875-0.83203 2.4688-1.25 4.5-1.25z"/>
  </symbol>
  <symbol id="q" overflow="visible">
   <path d="m17.234-13.297c0.64453-0.98828 1.4102-1.7422 2.2969-2.2656 0.89453-0.51953 1.875-0.78125 2.9375-0.78125 1.832 0 3.2266 0.57031 4.1875 1.7031 0.95703 1.125 1.4375 2.7656 1.4375 4.9219v9.7188h-5.125v-8.3125-0.39062c0.007812-0.13281 0.015625-0.32031 0.015625-0.5625 0-1.1328-0.16797-1.9531-0.5-2.4531-0.32422-0.50781-0.85938-0.76562-1.6094-0.76562-0.96875 0-1.7188 0.40234-2.25 1.2031-0.52344 0.79297-0.79297 1.9453-0.8125 3.4531v7.8281h-5.125v-8.3125c0-1.7695-0.15234-2.9062-0.45312-3.4062-0.30469-0.50781-0.84375-0.76562-1.625-0.76562-0.98047 0-1.7344 0.40234-2.2656 1.2031-0.53125 0.80469-0.79688 1.9492-0.79688 3.4375v7.8438h-5.125v-15.953h5.125v2.3281c0.625-0.89453 1.3438-1.5703 2.1562-2.0312 0.8125-0.45703 1.707-0.6875 2.6875-0.6875 1.1016 0 2.0781 0.26562 2.9219 0.79688s1.4844 1.2812 1.9219 2.25z"/>
  </symbol>
  <symbol id="p" overflow="visible">
   <path d="m2.6719-21.266h6.125l7.7344 14.578v-14.578h5.2031v21.266h-6.125l-7.7344-14.594v14.594h-5.2031z"/>
  </symbol>
  <symbol id="o" overflow="visible">
   <path d="m18.484-9.7188v9.7188h-5.125v-7.4375c0-1.375-0.03125-2.3203-0.09375-2.8438-0.0625-0.51953-0.16797-0.90625-0.3125-1.1562-0.19922-0.33203-0.46875-0.58594-0.8125-0.76562-0.34375-0.1875-0.73438-0.28125-1.1719-0.28125-1.0625 0-1.9023 0.41406-2.5156 1.2344-0.60547 0.8125-0.90625 1.9492-0.90625 3.4062v7.8438h-5.0938v-15.953h5.0938v2.3281c0.76953-0.92578 1.5859-1.6094 2.4531-2.0469 0.86328-0.44531 1.8164-0.67188 2.8594-0.67188 1.8438 0 3.2383 0.57031 4.1875 1.7031 0.95703 1.125 1.4375 2.7656 1.4375 4.9219z"/>
  </symbol>
  <symbol id="n" overflow="visible">
   <path d="m2.6719-21.266h9.1094c2.707 0 4.7852 0.60547 6.2344 1.8125 1.4453 1.1992 2.1719 2.9062 2.1719 5.125 0 2.2305-0.72656 3.9492-2.1719 5.1562-1.4492 1.1992-3.5273 1.7969-6.2344 1.7969h-3.625v7.375h-5.4844zm5.4844 3.9688v5.9375h3.0469c1.0625 0 1.8789-0.25391 2.4531-0.76562 0.58203-0.51953 0.875-1.2539 0.875-2.2031 0-0.94531-0.29297-1.6758-0.875-2.1875-0.57422-0.51953-1.3906-0.78125-2.4531-0.78125z"/>
  </symbol>
  <symbol id="m" overflow="visible">
   <path d="m15.344-15.453v4.1562c-0.69922-0.46875-1.3984-0.81641-2.0938-1.0469-0.69922-0.22656-1.4219-0.34375-2.1719-0.34375-1.4297 0-2.5391 0.41797-3.3281 1.25-0.79297 0.82422-1.1875 1.9805-1.1875 3.4688 0 1.5 0.39453 2.668 1.1875 3.5 0.78906 0.82422 1.8984 1.2344 3.3281 1.2344 0.80078 0 1.5547-0.11719 2.2656-0.35938 0.71875-0.23828 1.3828-0.58594 2-1.0469v4.1719c-0.80469 0.29297-1.6172 0.50781-2.4375 0.65625-0.8125 0.14453-1.6367 0.21875-2.4688 0.21875-2.875 0-5.125-0.73438-6.75-2.2031-1.625-1.4766-2.4375-3.5352-2.4375-6.1719 0-2.625 0.8125-4.6758 2.4375-6.1562 1.625-1.4766 3.875-2.2188 6.75-2.2188 0.83203 0 1.6562 0.078125 2.4688 0.23438 0.8125 0.14844 1.625 0.36719 2.4375 0.65625z"/>
  </symbol>
 </defs>
 <g>
  <path d="m603.87 383.89h-65.277v-43.98l4.3164 0.75781h0.003906c3.3633 0.625 6.7812 0.9375 10.207 0.93359 13.828-0.023437 27.211-4.9102 37.801-13.801 10.59-8.8945 17.715-21.234 20.125-34.852l1.9258-11.141h-0.003906c0.53125-3.1523-1.5742-6.1445-4.7227-6.707l-11.082-1.9844c-11.043-1.9219-22.406-0.64063-32.742 3.6875-10.34 4.332-19.219 11.535-25.594 20.754v-42.059l4.3164 0.75781c3.3672 0.625 6.7852 0.9375 10.211 0.93359 13.828-0.019531 27.211-4.9062 37.801-13.801s17.711-21.23 20.121-34.848l1.9258-11.141v-0.003906c0.53125-3.1523-1.5781-6.1445-4.7227-6.707l-11.082-1.9844h-0.003906c-11.043-1.9219-22.402-0.64062-32.738 3.6914-10.34 4.332-19.219 11.531-25.594 20.75v-29.168 0.003906c4.9453-1.2656 9.3984-3.9883 12.773-7.8164 4.4922-5.2852 6.6055-12.188 5.8359-19.078 4.3008 5.3789 10.633 8.7383 17.5 9.2773h2.332c6.9609-0.007813 13.605-2.8984 18.355-7.9844 4.75-5.0898 7.1758-11.918 6.7031-18.859-0.46875-6.9453-3.7969-13.383-9.1914-17.781h2.5078c6.6875 0.015624 13.105-2.6367 17.836-7.3633 4.7305-4.7305 7.3789-11.148 7.3633-17.836 0.007812-7.125-3.0117-13.918-8.3125-18.68-5.2969-4.7656-12.371-7.0508-19.453-6.2891 5.5703-4.5117 8.9492-11.184 9.293-18.344 0.33984-7.1602-2.3906-14.125-7.5078-19.145-5.1172-5.0195-12.133-7.6133-19.285-7.1367-6.8555 0.56641-13.184 3.918-17.5 9.2773 0.76562-7.0977-1.5195-14.188-6.2852-19.5-4.7695-5.3125-11.57-8.3477-18.711-8.3477s-13.941 3.0352-18.711 8.3477c-4.7656 5.3125-7.0508 12.402-6.2852 19.5-4.3281-5.3477-10.648-8.6953-17.5-9.2773-7.4453-0.71094-14.824 1.9062-20.16 7.1484-5.332 5.2461-8.0742 12.578-7.4883 20.035 0.57812 6.8516 3.9297 13.172 9.2734 17.5-7.082-0.76172-14.156 1.5234-19.453 6.2891-5.3008 4.7617-8.3203 11.555-8.3125 18.68-0.015625 6.6875 2.6328 13.105 7.3633 17.836 4.7305 4.7266 11.148 7.3789 17.836 7.3633 0.83594 0.058594 1.6719 0.058594 2.5078 0-5.3984 4.4023-8.7266 10.848-9.1953 17.797-0.46484 6.9531 1.9727 13.785 6.7344 18.871s11.422 7.9648 18.387 7.957h1.6914c6.8594-0.55469 13.191-3.9102 17.5-9.2773-0.66016 6.0703 0.91797 12.172 4.4414 17.156 3.5273 4.9844 8.75 8.5117 14.691 9.9102v29.168c-3.8047-5.8438-8.6484-10.945-14.293-15.051-12.75-8.9883-28.566-12.496-43.922-9.7422l-11.141 1.9844h-0.003906c-1.5078 0.27734-2.8516 1.1367-3.7305 2.3906-0.92969 1.2344-1.293 2.8047-0.99219 4.3203l1.9844 11.141c2.3945 13.613 9.5078 25.949 20.09 34.844 10.578 8.8945 23.953 13.781 37.773 13.805 3.4453 0.007812 6.8828-0.30469 10.27-0.93359l4.2578-0.75781v42.117c-3.9258-5.7461-8.8711-10.727-14.586-14.699-12.75-8.9922-28.566-12.5-43.922-9.7422l-11.141 1.9844h-0.003906c-1.5078 0.27344-2.8516 1.1328-3.7305 2.3906-0.92578 1.2344-1.2852 2.8008-0.99219 4.3164l1.9844 11.141c2.3945 13.613 9.5078 25.949 20.09 34.844 10.578 8.8945 23.953 13.785 37.773 13.809 3.4453 0.003906 6.8828-0.30859 10.27-0.93359l4.2578-0.75781v43.984l-171.09-0.003907v-43.922l4.2578 0.75781c3.3867 0.625 6.8242 0.9375 10.27 0.93359 13.824-0.035156 27.199-4.9258 37.789-13.816 10.586-8.8906 17.715-21.223 20.137-34.836l1.9258-11.141h-0.003907c0.53125-3.1523-1.5781-6.1445-4.7227-6.707l-11.316-1.9844c-11.039-1.9375-22.398-0.66797-32.738 3.6523-10.336 4.3242-19.219 11.516-25.598 20.73v-49c0.027344-0.15625 0.027344-0.3125 0-0.46484 0.03125-0.17578 0.03125-0.35156 0-0.52734l-1.9258-11.141h0.003906c-2.5234-14.363-10.301-27.277-21.82-36.227-1.2188-0.94922-2.7695-1.3789-4.3086-1.1875-1.5352 0.19141-2.9336 0.98828-3.8867 2.2109-1.9805 2.543-1.5234 6.2148 1.0234 8.1953 9.293 7.1719 15.543 17.59 17.5 29.164l0.93359 5.3672-5.3672 0.93359c-12.32 2.1562-24.992-0.66406-35.238-7.8359s-17.23-18.117-19.422-30.43l-0.93359-5.3672h1.3438c3.2188-0.54688 5.3867-3.6016 4.8398-6.8242-0.54688-3.2227-3.6016-5.3906-6.8242-4.8438l-7.1172 1.2852c-1.5312 0.26172-2.8945 1.1211-3.793 2.3906-0.86328 1.2617-1.1992 2.8125-0.92969 4.3164l1.9258 11.141-0.003907 0.003906c2.418 13.59 9.5273 25.906 20.09 34.797 10.566 8.8906 23.914 13.793 37.719 13.852 3.4844 0.003906 6.957-0.30859 10.383-0.93359l4.1445-0.875v128.33h-114.74v-42c0-3.5508 1.4141-6.957 3.9336-9.4648 2.5156-2.5078 5.9297-3.9062 9.4805-3.8906h5.1328v3.3828h0.003906c0.015626 9.5391 3.8125 18.684 10.559 25.434 6.7461 6.7461 15.891 10.543 25.43 10.559h20.418c1.5469 0 3.0312-0.61719 4.125-1.7109s1.707-2.5781 1.707-4.125v-9.2734c-0.011719-9.5469-3.8203-18.695-10.582-25.434-6.7617-6.7383-15.922-10.516-25.465-10.5h-31.328c-6.6406 0-13.012 2.6328-17.715 7.3242-4.7031 4.6914-7.3516 11.059-7.3672 17.699v42.059h-25.258c-3.2227 0-5.832 2.6133-5.832 5.8359 0 3.2188 2.6094 5.832 5.832 5.832h411.37c1.5469 0 3.0312 0.61328 4.125 1.707s1.707 2.5781 1.707 4.125v5.832l-519.28 0.003906v-5.8359c0-3.2188 2.6094-5.832 5.832-5.832h49.582c3.2227 0 5.8359-2.6133 5.8359-5.832 0-3.2227-2.6133-5.8359-5.8359-5.8359h-16.742v-13.766c0-3.2227-2.6094-5.832-5.832-5.832-3.2227 0-5.832 2.6094-5.832 5.832v13.766h-21.293c-4.6406 0-9.0938 1.8438-12.375 5.125-3.2812 3.2852-5.125 7.7344-5.125 12.375v144.09c0 1.5469 0.61328 3.0273 1.7109 4.125 1.0938 1.0938 2.5742 1.707 4.1211 1.707h530.84c1.5469 0 3.0312-0.61328 4.125-1.707 1.0938-1.0977 1.707-2.5781 1.707-4.125v-144.26c-0.042968-4.5703-1.875-8.9414-5.1016-12.18-3.2305-3.2344-7.5938-5.082-12.164-5.1445zm-63.41-61.016c2.1797-12.297 9.1406-23.23 19.367-30.402 10.223-7.1719 22.871-10 35.176-7.8633l5.3672 0.93359-0.93359 5.4258v-0.003906c-2.2031 12.305-9.1953 23.234-19.438 30.395-10.246 7.1602-22.91 9.9727-35.223 7.8164l-5.3672-0.93359zm0-84.41c2.1797-12.297 9.1406-23.227 19.367-30.402 10.223-7.1719 22.871-10 35.176-7.8633l5.3672 0.93359-0.93359 5.3672c-2.125 12.34-9.0625 23.332-19.293 30.551-10.23 7.2227-22.91 10.082-35.25 7.9492l-5.3672-0.93359zm-19.832 6.5352c-12.312 2.1523-24.977-0.66797-35.215-7.8398-10.234-7.1758-17.207-18.117-19.387-30.426l-0.99219-5.3672 5.4258-0.93359c12.273-2.1562 24.902 0.63281 35.121 7.7578 10.223 7.1289 17.203 18.012 19.422 30.273l0.93359 5.3672zm0 84.41c-12.309 2.168-24.973-0.63672-35.211-7.8008-10.238-7.1641-17.211-18.105-19.391-30.41l-0.98828-5.3672 5.4258-0.93359h-0.003907c12.266-2.1562 24.887 0.625 35.105 7.7383 10.219 7.1172 17.207 17.988 19.438 30.238l0.93359 5.3672zm-24.793-232.46c0-9.7305 3.8672-19.062 10.746-25.945 6.8828-6.8789 16.215-10.746 25.945-10.746 9.7344 0 19.066 3.8672 25.945 10.746 6.8828 6.8828 10.746 16.215 10.746 25.945s-3.8633 19.066-10.746 25.945c-6.8789 6.8828-16.211 10.746-25.945 10.746-9.7305 0-19.062-3.8633-25.945-10.746-6.8789-6.8789-10.746-16.215-10.746-25.945zm91 53.844c-2.7656 2.7969-6.6172 4.2461-10.543 3.9688-3.9258-0.28125-7.5312-2.2656-9.8711-5.4297l-8.3984-11.199h-0.003906c6.5625-4.043 12.082-9.582 16.102-16.156l11.258 8.3984c3.1094 2.3984 5.0625 6 5.3672 9.918 0.28125 3.8984-1.1445 7.7305-3.9102 10.5zm17.5-64.168c2.957 2.582 4.6523 6.3125 4.6523 10.238 0 3.9219-1.6953 7.6562-4.6523 10.238-2.9766 2.5508-6.9062 3.6953-10.789 3.1484l-13.941-1.9844c0.89453-3.6836 1.3438-7.4648 1.3398-11.258-0.011718-3.9297-0.48047-7.8438-1.3984-11.668l14-2.043v0.003906c3.9531-0.55469 7.957 0.63672 10.965 3.2656zm-37.914-42.41c2.3398-3.1523 5.9375-5.1328 9.8555-5.4219 5.9844-0.38672 11.512 3.1914 13.609 8.8086 2.0977 5.6172 0.26563 11.945-4.5078 15.574l-11.668 8.5156c-4.0391-6.5312-9.5547-12.023-16.098-16.043zm-43.867-19.191c2.6484-2.8359 6.3555-4.4492 10.238-4.4492 3.8789 0 7.5898 1.6133 10.234 4.4492 2.5742 2.9688 3.7227 6.9102 3.1523 10.793l-2.043 14.176c-3.8164-0.94141-7.7344-1.4102-11.668-1.4023-3.9297 0-7.8477 0.46875-11.664 1.4023l-1.6328-14.176c-0.51172-3.918 0.72656-7.8633 3.3828-10.793zm-43.809 17.5c2.7852-2.7734 6.6328-4.2188 10.559-3.9648 3.918 0.29297 7.5156 2.2695 9.8594 5.4258l8.5742 11.668v-0.003906c-6.5586 4.0039-12.078 9.5-16.102 16.043l-11.668-8.5156c-3.1289-2.3633-5.082-5.9648-5.3633-9.8789-0.28125-3.9102 1.1445-7.7539 3.9062-10.539zm-17.5 64.168c-2.957-2.582-4.6523-6.3125-4.6523-10.238 0-3.9219 1.6953-7.6562 4.6523-10.238 2.9766-2.5586 6.9023-3.7227 10.793-3.207l14.059 2.043h-0.003906c-1.9062 7.4844-1.9062 15.324 0 22.809l-14 1.9844v-0.003906c-3.9805 0.78125-8.1016-0.24609-11.258-2.7969zm38.148 42.293c-2.3398 3.1641-5.9453 5.1445-9.8711 5.4258s-7.7773-1.168-10.543-3.9688c-2.7852-2.7539-4.2148-6.5938-3.9102-10.5 0.26172-3.9297 2.2188-7.5508 5.3672-9.918l11.258-8.3984c3.8789 6.6836 9.2969 12.344 15.809 16.508zm19.777 8.5156 1.9844-13.824h-0.003906c3.8203 0.9375 7.7383 1.4062 11.668 1.3984 3.9297 0.003906 7.8477-0.46875 11.668-1.3984l1.6914 13.824c0.57812 3.8867-0.57031 7.8281-3.1523 10.793-2.6445 2.8359-6.3555 4.4492-10.234 4.4492-3.8828 0-7.5898-1.6133-10.238-4.4492-2.6641-2.9258-3.9023-6.8711-3.3828-10.793zm-161.47 165.38c2.1758-12.32 9.1562-23.273 19.406-30.449s22.93-9.9883 35.254-7.8164l5.3672 0.93359-0.93359 5.4258v-0.003906c-2.207 12.305-9.1953 23.234-19.441 30.395-10.242 7.1602-22.906 9.9727-35.219 7.8164l-5.3672-0.93359zm-59.148 29.867v3.4414h-14.586c-6.4492 0-12.637-2.5625-17.199-7.125s-7.125-10.75-7.125-17.199v-3.3828h14.527c6.4492-0.015624 12.645 2.5312 17.215 7.082 4.5742 4.5508 7.1523 10.73 7.168 17.184zm234.21 103.6c-2.8594 0-5.832-4.1406-5.832-10.035 0-5.8906 3.207-10.09 5.832-10.09s5.832 4.1406 5.832 10.09c0 5.9531-2.9141 10.035-5.832 10.035zm-182.76 0c-2.918 0-5.832-4.1406-5.832-10.035 0-5.8906 3.207-10.09 5.832-10.09s5.832 4.1406 5.832 10.09c0 5.9531-2.9141 10.035-5.832 10.035zm-126.41 0c-2.8594 0-5.832-4.1406-5.832-10.035 0-5.8906 3.207-10.09 5.832-10.09s6.125 4.1406 6.125 10.09c0 5.9531-3.207 10.035-6.125 10.035zm-100.33-20.125c2.918 0 5.832 4.1406 5.832 10.09 0 5.9492-3.207 10.035-5.832 10.035s-6.125-4.1406-6.125-10.035c0-5.8867 3.2656-10.09 6.125-10.09zm486.32 103.43h-519.16v-120.75h27.008v6.9414c-3.7812 1.8672-6.9258 4.8047-9.0547 8.4453-2.125 3.6367-3.1367 7.8203-2.9062 12.031 0 12.191 7.8164 21.699 17.793 21.699 9.9766 0 17.5-9.5078 17.5-21.699 0.25781-4.1797-0.71094-8.3398-2.7812-11.977-2.0742-3.6367-5.1602-6.5898-8.8867-8.5v-6.9414h88.668v6.9414c-4.8867 2.7031-8.6406 7.0703-10.582 12.305-1.9414 5.2344-1.9414 10.992 0 16.227 1.9414 5.2344 5.6953 9.6016 10.582 12.305v12.484-0.003906c0 3.2227 2.6133 5.8359 5.832 5.8359 3.2227 0 5.8359-2.6133 5.8359-5.8359v-12.48c4.8828-2.7031 8.6406-7.0703 10.582-12.305 1.9414-5.2344 1.9414-10.992 0-16.227-1.9414-5.2344-5.6992-9.6016-10.582-12.305v-6.9414h114.74v6.9414c-4.8867 2.7031-8.6406 7.0703-10.582 12.305-1.9414 5.2344-1.9414 10.992 0 16.227 1.9414 5.2344 5.6953 9.6016 10.582 12.305v14.523c-0.035157 6.9688-5.6914 12.602-12.66 12.602-3.2227 0-5.832 2.6094-5.832 5.832s2.6094 5.832 5.832 5.832c7.1328 0.035157 13.91-3.1055 18.492-8.5742 4.5586 5.5117 11.34 8.6992 18.492 8.6914 3.2227 0 5.832-2.6094 5.832-5.832 0-3.2227-2.6094-5.832-5.832-5.832-6.9688 0-12.625-5.6328-12.66-12.602v-14.641c4.8867-2.7031 8.6406-7.0703 10.582-12.305 1.9414-5.2344 1.9414-10.992 0-16.227-1.9414-5.2344-5.6953-9.6016-10.582-12.305v-6.9414h171.09v6.9414c-3.7305 1.9062-6.8203 4.8555-8.8945 8.4961-2.0742 3.6367-3.0352 7.8008-2.7734 11.98-0.027343 0.46484-0.027343 0.93359 0 1.3984-0.023437 0.19531-0.023437 0.39062 0 0.58594v5.4844-0.003906c-0.03125 4.8516-3.957 8.7773-8.8086 8.8086h-21.289c-3.2227 0-5.8359 2.6133-5.8359 5.8359 0 3.2188 2.6133 5.832 5.8359 5.832h21.059-0.003906c7.0742 0.085938 13.691-3.4883 17.5-9.4492 1.0898 0.79297 2.2617 1.457 3.5 1.9844v3.3242c0.003906 5.2031-2.0859 10.188-5.7891 13.84-3.707 3.6484-8.7227 5.6641-13.926 5.5859-3.2227 0-5.832 2.6094-5.832 5.832 0 3.2227 2.6094 5.832 5.832 5.832 7.0898-0.019531 13.953-2.4922 19.426-7v7.9922c0 4.1211-1.6328 8.0742-4.543 10.992-2.9062 2.918-6.8555 4.5664-10.973 4.582h-1.9844c-3.2227 0-5.8359 2.6133-5.8359 5.8359 0 3.2188 2.6133 5.832 5.8359 5.832h1.9844c8.3789-0.027344 16.27-3.9492 21.348-10.617 5.1133 6.6523 13.016 10.574 21.41 10.617 3.2188 0 5.832-2.6133 5.832-5.832 0-3.2227-2.6133-5.8359-5.832-5.8359-4.1289-0.015625-8.0781-1.6602-10.996-4.5781s-4.5664-6.8711-4.582-10.996v-7.9922c5.5 4.5039 12.379 6.9766 19.484 7 3.2227 0 5.8359-2.6094 5.8359-5.832 0-3.2227-2.6133-5.832-5.8359-5.832-5.1562 0-10.102-2.0469-13.754-5.6875-3.6523-3.6406-5.7148-8.582-5.7305-13.738v-3.4414c1.2656-0.51172 2.4609-1.1758 3.5586-1.9844 3.8008 5.9688 10.426 9.5469 17.5 9.4492h20.77c3.2188 0 5.832-2.6094 5.832-5.832 0-3.2227-2.6133-5.8359-5.832-5.8359h-21.059c-4.8516-0.03125-8.7773-3.9531-8.8086-8.8047v-5.4844-0.58203-1.3984-0.003906c0.25391-4.1758-0.71094-8.3398-2.7852-11.977-2.0703-3.6367-5.1562-6.5898-8.8828-8.5v-6.8242h70.699zm-76.824-417.66c-3.2227 0-5.832-2.6133-5.832-5.8359 0-3.2188 2.6094-5.832 5.832-5.832 3.5469 0.015625 6.9531-1.3867 9.4648-3.8945 2.5078-2.5078 3.9102-5.918 3.8945-9.4648 0-3.2227 2.6094-5.832 5.832-5.832 3.2227 0 5.8359 2.6094 5.8359 5.832 0 6.6367-2.6367 13.004-7.332 17.695-4.6914 4.6953-11.059 7.332-17.695 7.332zm-44.977 373.33h0.003906c0 2.3594-1.4219 4.4844-3.6016 5.3906-2.1797 0.90234-4.6914 0.40234-6.3594-1.2656-1.668-1.668-2.168-4.1797-1.2617-6.3594 0.90234-2.1797 3.0273-3.5977 5.3867-3.5977 1.5586 0 3.0508 0.62109 4.1445 1.7266 1.0977 1.1094 1.707 2.6055 1.6914 4.1641zm-187.71-300.12c0-3.2227 2.6133-5.832 5.832-5.832 3.2227 0 5.8359 2.6094 5.8359 5.832s-2.6133 5.832-5.8359 5.832c-3.2188 0-5.832-2.6094-5.832-5.832zm-137.08 194.54c0-2.3594 1.4219-4.4883 3.6016-5.3906 2.1797-0.90234 4.6875-0.40234 6.3555 1.2656 1.668 1.668 2.168 4.1758 1.2656 6.3555-0.90234 2.1797-3.0312 3.6016-5.3906 3.6016-3.2227 0-5.832-2.6133-5.832-5.832z"/>
 </g>
</svg>
