<?xml version="1.0" encoding="UTF-8"?>
<svg width="700pt" height="700pt" version="1.1" viewBox="0 0 700 700" xmlns="http://www.w3.org/2000/svg" xmlns:xlink="http://www.w3.org/1999/xlink">
 <defs>
  <symbol id="w" overflow="visible">
   <path d="m18.766-1.125c-0.96875 0.5-1.9805 0.875-3.0312 1.125-1.043 0.25781-2.1367 0.39062-3.2812 0.39062-3.3984 0-6.0898-0.94531-8.0781-2.8438-1.9922-1.9062-2.9844-4.4844-2.9844-7.7344 0-3.2578 0.99219-5.8359 2.9844-7.7344 1.9883-1.9062 4.6797-2.8594 8.0781-2.8594 1.1445 0 2.2383 0.13281 3.2812 0.39062 1.0508 0.25 2.0625 0.625 3.0312 1.125v4.2188c-0.98047-0.65625-1.9453-1.1406-2.8906-1.4531-0.94922-0.3125-1.9492-0.46875-3-0.46875-1.875 0-3.3516 0.60547-4.4219 1.8125-1.0742 1.1992-1.6094 2.8555-1.6094 4.9688 0 2.1055 0.53516 3.7617 1.6094 4.9688 1.0703 1.1992 2.5469 1.7969 4.4219 1.7969 1.0508 0 2.0508-0.14844 3-0.45312 0.94531-0.3125 1.9102-0.80078 2.8906-1.4688z"/>
  </symbol>
  <symbol id="b" overflow="visible">
   <path d="m13.734-11.141c-0.4375-0.19531-0.87109-0.34375-1.2969-0.4375-0.41797-0.10156-0.83984-0.15625-1.2656-0.15625-1.2617 0-2.2305 0.40625-2.9062 1.2188-0.67969 0.80469-1.0156 1.9531-1.0156 3.4531v7.0625h-4.8906v-15.312h4.8906v2.5156c0.625-1 1.3438-1.7266 2.1562-2.1875 0.82031-0.46875 1.8008-0.70312 2.9375-0.70312 0.16406 0 0.34375 0.011719 0.53125 0.03125 0.19531 0.011719 0.47656 0.039062 0.84375 0.078125z"/>
  </symbol>
  <symbol id="a" overflow="visible">
   <path d="m17.641-7.7031v1.4062h-11.453c0.125 1.1484 0.53906 2.0078 1.25 2.5781 0.70703 0.57422 1.7031 0.85938 2.9844 0.85938 1.0312 0 2.082-0.14844 3.1562-0.45312 1.082-0.3125 2.1914-0.77344 3.3281-1.3906v3.7656c-1.1562 0.4375-2.3125 0.76562-3.4688 0.98438-1.1562 0.22656-2.3125 0.34375-3.4688 0.34375-2.7734 0-4.9297-0.70312-6.4688-2.1094-1.5312-1.4062-2.2969-3.3789-2.2969-5.9219 0-2.5 0.75391-4.4609 2.2656-5.8906 1.5078-1.4375 3.582-2.1562 6.2188-2.1562 2.4062 0 4.332 0.73047 5.7812 2.1875 1.4453 1.4492 2.1719 3.3828 2.1719 5.7969zm-5.0312-1.625c0-0.92578-0.27344-1.6719-0.8125-2.2344-0.54297-0.57031-1.25-0.85938-2.125-0.85938-0.94922 0-1.7188 0.26562-2.3125 0.79688s-0.96484 1.2969-1.1094 2.2969z"/>
  </symbol>
  <symbol id="e" overflow="visible">
   <path d="m9.2188-6.8906c-1.0234 0-1.793 0.17188-2.3125 0.51562-0.51172 0.34375-0.76562 0.85547-0.76562 1.5312 0 0.625 0.20703 1.1172 0.625 1.4688 0.41406 0.34375 0.98828 0.51562 1.7188 0.51562 0.92578 0 1.7031-0.32812 2.3281-0.98438 0.63281-0.66406 0.95312-1.4922 0.95312-2.4844v-0.5625zm7.4688-1.8438v8.7344h-4.9219v-2.2656c-0.65625 0.92969-1.3984 1.6055-2.2188 2.0312-0.82422 0.41406-1.8242 0.625-3 0.625-1.5859 0-2.8711-0.45703-3.8594-1.375-0.99219-0.92578-1.4844-2.1289-1.4844-3.6094 0-1.7891 0.61328-3.1016 1.8438-3.9375 1.2383-0.84375 3.1797-1.2656 5.8281-1.2656h2.8906v-0.39062c0-0.76953-0.30859-1.332-0.92188-1.6875-0.61719-0.36328-1.5703-0.54688-2.8594-0.54688-1.0547 0-2.0312 0.10547-2.9375 0.3125-0.89844 0.21094-1.7305 0.52344-2.5 0.9375v-3.7344c1.0391-0.25 2.0859-0.44141 3.1406-0.57812 1.0625-0.13281 2.125-0.20312 3.1875-0.20312 2.7578 0 4.75 0.54688 5.9688 1.6406 1.2266 1.0859 1.8438 2.8555 1.8438 5.3125z"/>
  </symbol>
  <symbol id="c" overflow="visible">
   <path d="m7.7031-19.656v4.3438h5.0469v3.5h-5.0469v6.5c0 0.71094 0.14062 1.1875 0.42188 1.4375s0.83594 0.375 1.6719 0.375h2.5156v3.5h-4.1875c-1.9375 0-3.3125-0.39844-4.125-1.2031-0.80469-0.8125-1.2031-2.1797-1.2031-4.1094v-6.5h-2.4219v-3.5h2.4219v-4.3438z"/>
  </symbol>
  <symbol id="k" overflow="visible">
   <path d="m12.766-13.078v-8.2031h4.9219v21.281h-4.9219v-2.2188c-0.66797 0.90625-1.4062 1.5703-2.2188 1.9844s-1.7578 0.625-2.8281 0.625c-1.8867 0-3.4336-0.75-4.6406-2.25-1.2109-1.5-1.8125-3.4258-1.8125-5.7812 0-2.3633 0.60156-4.2969 1.8125-5.7969 1.207-1.5 2.7539-2.25 4.6406-2.25 1.0625 0 2 0.21484 2.8125 0.64062 0.82031 0.42969 1.5664 1.0859 2.2344 1.9688zm-3.2188 9.9219c1.0391 0 1.8359-0.37891 2.3906-1.1406 0.55078-0.76953 0.82812-1.8828 0.82812-3.3438 0-1.457-0.27734-2.5664-0.82812-3.3281-0.55469-0.76953-1.3516-1.1562-2.3906-1.1562-1.043 0-1.8398 0.38672-2.3906 1.1562-0.55469 0.76172-0.82812 1.8711-0.82812 3.3281 0 1.4609 0.27344 2.5742 0.82812 3.3438 0.55078 0.76172 1.3477 1.1406 2.3906 1.1406z"/>
  </symbol>
  <symbol id="j" overflow="visible">
   <path d="m10.5-3.1562c1.0508 0 1.8516-0.37891 2.4062-1.1406 0.55078-0.76953 0.82812-1.8828 0.82812-3.3438 0-1.457-0.27734-2.5664-0.82812-3.3281-0.55469-0.76953-1.3555-1.1562-2.4062-1.1562-1.0547 0-1.8594 0.38672-2.4219 1.1562-0.55469 0.77344-0.82812 1.8828-0.82812 3.3281 0 1.4492 0.27344 2.5586 0.82812 3.3281 0.5625 0.77344 1.3672 1.1562 2.4219 1.1562zm-3.25-9.9219c0.67578-0.88281 1.4219-1.5391 2.2344-1.9688 0.82031-0.42578 1.7656-0.64062 2.8281-0.64062 1.8945 0 3.4453 0.75 4.6562 2.25 1.207 1.5 1.8125 3.4336 1.8125 5.7969 0 2.3555-0.60547 4.2812-1.8125 5.7812-1.2109 1.5-2.7617 2.25-4.6562 2.25-1.0625 0-2.0078-0.21094-2.8281-0.625-0.8125-0.42578-1.5586-1.0859-2.2344-1.9844v2.2188h-4.8906v-21.281h4.8906z"/>
  </symbol>
  <symbol id="i" overflow="visible">
   <path d="m0.34375-15.312h4.8906l4.125 10.391 3.5-10.391h4.8906l-6.4375 16.766c-0.64844 1.6953-1.4023 2.8828-2.2656 3.5625-0.86719 0.6875-2 1.0312-3.4062 1.0312h-2.8438v-3.2188h1.5312c0.83203 0 1.4375-0.13672 1.8125-0.40625 0.38281-0.26172 0.67969-0.73047 0.89062-1.4062l0.14062-0.42188z"/>
  </symbol>
  <symbol id="h" overflow="visible">
   <path d="m14.953-3.7188h-8.2188l-1.3125 3.7188h-5.2812l7.5625-20.406h6.2656l7.5625 20.406h-5.2812zm-6.9062-3.7812h5.5781l-2.7812-8.125z"/>
  </symbol>
  <symbol id="v" overflow="visible">
   <path d="m2.3594-21.281h4.8906v21.281h-4.8906z"/>
  </symbol>
  <symbol id="u" overflow="visible">
   <path d="m6.2188-7.8281-5.5156-7.4844h5.1719l3.1406 4.5312 3.1719-4.5312h5.1719l-5.5156 7.4531 5.7969 7.8594h-5.1875l-3.4375-4.8438-3.4062 4.8438h-5.1875z"/>
  </symbol>
  <symbol id="t" overflow="visible">
   <path d="m2.5781-20.406h6.6875l4.6562 10.922 4.6719-10.922h6.6875v20.406h-4.9844v-14.938l-4.7031 11.016h-3.3281l-4.7031-11.016v14.938h-4.9844z"/>
  </symbol>
  <symbol id="g" overflow="visible">
   <path d="m2.1875-5.9688v-9.3438h4.9219v1.5312c0 0.83594-0.007813 1.875-0.015625 3.125-0.011719 1.25-0.015625 2.0859-0.015625 2.5 0 1.2422 0.03125 2.1328 0.09375 2.6719 0.070313 0.54297 0.17969 0.93359 0.32812 1.1719 0.20703 0.32422 0.47266 0.57422 0.79688 0.75 0.32031 0.16797 0.69141 0.25 1.1094 0.25 1.0195 0 1.8203-0.39062 2.4062-1.1719 0.58203-0.78125 0.875-1.8672 0.875-3.2656v-7.5625h4.8906v15.312h-4.8906v-2.2188c-0.74219 0.89844-1.5234 1.5586-2.3438 1.9844-0.82422 0.41406-1.7344 0.625-2.7344 0.625-1.7617 0-3.1055-0.53906-4.0312-1.625-0.92969-1.082-1.3906-2.6602-1.3906-4.7344z"/>
  </symbol>
  <symbol id="f" overflow="visible">
   <path d="m0.42188-15.312h4.8906l3.8281 10.578 3.7969-10.578h4.9062l-6.0312 15.312h-5.375z"/>
  </symbol>
  <symbol id="s" overflow="visible">
   <path d="m12.422-21.281v3.2188h-2.7031c-0.6875 0-1.1719 0.125-1.4531 0.375-0.27344 0.25-0.40625 0.6875-0.40625 1.3125v1.0625h4.1875v3.5h-4.1875v11.812h-4.8906v-11.812h-2.4375v-3.5h2.4375v-1.0625c0-1.6641 0.46094-2.8984 1.3906-3.7031 0.92578-0.80078 2.3672-1.2031 4.3281-1.2031z"/>
  </symbol>
  <symbol id="d" overflow="visible">
   <path d="m9.6406-12.188c-1.0859 0-1.9141 0.39062-2.4844 1.1719-0.57422 0.78125-0.85938 1.9062-0.85938 3.375s0.28516 2.5938 0.85938 3.375c0.57031 0.77344 1.3984 1.1562 2.4844 1.1562 1.0625 0 1.875-0.38281 2.4375-1.1562 0.57031-0.78125 0.85938-1.9062 0.85938-3.375s-0.28906-2.5938-0.85938-3.375c-0.5625-0.78125-1.375-1.1719-2.4375-1.1719zm0-3.5c2.6328 0 4.6914 0.71484 6.1719 2.1406 1.4766 1.418 2.2188 3.3867 2.2188 5.9062 0 2.5117-0.74219 4.4805-2.2188 5.9062-1.4805 1.418-3.5391 2.125-6.1719 2.125-2.6484 0-4.7148-0.70703-6.2031-2.125-1.4922-1.4258-2.2344-3.3945-2.2344-5.9062 0-2.5195 0.74219-4.4883 2.2344-5.9062 1.4883-1.4258 3.5547-2.1406 6.2031-2.1406z"/>
  </symbol>
  <symbol id="r" overflow="visible">
   <path d="m16.547-12.766c0.61328-0.94531 1.3477-1.6719 2.2031-2.1719 0.85156-0.5 1.7891-0.75 2.8125-0.75 1.7578 0 3.0977 0.54688 4.0156 1.6406 0.92578 1.0859 1.3906 2.6562 1.3906 4.7188v9.3281h-4.9219v-7.9844-0.35938c0.007813-0.13281 0.015625-0.32031 0.015625-0.5625 0-1.082-0.16406-1.8633-0.48438-2.3438-0.3125-0.48828-0.82422-0.73438-1.5312-0.73438-0.92969 0-1.6484 0.38672-2.1562 1.1562-0.51172 0.76172-0.77344 1.8672-0.78125 3.3125v7.5156h-4.9219v-7.9844c0-1.6953-0.14844-2.7852-0.4375-3.2656-0.29297-0.48828-0.8125-0.73438-1.5625-0.73438-0.9375 0-1.6641 0.38672-2.1719 1.1562-0.51172 0.76172-0.76562 1.8594-0.76562 3.2969v7.5312h-4.9219v-15.312h4.9219v2.2344c0.60156-0.86328 1.2891-1.5156 2.0625-1.9531 0.78125-0.4375 1.6406-0.65625 2.5781-0.65625 1.0625 0 2 0.25781 2.8125 0.76562 0.8125 0.51172 1.4258 1.2305 1.8438 2.1562z"/>
  </symbol>
  <symbol id="q" overflow="visible">
   <path d="m17.75-9.3281v9.3281h-4.9219v-7.1094c0-1.3438-0.03125-2.2656-0.09375-2.7656s-0.16797-0.86719-0.3125-1.1094c-0.1875-0.3125-0.44922-0.55469-0.78125-0.73438-0.32422-0.17578-0.69531-0.26562-1.1094-0.26562-1.0234 0-1.8242 0.39844-2.4062 1.1875-0.58594 0.78125-0.875 1.8711-0.875 3.2656v7.5312h-4.8906v-21.281h4.8906v8.2031c0.73828-0.88281 1.5195-1.5391 2.3438-1.9688 0.83203-0.42578 1.75-0.64062 2.75-0.64062 1.7695 0 3.1133 0.54688 4.0312 1.6406 0.91406 1.0859 1.375 2.6562 1.375 4.7188z"/>
  </symbol>
  <symbol id="p" overflow="visible">
   <path d="m2.5781-20.406h5.875l7.4219 14v-14h4.9844v20.406h-5.875l-7.4219-14v14h-4.9844z"/>
  </symbol>
  <symbol id="o" overflow="visible">
   <path d="m17.75-9.3281v9.3281h-4.9219v-7.1406c0-1.3203-0.03125-2.2344-0.09375-2.7344s-0.16797-0.86719-0.3125-1.1094c-0.1875-0.3125-0.44922-0.55469-0.78125-0.73438-0.32422-0.17578-0.69531-0.26562-1.1094-0.26562-1.0234 0-1.8242 0.39844-2.4062 1.1875-0.58594 0.78125-0.875 1.8711-0.875 3.2656v7.5312h-4.8906v-15.312h4.8906v2.2344c0.73828-0.88281 1.5195-1.5391 2.3438-1.9688 0.83203-0.42578 1.75-0.64062 2.75-0.64062 1.7695 0 3.1133 0.54688 4.0312 1.6406 0.91406 1.0859 1.375 2.6562 1.375 4.7188z"/>
  </symbol>
  <symbol id="n" overflow="visible">
   <path d="m2.5781-20.406h8.7344c2.5938 0 4.582 0.57812 5.9688 1.7344 1.3945 1.1484 2.0938 2.7891 2.0938 4.9219 0 2.1367-0.69922 3.7812-2.0938 4.9375-1.3867 1.1562-3.375 1.7344-5.9688 1.7344h-3.4844v7.0781h-5.25zm5.25 3.8125v5.7031h2.9219c1.0195 0 1.8047-0.25 2.3594-0.75 0.5625-0.5 0.84375-1.2031 0.84375-2.1094 0-0.91406-0.28125-1.6172-0.84375-2.1094-0.55469-0.48828-1.3398-0.73438-2.3594-0.73438z"/>
  </symbol>
  <symbol id="m" overflow="visible">
   <path d="m2.3594-15.312h4.8906v15.031c0 2.0508-0.49609 3.6172-1.4844 4.7031-0.98047 1.082-2.4062 1.625-4.2812 1.625h-2.4219v-3.2188h0.85938c0.92578 0 1.5625-0.21094 1.9062-0.625 0.35156-0.41797 0.53125-1.2461 0.53125-2.4844zm0-5.9688h4.8906v4h-4.8906z"/>
  </symbol>
  <symbol id="l" overflow="visible">
   <path d="m14.719-14.828v3.9844c-0.65625-0.45703-1.3242-0.79688-2-1.0156-0.66797-0.21875-1.3594-0.32812-2.0781-0.32812-1.3672 0-2.4336 0.40234-3.2031 1.2031-0.76172 0.79297-1.1406 1.9062-1.1406 3.3438 0 1.4297 0.37891 2.543 1.1406 3.3438 0.76953 0.79297 1.8359 1.1875 3.2031 1.1875 0.75781 0 1.4844-0.10938 2.1719-0.32812 0.6875-0.22656 1.3203-0.56641 1.9062-1.0156v4c-0.76172 0.28125-1.5391 0.48828-2.3281 0.625-0.78125 0.14453-1.5742 0.21875-2.375 0.21875-2.7617 0-4.9219-0.70703-6.4844-2.125-1.5547-1.4141-2.3281-3.3828-2.3281-5.9062 0-2.5312 0.77344-4.5039 2.3281-5.9219 1.5625-1.4141 3.7227-2.125 6.4844-2.125 0.80078 0 1.5938 0.074219 2.375 0.21875 0.78125 0.13672 1.5547 0.35156 2.3281 0.64062z"/>
  </symbol>
 </defs>
 <g>
  <path d="m433.85 415.56c-2.207 1.0273-4.5078 1.9023-6.5977 3.1328-2.207 1.293-4.1641 2.9688-5.7812 4.9492l9.4219-3.0352 0.43359 0.87891c-0.50781 0.48438-0.93359 1.2188-1.5352 1.4141l0.003906-0.003907c-9.1992 3.1562-17.527 8.4297-24.32 15.391-5.5703 5.375-12.566 9.0352-20.156 10.555-5.9414 1.457-11.801 3.2344-17.551 5.3203-1.9414 0.71094-3.6719 1.8984-5.0352 3.4531 2.4375 0 4.875 0.066407 7.3086-0.015625 3.5273-0.43359 7.0859-0.57812 10.637-0.42188 5.8672 0.58984 11.754-0.92578 16.605-4.2773 4.9844-3.0039 9.8008-6.2891 14.688-9.4492 0.84766-0.54688 0.84375-0.55078 2.9805 0.96094-8.5273 6.3008-16.602 13.141-27.434 14.898-3.3047 0.53516-6.7031 0.48828-10.629 0.74609v0.003906c4.0117 2.9609 8.8633 4.5703 13.848 4.5898 3.9766 0.085937 7.957-0.35547 11.941-0.41797 2.8594-0.046875 5.7227 0.14453 8.582 0.22656l0.41797 0.96094c-0.36719 0.18359-0.75391 0.33594-1.1445 0.45312-5.1328 1.1328-10.258 2.3242-15.41 3.3477h-0.003906c-4.2773 0.75391-8.6758-0.35547-12.082-3.0508-4.5859-3.207-10-5.0234-15.594-5.2305-3.0117 0.023438-6.0195 0.21875-9.0117 0.58594 1.3047 16.18 4.207 32.188 8.6758 47.793-0.92969 0.074219-2.2031 0.49609-2.4727 0.14453-1.9961-2.5742-5.1484-2.918-7.8008-4.0859-1.2617-0.56641-2.332-1.4805-3.0859-2.6367-2.3906-4.3984-3.7852-9.2734-4.082-14.27-0.8125-3.7461-1.4141-7.5312-2.1484-11.297-0.78125-4-1.6055-7.9961-2.4688-12.293-0.98828 0.52734-1.8672 0.93359-2.6836 1.4414h-0.003907c-6.7969 4.0586-14.855 5.457-22.621 3.9219-2.9219-0.60156-5.7031-1.7539-8.1914-3.3984-5.9922-3.6719-11.785-7.6758-18.289-11.961h0.003906c2.5977-0.51172 5.2969-0.027343 7.5547 1.3594 4.2812 3.0781 8.7617 5.875 13.406 8.3711 4.832 2.8008 10.406 4.0508 15.969 3.582 3.1914-0.26172 6.2656-1.3047 8.957-3.0391-7-1.0273-13.734-3.3789-19.852-6.9297-9.7148-5.9844-20.32-10.391-31.418-13.051-1.6328-0.46094-3.2344-1.0273-4.7969-1.6875 0.58984-0.65234 0.80078-1.0234 0.91797-0.99609 12.266 2.8164 24.641 5.2539 35.129 13.008v-0.003906c3.5156 2.5117 7.6367 4.0391 11.941 4.418-2.1875-1.3359-4.4375-2.582-6.543-4.0352h-0.003906c-2.9258-1.75-5.6602-3.8047-8.1602-6.125-7.1367-6.5469-14.961-12.309-23.332-17.184-2.043-1.1523-4.1914-2.1133-6.4141-2.8633l0.14453-0.92578h0.003906c0.96484-0.0625 1.9336 0.042969 2.8672 0.30078 9.7656 4.0352 18.68 9.8867 26.273 17.238 6.6953 7.1211 15.457 11.961 25.051 13.836 0.61719 0.082031 1.2383 0.12109 1.8594 0.12109-0.15625-0.57422-0.14062-1.1055-0.36719-1.2461-3.6172-2.2617-7.2188-4.5625-10.922-6.6758v-0.003907c-8.9219-5.9023-17.066-12.906-24.234-20.848-3.3711-3.2617-6.8633-6.4062-10.363-9.5312-2.3359-2.0859-4.7812-4.043-7.5586-6.3789l1.9062-1.0586c-2.2383-3.375-4.2695-6.9258-6.7656-10.105v0.003906c-8.832-11.621-14.418-25.379-16.176-39.871-1.0859-6.2969-1.8047-12.656-2.1523-19.039-0.066406-5.8203 0.22656-11.637 0.88281-17.422 0.44141-4.25 1.1289-8.4688 2.0547-12.641 1.5781-7.4688 3.2539-14.922 5.1211-22.324 0.57812-2.2852 2.1484-4.3086 2.832-6.582v-0.003907c0.75-2.5898 1.2539-5.2422 1.5156-7.9297 0.58594-8.0898 0.57031-16.211-0.042969-24.301-0.60547-7.4102 0.23047-14.863 2.457-21.957 0.9375-2.6602 0.96875-5.6211 1.75-8.3516 1.7969-6.2812 3.7109-12.531 5.7422-18.742 1.6484-4.9922 3.4453-9.9375 5.3984-14.828 1.9961-5.0195 4.4414-9.8594 6.332-14.914 3.4414-7.6484 6.293-15.555 8.5234-23.641 2.3594-9.6836 5.5156-19.156 9.4375-28.32 6.2539-17.008 15.539-32.746 27.402-46.445 3.0781-3.4609 6.4648-6.4961 9.7227-9.707h0.003906c3.3281-3.3164 6.8516-6.4375 10.543-9.3438 2.207-1.5547 4.6016-2.8203 7.1289-3.7695 2.7539-1.1602 5.5742-2.1641 8.4453-3.0039 3.0859-1.1523 6.4766-1.1836 9.582-0.082031 3.2539 0.98828 6.6055 1.625 9.9961 1.9023 3.2969 0.49609 6.4062 1.8555 9.0039 3.9453 2.6016 2.0859 4.6055 4.8242 5.8008 7.9375 1.8789 5.3203 3 10.879 3.332 16.512 0.12891 0.69531-0.12109 1.75 0.26953 2.0664 2.9727 2.4062 2.0312 5.7109 1.2383 8.2812-0.95312 3.0898-0.19922 6.2852-1.7461 9.4219l-0.003906 0.003906c-0.76172 3.0234-1.0508 6.1445-0.86719 9.2539-0.64062 5.3438-1.25 10.707-2.2773 15.98-1.3555 6.9648-2.9961 13.883-4.7148 20.77-1.125 4.5039-2.6758 8.8984-3.875 13.387-0.10938 0.94922 0.082031 1.9102 0.54297 2.75 3.832 9.0625 6.0039 18.738 6.4062 28.57 0.57031 8.3789 1.6953 16.723 2.1914 25.105v0.003907c1.3672 10.188 0.99219 20.531-1.1094 30.594-1.4336 5.0586-2.9375 10.094-4.3984 15.145-0.46484 1.1914-0.77734 2.4336-0.93359 3.6992-0.085938 2.582-1.0508 5.0586-2.7383 7.0156-1.5781 1.4922-2.1289 3.7695-1.418 5.8164 0.49219 1.3789-0.47656 3.2891-0.82031 4.9492v0.003906c-0.47656 2.3398 0.27734 4.7617 2 6.418 5.8359 7.0859 12.035 14.062 12.734 24.055h0.003907c0.44922 3.2383 1.4492 6.375 2.957 9.2812 1.9258 4.4492 3.0703 9.1953 3.3828 14.035 0.85156 5.9258 1.1328 11.918 0.84375 17.895-0.47656 11.555-3.4258 22.871-8.6406 33.191-1.1484 1.9414-1.7305 4.2188-2.8516 6.1797-4.8555 8.5117-9.5312 17.148-14.844 25.371-3.4766 4.8438-7.2422 9.4727-11.27 13.867-0.53906 0.64844-1.4727 1.0547-1.8242 1.7695-1.9102 3.8906-5.8867 5.6172-8.7305 8.5195-0.25781 0.26562-0.76172 0.28906-1.1523 0.42578l0.56641 0.94141c1.8984-0.33984 3.8438-0.53125 5.6914-1.0547 3.1328-0.88281 6.1758-2.0898 9.3164-2.9531l-0.003906-0.003906c4.1797-0.99219 8.0312-3.0469 11.18-5.9727 2.8555-2.7891 5.7305-5.5664 8.7227-8.207 4.0586-3.582 8.1406-7.1445 12.398-10.48 2.1836-2 5.0273-3.125 7.9844-3.1719zm-31.945-348.88c-2.7656-0.078126-5.4648 2.8477-4.6367 5.2852 0.85156 2.1641 1.8125 4.2852 2.8828 6.3516 3.9023-1.8086 5.2891-6.2383 9.75-7.6094-0.13672 1.0234-0.035156 1.6484-0.30469 1.9805-0.52344 0.47266-1.0781 0.91016-1.6641 1.3047-4.043 3.6797-8.7734 6.8867-7.75 13.594-0.039063 1.8438-0.37891 3.6719-1.0039 5.4102l0.90234 0.41797c1.9961-2.1719 4.0039-4.3359 5.9883-6.5195 1.8203-1.9961 3.5664-4.0664 5.4414-6.0039 1.0117-1.0469 2.0039-0.91797 2.5352 0.49219-3.6914 3.8047-7.1758 7.7344-11.039 11.25l0.003907-0.003906c-2.3438 1.6758-3.6016 4.4844-3.2969 7.3477 0.042968 0.32422-0.31641 0.69922-0.59375 1.2734l-1.9961-2.4062c-6.9961 6.9766-13.66 14-20.754 20.559-4.043 4.5742-6.418 10.383-6.7383 16.48 0.64063-0.28125 1.2461-0.625 1.8125-1.0312 10.344-10.188 20.875-20.188 30.359-31.223h-0.003907c3.0547-2.8008 5.0586-6.5586 5.6875-10.652 0.019531-0.33203 0.48438-0.63672 1.0117-1.2852l0.78906 3.3672c4.0938-2.0312 6.3867-6.4883 5.668-11-0.39844-2.8242-0.46875-5.6836-0.20703-8.5234 0.75-6.7109-3.8516-10.133-7.7461-14.27-2.0938 1.6133-4.4766 2.3398-4.7227 5.0859zm-48.562 151.74c7.7383-9.6484 15.316-19.434 23.266-28.906 7.5859-9.7422 15.918-18.887 24.922-27.344l-0.80078 5.4102c-0.92578 5.2188-0.20703 10.598 2.0586 15.391 1.1523 3.0469 1.9062 6.2266 2.2461 9.4688 0.09375 0.49609-0.66797 1.1562-1.1758 1.9688-1.4609-4.7695-3.0508-9-4.0117-13.371-0.94531-4.2812-1.25-8.6992-1.9648-13.992-9.7188 11.801-18.953 23-28.164 34.219-1.9883 2.4219-3.9219 4.8906-5.8477 7.3633-3.7539 4.8242-7.4648 9.6797-11.227 14.496h0.003907c-1.5781 2.2227-2.457 4.8672-2.5195 7.5938-0.38672 4.5352-0.73828 9.0781-1.1641 13.609-1.0508 11.211-2.3203 22.406-3.1367 33.633-0.59766 8.2266-0.67188 16.492-0.84375 24.746-0.066406 3.1133 0.47656 6.2461 0.35547 9.3516-0.28516 7.3828-1.0781 14.754-1.1562 22.133-0.097656 8.9648 0.30859 17.934 0.52734 26.902 0.03125 1.3477 0.22656 2.6914 0.34375 4.0352h-0.003907c2.9062-3.2031 5.4922-6.6797 7.7344-10.379 0.19922-0.37891 0.30469-0.80078 0.29688-1.2305 0.17188-4.1211 0.30469-8.2422 0.5-12.363 0.10938-0.57422 0.29297-1.1367 0.55078-1.6641 1.1016 3.5039 1.4766 7.1953 1.0977 10.848 1.4883-1.918 2.4453-3.0625 3.3047-4.2734 6.7422-9.5312 13.434-19.105 20.211-28.613 5.3672-7.5352 10.805-15.02 16.312-22.453 0.97266-1.7422 2.8516-2.7773 4.8438-2.6719-1.3516 1.543-2.5273 3.2227-3.5117 5.0195-0.75781 1.9961-0.51172 4.2383 0.66406 6.0234 0.89844-1.1055 1.5703-1.9609 2.2773-2.793 0.64453-0.76172 0.98828-2.0703 3.0859-1.4727-0.86328 1.5391-1.8125 3.0234-2.8398 4.457-1.9062 1.6875-2.1328 4.582-0.50391 6.543 0.76172 0.98828 0.80078 1.9727-0.50391 3.0391l-2.625-3.9922c-2.2383 3.1406-4.3672 5.9414-6.2969 8.8789-5.9414 9.0469-11.906 18.086-17.668 27.246-4.6211 7.3477-9.0156 14.84-13.41 22.324-2.9141 4.9609-6.9883 9.5195-6.0977 15.957 0.019532 0.12891-0.39062 0.31641-0.66406 0.52344l-1.0312-2.2891c-3.9414 4.2148-2.7969 8.9141-2.2266 14.398 0.91406-1.1484 1.3477-1.6289 1.7109-2.1602 8.5117-12.48 16.953-25.004 25.531-37.434 9.3047-13.484 18.688-26.918 28.141-40.297 1.375-1.957 1.9492-3.6289 0.24219-5.7305l-0.003906 0.003906c-0.61719-0.51562-1-1.2578-1.0625-2.0586s0.19922-1.5938 0.72656-2.1992l3.625 5.2969 5.3477-7.1406c-1.2461-6.3398-7.6992-8.3477-10.352-13.344-2.9883-1.0273-2.6719-3.7422-2.2617-5.7617h0.003907c0.55859-5.0898 2.1367-10.016 4.6328-14.488 3.0469-4.7031 4.5117-10.258 4.1836-15.852-0.011719-2.8359 0.53125-5.6484 1.6055-8.2773 2.7734-7.5117 3.9805-15.508 3.5508-23.504 0.37109-6.4141-0.625-12.832-2.9219-18.832-0.54297-1.3242-0.86719-2.7266-0.95312-4.1562-0.1875-7.8164-1.1094-15.598-2.7578-23.242-0.20703-0.67188-0.15234-1.418-0.28906-2.1133v-0.003907c-0.25391-1.9531-0.67188-3.8867-1.25-5.7695-2.4414-5.2539-2.3047-11.344 0.36719-16.48 0.32031-0.82812 0.52734-1.6875 0.62109-2.5664-3.7969 3.0742-7.2969 6.4922-10.465 10.207-3.375 3.8633-6.4844 7.9609-9.8633 11.824-10.406 11.895-20.77 23.828-31.41 35.508v0.003906c-2.7188 2.9023-3.4648 7.1406-1.9062 10.797zm-18.699 149.28c-0.19531-5.1523-0.4375-9.2539-0.48047-13.359-0.042968-3.9922 0.16797-7.9844 0.16797-11.977 0.003907-7.3984-0.21484-14.801-0.066406-22.195 0.21875-10.969 0.6875-21.93 1.0312-32.895 0.25-7.9727 0.80078-15.957 0.60547-23.922v0.003907c-0.11719-7.125 0.39844-14.25 1.543-21.285 0.92578-6.043 2.2969-12.016 3.4805-18.016 0.71484-2.5078 0.25391-5.207-1.2539-7.3359-0.50781-0.85547-0.95312-1.7461-1.3398-2.668-7.3867-13.316-14.695-26.68-22.242-39.91h0.003906c-2.3164-3.418-4.0234-7.2109-5.0508-11.211-0.35156-1.1523-0.8125-2.2695-1.3789-3.332-0.46484 1.3828-1.0508 2.7227-1.75 4.0039-2.3242 3.1758-2.2305 7.5195 0.23438 10.59 4.4141 6.8164 8.3789 13.91 11.875 21.238 2.6602 6.125 6.0781 11.891 10.172 17.168 2.4219 3.0742 4.7031 6.2617 7.0977 9.4688-1.8086 0.97656-2.707-0.11328-3.582-1.3125-2.8594-3.9062-5.7773-7.7734-8.5664-11.73-1.4688-2.0781-2.8164-4.2461-4.0273-6.4844-3.6562-6.7578-7.1758-13.59-10.828-20.348-1.6094-2.9805-3.418-5.8555-5.3203-9.0898-0.81641 0.95703-1.5703 1.4922-1.832 2.207-1.5625 4.2539-3.0469 8.5352-4.4883 12.832-1.1758 3.5-2.1719 7.0586-3.4102 10.535-1.2852 3.6133-2.8281 7.1328-4.1328 10.742-0.91797 2.5391-1.3633 5.2734-2.4766 7.7109-2.9688 5.9883-4.9492 12.41-5.8711 19.027-0.66406 6.0703-1.2773 12.176-1.3789 18.273-0.089844 5.3906 0.75781 10.793 0.82812 16.195h-0.003906c-0.054687 6.9492-0.71484 13.875-1.9648 20.707-0.82031 5.9023-2.3828 11.676-4.6523 17.184-0.66797 1.4609-0.44922 3.1719 0.57422 4.4102 2.0586 2.9062 3.9219 5.9727 6.1992 8.6914 6.4922 7.7617 13.113 15.41 19.75 23.047 6.2617 7.207 12.625 14.328 18.914 21.512 2.4336 2.7812 4.668 5.7461 7.2188 8.4141l-0.003907 0.007812c1.9648 2.6484 4.3086 4.9922 6.957 6.9609 0-3.3086 0.13672-6.1328-0.070312-8.9297h-0.003906c-0.1875-1.1172-0.71875-2.1523-1.5156-2.957-5.9141-6.5508-12.02-12.93-17.824-19.57-5.4336-6.2148-10.551-12.707-15.84-19.051-2.1562-2.8398-4.5-5.5312-7.0117-8.0547-5.1914-5.1016-9.7617-10.793-13.617-16.965-0.27344-0.66406-0.42188-1.3711-0.44141-2.0898 18.176 21.391 35.742 43.059 55.773 63.758zm10.32-167.59c1.3516-4.6016 2.5977-8.4805 3.625-12.414 2.0508-7.8438 3.8203-15.766 6.0078-23.57 3.2227-11.512 6.6133-22.977 10.105-34.41 2.4492-8.0273 5.0977-15.992 7.8203-23.93l-0.003907 0.003906c1.2383-4.0859 2.8516-8.0508 4.8203-11.836 2.1211-3.7305 2.082-8.5547 5.8672-11.426 0.47656-0.35938 0.57812-1.2734 0.75-1.957 0.69141-2.7461 1.3438-5.5039 2.043-8.4023 3.0547-1.4844 3.4062-2.2656 1.9922-5.3281-1.0742-2.3281-2.3164-4.5781-3.375-6.9102l0.003906-0.003906c-0.17188-0.78906-0.21875-1.5977-0.14062-2.4023 3.5625 3.3164 2.9141 9.2695 8.6797 10.473l-2.0586 4.125c5.582-3.7773 9.6133-8.9883 15.148-12.434h0.003906c-1.1406-2.582-3.6133-4.3203-6.4297-4.5117-1.3828-0.074219-2.7148-0.89453-4.1055-1.0508-3.832-0.91406-7.793-1.1758-11.715-0.76172-3.7266 1.3555-7.1094 3.5117-9.9062 6.3203-2.4023 2.4023-5.2422 4.3242-8.3672 5.6562-5.1992 1.8438-6.3828 4.6484-4.043 9.6133 2.7305 5.793 5.9062 11.379 8.8242 17.086 0.98828 1.9297 1.7852 3.957 2.668 5.9414l-1.1055 0.55469c-2.5703-4.1445-4.9141-8.4414-7.1523-12.777-2.3359-4.5234-4.418-9.1836-6.9258-14.441l-6.6562 7.8828c2.1797 4.8594 4.1758 9.5703 6.3867 14.18 2.0352 4.2344 4.3477 8.3359 6.4414 12.543v-0.003907c1.2969 1.6992 1.5742 3.9648 0.72656 5.9258l-15.582-31.527c-5.6641 1.9805-6.8047 4.832-3.9141 9.8242 2.0664 3.5703 4.1484 7.1289 6.1445 10.738 3.707 6.7148 7.3789 13.457 11.008 20.215 0.078125 0.14453-0.20703 0.48047-0.32031 0.73047l-1.1055 0.67578c-6.7188-11.332-11.996-23.543-19.711-35.02-1.8594 1.8828-3.6172 3.8633-5.2656 5.9336-4.082 6.1602-7.5781 12.691-10.441 19.504-0.76562 1.6641-1.2891 3.4375-1.9102 5.1367 0.69141 0.47656 1.4062 0.69531 1.582 1.1328 6.6328 16.742 16.375 31.902 24.383 47.941 0.23828 0.60938 0.41797 1.2383 0.53516 1.8789l-0.98828 0.48047c-3.2812-5.1328-6.0039-10.602-8.832-16.016-2.832-5.4258-5.8633-10.754-8.6875-16.184-2.8594-5.4961-5.5781-11.07-8.7461-17.379-2.5977 5.0195-4.7695 10.246-6.4922 15.625-0.85547 3.4492-1.9648 6.832-3.3125 10.117-1.2969 2.7461-0.91797 5.9883 0.97656 8.3555 3.3945 4.918 6.5508 10.004 9.7734 15.039 5.7617 8.9961 11.465 18.023 17.273 26.988h0.003906c1.1289 1.4492 2.3633 2.8125 3.6992 4.0781zm-1.4648 256.7c0.89062-3.9258-1.4336-5.0469-3.082-6.4453-3.25-2.7539-6.7305-5.2422-9.9219-8.0586-7.6914-6.7891-15.035-13.996-22.98-20.473v0.007813c-5.5859-4.4297-10.516-9.6211-14.652-15.426-1.0547-1.5156-2.8555-2.832-3.1836-4.4688-0.80078-2.4023-2.0938-4.6172-3.793-6.4961-2.1094-3.1992-4.1055-6.4844-5.9922-9.8242-0.5625-1-0.93359-2.4258 0.72656-2.8828l5.3477 9.7656c0.10938-2.2578-0.60156-4.3047-0.57031-6.3398-0.046876-2.1406-0.95703-4.1641-2.5273-5.6172-2.9062-3.3203-5.6719-6.7695-8.4141-10.227-0.44922-0.75781-0.79297-1.5703-1.0195-2.418l1.0781-0.79297c3.6602 5.1875 7.7734 10.039 12.297 14.496 4.6719 4.332 8.7188 9.3438 13 14.094 4.3867 4.8672 8.625 9.875 13.117 14.645 4.4297 4.707 9.0977 9.1875 14.203 14.316h-0.003906c-0.09375-1.4336-0.082031-2.875 0.03125-4.3047 0.51172-2.5547-0.38281-5.1875-2.3438-6.9062-3.3086-3.3359-6.4336-6.8594-9.5664-10.367-12.246-13.715-24.48-27.441-36.703-41.172-1.5195-1.6992-3.2188-3.2305-4.8555-4.8242h0.003906c-0.58594-0.38281-0.94922-1.0234-0.98828-1.7188-0.035156-0.69922 0.26172-1.375 0.80078-1.8164 17.859 19.977 35.559 39.773 53.344 59.664l1.4023-2.4141v-0.003906c0.51953 0.71094 0.79297 1.5703 0.77734 2.4531 0.070312 0.95312-0.18359 2.1562 0.30078 2.8125 3.0977 4.1875 6.6875 7.9961 10.684 11.34-0.28125-2.3203-0.4375-4.6523-0.46875-6.9883 0.11719-2.75-1.1211-5.3867-3.3203-7.0469-1.9609-1.6562-3.8203-3.4336-5.5625-5.3164-7.4844-8.4102-14.871-16.906-22.324-25.344-8.3984-9.5078-16.863-18.965-25.238-28.492-3.5703-4.0586-7.0117-8.2266-10.473-12.375-0.70703-0.84766-1.5547-1.7969-0.14453-3.1523v-0.003906c0.66406 0.38672 1.2734 0.85938 1.8164 1.4062 2.7656 3.5938 5.2461 7.4375 8.2266 10.84 10.707 12.223 21.574 24.305 32.387 36.434 6.918 7.7617 13.852 15.516 20.793 23.258v-0.003906c0.84766 0.75391 1.7539 1.4375 2.7109 2.043-0.23438-3.2656-0.52344-5.7773-0.57031-8.293h0.003906c0.16016-3.168-1.2227-6.2227-3.7148-8.1875-2.0156-1.8125-3.875-3.7852-5.5586-5.9062-7.707-8.5977-15.246-17.348-23.121-25.785h-0.003906c-11.723-12.066-22.738-24.801-32.988-38.141-0.53516-0.72656-0.93359-1.5508-1.3984-2.332l-1.1289 0.64844c-0.49219 4.6562-1.207 9.3047-1.4258 13.973h0.003906c-0.050781 10.398 1.0039 20.777 3.1484 30.953 0.26563 0.96094 0.60156 1.8945 1.0078 2.8047 1.4766 4.4414 2.9258 8.8945 4.4062 13.336v-0.003907c0.375 1.5117 0.91406 2.9766 1.6016 4.3711 2.0469 3.418 4.3047 6.7148 6.4805 10.059 2.3984 3.6875 4.8008 7.3711 7.2031 11.055v-0.003907c1.1719 2.1133 2.5273 4.1211 4.0469 6.0039 4.9727 5.2852 9.9258 10.629 15.316 15.477v-0.003906c6.5195 6.3711 13.559 12.188 21.047 17.391 3.4375 2.1914 6.9062 4.3359 10.727 6.7344zm80.969-103.48-1.2617-0.4375c-3.8281 5.2617-7.8281 10.414-11.43 15.828-2.7422 4.125-4.6328 8.8398-7.5312 12.832-4.25 5.8516-9.082 11.277-13.625 16.918-2.2305 2.7734-4.4805 5.5391-6.5352 8.4453-6.8203 9.6523-13.516 19.391-20.344 29.039-3.1836 4.5-3.1719 6.1875 0.79687 10.934 1.0352-1.1641 2.1406-2.2422 3.0586-3.4648 7.1797-9.5508 14.379-19.086 21.457-28.711 3.7969-5.1602 7.3242-10.52 11.059-15.73 4.0625-5.668 8.2031-11.277 12.371-16.871h0.003906c0.5625-0.52344 1.207-0.95312 1.9062-1.2695 0.26562 0.54297 0.55859 0.91406 0.48438 1.0156-17.395 23.605-33.527 48.141-51.988 71.035v0.003906c2.4414-1.8242 4.7734-3.7969 6.9805-5.9023 1.3281-1.4492 2.9805-2.5664 4.8242-3.2617 2.9258-0.71094 5.5-2.4492 7.25-4.8984 1.9766-2.4102 3.625-5.0859 5.5977-7.5 2.9531-3.6211 6.0469-7.125 9.1094-10.652 0.95703-0.84766 1.832-1.7812 2.6211-2.7852 3.3711-5.7617 6.7734-11.52 9.8555-17.438v0.003906c1.8945-3.6602 3.4922-7.4609 4.7852-11.371 3.2227-9.6797 6.2422-19.426 9.2422-29.176l-0.003906-0.003906c0.55469-2.168 0.99609-4.3672 1.3164-6.582zm-65.473 75.602c0.84375-1.0469 1.4023-1.6719 1.8867-2.3477 7.4648-10.434 14.926-20.875 22.375-31.32 5.9414-8.3633 11.773-16.809 17.754-25.141 4.4844-6.25 9.1484-12.375 13.703-18.574 1.6016-2.1836 3.0664-4.4688 4.7109-6.6172 0.37891-0.49609 1.2227-0.62891 1.8555-0.92969h-0.003906c-1.0938 2.5078-2.4961 4.8711-4.1719 7.0312-8.4141 11.848-16.773 23.734-25.246 35.547-10.137 14.133-20.328 28.223-30.578 42.273-1.9961 2.0781-2.1406 5.3125-0.33984 7.5625 3.5938-3.8477 6.8086-8.0273 9.6016-12.488 6.0898-8.6055 12.055-17.301 18.219-25.852 4-5.5469 8.5859-10.695 12.344-16.391l0.003906-0.003907c6.8164-11.035 14.207-21.707 22.141-31.969 0.74609-1.0156 1.0938-2.2695 0.98828-3.5234-0.41016-3.6719-1.0234-7.3281-1.7812-10.945-0.50391-1.7344-1.1367-3.4297-1.8984-5.0664-4.668 4.3945-8.4766 9.6211-11.238 15.406-0.19141 0.76172-0.53516 1.4805-1.0117 2.1094-0.98438 1.1094-2.3359 1.9258-3.1836 3.1133-6.7266 9.3828-13.371 18.82-20.035 28.246-0.57812 0.81641-1.1484 1.6367-1.668 2.4883-5.5859 9.1094-11.133 18.242-16.758 27.324-2.1758 3.5117-4.375 7.0273-6.8242 10.344h-0.003906c-2.2227 2.7734-2.5547 6.6094-0.83984 9.7227zm2.3828 73.809c0.14062-0.45703 0.32812-0.74219 0.28906-0.98828-1.1836-7.1484-2.1484-14.348-3.6758-21.422-0.89844-4.8984-1.4219-9.8555-1.5664-14.828-0.12891-2.0938-1.0195-2.6914-2.8398-2.2148 0.95703 4.8906 2.2383 9.5977 2.7305 14.387l-0.003906-0.003907c0.46875 7.0977 1.7227 14.125 3.7422 20.945 0.058593 0.17969-0.23047 0.47656-0.49219 0.96875-0.50391-0.53125-1.1836-0.92578-1.3477-1.4727-1.0859-3.0742-1.9258-6.2266-2.5156-9.4297-0.60938-9.5312-2.3008-18.961-5.0391-28.109-0.16016-0.42578 0.09375-1.0078 0.23047-2.1016l2.457 2.293v-0.003906c0.84766-0.078125 1.6133-0.55078 2.0586-1.2812 0.44922-0.72656 0.52734-1.625 0.21094-2.418-0.30469-2.0273-0.88672-4.0039-1.7266-5.875-1.2617-2.2852 1.1406-4.2852 0.011719-6.4336-0.39062-0.91406-0.69141-1.8672-0.89844-2.8398-0.26562-0.80078-0.48828-1.6133-0.66406-2.4336-1.0078-5.7422-1.9375-11.496-3-17.227v-0.003906c-0.49219-1.9609-1.082-3.8984-1.7695-5.8047-1.2891 4.1602-1.2109 8.6172 0.22266 12.727 0.64062 1.7344 1.0273 3.5547 1.1406 5.4023 0.45703 4.8047 0.75781 9.6211 1.0859 14.438 0.011719 0.15234-0.33984 0.33203-0.73047 0.69531l0.003907-0.003907c-1.832-3.5156-2.6211-7.4844-2.2812-11.434 0.23047-2.9648-0.074219-5.9492-0.90234-8.8086-1.2461-5.5352-1.3672-11.266-0.35156-16.848 0.19141-1.5 0.29297-3.0117 0.29297-4.5234-0.38672-3.5391-0.97656-7.0547-1.5781-10.566-0.16016-0.9375-0.39062-2.2383-1.043-2.6445-1.5781-0.98047-1.4062-2.3359-1.3359-3.7188v-0.003906c0.28125-2.4023 0.4375-4.8203 0.47266-7.2422-0.3125-5.9609-0.9375-11.906-1.3281-17.867-0.69922-10.66-1.5703-21.32-1.9062-31.996-0.30469-9.6797-0.21094-19.383 0.10938-29.062 0.27344-8.2539 1.0547-16.492 1.7148-24.727 0.71875-8.9375 1.5781-17.867 2.3477-26.801 0.0625-4.6992 0.49219-9.3867 1.2812-14.02 1.4062-5.4961 2.4453-11.074 3.1055-16.707 0.74609-6.6406 1.8906-13.238 2.8594-19.855 0.41016-2.8086 0.67969-5.6445 1.2656-8.418 1.0547-5.0078 2.332-9.9648 3.4414-14.961 0.10547-0.91016 0.11328-1.8242 0.027344-2.7344l-0.89453-0.15625c-1.2305 4.6992-2.6133 9.3672-3.6523 14.109-2.1641 9.8555-4.4336 19.703-6.1289 29.645-2.0273 11.922-3.6602 23.918-5.1445 35.922-0.75 6.0703-0.4375 12.281-1.2578 18.336h-0.003906c-1.0273 9.4844-1.4609 19.027-1.293 28.562-0.12109 12.098 0.42188 24.207 0.75391 36.309 0.20703 7.5508 0.47656 15.098 0.84766 22.641 0.50781 10.25 1.3281 20.488 1.6797 30.742l-0.003906 0.003906c0.72656 14.922 2.2383 29.797 4.5312 44.562 0.41406 2.9531 1.2852 5.8438 1.7266 8.7969 0.98047 6.6133 1.6836 13.266 2.75 19.863 1.5117 10.711 3.6836 21.32 6.5078 31.766 0.52734 2.668 2.7656 4.6602 5.4766 4.875zm42.586-170.66c-5.4102 8.0508-10.719 15.777-15.84 23.629-4.1211 6.3203-8.0039 12.801-12.008 19.199-6.5781 10.504-13.152 21.008-19.73 31.512l-0.003907-0.003907c-0.60156 0.79297-0.94141 1.7461-0.98047 2.7383 0.42188 3.3125 1.1094 6.5898 1.6992 9.8828l0.92188 0.13281c4.0156-6.3281 8.0508-12.645 12.035-18.992 5.2266-8.3242 10.203-16.812 15.664-24.984 6.6484-9.9453 13.711-19.613 20.512-29.461v0.003906c0.87891-1.1094 1.3711-2.4727 1.4062-3.8867-0.21484-3.5508-1.5-6.957-3.6797-9.7695zm-67.859 63.82 0.77344-0.34375c-0.32812-3.1641-0.57422-6.3398-1.0352-9.4844-0.10938-0.74219-0.87109-1.4336-1.4258-2.0586-7.6602-8.6211-15.383-17.188-22.992-25.852-7.4258-8.4609-14.789-16.977-22.086-25.551-4.5195-5.3164-8.8438-10.801-13.266-16.199-0.75-0.91406-1.5586-1.7812-2.5078-2.8594-0.56641 0.96484-0.83594 1.457-1.1406 1.9297l-0.003906-0.003907c-1.9141 2.4453-1.7031 5.9336 0.49609 8.1289 6.3047 7.5469 12.184 15.453 18.656 22.844 12.488 14.266 25.262 28.285 37.934 42.391 2.1484 2.3984 4.3945 4.707 6.5977 7.0586zm70.328-80.227c-1.1328 1.5703-2.2305 3.0117-3.2383 4.5117-3.4961 5.207-6.8672 10.5-10.457 15.641-11.75 16.828-23.594 33.594-35.363 50.41-1.793 2.5625-3.3164 5.3125-5.1016 7.8828v-0.003907c-2.7266 3.1992-3.6328 7.5664-2.4023 11.586 0.19141 1.1211 0.28516 2.2578 0.28125 3.3945 0.20703 0.95312 0.47266 1.8945 0.79688 2.8164 4.1836-4.5977 1.2969-9.5195 2.3438-14.234l1.9414 7.2461c1.3125-2.2422 2.2461-3.9609 3.293-5.6055 4.9688-7.8125 10.016-15.57 14.938-23.41 5.1523-8.207 10.129-16.523 15.309-24.715 6.0117-9.5078 12.086-18.98 18.305-28.352 1.7773-2.1641 1.4922-5.3555-0.64453-7.168zm-11.922-164.98c-1.3555 0.82422-2.6289 1.7773-3.8008 2.8516-2.9727 3.2656-5.707 6.7539-8.6562 10.047-7.5117 8.3945-14.914 16.895-22.711 25.016-3.8203 3.8672-5.9766 9.0781-5.9961 14.516 0.039063 1.0039 0.13281 2.0078 0.28516 3 11.32-12.676 22.246-24.879 33.133-37.109 6.5391-7.3438 12.867-14.887 19.598-22.055 3.6211-4.2344 5.4883-9.6953 5.2109-15.258-1.2969 0.80859-2.4688 1.7969-3.4844 2.9414-3.2461 3.6016-6.4805 7.2148-9.6406 10.891-1.4219 1.6562-2.6562 3.4727-3.9375 5.1602zm-1.0547 150.25c-4.8086 6.25-9.418 12.211-13.996 18.195-1.2969 1.6953-2.5547 3.4297-3.7539 5.1953-4.2305 6.2266-8.4219 12.48-12.637 18.719-4.3008 6.3711-8.1836 13.09-13.043 19.004l0.003906 0.003906c-3.875 5.125-5.1953 11.738-3.5938 17.961 0.26562 1.1758 0.60156 2.332 1 3.4688 2.0547-3.8164 4.2656-6.5273 3.3984-10.516l0.003906 0.003906c-0.49219-1.7617-0.078125-3.6484 1.1055-5.0391l0.86719 4.4766c0.48438-0.35156 0.91406-0.51172 1.1055-0.81641 6.2578-10.012 12.43-20.078 18.746-30.055 6.4727-10.227 12.957-20.449 19.711-30.488v-0.003906c2.668-2.707 3.1172-6.8984 1.082-10.109zm-62.559 130.8c-1.3477 1.125 0.72656 3.7539-2.2891 4.0156-0.046875-0.93359-0.097656-1.7422-0.125-2.5547h0.003906c0.003907-3.1289-1.2773-6.125-3.543-8.2812-11.5-11.242-22.504-22.957-32.84-35.293-1.3906-1.4727-2.8711-2.8555-4.4375-4.1406l-0.86719 0.62109c0.61719 4.1211 1.8789 8.1211 3.7344 11.852 6.1484 8.5586 11.09 18.238 20.273 24.32v0.003907c1.7266 1.25 3.3633 2.625 4.8945 4.1133 7.625 6.832 15.242 13.676 22.852 20.523v0.003906c1.1406 1.3477 2.8164 2.1289 4.5859 2.1289-0.32031-3.0234-1.1836-5.9688-2.5508-8.6875-2.957-3.168-6.1992-6.0547-9.6875-8.625zm72.52-316.66c-1.2812 1.168-2.1484 1.8477-2.8828 2.6484-7.6133 8.2656-15.215 16.543-22.797 24.836-4.4961 4.9414-8.9648 9.9102-13.285 15.004-3.0586 3.6055-2.7656 8.4141-4.1758 12.715h-0.003906c1.6055-0.97266 3.0625-2.1758 4.3281-3.5625 8.5703-9.3242 17.031-18.75 25.703-27.977 2.6094-2.7773 4.9219-5.3828 3.8398-9.5195-0.011719-0.050782 0.19922-0.16406 0.60547-0.47656l2.0117 2.6914h-0.003907c2.7227-1.6445 4.8438-4.1289 6.043-7.0742 1.1992-2.9492 1.418-6.2031 0.61719-9.2852zm-9.5938 23.16c-0.57812 0.3125-1.125 0.67969-1.6328 1.0977-9.8164 10.703-19.488 21.551-29.48 32.09-4.3203 5.0625-6.7227 11.484-6.7852 18.141 3.7656-4.1289 7.0352-7.6406 10.223-11.227 8.0469-9.043 15.742-18.426 24.219-27.047 3.3086-3.4727 4.6133-8.3984 3.457-13.055zm-49.359 64.766c-2.0234-2.2773-3.9297-4.6523-5.7109-7.1211-6.9141-10.77-13.668-21.645-20.539-32.441-2.0781-3.2656-4.3398-6.4062-6.5195-9.6055l-0.89453 0.26562c-0.023437 1.2969 0.085938 2.5898 0.32422 3.8633 0.40625 1.4023 1.3242 2.6523 1.8438 4.0312h0.003906c0.80859 2.7148 1.7656 5.3828 2.8711 7.9922 2.2031 4.2891 4.8594 8.3398 7.2305 12.547 5.0938 9.0391 10.125 18.109 15.188 27.168 1.25 2.2383 2.5195 4.4688 3.7812 6.7031l0.66797-0.29297zm60.578-99.684c-1.2812 1.1406-2.5117 2.0859-3.5664 3.1992-6.3633 6.6914-12.629 13.473-19.047 20.109-3.2578 3.3711-6.7227 6.5508-10.168 9.7383l-0.003907-0.003907c-4.0273 4.6758-6.6172 10.418-7.4648 16.531 2.4141-2.0352 4.6992-4.2109 6.8516-6.5195 10.215-10.891 20.41-21.801 30.582-32.727 0.64063-0.54688 1.1328-1.2422 1.4336-2.0273 0.56641-2.7109 0.92578-5.4648 1.3828-8.3047zm-31.441 14.938c1.2227-0.30469 1.5781-0.28125 1.7422-0.44922 6.7812-6.707 13.543-13.43 20.285-20.176v-0.003906c0.625-0.73047 1.0664-1.6055 1.2812-2.543 0.46094-1.6289 0.73047-3.3125 1.0898-4.9727 0.64453-2.1758 0.71484-4.4805 0.20703-6.6875-5.0156 3.9844-9.6758 7.457-14.039 11.27h-0.003907c-1.7383 1.6445-3.1562 3.6055-4.1719 5.7734-1.2539 2.7109-2.3359 5.4961-3.2422 8.3398-1.0352 2.9141-1.9609 5.8672-3.1484 9.4453zm31.828 211.57 4.5977 9.918c3.0977-4.0117 5.9883-7.6992 8.7969-11.441h0.003906c0.41797-0.57031 0.60156-1.2773 0.51562-1.9805-0.92188-4.2188-1.9609-8.4102-3.0352-12.895-4.8711 4.3281-5.1445 5.1992-3.9727 10.535 0.4375 1.9453 0.76953 3.9102 1 5.8867 0.054687 1.1602 0.019531 2.3281-0.10547 3.4844-3.0273-2.9102-1.4258-7.1484-3.9414-10.566zm8.0156-212.11-0.84766-0.48047c-4.0664 5.207-10.762 8.8711-9.4883 17.211 0.019531 0.13672 0.023437 0.34375-0.058594 0.41016-0.50391 0.42578-1.0352 0.81641-2.0469 1.6016v-5.6172c-5.9922 3.0352-4.7617 8.3359-5.0625 13.941h0.003906c0.85156-0.57422 1.6602-1.2031 2.4219-1.8867 4.3125-4.7109 8.6484-9.4023 12.832-14.227h-0.003907c0.85547-1.1055 1.4102-2.4141 1.6016-3.793 0.39844-2.3555 0.45312-4.7695 0.64844-7.1602zm-29.926-25.051c4.5195-3.7031 8.4414-6.8594 12.301-10.09 2.457-2.0586 2.6914-2.9453 1.3594-5.8203v-0.003906c-0.73828-1.375-1.5742-2.6953-2.5039-3.9531-7.6055 4.4453-8.9805 11.836-11.156 19.867zm-54.957 325.76c0.050781 4.0117-0.34375 7.1758 1.6445 9.6133 2.9727 3.6406 6.4727 6.8125 10.391 9.4062 0.5625-4.7734 0.59375-5.5898-1.1055-7.4766-3.3008-3.6719-6.7852-7.1875-10.93-11.543zm77.078-296.52c0.83203-0.75 1.3711-1.168 1.8242-1.6562 1.9023-2.0391 3-4.8945 6.0039-5.8281 0.38281-0.1875 0.66406-0.52734 0.77734-0.9375 0.78125-3.0469 1.0391-6.2031 0.76172-9.3359-2.7891 2.5664-5.2812 4.668-7.5156 7.0156-0.94141 1.0312-1.5586 2.3164-1.7773 3.6992-0.17578 2.3438-0.19922 4.6953-0.074219 7.043zm9.4141-28.832c-2.8633 1.6445-5.2266 4.0352-6.8398 6.9141-1.6172 2.8789-2.4219 6.1406-2.332 9.4414 3.4727-2.3516 6.5625-5.2227 9.168-8.5039 0.35156-0.61328 0.49609-1.3242 0.40625-2.0234-0.058593-1.7969-0.23828-3.5938-0.40234-5.8281zm-73.977 243.13 0.93359-0.082031 1-44.062-0.91406-0.023437c-0.33984 14.723-0.67969 29.445-1.0195 44.168zm11.512 91.438c3.6094-4.7188 3.8633-11.199 0.63281-16.188-1.0312 1.7539-1.75 3.6719-2.125 5.6719 0.27344 3.5312 0.77344 7.043 1.4922 10.516zm3.5352-254.45v-0.003906c3.4492-8.7773 5.7461-17.969 6.8281-27.34-3.0273 8.9102-5.3086 18.055-6.8281 27.34zm3.0664 269.64c-3.75 4.0273-2.4102 8.1406-1.2344 12.59 2.0273-1.3711 3.3398-3.5703 3.5781-6.0078 0.23828-2.4336-0.62109-4.8477-2.3398-6.5859zm56.234-132.54-1.6992-3.7617-5.5508 6.9336 2.0352 3.582zm-61 124.82c3.4727-3.1328 3.5664-3.6602 1.332-8.3281-2.1328 2.625-3.5742 5.1211-1.332 8.3281zm3.2891 0.058594c-3.2266 3.832-3.3203 4.543-1.2422 8.3438v0.003906c2.4922-2.0547 3.0273-5.6562 1.2422-8.3477zm6.043-372.23c5.3594-0.66016 6.4648-1.4805 8.3789-5.875-3.2734 1.1602-6.1719 3.1914-8.3789 5.875zm-91.266 243.9 1.0547 0.32422 1.793-8.1445v-0.003906c-1.0391 1.3594-1.7852 2.918-2.1875 4.582-0.30469 1.0547-0.44531 2.1602-0.66016 3.2422zm92.078-167.99c2.4102-3.582 2.5352-4.0977 1.9531-7zm30.207 328.47-0.003906-0.39063h-3.2773l0.011718 0.39063zm-37.719-398.79 0.77344 0.75781 1.5977-1.4531-0.66406-0.69922z"/>
  <path d="m410.1 241.81c-1.3281 6.4727-2.582 12.691-3.9219 18.887-0.078126 0.35156-0.83203 0.55859-1.9336 1.25l3.2695-17.18c-3.8672 1.6523-2.0352 5.3359-3.8945 7.8438-3.1758-1.9414-3.8867-5.5898-6.3906-7.6719 4.5703-4.4219 5.3438-4.625 12.871-3.1289zm-7.6797 5.6367 0.77344-3.5195-3.0156 0.47266z"/>
  <path d="m387.65 256.9c1.4492 1.6016 3.0078 3.1016 4.668 4.4883 1.9648 1.2422 4.0117 2.3516 6.1289 3.3125-2.1875 1.6641-4.0117 2.8633-5.6055 4.3164-1.6328 1.4883-3.0352 3.2305-4.7695 5.1094-2.4023-2.8203-0.86719-5.918-1.3164-8.6484l-0.003906 0.003906c-0.25391-2.75-0.28516-5.5156-0.09375-8.2695zm1.0977 11.098 0.95312 0.49219 3.9062-3.9219-5.25-1.9375z"/>
  <path d="m372.45 218.95 2.9258-1.7734c2.9688 1.2656 1.5938 4.2305 2.8359 6.0273 1.1836 1.7148 2.2734 3.4961 3.5898 5.5312-3.7773 1.5273-8.2148 0.11328-11.133 3.6484-2.2812-2.6914 0.72656-4.3438 0.70703-6.4414 0.16016-2.3555 0.51953-4.6953 1.0742-6.9922zm0.60547 8.6836 4.3711-0.35938-2.1055-5.8164-0.85156 0.16797z"/>
  <path d="m386.96 294.94-8.2109-3.5117c0.80859-2.1797 2.9883-2.8711 4.4531-4.2734 0.97266-0.93359 2.3203-1.4492 2.0703-3.3516-0.097656-0.73438 1.043-1.8984 1.8906-2.4219l-0.003906 0.003907c0.51172-0.27734 1.1367-0.24219 1.6172 0.085937 0.48047 0.32812 0.73828 0.89844 0.66406 1.4766-0.44141 3.5898-0.96875 7.1719-1.5469 10.746-0.078125 0.47656-0.64062 0.87109-0.93359 1.2461zm-1.4258-6.9727-2.3125 1.9219c2.0547 1.2812 2.4883 0.64844 2.3086-1.9219z"/>
  <path d="m396.59 203.93c-1.3242-4.2852-4.4414-7.1836-5.0703-11.605 2.457-0.61328 4.3672-1.4258 6.4609 0.99219h-0.003906c1.8867 1.6016 3.9922 2.9219 6.2539 3.9258zm-0.65625-8.7617c1.2383 3.6719 1.2383 3.6719 3.1602 1.5898z"/>
  <path d="m398.12 227.12-4.8867 10.957-6.5898-10.84c3.5195-3.0859 7.3125-0.55469 10.801-1.2266zm-5.3711 5.3281 2.125-4.0859h-4.2188z"/>
  <path d="m353.37 310.2 4.2773-1.4688h-0.003906c0.50781 2.3242 2.4453 4.0586 4.8086 4.3125 0.76953 0.12891 1.4023 1.0586 2.0977 1.6211l0.003906-0.003906c-0.60156 0.65625-1.2578 1.25-1.9648 1.7852-1.2734 0.79688-2.6016 1.5117-3.9727 2.1328-1.3242 0.60938-2.7148 1.0664-4.4922 1.7461zm2.5195 2.5352 0.23438 4.5 3.2969-3.0625z"/>
  <path d="m378.44 252.42c-1.0703 5.4102-7.3672 3.9297-8.2773 9.4023-3.1953-4.7148-1.4297-9.582-4.2773-12.988v-0.003907c0.66406-0.62891 1.5586-0.96094 2.4766-0.91406 0.91406 0.050781 1.7695 0.47266 2.3633 1.1719 1.832 2.3594 4.7422 3.6172 7.7148 3.332zm-4.5078 1.9375-4.0391-2.7188c0.16016 4.4219 0.19922 4.4531 4.0352 2.7188z"/>
  <path d="m388.39 207.54c-0.19531 0.46484-0.46094 0.89844-0.79297 1.2773-1.9297 1.6328-3.8789 3.2539-5.9023 4.7656h-0.003906c-0.60547 0.53516-1.4062 0.80469-2.2148 0.74219-0.48828-0.16406-0.85547-1.3203-0.90234-2.0586-0.1875-3.1133-0.28516-6.2344-0.28906-9.3594l0.003906 0.003906c0.054688-0.67188 0.41797-1.2773 0.98047-1.6406 0.64453-0.22656 1.3594-0.14453 1.9336 0.22656 2.3984 1.9023 4.6992 3.9297 7.1875 6.043zm-7.7227-2.6133 0.23828 5.2773 3.582-2.6055z"/>
  <path d="m406.96 209.22c1.6641 2.9336 3.2266 5.6875 4.9727 8.7656h-0.003906c-0.78906 0.46094-1.6328 0.83203-2.5078 1.0977-2.0039 0.37109-4.1367-0.28516-5.9844 1.375-0.89062 0.80078-2.5234-0.52344-2-1.6367 1.543-3.2695 3.3477-6.4141 5.0859-9.5859 0.0625-0.11719 0.51562-0.015625 0.4375-0.015625z"/>
  <path d="m362.29 281.02 8.9219-1.6836c-0.11328 1.043-0.15625 1.9258-0.30859 2.7852-0.44531 2.4961-0.95312 4.9805-1.4062 7.4766-0.31641 1.7305-1.668 2.5977-2.4805 1.4766-1.832-2.6289-3.5039-5.3672-5.0078-8.1953-0.25781-0.46094 0.1875-1.3125 0.28125-1.8594zm5.543 1.3281c-2.6484 0.60156-2.8828 1.582-1.7266 3.043l0.003906 0.003906c0.37891 0.32031 0.79297 0.58984 1.2383 0.80469z"/>
  <path d="m349.45 282.54 1.2734-35.492v0.003906c1.5039 11.75 1.3984 23.652-0.31641 35.375z"/>
  <path d="m396.47 286.6c0.22656-10.66 0.90234-13.438 3.5156-14.922l0.003906-0.003906c0.054688 5.1875-1.1523 10.309-3.5195 14.926z"/>
  <path d="m355.73 256.43c-0.85547-7.2266-0.19141-14.551 1.9492-21.508l1.0117 0.12891z"/>
  <path d="m347.74 349.39c-1.5547-3-1.4727-6.582 0.21484-9.5078l1.0078 0.039062c-0.17578 1.5078-0.47266 3.0117-0.49609 4.5234-0.027344 1.6445 0.19141 3.293 0.30469 4.9375z"/>
  <path d="m349.5 315.22-0.5625 5.7305c-2.3594-1.207-1.5273-2.9727-1.5234-4.3945 0.003906-0.54688 0.86719-1.0898 1.3359-1.6328z"/>
  <path d="m354 246.66 0.46484-7.1367 1.0195 0.089843-0.55078 7.125z"/>
  <path d="m397.93 185.22c1.9297 0.68359 3.0977 2.6484 2.7695 4.6719-1.6016-1.043-2.625-2.7695-2.7695-4.6719z"/>
  <path d="m315.04 326.79c-1.918 0.55859-2.4961-1.2891-3.4492-1.8945v-12.062c4.8242 1.2227 7.543 5.0508 11.375 7.1719-0.83594 2.3047-2.6953 1.8398-4.0703 2.0664-3.3711 0.55078-3.3789 0.45313-3.3828 3.8867-0.003906 0.23438-0.25781 0.46875-0.47266 0.83203zm-0.69531-9.6992c0.28516 3.9453 0.28516 3.9453 3.7266 2.3711z"/>
  <path d="m318.57 279.08c-2.7305-2.0625-5.0078-4.668-6.6914-7.6523-0.94141-1.5391-0.23438-2.9609 1.7773-3.457l0.003906 0.003906c2.7383-0.6875 5.5234-1.1523 8.3359-1.3945 2.4023-0.19531 3.2031 1.4023 1.9492 3.5781-1.6211 2.7969-3.332 5.5391-5.375 8.9219zm2.5938-10.309c-2.8828 0.48438-5.2734-0.64453-7.1953 1.9258l4.1836 4.8867z"/>
  <path d="m319.79 300.71-1.4883-4.1172c2.293-3.0703 5.7617-5.0547 9.5742-5.4766 3.0117 3.2969 1.1719 7.7031 2.543 11.957h-0.003907c-3.5938-0.53125-7.1445-1.3203-10.625-2.3633zm7.9531-0.99609-0.96875-6.0508c-2.7344 0.50781-4.6406 1.168-5.5742 3.3516 1.3516 2.418 3.5234 2.3867 6.543 2.6992z"/>
  <path d="m294.75 298.95c0.37891-2.5742 1.7891-4.8789 3.9062-6.3867 1.2773-0.88672 2.4023-1.9922 3.6797-2.875 1.1758-0.8125 3.2812-0.12891 2.9922 0.88672-1.0078 3.5156 1.6094 5.8242 2.4141 8.7109 0.097656 0.35156-0.13672 0.79297-0.20313 1.1406h-0.003906c-3.0195 0.33984-6.0586 0.51562-9.1016 0.53125-1.2227-0.046875-2.3984-1.2695-3.6836-2.0078zm9.8828-0.82422-2.2578-4.6992c-3.0273 0.36719-4.0117 2.1523-4.6172 4.6992z"/>
  <path d="m293.06 264.46c3.3047 2.1719 7.6875 2.5742 8.9297 6.8711l-8.4961 5.8203c-1.0117-4.1562-1.1562-8.4766-0.43359-12.691zm5.9258 6.0781-4.3281-2.3984 0.53906 4.1875z"/>
  <path d="m333.32 229.37-2.4062 10.074c-2.9531-0.97266-4.5625-2.9141-7.7344-9.2578 3.0898-1.7695 6.8086-2.0703 10.141-0.81641zm-6.2852 1.875-0.76562 1.2812 3.0859 2.4336 1.2852-3.7188z"/>
  <path d="m287.07 249.49 6.7031-5.5c1.6562 2.8711 3.1758 5.3359 4.4609 7.9141 0.19141 0.38281-0.72266 1.9062-1.1055 1.8984h0.003906c-2.543-0.003906-5.0742-0.24219-7.5703-0.71094-0.90625-0.1875-1.6133-1.4453-2.3555-2.2617-0.15234-0.16406-0.070312-0.53906-0.13672-1.3398zm5.3984-2.0039-2.8516 2.5469 5.75 1.9453z"/>
  <path d="m309.33 203.77c-3.2422-0.94531-5.3477-1.6406-7.4961-2.1641-2.1367-0.51953-2.5898-1.8711-2.2969-3.1758l6.6992-6.6406zm-4.3359-6.0273-1.1211 0.23437 0.003906-0.003906c0.09375 0.66016 0.23828 1.3125 0.42969 1.9492 0.035156 0.09375 0.73437-0.054687 1.1289-0.089844z"/>
  <path d="m316.32 240.52-9.1953 4.9805c0.33984-3.8906-2.0352-6.6719-0.48438-10.262 1.6719 0.89844 3.1758 1.8281 4.7773 2.5273 1.625 0.70703 3.3477 1.1875 5.0312 1.7656z"/>
  <path d="m323.52 213.15-5.7266 5.6328c-2.3125-3.0156-3.5703-6.7031-3.582-10.5z"/>
  <path d="m293.45 214.81c3.2812 0.078125 6.4102 1.3984 8.75 3.6992-1.4727 1.8477-3.0391 3.6211-4.6914 5.3125-0.82031 0.28125-1.7227 0.14844-2.4219-0.35938-1.5977-2.582-2.1797-5.6641-1.6367-8.6523zm4.6172 4.5234-0.23828-1.0859c-0.62891 0.24219-1.2617 0.47266-1.8672 0.76172v0.003906c0.023437 0.24219 0.089843 0.48438 0.19141 0.70703 0.64453-0.09375 1.2773-0.24609 1.9141-0.38672z"/>
  <path d="m320.38 131.99c0.72656 1.0859 1.3164 2.2539 1.7578 3.4844 1.9141 6.7148 4.8125 13.105 8.6016 18.969 3.1055 5.4336 6.4219 10.758 9.2812 16.316 2.0039 3.8984 3.4062 8.1055 5.043 12.188 0.066406 0.17188-0.20703 0.48047-0.60938 1.3242h-0.003906c-0.80859-0.98047-1.5078-2.0469-2.082-3.1797-4.2969-10.074-9.3438-19.812-15.098-29.133-2.3945-4.4805-4.2656-9.25-6.2695-13.93-0.74609-1.7461-1.1914-3.6211-1.7773-5.4336z"/>
  <path d="m331.05 105.21c7.9453 14.652 15.891 29.301 23.84 43.953-4.3047-2.875-23.656-38.301-23.84-43.953z"/>
  <path d="m337.11 97.582c7.8047 13.141 13.605 27.395 23.031 40.598-2.1055-0.054688-3.9492-1.4297-4.6055-3.4336-4.0508-7.1719-8.043-14.379-11.98-21.621-2.1758-3.9961-4.2422-8.0508-6.3086-12.102-0.4375-0.98438-0.82031-1.9883-1.1445-3.0156z"/>
  <path d="m377.52 89.426-10.406-20.836 0.92578-0.46875c3.9336 6.7109 7.457 13.652 10.547 20.793z"/>
  <path d="m382.88 80.125c-0.42188 0.019531-0.97656 0.21484-1.1758 0.027344h-0.003906c-3.3008-5.3359-5.8281-11.113-7.5117-17.16 3.5938 5.3281 6.5117 11.086 8.6914 17.133z"/>
  <path d="m402.28 66.352c1.7773 1.4336 2.3203 3.9102 1.3008 5.9531-1.8281-1.7695-1.3945-3.8164-1.6719-5.625z"/>
 </g>
</svg>
