<?xml version="1.0" encoding="UTF-8"?>
<svg width="700pt" height="700pt" version="1.1" viewBox="0 0 700 700" xmlns="http://www.w3.org/2000/svg" xmlns:xlink="http://www.w3.org/1999/xlink">
 <defs>
  <symbol id="w" overflow="visible">
   <path d="m18.766-1.125c-0.96875 0.5-1.9805 0.875-3.0312 1.125-1.043 0.25781-2.1367 0.39062-3.2812 0.39062-3.3984 0-6.0898-0.94531-8.0781-2.8438-1.9922-1.9062-2.9844-4.4844-2.9844-7.7344 0-3.2578 0.99219-5.8359 2.9844-7.7344 1.9883-1.9062 4.6797-2.8594 8.0781-2.8594 1.1445 0 2.2383 0.13281 3.2812 0.39062 1.0508 0.25 2.0625 0.625 3.0312 1.125v4.2188c-0.98047-0.65625-1.9453-1.1406-2.8906-1.4531-0.94922-0.3125-1.9492-0.46875-3-0.46875-1.875 0-3.3516 0.60547-4.4219 1.8125-1.0742 1.1992-1.6094 2.8555-1.6094 4.9688 0 2.1055 0.53516 3.7617 1.6094 4.9688 1.0703 1.1992 2.5469 1.7969 4.4219 1.7969 1.0508 0 2.0508-0.14844 3-0.45312 0.94531-0.3125 1.9102-0.80078 2.8906-1.4688z"/>
  </symbol>
  <symbol id="b" overflow="visible">
   <path d="m13.734-11.141c-0.4375-0.19531-0.87109-0.34375-1.2969-0.4375-0.41797-0.10156-0.83984-0.15625-1.2656-0.15625-1.2617 0-2.2305 0.40625-2.9062 1.2188-0.67969 0.80469-1.0156 1.9531-1.0156 3.4531v7.0625h-4.8906v-15.312h4.8906v2.5156c0.625-1 1.3438-1.7266 2.1562-2.1875 0.82031-0.46875 1.8008-0.70312 2.9375-0.70312 0.16406 0 0.34375 0.011719 0.53125 0.03125 0.19531 0.011719 0.47656 0.039062 0.84375 0.078125z"/>
  </symbol>
  <symbol id="a" overflow="visible">
   <path d="m17.641-7.7031v1.4062h-11.453c0.125 1.1484 0.53906 2.0078 1.25 2.5781 0.70703 0.57422 1.7031 0.85938 2.9844 0.85938 1.0312 0 2.082-0.14844 3.1562-0.45312 1.082-0.3125 2.1914-0.77344 3.3281-1.3906v3.7656c-1.1562 0.4375-2.3125 0.76562-3.4688 0.98438-1.1562 0.22656-2.3125 0.34375-3.4688 0.34375-2.7734 0-4.9297-0.70312-6.4688-2.1094-1.5312-1.4062-2.2969-3.3789-2.2969-5.9219 0-2.5 0.75391-4.4609 2.2656-5.8906 1.5078-1.4375 3.582-2.1562 6.2188-2.1562 2.4062 0 4.332 0.73047 5.7812 2.1875 1.4453 1.4492 2.1719 3.3828 2.1719 5.7969zm-5.0312-1.625c0-0.92578-0.27344-1.6719-0.8125-2.2344-0.54297-0.57031-1.25-0.85938-2.125-0.85938-0.94922 0-1.7188 0.26562-2.3125 0.79688s-0.96484 1.2969-1.1094 2.2969z"/>
  </symbol>
  <symbol id="e" overflow="visible">
   <path d="m9.2188-6.8906c-1.0234 0-1.793 0.17188-2.3125 0.51562-0.51172 0.34375-0.76562 0.85547-0.76562 1.5312 0 0.625 0.20703 1.1172 0.625 1.4688 0.41406 0.34375 0.98828 0.51562 1.7188 0.51562 0.92578 0 1.7031-0.32812 2.3281-0.98438 0.63281-0.66406 0.95312-1.4922 0.95312-2.4844v-0.5625zm7.4688-1.8438v8.7344h-4.9219v-2.2656c-0.65625 0.92969-1.3984 1.6055-2.2188 2.0312-0.82422 0.41406-1.8242 0.625-3 0.625-1.5859 0-2.8711-0.45703-3.8594-1.375-0.99219-0.92578-1.4844-2.1289-1.4844-3.6094 0-1.7891 0.61328-3.1016 1.8438-3.9375 1.2383-0.84375 3.1797-1.2656 5.8281-1.2656h2.8906v-0.39062c0-0.76953-0.30859-1.332-0.92188-1.6875-0.61719-0.36328-1.5703-0.54688-2.8594-0.54688-1.0547 0-2.0312 0.10547-2.9375 0.3125-0.89844 0.21094-1.7305 0.52344-2.5 0.9375v-3.7344c1.0391-0.25 2.0859-0.44141 3.1406-0.57812 1.0625-0.13281 2.125-0.20312 3.1875-0.20312 2.7578 0 4.75 0.54688 5.9688 1.6406 1.2266 1.0859 1.8438 2.8555 1.8438 5.3125z"/>
  </symbol>
  <symbol id="c" overflow="visible">
   <path d="m7.7031-19.656v4.3438h5.0469v3.5h-5.0469v6.5c0 0.71094 0.14062 1.1875 0.42188 1.4375s0.83594 0.375 1.6719 0.375h2.5156v3.5h-4.1875c-1.9375 0-3.3125-0.39844-4.125-1.2031-0.80469-0.8125-1.2031-2.1797-1.2031-4.1094v-6.5h-2.4219v-3.5h2.4219v-4.3438z"/>
  </symbol>
  <symbol id="k" overflow="visible">
   <path d="m12.766-13.078v-8.2031h4.9219v21.281h-4.9219v-2.2188c-0.66797 0.90625-1.4062 1.5703-2.2188 1.9844s-1.7578 0.625-2.8281 0.625c-1.8867 0-3.4336-0.75-4.6406-2.25-1.2109-1.5-1.8125-3.4258-1.8125-5.7812 0-2.3633 0.60156-4.2969 1.8125-5.7969 1.207-1.5 2.7539-2.25 4.6406-2.25 1.0625 0 2 0.21484 2.8125 0.64062 0.82031 0.42969 1.5664 1.0859 2.2344 1.9688zm-3.2188 9.9219c1.0391 0 1.8359-0.37891 2.3906-1.1406 0.55078-0.76953 0.82812-1.8828 0.82812-3.3438 0-1.457-0.27734-2.5664-0.82812-3.3281-0.55469-0.76953-1.3516-1.1562-2.3906-1.1562-1.043 0-1.8398 0.38672-2.3906 1.1562-0.55469 0.76172-0.82812 1.8711-0.82812 3.3281 0 1.4609 0.27344 2.5742 0.82812 3.3438 0.55078 0.76172 1.3477 1.1406 2.3906 1.1406z"/>
  </symbol>
  <symbol id="j" overflow="visible">
   <path d="m10.5-3.1562c1.0508 0 1.8516-0.37891 2.4062-1.1406 0.55078-0.76953 0.82812-1.8828 0.82812-3.3438 0-1.457-0.27734-2.5664-0.82812-3.3281-0.55469-0.76953-1.3555-1.1562-2.4062-1.1562-1.0547 0-1.8594 0.38672-2.4219 1.1562-0.55469 0.77344-0.82812 1.8828-0.82812 3.3281 0 1.4492 0.27344 2.5586 0.82812 3.3281 0.5625 0.77344 1.3672 1.1562 2.4219 1.1562zm-3.25-9.9219c0.67578-0.88281 1.4219-1.5391 2.2344-1.9688 0.82031-0.42578 1.7656-0.64062 2.8281-0.64062 1.8945 0 3.4453 0.75 4.6562 2.25 1.207 1.5 1.8125 3.4336 1.8125 5.7969 0 2.3555-0.60547 4.2812-1.8125 5.7812-1.2109 1.5-2.7617 2.25-4.6562 2.25-1.0625 0-2.0078-0.21094-2.8281-0.625-0.8125-0.42578-1.5586-1.0859-2.2344-1.9844v2.2188h-4.8906v-21.281h4.8906z"/>
  </symbol>
  <symbol id="i" overflow="visible">
   <path d="m0.34375-15.312h4.8906l4.125 10.391 3.5-10.391h4.8906l-6.4375 16.766c-0.64844 1.6953-1.4023 2.8828-2.2656 3.5625-0.86719 0.6875-2 1.0312-3.4062 1.0312h-2.8438v-3.2188h1.5312c0.83203 0 1.4375-0.13672 1.8125-0.40625 0.38281-0.26172 0.67969-0.73047 0.89062-1.4062l0.14062-0.42188z"/>
  </symbol>
  <symbol id="h" overflow="visible">
   <path d="m14.953-3.7188h-8.2188l-1.3125 3.7188h-5.2812l7.5625-20.406h6.2656l7.5625 20.406h-5.2812zm-6.9062-3.7812h5.5781l-2.7812-8.125z"/>
  </symbol>
  <symbol id="v" overflow="visible">
   <path d="m2.3594-21.281h4.8906v21.281h-4.8906z"/>
  </symbol>
  <symbol id="u" overflow="visible">
   <path d="m6.2188-7.8281-5.5156-7.4844h5.1719l3.1406 4.5312 3.1719-4.5312h5.1719l-5.5156 7.4531 5.7969 7.8594h-5.1875l-3.4375-4.8438-3.4062 4.8438h-5.1875z"/>
  </symbol>
  <symbol id="t" overflow="visible">
   <path d="m2.5781-20.406h6.6875l4.6562 10.922 4.6719-10.922h6.6875v20.406h-4.9844v-14.938l-4.7031 11.016h-3.3281l-4.7031-11.016v14.938h-4.9844z"/>
  </symbol>
  <symbol id="g" overflow="visible">
   <path d="m2.1875-5.9688v-9.3438h4.9219v1.5312c0 0.83594-0.007813 1.875-0.015625 3.125-0.011719 1.25-0.015625 2.0859-0.015625 2.5 0 1.2422 0.03125 2.1328 0.09375 2.6719 0.070313 0.54297 0.17969 0.93359 0.32812 1.1719 0.20703 0.32422 0.47266 0.57422 0.79688 0.75 0.32031 0.16797 0.69141 0.25 1.1094 0.25 1.0195 0 1.8203-0.39062 2.4062-1.1719 0.58203-0.78125 0.875-1.8672 0.875-3.2656v-7.5625h4.8906v15.312h-4.8906v-2.2188c-0.74219 0.89844-1.5234 1.5586-2.3438 1.9844-0.82422 0.41406-1.7344 0.625-2.7344 0.625-1.7617 0-3.1055-0.53906-4.0312-1.625-0.92969-1.082-1.3906-2.6602-1.3906-4.7344z"/>
  </symbol>
  <symbol id="f" overflow="visible">
   <path d="m0.42188-15.312h4.8906l3.8281 10.578 3.7969-10.578h4.9062l-6.0312 15.312h-5.375z"/>
  </symbol>
  <symbol id="s" overflow="visible">
   <path d="m12.422-21.281v3.2188h-2.7031c-0.6875 0-1.1719 0.125-1.4531 0.375-0.27344 0.25-0.40625 0.6875-0.40625 1.3125v1.0625h4.1875v3.5h-4.1875v11.812h-4.8906v-11.812h-2.4375v-3.5h2.4375v-1.0625c0-1.6641 0.46094-2.8984 1.3906-3.7031 0.92578-0.80078 2.3672-1.2031 4.3281-1.2031z"/>
  </symbol>
  <symbol id="d" overflow="visible">
   <path d="m9.6406-12.188c-1.0859 0-1.9141 0.39062-2.4844 1.1719-0.57422 0.78125-0.85938 1.9062-0.85938 3.375s0.28516 2.5938 0.85938 3.375c0.57031 0.77344 1.3984 1.1562 2.4844 1.1562 1.0625 0 1.875-0.38281 2.4375-1.1562 0.57031-0.78125 0.85938-1.9062 0.85938-3.375s-0.28906-2.5938-0.85938-3.375c-0.5625-0.78125-1.375-1.1719-2.4375-1.1719zm0-3.5c2.6328 0 4.6914 0.71484 6.1719 2.1406 1.4766 1.418 2.2188 3.3867 2.2188 5.9062 0 2.5117-0.74219 4.4805-2.2188 5.9062-1.4805 1.418-3.5391 2.125-6.1719 2.125-2.6484 0-4.7148-0.70703-6.2031-2.125-1.4922-1.4258-2.2344-3.3945-2.2344-5.9062 0-2.5195 0.74219-4.4883 2.2344-5.9062 1.4883-1.4258 3.5547-2.1406 6.2031-2.1406z"/>
  </symbol>
  <symbol id="r" overflow="visible">
   <path d="m16.547-12.766c0.61328-0.94531 1.3477-1.6719 2.2031-2.1719 0.85156-0.5 1.7891-0.75 2.8125-0.75 1.7578 0 3.0977 0.54688 4.0156 1.6406 0.92578 1.0859 1.3906 2.6562 1.3906 4.7188v9.3281h-4.9219v-7.9844-0.35938c0.007813-0.13281 0.015625-0.32031 0.015625-0.5625 0-1.082-0.16406-1.8633-0.48438-2.3438-0.3125-0.48828-0.82422-0.73438-1.5312-0.73438-0.92969 0-1.6484 0.38672-2.1562 1.1562-0.51172 0.76172-0.77344 1.8672-0.78125 3.3125v7.5156h-4.9219v-7.9844c0-1.6953-0.14844-2.7852-0.4375-3.2656-0.29297-0.48828-0.8125-0.73438-1.5625-0.73438-0.9375 0-1.6641 0.38672-2.1719 1.1562-0.51172 0.76172-0.76562 1.8594-0.76562 3.2969v7.5312h-4.9219v-15.312h4.9219v2.2344c0.60156-0.86328 1.2891-1.5156 2.0625-1.9531 0.78125-0.4375 1.6406-0.65625 2.5781-0.65625 1.0625 0 2 0.25781 2.8125 0.76562 0.8125 0.51172 1.4258 1.2305 1.8438 2.1562z"/>
  </symbol>
  <symbol id="q" overflow="visible">
   <path d="m17.75-9.3281v9.3281h-4.9219v-7.1094c0-1.3438-0.03125-2.2656-0.09375-2.7656s-0.16797-0.86719-0.3125-1.1094c-0.1875-0.3125-0.44922-0.55469-0.78125-0.73438-0.32422-0.17578-0.69531-0.26562-1.1094-0.26562-1.0234 0-1.8242 0.39844-2.4062 1.1875-0.58594 0.78125-0.875 1.8711-0.875 3.2656v7.5312h-4.8906v-21.281h4.8906v8.2031c0.73828-0.88281 1.5195-1.5391 2.3438-1.9688 0.83203-0.42578 1.75-0.64062 2.75-0.64062 1.7695 0 3.1133 0.54688 4.0312 1.6406 0.91406 1.0859 1.375 2.6562 1.375 4.7188z"/>
  </symbol>
  <symbol id="p" overflow="visible">
   <path d="m2.5781-20.406h5.875l7.4219 14v-14h4.9844v20.406h-5.875l-7.4219-14v14h-4.9844z"/>
  </symbol>
  <symbol id="o" overflow="visible">
   <path d="m17.75-9.3281v9.3281h-4.9219v-7.1406c0-1.3203-0.03125-2.2344-0.09375-2.7344s-0.16797-0.86719-0.3125-1.1094c-0.1875-0.3125-0.44922-0.55469-0.78125-0.73438-0.32422-0.17578-0.69531-0.26562-1.1094-0.26562-1.0234 0-1.8242 0.39844-2.4062 1.1875-0.58594 0.78125-0.875 1.8711-0.875 3.2656v7.5312h-4.8906v-15.312h4.8906v2.2344c0.73828-0.88281 1.5195-1.5391 2.3438-1.9688 0.83203-0.42578 1.75-0.64062 2.75-0.64062 1.7695 0 3.1133 0.54688 4.0312 1.6406 0.91406 1.0859 1.375 2.6562 1.375 4.7188z"/>
  </symbol>
  <symbol id="n" overflow="visible">
   <path d="m2.5781-20.406h8.7344c2.5938 0 4.582 0.57812 5.9688 1.7344 1.3945 1.1484 2.0938 2.7891 2.0938 4.9219 0 2.1367-0.69922 3.7812-2.0938 4.9375-1.3867 1.1562-3.375 1.7344-5.9688 1.7344h-3.4844v7.0781h-5.25zm5.25 3.8125v5.7031h2.9219c1.0195 0 1.8047-0.25 2.3594-0.75 0.5625-0.5 0.84375-1.2031 0.84375-2.1094 0-0.91406-0.28125-1.6172-0.84375-2.1094-0.55469-0.48828-1.3398-0.73438-2.3594-0.73438z"/>
  </symbol>
  <symbol id="m" overflow="visible">
   <path d="m2.3594-15.312h4.8906v15.031c0 2.0508-0.49609 3.6172-1.4844 4.7031-0.98047 1.082-2.4062 1.625-4.2812 1.625h-2.4219v-3.2188h0.85938c0.92578 0 1.5625-0.21094 1.9062-0.625 0.35156-0.41797 0.53125-1.2461 0.53125-2.4844zm0-5.9688h4.8906v4h-4.8906z"/>
  </symbol>
  <symbol id="l" overflow="visible">
   <path d="m14.719-14.828v3.9844c-0.65625-0.45703-1.3242-0.79688-2-1.0156-0.66797-0.21875-1.3594-0.32812-2.0781-0.32812-1.3672 0-2.4336 0.40234-3.2031 1.2031-0.76172 0.79297-1.1406 1.9062-1.1406 3.3438 0 1.4297 0.37891 2.543 1.1406 3.3438 0.76953 0.79297 1.8359 1.1875 3.2031 1.1875 0.75781 0 1.4844-0.10938 2.1719-0.32812 0.6875-0.22656 1.3203-0.56641 1.9062-1.0156v4c-0.76172 0.28125-1.5391 0.48828-2.3281 0.625-0.78125 0.14453-1.5742 0.21875-2.375 0.21875-2.7617 0-4.9219-0.70703-6.4844-2.125-1.5547-1.4141-2.3281-3.3828-2.3281-5.9062 0-2.5312 0.77344-4.5039 2.3281-5.9219 1.5625-1.4141 3.7227-2.125 6.4844-2.125 0.80078 0 1.5938 0.074219 2.375 0.21875 0.78125 0.13672 1.5547 0.35156 2.3281 0.64062z"/>
  </symbol>
 </defs>
 <g>
  <path d="m458.12 320.35c-2.5781 10.602-5.0664 21.223-7.7578 31.793-2.4297 9.5547-4.4883 19.258-7.7656 28.523-4.2656 12.383-9.2539 24.508-14.941 36.305-3.3281 5.6758-4.3516 12.414-2.8594 18.824 5.5039 21.461 11.887 42.777 15.812 64.531 2.2227 12.316 5.75 25.445 0.082031 40.172-1.5391-1.793-2.7305-3.8516-3.5156-6.082 0.32422-20.227-8.7188-38.391-12.473-57.699-1.4102-7.2578-2.207-14.656-4.0234-21.805-3.5273-13.879-7.5742-27.625-11.406-41.426-1.0391-3.7461-4.1523-7.4023 0.10156-11.297l0.003906 0.003906c0.47266-1.4766 0.45703-3.0703-0.039062-4.5391-1.8789-13.84-3.7305-27.684-5.8008-41.492h-0.003907c-0.69141-2.4883-1.6562-4.8906-2.8672-7.168-18.793 5.7617-39.055 4.3867-56.895-3.8672-10.07-4.2617-19.254-10.375-27.07-18.023l1.0234-2.5c10.824 2.207 21.562 5.1875 32.5 6.4062 11.32 1.2617 22.832 0.8125 35.363 1.1406v-0.003906c-0.17969-2.418-0.83594-4.7773-1.9375-6.9375-5.4062-6.7031-11.141-13.168-17.059-19.43-10.145-10.73-20.574-21.191-30.773-31.871-3.3711-3.5273-6.3984-7.3867-10.277-11.895-7.3125 8.1367-15.629 8.1758-23.855 8.1953v-0.003907c-20.973 0.57812-41.48 6.3008-59.719 16.668-1.0508 0.074219-2.1055-0.0625-3.1016-0.39453 1.8789-10.324 9.9062-16.516 15.676-24.031 6.0352-7.8555 15.105-10.922 23.82-14.703 9.9297-4.3086 19.148 0.92188 29.906-0.15234-3.793-3.3867-7.3594-7.0664-11.418-10.094-8.2461-6.1484-16.965-11.672-25.102-17.953v-0.003906c-10.652-8.3789-23.559-13.395-37.07-14.414 3.0859 3.7305 5.3711 6.1211 7.2188 8.8086h0.003906c3.6758 4.8516 6.9414 10 9.7695 15.395 2.4727 4.5781 1.2656 10.273-2.8555 13.453-4.0352 3.1875-9.707 3.2656-13.828 0.19141-2.8164-1.5977-5.332-3.7227-8.6953-6.1133-3.0352 5.8906-5.6016 11.781-8.9805 17.16-2.9883 4.7578-6.4062 10.891-13.348 8.2422-6.4961-2.4766-6.2773-9.2148-5.7383-14.965 0.66797-7.1055 2.1172-14.141 3.2305-21.207l-2.4688-1.2383c-3.043 3.0898-6.168 6.1055-9.1133 9.2852h0.003906c-5.4688 6.2266-12.625 10.734-20.602 12.973-8.5781 2.2773-14.109-1.6797-13.082-10.523 1.0156-4.7383 2.9805-9.2266 5.7734-13.188 2.6289-3.6602 5.5312-7.1172 8.6836-10.34-5.9375-1.7656-9.8633-2.5742-13.48-4.1094h0.003907c-3.4336-1.2188-6.5898-3.1016-9.2891-5.5469-10.133-10.656-7.7266-21.504 5.7188-27.191 2.8906-1.2227 5.9141-2.1328 10.672-3.8242h-0.003906c-4.4648-3.707-8.6914-7.6914-12.66-11.926-8.6328-10.555-5.3945-19.469 7.6367-22.449v-0.003906c2.7617-0.16016 5.3906-1.2227 7.4844-3.0273 5.8867-10.598 13.973-7.7305 23.145-3.7539h0.003907c0.34375-4.1133 0.90234-8.207 1.668-12.262 1.8984-7.8633 7.6172-9.6875 13.613-4.1602 3.1797 3.3867 6.1055 6.9961 8.7578 10.809 1.3711-1.7266 2.3672-2.8984 3.2812-4.1367 2.7891-3.7891 4.5625-11.449 9.8984-8.9453v-0.003906c5.7539 3.6367 10.566 8.5859 14.043 14.438 1.0547 3.0352 1.3867 6.2734 0.97266 9.4609 16.168 1.8477 17.816 5.4023 12.516 27.262 9.0469 2.6016 16.082 9.7383 18.555 18.82 2.2578 10.031 1.7539 19.145-10.902 24.188 3.4531 2.7617 5.6992 4.9062 8.2617 6.5508 21.949 14.602 42.453 31.266 61.234 49.766 4.4492 4.2383 8.1641 9.2383 12.352 13.762 5.2461 6.3242 10.941 12.258 17.047 17.754 14.215 11.445 27.648 23.266 32.965 41.844l2.207-1.0117c-3.5586-10.488-7.0469-21-10.711-31.445-1.2227-3.4844-3.2422-6.7109-4.3047-10.234-0.79297-3.5859-2.8047-6.7852-5.6953-9.0547-2.8867-2.2734-6.4688-3.4727-10.141-3.3984-12.98-1.5469-24.406-9.2891-30.652-20.773-10.352-15.398-17.719-32.602-21.719-50.719-0.16016-2.125-0.17187-4.2578-0.035156-6.3828 2.3125 1.4648 4.5156 3.0977 6.5859 4.8867 8.5156 8.9375 16.379 18.574 25.484 26.848 10.066 8.6172 17.133 20.207 20.184 33.102 0.83984 3.6992 0.47266 8.8203 8.6641 7.6914-1.8555-5.5117-3.3203-10.793-5.3945-15.824-4.6797-11.367-9.5586-22.656-14.547-33.891h0.003906c-8.0234-18.648-10.215-39.285-6.2891-59.203 0.39844-2.3281 0.70313-4.6758 1.1406-7.6055-7.0469 1.8242-13.152 3.875-19.422 4.8984v0.003907c-6.2266 1.7969-12.855-1.0938-15.773-6.8828-1.8242-3.0234-2.7109-6.5234-2.5469-10.051 0.16016-3.5312 1.3633-6.9336 3.4531-9.7812 2.9102-3.8906 6.3398-7.3945 9.6875-11.242-5.2188 0.52734-10.465 0.71875-15.707 0.58203-13.223-1.1406-22.707-11.648-20.918-22.539v-0.003906c1.2422-5.7109 4.7578-10.672 9.7383-13.738 4.9805-3.0625 10.992-3.9648 16.652-2.5 7.5312 1.5508 14.781 4.4648 22.855 5.4102-6.7148-3.375-13.488-6.6367-20.121-10.156l-0.003906-0.003906c-4.8008-2.2969-9.3867-5.0195-13.707-8.1328-5.3398-4.1016-8.332-10.555-8.0078-17.281 0.26953-10.469 5.832-16.777 16.172-15.91 7.6523 1.3203 15.164 3.3438 22.441 6.0469-0.23438-3.7969-0.19531-7.6055 0.10938-11.395 0.6875-4.9844 2.4922-10.793 7.9492-11.199 4.793-0.19922 9.4727 1.4961 13.023 4.7188 3.6836 4.9141 6.707 10.289 9 15.984 1.793-3.6094 3.4102-7.3633 5.4648-10.859 1.9648-3.6094 4.3008-7.0078 6.9688-10.141 7.8047-8.5469 12.898-7.6133 19.762 3.832h0.003906c1.8047-0.51953 3.6406-0.91016 5.5-1.1719 8.5039-0.67578 12.773 2.2422 13.355 10.523h0.003906c0.054688 6.7969-0.33203 13.594-1.1523 20.34 13.703 4.3203 5.7344 14.555 4.5625 23.605 4.7148 5.1016 14.734 8.125 12.457 16.332-1.625 5.8555-8.5391 10.246-14.383 16.723 1.1719 3.0703 1.3828 6.4258 0.59766 9.6211-0.78125 3.1953-2.5195 6.0742-4.9805 8.2539-2.4609 3.1016-5.7617 5.4336-9.5117 6.7188-3.7461 1.2812-7.7852 1.4648-11.633 0.52344 10.035 18.434-1.5391 32.219-8.5234 45.684v0.003906c-7.1641 14.355-10.766 30.23-10.5 46.273-0.26562 16.906 3.0547 33.68 9.7422 49.211 6.6055 15.414 12.195 31.266 18.883 48.613 4.5547-10.348 6.7617-21.574 6.4609-32.875-0.125-5.2812 0.53906-10.555 1.9727-15.641 6.0312-17.883 12.688-35.559 19.445-54.238-8.6719-9.625-8.3516-21.469-5.4141-34.062 2.7031-11.594 4.3828-23.426 6.5586-35.145h-0.003906c0.45312-6.4492 3.3477-12.48 8.0977-16.863-0.54687 10.031-0.45703 20.086 0.26953 30.105 2.0156 10.754 4.6328 21.383 7.8438 31.84 6.5742-9.3398 12.305-17.984 18.555-26.227h0.003907c6.6016-7.918 10.688-17.629 11.727-27.887 0.48438-6.082 4.7344-11.867 7.6562-18.629-4.9883 0.44141-9.375 0.89453-13.77 1.1953h-0.003907c-2.457 0.26953-4.9336 0.28906-7.3945 0.066406-5.5391-0.73828-11.66-2.7969-11.938-8.6641v0.003906c0.74609-4.7109 3.0273-9.043 6.4922-12.324 2.5938-1.9414 5.5508-3.3438 8.6953-4.125-3.9141-5.0352-7.1602-10.559-9.6562-16.43-0.85547-6.793-0.83203-13.672 0.066407-20.461 6.1836 2.9258 10.102 4.4883 13.715 6.5742 3.4062 1.9688 6.4883 4.4922 11.414 7.9766-0.87109-6.7109-1.4219-11.137-2.0273-15.555v0.003906c-0.90234-3.5859-1.375-7.2656-1.4102-10.961-0.14453-4.7617 1.25-9.4453 3.9766-13.355 4.168-3.543 9.0234 0.86719 13.008 3.7852 0.94922 0.69531 2.0234 1.2148 3.6328 2.1641l-0.003906-0.003906c1.9844-3.5352 4.1484-6.9609 6.4922-10.27 1.2305-2.5156 3.8359-4.0664 6.6328-3.9453 2.8008 0.12109 5.2617 1.8906 6.2695 4.5039 2.1406 3.4844 3.2852 7.4844 3.3125 11.57-0.28906 7.707-1.8477 15.367-2.9297 23.422 4.1602-3.8828 8.5859-7.4727 13.246-10.738 4.0391-2.4883 9.0078-5.1094 13.656-0.79297 4.4219 4.1055 3.1445 8.9258 1.0039 13.652-1.6875 3.7188-3.4219 7.4102-5.4531 11.793 2.5703 1.6953 4.8281 3.2188 7.1211 4.6875 9.6602 6.1875 13.031 15.359 8.8477 24.137-3.2031 6.7188-15.086 10.711-24 7.6602-4.1953-1.4336-8.0938-3.7305-13.949-6.4961 1.2695 4.0352 1.8359 6.5469 2.8359 8.875 2.9258 6.7891 6.6523 13.297 8.8984 20.293h0.003906c1.5938 3.6328 1.8203 7.7227 0.64453 11.512-1.1758 3.793-3.6797 7.0312-7.0508 9.1289-6.4922 3.4805-13.156 1.1641-19.992-6.957-0.72266-0.70312-1.4922-1.3516-2.3047-1.9453-8.2227 5.1055-12.586 20.812-27.477 9.9102-17.328 23.473-32.84 48.234-46.406 74.062 18.5-8.9102 29.176-28.723 50.129-34.359 0.55859 1.1836 0.82812 2.4805 0.79297 3.7852-8.7383 15.773-16.723 32.074-26.809 46.945h-0.003906c-6.3047 8.5781-14.078 15.969-22.961 21.836-9.2617 5.8203-15.691 15.23-17.754 25.973-6.2773 27.863-1.0742 53.867 7.168 81.891v0.003907c3.8008-27.398 16.969-52.637 37.266-71.43zm-93.066-203.27c-5.0742-2.043-7.9961-2.9023-10.609-4.3281-10.762-5.8711-21.23-12.32-32.234-17.688-4.5312-1.8789-9.4336-2.6875-14.332-2.3633-3.7344-0.007813-7.3398 1.3984-10.082 3.9375-2.7422 2.5391-4.4219 6.0234-4.6992 9.75-0.19141 7.7969 5.9258 14.289 13.719 14.559 6.9102 0.21484 13.812-0.61719 20.477-2.4648 7.7852-2.832 16.094-3.9414 24.352-3.2539-4.3242 2.9414-6.5664 4.4062-8.7422 5.9609h-0.003906c-6.8711 4.4766-13.508 9.3008-19.883 14.461-7.7773 6.8672-8.7852 13.199-4.5625 19.473 3.2969 4.9023 11.047 5.9727 19.188 2.6211l0.003907 0.003906c0.75781-0.31641 1.4844-0.70312 2.1719-1.1602 14.57-9.6797 20.324-24.598 25.238-39.508zm-11.355-21.641c1.2109-16.688 2.6367-32.516 3.3008-48.379h-0.003906c-0.003906-4.0469-1.3203-7.9805-3.7578-11.215-2.2891-2.6133-5.5859-4.125-9.0586-4.1562-2.5781 1.707-4.1641 4.5586-4.2578 7.6445 0.625 6.8711 1.832 13.672 3.6094 20.336 1.4688 4.6875 3.2031 9.2852 5.1953 13.773-4.3008-2.3125-8.3828-5.0117-12.195-8.0625-2.8047-2.8281-3.9414-7.4648-6.9453-9.9062h-0.003906c-4.5391-3.9727-9.793-7.0469-15.477-9.0703-7.1484-2.1719-12.43 2.9102-13.16 10.574l0.003906-0.003906c-0.4375 3.7109 0.33203 7.4609 2.1836 10.703 1.8555 3.2422 4.7031 5.8047 8.1211 7.3086 11.879 6.4258 23.926 12.539 35.965 18.664h-0.003906c2.1016 0.79297 4.2734 1.3906 6.4805 1.7891zm23.832 25.738-0.003906-0.003906c1.8984 2.9375 4.1484 5.6289 6.707 8.0078 3.9023 2.8203 8.2461 4.9727 12.855 6.3672 5.1328 1.2266 14.27-7.0977 14.832-12.363 0.50391-4.7031-4.7344-9.3438-11.691-10.523-6.8438-1.1602-13.742-2.1328-20.473-3.7852h0.003906c-1.7031-0.84766-3.7344-0.70703-5.3047 0.36719-1.5703 1.0703-2.4414 2.9062-2.2734 4.8047 0.27734 3.6328-0.082031 7.2852-1.0625 10.797-6.5508 11.375-5.8438 23.809-6.1328 36.051v-0.003906c0.050781 4.0586 1.1914 8.0273 3.3008 11.496 1.2539 1.9297 3.2617 3.2383 5.5312 3.6133 2.2734 0.37109 4.5938-0.23047 6.3984-1.6562 6.9062-6.6523 9.8945-16.395 7.9219-25.777-1.9961-4.9219-4.5-9.6172-7.4805-14.016-3.5234-3.4883-4.7422-8.6875-3.1328-13.379zm-10.734-21.398c1.4609-0.59375 2.8086-1.4375 3.9727-2.5 7.5078-14.152 18.152-26.398 31.125-35.797 3.3633-2.4492 5.9297-5.8398 7.375-9.7383 1.4492-3.9023 1.7148-8.1445 0.76562-12.195 0.0625-2.582-1.4414-4.9453-3.8086-5.9844-2.3672-1.0352-5.125-0.54297-6.9805 1.2539-5.1641 3.4336-8.8477 8.6836-10.32 14.707-1.4766 4.5195-1.3164 10.711-9.7891 12.844 0.375-4.6367 1.1055-9.2383 2.1875-13.766 1.2422-3.8359 3.9336-7.1719 5.582-10.91 1.7734-4.0195 3.4922-8.3086-1.0195-11.766-17.695 6.9766-25.316 44.703-19.09 73.852zm-195.13 38.25c3.9766 4.293 7.8047 7.8789 10.961 11.98 3.0234 3.9258 9.7383 6.0547 7.6953 13.742-1.8359-0.34375-3.6055-0.98047-5.2422-1.8867-4.9375-4.207-9.6328-8.6953-14.062-13.438-5.1758-5.8125-11.164-7.2578-15.949-3.0156-3.5586 3.1523-2.6953 8.0898 2.4844 14.082 0.53906 0.62109 1.1445 1.1836 1.7422 1.75 14.645 13.98 33.078 20.125 52.574 25.375-6.0898-15.137-13.105-29.391-20.406-43.492l-0.003906 0.003906c-1.4844-2.4844-3.4375-4.6523-5.7539-6.3867-3.8398-3.1719-8-3.9648-14.039 1.2852zm51.074 56.684c3.7695 0.85937 7.8516 3.207 10.273 2.0586 5.6836-2.6992 9.3125 0.21094 13.621 2.4844 8.3672 4.4141 16.078 3.6367 20.055-1.7617v0.003906c1.5234-3.3516 2.0977-7.0586 1.6562-10.715-0.4375-3.6562-1.875-7.1211-4.1484-10.02-5.1328-6.0586-7.7852-6.0586-14.297-0.82031-3.4844 2.8008-5.4805 8.2852-13.203 7.3398 2.0977-3.5469 3.7773-6.0469 5.1094-8.7148 3.4531-6.9023 7.1367-13.73 9.9727-20.887h0.003906c1.2539-2.0391 1.418-4.5703 0.43359-6.7578-0.98438-2.1836-2.9922-3.7383-5.3516-4.1523-13.781 14.184-17.324 32.977-24.125 51.945zm-23.793-75.875c-5.4336 23.738 8.6719 41.16 18.23 60.984 9.9609-13.602 16.352-29.48 18.594-46.188 0.78125-6.5938-3.1094-12.852-9.3711-15.066-8.8359 12.223-9.0547 16.898-1.4844 23.516-1.7656 4.2695-3.4844 8.4336-5.9102 14.309-7.3086-13.617-7.3398-28.738-20.059-37.555zm314.79-8.2031c5.543 3.0352 10.055 5.9453 14.918 8.0234v-0.003906c3.6367 1.7344 7.5977 2.6875 11.625 2.8086 9.2266-0.23828 13.227-5.2227 11.68-13.262v-0.003907c-0.80078-3.3672-2.9805-6.2461-6.0078-7.9297-3.0273-1.6836-6.625-2.0156-9.9102-0.91406-2.7852 0.67969-5.625 1.1328-11.031 2.1992 7.7812-11.84 16.5-20.227 16.875-33.051-18.043 3.2812-31.012 23.426-28.148 42.133zm-136.49-10.715c20.254 11.734 38.586 10.691 48.02-2.1914-5.6836-8.9727-6.7656-9.4102-14.938-4.2539-4.1523 2.6211-7.9336 5.4648-14.543 1.2656 2.3828-2.4648 5.1055-4.5703 8.0859-6.2617 10.902-3.7969 11.559-12.309 11.508-23.664v0.003906c-4.1523 0.55469-8.168 1.875-11.84 3.8984-9.9414 9.3086-22.582 16.656-26.293 31.203zm84.895-21.301c-1.5977 15.012 1.3867 19.746 13.422 23.32 3.6602 1.0859 8.207 0.87891 10.113 6.8672-5.9883 1.1953-11.547 2.0391-16.949 3.4766h-0.003906c-3.5508 0.74609-6.918 2.1953-9.9023 4.2578-1.832 1.1367-2.7344 3.3164-2.2305 5.4102 0.5 2.0977 2.2891 3.6367 4.4336 3.8203 14.016 1.5625 27.797 1.1875 39.031-10-7.6523-17.352-21.254-27.852-37.914-37.152zm22.766-29.074c-4.832 19.391 4.625 49.059 18.91 54.91 3.6289-13 7.5703-25.922 10.734-39.035v0.003906c0.99219-5.2305 1.2617-10.57 0.79688-15.875-0.70703-2.3164-1.8633-4.4766-3.4023-6.3477-2.5 1.2734-4.6094 3.2031-6.1055 5.5781s-2.3203 5.1133-2.3906 7.918c-0.42578 5.7188-0.53125 11.457-0.3125 17.188 0.91797 6.0664-1.0195 12.219-5.2461 16.668-1.1328-2.957-1.9805-6.0156-2.5352-9.1367-0.30859-5.3281 0.03125-10.691-0.035157-16.035 0.40625-3.4453-0.41406-6.9219-2.3203-9.8164-1.9023-2.8984-4.7695-5.0273-8.0938-6.0195zm-2.7148 120.75c7.4609-4.375 13.445-10.879 17.195-18.672 2.6484-6.7891 4.7422-13.785 6.25-20.918 2.1367 1.2031 3.4609 3.4648 3.4648 5.918-1.1523 4.3516-1.7734 8.8203-1.8555 13.32 0.91016 5.0273 2.9844 9.7734 6.0586 13.859 2.6641 1.3594 5.8125 1.3984 8.5117 0.10938 2.375-4.0977 3.4102-8.8359 2.9648-13.555-2.8398-11.07-8.0547-21.387-15.277-30.246-11.277 12.402-20.699 26.371-27.977 41.469-0.16406 2.9219 0.058594 5.8516 0.66406 8.7148zm-277.77 31.551c-10.352-6.7422-19.086-12.074-27.418-17.973v-0.003907c-2.9141-2.2969-6.4023-3.7578-10.086-4.2305-3.6797-0.46875-7.4219 0.066407-10.824 1.5586-9.707 3.8867-11.402 11.867-3.6562 18.988 2.0898 1.9844 4.6758 3.3711 7.4883 4.0078 14.855 1.9023 29.93 1.1055 44.496-2.3477zm256.11 32.559-1.4336-2.6797c-3.3359 0.45703-6.5508 1.5508-9.4727 3.2227-8.1719 7.4258-16.055 15.227-23.469 23.406v0.003906c-5.9414 7.168-9.4336 16.051-9.9688 25.348 23.969-9.1602 34.59-28.855 44.344-49.305zm-103.07-16.137c5.9609-11.531 12.191-23.594 18.391-35.586-13.367-4.7539-15.055-7.7891-17.363-31.871-9.3047 18.066-9.5703 50.371-1.0273 67.457zm-97.395 49.637c1.1328 0.69531 2.3867 1.1719 3.6992 1.4023 16.199-1.6641 32.398-3.3516 48.562-5.3008v-0.003906c1.4883 0.125 2.9531-0.46484 3.9414-1.5859 0.98828-1.125 1.3906-2.6484 1.082-4.1133-7.4766-1.8555-14.383-3.1016-20.969-5.3086-6.2773-1.6055-12.875-1.5078-19.102 0.29297-6.2266 1.8008-11.859 5.2305-16.312 9.9414-0.60937 1.4844-0.91797 3.0742-0.90234 4.6758zm-55.676-59.898c-6.2695 2.5938-12.781 4.5547-19.438 5.8516-11.555 1.1602-16.652 9.5117-21.848 17.648-0.89062 3.7305-0.97266 7.6094-0.23828 11.375 21.344-4.1523 29.598-21.504 41.523-34.875zm121.67 23.508c8.875 25.105 21.199 39.855 34.703 41.453-1.7383-19.535-15.07-31.176-28.391-42.672-2.1719-0.14062-4.3477 0.27734-6.3125 1.2188zm-122.3 25.898c16.426-10.312 19.203-24.234 12.742-57.41-8.5898 17.91-12.949 37.551-12.742 57.41zm218.86 158.46c9.8672-15.273 16.07-32.621 18.121-50.691 0.67578-5.2773-2.4883-6.2148-7.2031-5.6094-9.9297 16.668-10.055 35.441-10.918 56.301zm-195.83-210.64c-0.85156 0.39063-1.707 0.78125-2.5625 1.1719h0.003906c0.39062 6.4648 1.5273 12.859 3.3945 19.062 2.6992 4.9023 6.3867 9.1914 10.832 12.598 2.0117 1.2148 4.5078 1.3125 6.6094 0.26172 1.5547-1.7461 2.2539-4.0898 1.9062-6.4023-0.35156-2.8555-1.4648-5.5664-3.2266-7.8438-5.4102-6.4844-11.27-12.594-16.957-18.848zm209.29-19.664c-4.5742 6.793-10.43 10.453-9.3984 18.125 0.82812 6.1641-1.8828 13.246 6.4688 17.707 7.6367-11.09 6.25-22.43 2.9297-35.832zm-85.027 152.97c8.4883 9.0664 25.184 10.934 39.301 5.2422-11.348-7.7617-18.949-8.8555-39.301-5.2422zm15.102-95.191c0.57031-8.2148 0.91406-13.52 1.3125-18.82 0.35938-4.7969 0.76953-9.5898 1.1562-14.383-6.8633 13.848-7.2539 19.707-2.4688 33.203zm-168.2-54.152-0.57813 1.793c2.3828 0.72266 4.7695 1.4453 7.1523 2.1719l0.43359-1.4219c-2.3359-0.85156-4.6719-1.6953-7.0078-2.543z"/>
 </g>
</svg>
