<?xml version="1.0" encoding="UTF-8"?>
<svg width="700pt" height="700pt" version="1.1" viewBox="0 0 700 700" xmlns="http://www.w3.org/2000/svg" xmlns:xlink="http://www.w3.org/1999/xlink">
 <defs>
  <symbol id="x" overflow="visible">
   <path d="m0.03125 0h-0.03125v-0.015625-0.015625c0.0078125-0.0078125 0.019531-0.015625 0.03125-0.015625v0.015625h-0.015625v0.015625 0.015625h0.015625v-0.015625z"/>
  </symbol>
  <symbol id="c" overflow="visible">
   <path d="m0.03125-0.015625c0-0.0078125-0.0078125-0.015625-0.015625-0.015625v0.015625 0.015625h-0.015625v-0.03125h0.015625 0.015625z"/>
  </symbol>
  <symbol id="a" overflow="visible">
   <path d="m0.03125-0.015625h-0.015625v0.015625h0.015625v-0.015625 0.015625h-0.015625-0.015625v-0.015625l0.015625-0.015625c0.0078125 0 0.015625 0.0078125 0.015625 0.015625zm0 0h-0.015625v-0.015625 0.015625z"/>
  </symbol>
  <symbol id="b" overflow="visible">
   <path d="m0.015625-0.015625v0.015625l0.015625-0.015625zm0.015625 0v0.015625h-0.015625-0.015625v-0.015625h0.015625 0.015625-0.015625v-0.015625h-0.015625v0.015625-0.015625h0.015625 0.015625v0.015625z"/>
  </symbol>
  <symbol id="e" overflow="visible">
   <path d="m0.015625-0.046875v0.015625h0.015625-0.015625v0.015625 0.015625h0.015625-0.015625-0.015625v-0.015625-0.03125z"/>
  </symbol>
  <symbol id="i" overflow="visible">
   <path d="m0.03125-0.03125v-0.015625 0.046875h-0.015625-0.015625v-0.015625l0.015625-0.015625h0.015625zm-0.015625 0.03125 0.015625-0.015625h-0.015625v-0.015625 0.015625 0.015625z"/>
  </symbol>
  <symbol id="m" overflow="visible">
   <path d="m0.015625 0h0.015625v-0.015625c0-0.0078125-0.0078125-0.015625-0.015625-0.015625v0.015625 0.015625zm0-0.03125h0.015625v0.015625 0.015625h-0.015625-0.015625v-0.046875h0.015625z"/>
  </symbol>
  <symbol id="h" overflow="visible">
   <path d="m0-0.03125h0.015625v0.015625l0.015625-0.015625-0.015625 0.03125v0.015625h-0.015625v-0.015625h0.015625z"/>
  </symbol>
  <symbol id="l" overflow="visible">
   <path d="m0.03125-0.03125h-0.015625v0.015625 0.015625h0.015625v-0.015625-0.015625zm0-0.015625v0.015625c0.0078125 0 0.015625 0.0078125 0.015625 0.015625l-0.015625 0.015625h-0.03125v-0.015625-0.015625c0.0078125-0.0078125 0.019531-0.015625 0.03125-0.015625z"/>
  </symbol>
  <symbol id="w" overflow="visible">
   <path d="m0-0.046875h0.015625v0.046875h-0.015625z"/>
  </symbol>
  <symbol id="k" overflow="visible">
   <path d="m0-0.046875h0.015625v0.03125l0.015625-0.015625-0.015625 0.015625 0.015625 0.015625-0.015625-0.015625v0.015625h-0.015625z"/>
  </symbol>
  <symbol id="g" overflow="visible">
   <path d="m0.03125-0.03125v0.015625c0-0.0078125-0.0078125-0.015625-0.015625-0.015625v0.015625h0.015625v0.015625h-0.015625-0.015625v-0.015625 0.015625h0.015625v-0.015625h-0.015625v-0.015625h0.015625 0.015625z"/>
  </symbol>
  <symbol id="f" overflow="visible">
   <path d="m0.03125-0.015625v0.015625-0.015625h-0.015625v-0.015625 0.015625 0.015625h-0.015625v-0.03125h0.015625 0.015625v0.015625z"/>
  </symbol>
  <symbol id="j" overflow="visible">
   <path d="m0-0.046875h0.015625c0.0078125 0 0.015625 0.0078125 0.015625 0.015625v0.015625h-0.015625v0.015625h-0.015625zm0.015625 0.015625v0.015625h0.015625v-0.015625h-0.015625z"/>
  </symbol>
  <symbol id="d" overflow="visible">
   <path d="m0.015625-0.03125v0.015625 0.015625l0.015625-0.015625h-0.015625v-0.015625zm0 0c0.0078125 0 0.015625 0.0078125 0.015625 0.015625v0.015625h-0.015625-0.015625v-0.015625l0.015625-0.015625z"/>
  </symbol>
  <symbol id="v" overflow="visible">
   <path d="m0-0.03125h0.015625v0.015625l0.015625-0.015625v0.03125h-0.015625z"/>
  </symbol>
  <symbol id="u" overflow="visible">
   <path d="m0-0.03125h0.015625v0.03125h-0.015625zm0-0.015625h0.015625v0.015625h-0.015625z"/>
  </symbol>
  <symbol id="t" overflow="visible">
   <path d="m0.03125-0.046875v0.015625h-0.015625 0.015625-0.015625v0.03125h-0.015625v-0.03125l0.015625-0.015625z"/>
  </symbol>
  <symbol id="s" overflow="visible">
   <path d="m0.03125-0.03125h0.015625v0.015625 0.015625-0.015625-0.015625c-0.011719 0-0.015625 0.0078125-0.015625 0.015625v0.015625-0.015625h-0.015625v-0.015625 0.015625 0.015625h-0.015625v-0.03125h0.015625 0.015625z"/>
  </symbol>
  <symbol id="r" overflow="visible">
   <path d="m0.03125-0.015625v0.015625-0.015625h-0.015625v-0.015625 0.015625 0.015625h-0.015625v-0.046875h0.015625v0.015625h0.015625v0.015625z"/>
  </symbol>
  <symbol id="q" overflow="visible">
   <path d="m0-0.046875h0.015625l0.015625 0.03125v-0.03125h0.015625v0.046875h-0.015625l-0.015625-0.03125v0.03125h-0.015625z"/>
  </symbol>
  <symbol id="p" overflow="visible">
   <path d="m0-0.015625v-0.015625h0.015625v0.015625 0.015625l0.015625-0.015625v-0.015625 0.03125h-0.015625-0.015625v-0.015625z"/>
  </symbol>
  <symbol id="o" overflow="visible">
   <path d="m0-0.03125h0.015625v0.03125c0 0.0078125-0.0078125 0.015625-0.015625 0.015625zm0-0.015625h0.015625v0.015625h-0.015625z"/>
  </symbol>
  <symbol id="n" overflow="visible">
   <path d="m0.03125-0.03125v0.015625c0-0.0078125-0.0078125-0.015625-0.015625-0.015625v0.015625 0.015625h0.015625v-0.015625 0.015625h-0.015625-0.015625v-0.015625l0.015625-0.015625h0.015625z"/>
  </symbol>
 </defs>
 <g>
  <path d="m568.33 33.254c9.7891 1.5898 18.223 4.4258 24.449 9.418 6.4531 5.1758 10.461 12.5 11.09 22.914 2.5664 41.867-1.3086 70.113-5.6992 102.05-1.2422 9.0391-2.5312 18.379-3.7539 28.785-2.0391 17.246 2.2734 27.676 6.25 37.297 5.8477 14.156 11.043 26.734-2.2188 54.051l-0.035157 0.078124-0.11328 0.17969c-2.1953 3.6172-4.6914 8.0625-7.3008 12.867-2.6445 4.8594-5.3438 9.9805-7.9531 14.973l-1.7031 3.2578c-11.738 22.422-12.926 24.695-14.113 52.348-0.67188 15.578-1.043 34.305-1.3438 49.527-0.24609 12.422-0.4375 22.535-0.70703 26.645-0.089844 1.3438-0.14453 2.4297-0.20313 3.5039-0.67187 12.848-1.2422 23.754-18.156 25.625-41.875 4.6367-89.477 0.10156-133.79-4.1328-7.5039-0.71875-14.906-1.4219-23.43-2.1836-1.9375 19.039-3.7969 33.902-10.863 45.73-7.5391 12.609-20.664 21.281-45.449 26.938-12.512 2.8555-39.535 3.4141-68.859 2.7344-38.258-0.88672-80.539-3.8633-99.379-6.5625-26.207-3.7539-26.398-6.0352-28.125-26.219-0.21094-2.4961-0.46094-5.2852-0.71875-7.8164-1.9141-18.492-3.9648-44.555-5.543-67.691-1.8828-27.418-3.0781-50.961-2.6445-53.355 0.89453-4.8594 4.2461-7.2578 7.2461-8.6133-11.57-22.398-24.383-73.035-32.637-131.27-7.3242-51.621-11.109-109.32-7.3125-158.68 0.91797-11.961 3.3359-21.594 6.8203-29.289 5.2188-11.523 12.812-18.715 21.359-22.859 8.4883-4.1094 17.832-5.1641 26.691-4.4805 9.2969 0.71875 18.078 3.3477 24.719 6.3516h0.011719c0.089844-0.035156 0.19141-0.078125 0.3125-0.11328 1.3438-0.44922 3.3164-1.4336 5.7344-2.6328 12.309-6.1055 35.191-17.449 64.781-4.5039 10.023-10.18 21.707-15.074 33.285-16.543 15.523-1.9727 30.832 2.2852 41.629 8.2109 1.2539 0.49219 2.4062 1.043 3.4609 1.5469 1.4219 0.68359 2.3867 1.2656 2.4414 1.2305 7.9531-4.1445 22.512-8.5781 37.789-4.9375 9.8438 2.3398 19.98 7.9961 28.797 19.164 7.582-2.8125 20.203-5.4883 32.156-4.457 8.1758 0.69531 16.105 3.1016 22.121 8.3008 5.5781-6.125 14.707-10.316 24.922-12.555 8.625-1.9023 18.09-2.4297 26.801-1.5664 8.8945 0.86328 17.035 3.1797 22.812 6.9648 3.3164 2.1719 5.8789 4.8164 7.4609 7.9531 6.3828-3.3945 20.227-10.102 38.73-8.1992l0.16797 0.023438zm20.496 14.336c-5.2539-4.2227-12.656-6.6641-21.359-8.0859-17.84-1.8242-31.059 5.332-36.277 8.1406-0.96484 0.52734-1.6914 0.91797-2.3086 1.1641l-3.4727 1.4336-0.80469-3.6719c-0.68359-3.1016-2.8789-5.6992-6.082-7.8047-4.9297-3.2148-12.062-5.207-19.945-5.9805-8.0625-0.79688-16.855-0.30078-24.887 1.4688-10.293 2.2617-19.195 6.5625-23.309 12.848l-2.2734 3.4727-2.7422-3.1133c-4.9727-5.6445-12.578-8.1406-20.574-8.8242-12.152-1.043-24.988 2.0508-31.426 4.8594l-2.3203 1.0078-1.4883-2.0273c-8.1328-11.066-17.539-16.531-26.645-18.691-13.508-3.2148-26.387 0.70703-33.422 4.3672-2.7227 1.4219-5.0273 0.32422-8.0742-1.1328-0.92969-0.44922-1.9727-0.94141-3.1602-1.3906l-0.20312-0.078125-0.22266-0.125c-9.8242-5.4531-23.832-9.3984-38-7.6055-10.832 1.3789-21.785 6.1367-31.012 16.219l-1.5664 1.7148-2.0938-0.98438c-27.844-13.113-49.727-2.2617-61.387 3.5156-2.5195 1.2539-4.6016 2.2852-6.3398 2.8906-0.63672 0.35938-1.332 0.75-2.543 0.67188-0.52734-0.035156-1.0625-0.15625-1.5469-0.32422-0.41406-0.13281-0.75-0.28125-1.0078-0.39063-6.082-2.7539-14.113-5.1641-22.602-5.8125-7.875-0.60547-16.117 0.30078-23.477 3.875-7.3008 3.5273-13.809 9.7344-18.344 19.77-3.1914 7.043-5.4219 15.973-6.2734 27.16-3.7617 48.898-0.011719 106.13 7.2578 157.35 8.5781 60.512 21.996 112.47 33.633 132.21l1.9922 3.3828-4.043 1.3203c-1.9375 0.63672-5.668 1.8594-6.25 4.9727-0.34766 1.9023 0.89453 24.797 2.7422 51.801 1.5898 23.16 3.6289 49.156 5.5234 67.469 0.34766 3.3164 0.54688 5.7578 0.73828 7.9297 1.3438 15.68 1.4883 17.449 22.727 20.496 18.691 2.6758 60.648 5.6328 98.605 6.5195 28.875 0.67188 55.363 0.15625 67.355-2.5859 22.859-5.2188 34.789-12.926 41.418-24.023 6.7305-11.266 8.332-26.488 10.316-46.223l0.3125-3.1016 3.1016 0.26953c7.4688 0.64844 16.945 1.5586 26.566 2.4766 43.973 4.1992 91.223 8.7031 132.5 4.1328 11.594-1.2891 12.027-9.7344 12.555-19.668 0.066406-1.2656 0.13281-2.543 0.20312-3.5938 0.26953-4.2227 0.46875-14.156 0.70703-26.363 0.30078-15.32 0.67188-34.184 1.3438-49.648 1.2422-29.062 2.4961-31.461 14.828-55.016l1.7031-3.2578c2.6641-5.1055 5.3984-10.293 7.9961-15.074 2.5742-4.75 5.0742-9.1836 7.3359-12.926 11.996-24.742 7.3125-36.074 2.0391-48.844-4.2773-10.359-8.9141-21.582-6.6992-40.41 1.1758-9.9922 2.4961-19.602 3.7734-28.906 4.3438-31.617 8.1758-59.562 5.6562-100.84-0.51562-8.4336-3.6719-14.301-8.7461-18.367zm-447.68 332.55c-2.2617 1.0742-3.7188 2.1289-4.4922 3.1367-0.53906 0.69531-0.66016 1.3555-0.46875 1.9922 0.3125 1.0195 1.2227 2.1523 2.5859 3.3477 3.4141 2.9922 9.1953 5.8477 15.547 8.1094 30.082 10.754 93.219 7.4609 122.86 5.9141 6.1133-0.3125 10.82-0.55859 13.688-0.59375h0.035156c31.551 0.042969 55.965 2.6992 72.688 12.824 17.125 10.383 25.961 28.191 25.727 58.34l-6.3047-0.023438c0.22266-27.629-7.5703-43.77-22.68-52.93-15.523-9.4062-38.941-11.871-69.395-11.918-2.5547 0.035156-7.2812 0.28125-13.43 0.60547-30.062 1.5586-94.07 4.8945-125.32-6.2617-7-2.5078-13.496-5.7695-17.574-9.3281-2.2188-1.9492-3.7852-4.043-4.457-6.2617-0.79688-2.6094-0.40234-5.1875 1.4766-7.6484 1.3789-1.793 3.6055-3.4844 6.8203-5.0078l2.6875 5.6992zm227.08 44.555c2.5977-24.898 15.074-47.711 26.824-69.227 17.695-32.379 33.711-61.668 9.207-88.738-16.406-18.133-11.848-56.996-6.875-99.391 5.6328-48.082 11.816-100.82-11.66-129.73l4.8828-3.9766c25.176 30.992 18.828 85.098 13.047 134.41-4.8047 40.938-9.1953 78.469 5.2734 94.461 27.508 30.398 10.484 61.543-8.3438 95.973-11.457 20.977-23.621 43.223-26.086 66.852l-6.2734-0.63672zm36.266-163.72c-36.703 32.793-75.867 48.059-114.31 51.238-45.863 3.7852-90.621-9.6445-128.89-31.035-14.426-8.0625-23.465-2.8555-23.488-2.8438l-0.39062 0.22266-0.46094 0.10156c-0.58203 0.125-1.0859 0.34766-1.5234 0.66016-1.8477 1.332-2.7773 4.4141-2.9805 8.7461-0.22266 5.0391 0.60547 11.48 2.25 18.781 6.707 29.949 26.633 73.484 42.852 95.996l-5.1172 3.6836c-16.609-23.062-37.016-67.648-43.883-98.312-1.7578-7.8398-2.6562-14.828-2.3984-20.418 0.28125-6.2812 2.0273-11.02 5.6016-13.586 1.0078-0.72656 2.1406-1.2656 3.4062-1.6016 2.25-1.0859 13.551-5.6797 29.188 3.0586 37.273 20.832 80.809 33.926 125.32 30.25 37.16-3.0781 75.062-17.863 110.62-49.637l4.1992 4.6914zm-300.37-48.316c56.695 46.145 109.93 67.781 157.27 70.234 52.148 2.6992 97.262-17.93 132.03-54.734l4.5938 4.3242c-36.031 38.137-82.812 59.504-136.94 56.707-48.629-2.5195-103.11-24.594-160.92-71.637l3.9766-4.8945zm71.656-156.89c7.7734-6.293 16.688-12.074 28.258-14.426 11.93-2.4297 26.523-1.1406 45.281 7.125 11.367-11.762 24.449-17.328 37.418-18.008 14.402-0.77344 28.594 4.5117 40.02 13.977 9.1406-4.582 17.168-6.9219 24.191-7.4141 11.93-0.83984 20.898 3.5391 27.52 11.301 6.3633 7.4609 10.406 18.008 12.699 29.961 3.8984 20.238 2.832 44.688-0.37109 64.488-1.332 8.1875-2.3867 15.656-3.3359 22.391-4.7266 33.441-6.8984 48.844-30.699 71.008-1.9492 1.8125-3.9648 3.5391-6.0469 5.1758-26.41 20.742-65.621 29.332-106.12 24.191-40.355-5.1172-82.062-23.867-113.68-57.793-3.4844-3.7305-6.8203-7.6289-10.012-11.691-16.98-21.629-13.586-68.555-11.414-98.719 0.15625-2.1289 0.30078-4.168 0.41406-5.6914v-0.023437c0.72656-9.5312 3.4141-17.719 7.5391-24.305 4.043-6.4609 9.4414-11.391 15.734-14.559 6.2812-3.168 13.43-4.582 20.957-4 7.0234 0.54688 14.379 2.8242 21.648 7.0117zm29.512-8.2539c-11.09 2.2617-19.656 8.2305-27.203 14.527l-1.7578 1.4688-1.9258-1.2109c-7.0117-4.3789-14.078-6.7305-20.742-7.2461-6.3711-0.49219-12.387 0.68359-17.652 3.3359-5.2656 2.6562-9.8008 6.7969-13.203 12.266-3.6055 5.7578-5.957 12.969-6.6094 21.438-0.14453 2.1055-0.28125 3.8633-0.40234 5.6914-2.1172 29.211-5.3984 74.66 10.07 94.359 3.1133 3.9648 6.3398 7.7266 9.6641 11.301 30.555 32.781 70.863 50.895 109.86 55.844 38.852 4.9297 76.34-3.2031 101.43-22.902 1.9805-1.5586 3.8633-3.168 5.6562-4.8281 22.152-20.652 24.227-35.348 28.738-67.258 0.94141-6.6211 1.9805-13.977 3.3594-22.512 3.1016-19.195 4.1562-42.828 0.40234-62.328-2.1055-10.93-5.7109-20.484-11.301-27.035-5.332-6.2617-12.602-9.7891-22.301-9.1055-6.6523 0.46875-14.469 2.8789-23.586 7.6836l-1.9258 1.0078-1.6367-1.4453c-10.484-9.2852-23.742-14.527-37.172-13.809-11.984 0.63672-24.148 6.0586-34.652 17.629l-1.5586 1.7148-2.0938-0.96484c-18.379-8.4688-32.301-9.8906-43.457-7.6172zm-28.168 25.457c-0.71875 7.5586-1.4102 17.078-1.4766 26.098-0.11328 14.312 1.0195 27.43 5.5117 27.797 0.13281-0.15625 0.39062-0.85156 0.75-2.0703 0.66016-2.2617 1.0547-5.5781 1.0742-9.9688 0.042969-9.4297-1.6133-23.398-5.8594-41.855zm-7.7734 26.074c0.125-16.441 2.207-34.047 2.8906-39.637 0.20312-1.6445 1.3008-2.5664 2.7344-2.9453 0.33594-0.089844 0.71875-0.14453 1.0742-0.16797 0.35938-0.023438 0.70703-0.011719 1.0078 0.023437 1.457 0.17969 2.6562 0.99609 3.0586 2.4961 6.707 25.336 9.2188 44.082 9.1602 56.035-0.023438 5.0078-0.50391 8.9141-1.3203 11.691-1.0742 3.6719-2.8906 5.8359-5.2422 6.4609-0.44922 0.11328-0.91797 0.16797-1.3984 0.16797-9.5977-0.042969-12.098-16.328-11.961-34.125zm82.129-33.41c-0.71875 7.5586-1.4102 17.078-1.4766 26.098-0.11328 14.324 1.0195 27.43 5.5117 27.797 0.13281-0.15625 0.39062-0.83984 0.75-2.0703 0.66016-2.25 1.0547-5.5781 1.0742-9.957 0.042968-9.4414-1.6133-23.406-5.8594-41.867zm-7.7734 26.074c0.125-16.43 2.207-34.047 2.8906-39.625 0.20312-1.6562 1.3008-2.5742 2.7344-2.957 0.33594-0.089844 0.71875-0.14453 1.0742-0.16797 0.35938-0.011719 0.70703-0.011719 1.0078 0.035157 1.457 0.17969 2.6562 0.98437 3.0586 2.4961 6.707 25.324 9.2188 44.07 9.1602 56.035-0.023437 4.9961-0.50391 8.9023-1.3203 11.691-1.0742 3.6641-2.8906 5.8242-5.2422 6.4531-0.44922 0.11328-0.91797 0.17969-1.3984 0.16797-9.6094-0.042969-12.098-16.328-11.961-34.125zm82.879-29.836c-1.3555 7.4609-2.8438 16.879-3.6836 25.883-1.3203 14.246-1.3086 27.395 3.1133 28.156 0.15625-0.13281 0.46875-0.79688 0.94141-2.0039 0.83984-2.1836 1.5117-5.4648 1.9023-9.832 0.85156-9.3867 0.39062-23.441-2.2734-42.203zm-9.957 25.312c1.5117-16.297 5.0977-33.711 6.25-39.234 0.34766-1.6367 1.5234-2.4648 2.9688-2.7109 0.32422-0.054687 0.70703-0.078125 1.0859-0.066406 0.34766 0.011719 0.70703 0.042969 0.99609 0.11328 1.4453 0.30078 2.5742 1.2109 2.8438 2.7422 4.5352 25.793 5.4414 44.688 4.3555 56.617-0.44922 4.9844-1.2539 8.8242-2.3086 11.535-1.3789 3.5625-3.3711 5.5664-5.7695 5.9805-0.44922 0.078125-0.91797 0.10156-1.4102 0.054688-9.5664-0.86328-10.664-17.305-9.0156-35.035zm-138.07-47.512 0.66016 19.848-6.293 0.20312-0.66016-19.848zm71.152-8.4688 3.3828 20.508-6.2266 1.0195-3.3711-20.52zm80.125-5.6211 0.125 22.727-6.3047 0.023437-0.11328-22.727zm119.58 17.191c4.3789 9.0391 4.0898 16.051 1.0078 21.293-2.0508 3.4961-5.2969 6.0703-9.207 7.8633-3.707 1.7031-7.9961 2.6992-12.398 3.0898-11.883 1.0547-25.008-2.4414-29.512-8.4688l5.0625-3.7539c3.2695 4.3672 13.922 6.8086 23.91 5.9258 3.7422-0.33594 7.3242-1.1523 10.316-2.5195 2.7891-1.2773 5.0508-3.0352 6.3945-5.3203 2.0508-3.4844 2.0703-8.4883-1.2539-15.367zm2.3086 2.2305c-0.78516 8.8711 6.2617 14.906 16.105 18.188 8.4219 2.8008 18.816 3.5938 28.438 2.4766 9.418-1.0977 17.965-4 22.938-8.6016 4.1875-3.875 5.6914-9.1719 2.5547-15.848l5.7109-2.6641c4.5039 9.6211 2.2188 17.371-3.9883 23.129-6.0273 5.5664-15.859 9.0156-26.5 10.258-10.449 1.2109-21.816 0.32422-31.125-2.7773-12.555-4.168-21.504-12.309-20.406-24.707zm79.398 2.3398c-3.9102 9.9688 2.5078 16.992 12.363 20.855 6.3281 2.4883 13.977 3.7305 21.438 3.707 7.4023-0.023438 14.57-1.2891 19.969-3.8203 7.168-3.3594 11.008-9.2188 7.0547-17.652l5.6992-2.6641c5.8672 12.512 0.33594 21.133-10.078 26.027-6.25 2.9219-14.359 4.3789-22.645 4.4023-8.2227 0.023437-16.699-1.3555-23.734-4.1211-13.105-5.1523-21.504-14.852-15.938-29.031l5.8672 2.2969zm-79.23 25.133c-0.67188 7.5586-1.3008 17.078-1.3086 26.105-0.023437 14.293 1.1875 27.371 5.6562 27.754 0.14453-0.15625 0.39062-0.83984 0.75-2.082 0.64844-2.2734 1.0195-5.6016 1.0195-9.9688-0.011718-9.4297-1.7578-23.375-6.1133-41.809zm-7.6172 26.105c0.023437-16.406 2.0039-34.047 2.6562-39.637 0.19141-1.6562 1.2773-2.5977 2.6992-2.9805 0.32422-0.089844 0.70703-0.14453 1.0742-0.16797 0.34766-0.023437 0.70703-0.011719 1.0078 0.023437 1.457 0.16797 2.6641 0.97266 3.0781 2.4766 6.8672 25.266 9.4961 44.004 9.5078 55.988 0 5.0195-0.44922 8.9258-1.2422 11.691-1.043 3.6719-2.8438 5.8477-5.207 6.4844-0.42578 0.125-0.89453 0.17969-1.4102 0.17969-9.5859 0.011719-12.188-16.262-12.164-34.059zm80.719-27.082c-1.1758 7.4688-2.4531 16.91-3.0781 25.949-0.99609 14.281-0.67187 27.43 3.7617 28.078 0.15625-0.14453 0.46094-0.81641 0.88672-2.0156 0.79688-2.1953 1.3906-5.4766 1.6797-9.8789 0.62891-9.418-0.15625-23.453-3.2461-42.133zm-9.375 25.535c1.1328-16.262 4.3125-33.801 5.3555-39.367 0.30078-1.6445 1.457-2.4961 2.8906-2.7891 0.3125-0.066406 0.69531-0.089844 1.0859-0.089844 0.34766 0 0.69531 0.035157 0.99609 0.089844h0.011719c1.4453 0.26953 2.5977 1.1523 2.9023 2.6758 5.1289 25.691 6.4844 44.566 5.6797 56.492-0.33594 4.9727-1.0547 8.8359-2.0508 11.594-1.3008 3.5938-3.2383 5.6445-5.6211 6.1133-0.46094 0.10156-0.92969 0.125-1.4219 0.089844-9.5742-0.63672-11.066-17.047-9.8242-34.809zm49.133 258.92c-18.031-3.2383-52.316-7.0234-86.141-9.2969-27.652-1.8477-54.914-2.6758-72.609-1.3438l-0.46875-6.293c17.988-1.3555 45.574-0.52734 73.496 1.3438 33.969 2.2734 68.531 6.1055 86.832 9.3984l-1.1094 6.1953zm-52.652 86.598c-9.9023 3.2383-41.059 4.5703-66.852 1.7148-18.984-2.0938-35.391-6.6289-39.523-14.629-0.79688-1.5469-1.4766-3.4141-2.0273-5.5117-1.8359-7.0781-2.1953-17.113-0.52734-26.164 1.7578-9.4883 5.7891-18.055 12.77-21.66 1.0195-0.52734 2.1172-0.95313 3.2812-1.2539 9.7227-2.5312 32.57-3.2266 53.93-1.9141 18.336 1.1328 35.785 3.7734 43.344 8.0625l0.14453 0.078125c2.5195 1.625 4.5352 4.0898 6.0703 7.1328 3.125 6.2148 4.2773 15.062 3.6953 23.766-0.58203 8.6914-2.9023 17.383-6.707 23.328-1.9727 3.0586-4.3555 5.4531-7.1445 6.8672l-0.23438 0.11328-0.21094 0.066406zm-66.16-4.5586c24.84 2.7539 54.453 1.6133 63.984-1.3672 1.6367-0.89453 3.1367-2.4766 4.457-4.5234 3.2266-5.0391 5.207-12.633 5.7227-20.34 0.51563-7.6836-0.42578-15.332-3.0352-20.52-1.0312-2.0391-2.2852-3.6406-3.7969-4.625-6.707-3.7422-23.07-6.1133-40.5-7.1914-20.809-1.2773-42.852-0.66016-51.98 1.7148-0.68359 0.17969-1.3438 0.4375-1.9727 0.76172-4.9961 2.5859-8.0195 9.4531-9.4531 17.191-1.5117 8.1758-1.2109 17.168 0.42578 23.453 0.42578 1.6367 0.94141 3.0586 1.5234 4.1992 2.9922 5.7773 17.516 9.3516 34.621 11.246zm-47.008-273.5c2.832-2.0703 6.3711-3.8516 10.461-5.375 17.539-6.4961 46.078-8.1875 71.871-5.9141 26.207 2.3086 49.918 8.8594 57.223 18.828 0.79688 1.0859 1.4219 2.2305 1.8711 3.4141 2.4648 6.6758-0.48047 14.078-7.3906 22.02-6.3164 7.2578-16.082 15.152-28.023 23.465-29.055 20.215-32.145 43.355-34.652 62.035-3.3047 24.707-5.6797 42.402-54.512 39.434l0.37109-6.293c42.996 2.6094 45.047-12.645 47.902-33.945 2.6641-19.938 5.9688-44.621 37.285-66.414 11.535-8.0312 20.91-15.59 26.859-22.422 5.3555-6.1602 7.7969-11.492 6.2266-15.703-0.22266-0.62891-0.57031-1.2422-1.0312-1.8594-6.1484-8.3984-28.066-14.09-52.664-16.262-25.008-2.207-52.496-0.62891-69.16 5.543-3.5508 1.3203-6.5742 2.832-8.9023 4.5469l-3.7305-5.0977zm123.37 139.15c-8.5781-6.9102-12.746-18.48-12.285-29.613 0.23438-5.5312 1.6016-10.988 4.1328-15.734 2.5742-4.8398 6.3516-8.9492 11.367-11.691 7.7734-4.2578 18.391-5.1406 31.875-0.19141 2.0391-2.1602 3.7852-3.8633 6.0586-5.3555 2.7891-1.8359 6.125-3.168 11.344-4.3438l4.0312-0.90625-0.19141 4.1211c-0.24609 5.2734-0.88672 9.3867-1.9609 12.77-0.85156 2.6992-1.9805 4.9492-3.4062 6.957 5.0195 8.5898 5.8906 18.918 3.4062 28.113-1.5117 5.5781-4.2578 10.762-8.0625 14.906-3.8633 4.1992-8.8242 7.3359-14.707 8.7461-8.7578 2.1055-19.453 0.32422-31.371-7.5938l-0.11328-0.078125-0.125-0.10156zm-5.9805-29.367c-0.37891 9.2305 2.9453 18.75 9.8242 24.359 10.246 6.7773 19.176 8.3672 26.309 6.6523 4.5703-1.0977 8.457-3.5625 11.512-6.8867 3.1133-3.3828 5.3633-7.6484 6.6211-12.266 2.2305-8.2539 1.2422-17.562-3.7734-24.898l-1.3789-2.0039 1.6016-1.8359c1.5664-1.8125 2.7656-3.8984 3.6172-6.5977 0.61719-1.9375 1.0625-4.168 1.3555-6.8203-2.1289 0.68359-3.7305 1.4453-5.0977 2.3398-2.1172 1.3906-3.9219 3.3164-6.3633 5.9453l-1.4766 1.5781-2.0039-0.80469c-12.477-5.0195-21.93-4.5234-28.539-0.90625-3.8633 2.1172-6.8086 5.3203-8.8242 9.1289-2.0703 3.8867-3.1914 8.3984-3.3828 13.016zm74.121-60.301c-22.289-3.9648-42.93 0.33594-59.594 9.8906-13.184 7.5586-23.891 18.391-30.934 31-7.0234 12.566-10.426 26.902-9.0391 41.508 1.5352 16.16 8.9375 32.715 23.801 47.645l-4.4688 4.4453c-15.973-16.039-23.945-33.945-25.602-51.496-1.5117-15.926 2.1836-31.516 9.8125-45.16 7.6055-13.621 19.117-25.301 33.297-33.422 17.887-10.246 39.996-14.875 63.816-10.629l-1.0859 6.2148z"/>
  <use x="70" y="560.167969" xlink:href="#x"/>
  <use x="70.042969" y="560.167969" xlink:href="#c"/>
  <use x="70.070312" y="560.167969" xlink:href="#a"/>
  <use x="70.105469" y="560.167969" xlink:href="#b"/>
  <use x="70.144531" y="560.167969" xlink:href="#e"/>
  <use x="70.171875" y="560.167969" xlink:href="#a"/>
  <use x="70.210938" y="560.167969" xlink:href="#i"/>
  <use x="70.269531" y="560.167969" xlink:href="#m"/>
  <use x="70.308594" y="560.167969" xlink:href="#h"/>
  <use x="70.363281" y="560.167969" xlink:href="#l"/>
  <use x="70.414063" y="560.167969" xlink:href="#w"/>
  <use x="70.433594" y="560.167969" xlink:href="#a"/>
  <use x="70.46875" y="560.167969" xlink:href="#k"/>
  <use x="70.507812" y="560.167969" xlink:href="#g"/>
  <use x="70.539062" y="560.167969" xlink:href="#b"/>
  <use x="70.578125" y="560.167969" xlink:href="#f"/>
  <use x="70.617188" y="560.167969" xlink:href="#i"/>
  <use x="70.65625" y="560.167969" xlink:href="#c"/>
  <use x="70.707031" y="560.167969" xlink:href="#j"/>
  <use x="70.746094" y="560.167969" xlink:href="#b"/>
  <use x="70.785156" y="560.167969" xlink:href="#f"/>
  <use x="70.824219" y="560.167969" xlink:href="#b"/>
  <use x="70.863281" y="560.167969" xlink:href="#g"/>
  <use x="70.894531" y="560.167969" xlink:href="#d"/>
  <use x="70.933594" y="560.167969" xlink:href="#v"/>
  <use x="70.96875" y="560.167969" xlink:href="#g"/>
  <use x="71.003906" y="560.167969" xlink:href="#k"/>
  <use x="71.039062" y="560.167969" xlink:href="#h"/>
  <use x="71.078125" y="560.167969" xlink:href="#u"/>
  <use x="70" y="560.222656" xlink:href="#t"/>
  <use x="70.023438" y="560.222656" xlink:href="#c"/>
  <use x="70.050781" y="560.222656" xlink:href="#d"/>
  <use x="70.089844" y="560.222656" xlink:href="#s"/>
  <use x="70.167969" y="560.222656" xlink:href="#e"/>
  <use x="70.195313" y="560.222656" xlink:href="#r"/>
  <use x="70.234375" y="560.222656" xlink:href="#a"/>
  <use x="70.292969" y="560.222656" xlink:href="#q"/>
  <use x="70.339844" y="560.222656" xlink:href="#d"/>
  <use x="70.378906" y="560.222656" xlink:href="#p"/>
  <use x="70.417969" y="560.222656" xlink:href="#f"/>
  <use x="70.476562" y="560.222656" xlink:href="#j"/>
  <use x="70.519531" y="560.222656" xlink:href="#c"/>
  <use x="70.546875" y="560.222656" xlink:href="#d"/>
  <use x="70.585938" y="560.222656" xlink:href="#o"/>
  <use x="70.601562" y="560.222656" xlink:href="#a"/>
  <use x="70.640625" y="560.222656" xlink:href="#n"/>
  <use x="70.675781" y="560.222656" xlink:href="#e"/>
 </g>
</svg>
