<?xml version="1.0" encoding="UTF-8"?>
<svg width="700pt" height="700pt" version="1.1" viewBox="0 0 700 700" xmlns="http://www.w3.org/2000/svg" xmlns:xlink="http://www.w3.org/1999/xlink">
 <defs>
  <symbol id="g" overflow="visible">
   <path d="m3.6562-0.21875c-0.1875 0.09375-0.38672 0.16797-0.59375 0.21875-0.19922 0.050781-0.40625 0.078125-0.625 0.078125-0.66797 0-1.1992-0.17969-1.5938-0.54688-0.38672-0.375-0.57812-0.87891-0.57812-1.5156 0-0.64453 0.19141-1.1484 0.57812-1.5156 0.39453-0.375 0.92578-0.5625 1.5938-0.5625 0.21875 0 0.42578 0.027344 0.625 0.078125 0.20703 0.054687 0.40625 0.125 0.59375 0.21875v0.82812c-0.1875-0.125-0.375-0.21875-0.5625-0.28125-0.17969-0.0625-0.37109-0.09375-0.57812-0.09375-0.36719 0-0.65625 0.12109-0.875 0.35938-0.21094 0.23047-0.3125 0.55469-0.3125 0.96875 0 0.40625 0.10156 0.73047 0.3125 0.96875 0.21875 0.23047 0.50781 0.34375 0.875 0.34375 0.20703 0 0.39844-0.023437 0.57812-0.078125 0.1875-0.0625 0.375-0.16016 0.5625-0.29688z"/>
  </symbol>
  <symbol id="c" overflow="visible">
   <path d="m2.6875-2.1719c-0.085938-0.039063-0.16797-0.070313-0.25-0.09375-0.085938-0.019531-0.16797-0.03125-0.25-0.03125-0.25 0-0.44531 0.085937-0.57812 0.25-0.125 0.15625-0.1875 0.38281-0.1875 0.67188v1.375h-0.96875v-2.9844h0.96875v0.48438c0.11328-0.19531 0.25-0.33594 0.40625-0.42188 0.16406-0.09375 0.35938-0.14062 0.57812-0.14062h0.10938c0.039063 0 0.09375 0.007812 0.15625 0.015625z"/>
  </symbol>
  <symbol id="a" overflow="visible">
   <path d="m3.4375-1.5v0.26562h-2.2344c0.03125 0.23047 0.11328 0.40234 0.25 0.51562 0.13281 0.10547 0.32812 0.15625 0.57812 0.15625 0.20703 0 0.41406-0.023438 0.625-0.078125 0.20703-0.0625 0.42188-0.15625 0.64062-0.28125v0.73438c-0.21875 0.09375-0.44531 0.16406-0.67188 0.20312-0.23047 0.039062-0.45312 0.0625-0.67188 0.0625-0.54297 0-0.96484-0.13281-1.2656-0.40625-0.30469-0.28125-0.45312-0.67188-0.45312-1.1719 0-0.47656 0.14453-0.85938 0.4375-1.1406 0.30078-0.28125 0.70703-0.42188 1.2188-0.42188 0.46875 0 0.84375 0.14062 1.125 0.42188s0.42188 0.66406 0.42188 1.1406zm-0.96875-0.32812c0-0.17578-0.058594-0.31641-0.17188-0.42188-0.10547-0.11328-0.24219-0.17188-0.40625-0.17188-0.1875 0-0.33984 0.054687-0.45312 0.15625-0.11719 0.10547-0.1875 0.25-0.21875 0.4375z"/>
  </symbol>
  <symbol id="f" overflow="visible">
   <path d="m1.7969-1.3438c-0.19922 0-0.35156 0.039062-0.45312 0.10938-0.09375 0.0625-0.14062 0.16406-0.14062 0.29688 0 0.11719 0.035156 0.21094 0.10938 0.28125 0.082031 0.0625 0.19531 0.09375 0.34375 0.09375 0.17578 0 0.32812-0.0625 0.45312-0.1875s0.1875-0.28516 0.1875-0.48438v-0.10938zm1.4688-0.35938v1.7031h-0.96875v-0.4375c-0.125 0.17969-0.27344 0.30859-0.4375 0.39062-0.15625 0.082031-0.35156 0.125-0.57812 0.125-0.3125 0-0.57031-0.085938-0.76562-0.26562-0.1875-0.1875-0.28125-0.42188-0.28125-0.70312 0-0.35156 0.11719-0.61328 0.35938-0.78125 0.23828-0.16406 0.61719-0.25 1.1406-0.25h0.5625v-0.0625c0-0.15625-0.0625-0.26562-0.1875-0.32812-0.11719-0.070312-0.29688-0.10938-0.54688-0.10938-0.21094 0-0.40234 0.023437-0.57812 0.0625-0.17969 0.042969-0.33984 0.10156-0.48438 0.17188v-0.71875c0.19531-0.050781 0.39844-0.085938 0.60938-0.10938 0.20703-0.03125 0.41406-0.046875 0.625-0.046875 0.53906 0 0.92969 0.10938 1.1719 0.32812 0.23828 0.21094 0.35938 0.55469 0.35938 1.0312z"/>
  </symbol>
  <symbol id="b" overflow="visible">
   <path d="m1.5-3.8438v0.85938h0.98438v0.67188h-0.98438v1.2812c0 0.13672 0.023438 0.23047 0.078125 0.28125 0.0625 0.042969 0.17578 0.0625 0.34375 0.0625h0.48438v0.6875h-0.8125c-0.38672 0-0.65625-0.078125-0.8125-0.23438s-0.23438-0.42188-0.23438-0.79688v-1.2812h-0.46875v-0.67188h0.46875v-0.85938z"/>
  </symbol>
  <symbol id="k" overflow="visible">
   <path d="m2.5-2.5469v-1.6094h0.95312v4.1562h-0.95312v-0.4375c-0.13672 0.17969-0.28125 0.30859-0.4375 0.39062-0.15625 0.082031-0.33984 0.125-0.54688 0.125-0.375 0-0.68359-0.14453-0.92188-0.4375-0.23047-0.28906-0.34375-0.67188-0.34375-1.1406 0-0.45703 0.11328-0.83203 0.34375-1.125 0.23828-0.28906 0.54688-0.4375 0.92188-0.4375 0.19531 0 0.375 0.042969 0.53125 0.125 0.16406 0.085938 0.31641 0.21484 0.45312 0.39062zm-0.64062 1.9375c0.20703 0 0.36328-0.070313 0.46875-0.21875 0.11328-0.15625 0.17188-0.37891 0.17188-0.67188 0-0.28125-0.058594-0.49219-0.17188-0.64062-0.10547-0.15625-0.26172-0.23438-0.46875-0.23438-0.19922 0-0.35547 0.078125-0.46875 0.23438-0.10547 0.14844-0.15625 0.35938-0.15625 0.64062 0 0.29297 0.050781 0.51562 0.15625 0.67188 0.11328 0.14844 0.26953 0.21875 0.46875 0.21875z"/>
  </symbol>
  <symbol id="j" overflow="visible">
   <path d="m2.0469-0.60938c0.20703 0 0.36328-0.070313 0.46875-0.21875 0.11328-0.15625 0.17188-0.37891 0.17188-0.67188 0-0.28125-0.058594-0.49219-0.17188-0.64062-0.10547-0.15625-0.26172-0.23438-0.46875-0.23438-0.19922 0-0.35547 0.078125-0.46875 0.23438-0.10547 0.14844-0.15625 0.35938-0.15625 0.64062 0 0.29297 0.050781 0.51562 0.15625 0.67188 0.11328 0.14844 0.26953 0.21875 0.46875 0.21875zm-0.625-1.9375c0.125-0.17578 0.26562-0.30469 0.42188-0.39062 0.16406-0.082031 0.35156-0.125 0.5625-0.125 0.36328 0 0.66406 0.14844 0.90625 0.4375 0.23828 0.29297 0.35938 0.66797 0.35938 1.125 0 0.46875-0.12109 0.85156-0.35938 1.1406-0.24219 0.29297-0.54297 0.4375-0.90625 0.4375-0.21094 0-0.39844-0.042969-0.5625-0.125-0.15625-0.082031-0.29688-0.21094-0.42188-0.39062v0.4375h-0.96875v-4.1562h0.96875z"/>
  </symbol>
  <symbol id="i" overflow="visible">
   <path d="m0.0625-2.9844h0.95312l0.8125 2.0156 0.6875-2.0156h0.95312l-1.2656 3.2656c-0.125 0.33203-0.27344 0.56641-0.4375 0.70312-0.16797 0.13281-0.39062 0.20312-0.67188 0.20312h-0.54688v-0.64062h0.29688c0.16406 0 0.28516-0.027344 0.35938-0.078125 0.070313-0.054688 0.12891-0.14062 0.17188-0.26562l0.03125-0.09375z"/>
  </symbol>
  <symbol id="h" overflow="visible">
   <path d="m3.2812-3.8594v0.84375c-0.21875-0.10156-0.43359-0.17578-0.64062-0.21875-0.21094-0.050781-0.40625-0.078125-0.59375-0.078125-0.25 0-0.43359 0.039062-0.54688 0.10938-0.11719 0.0625-0.17188 0.16797-0.17188 0.3125 0 0.10547 0.035156 0.1875 0.10938 0.25 0.082031 0.054687 0.22656 0.10156 0.4375 0.14062l0.4375 0.09375c0.44531 0.09375 0.75781 0.23047 0.9375 0.40625 0.1875 0.17969 0.28125 0.4375 0.28125 0.78125 0 0.4375-0.13281 0.76562-0.39062 0.98438-0.26172 0.21094-0.65625 0.3125-1.1875 0.3125-0.25 0-0.50781-0.027344-0.76562-0.078125-0.25-0.039062-0.50781-0.10938-0.76562-0.20312v-0.875c0.25781 0.13672 0.50391 0.24219 0.73438 0.3125 0.23828 0.0625 0.47266 0.09375 0.70312 0.09375 0.21875 0 0.38281-0.035156 0.5-0.10938 0.125-0.070312 0.1875-0.17578 0.1875-0.3125 0-0.125-0.042969-0.21875-0.125-0.28125-0.085937-0.070312-0.24609-0.13281-0.48438-0.1875l-0.39062-0.09375c-0.40625-0.082031-0.70312-0.21875-0.89062-0.40625-0.17969-0.1875-0.26562-0.44141-0.26562-0.76562 0-0.39453 0.125-0.69531 0.375-0.90625 0.25781-0.21875 0.62891-0.32812 1.1094-0.32812 0.22656 0 0.45703 0.023438 0.6875 0.0625 0.22656 0.03125 0.46875 0.078125 0.71875 0.14062z"/>
  </symbol>
  <symbol id="e" overflow="visible">
   <path d="m3.4688-1.8281v1.8281h-0.96875v-1.3906c0-0.25781-0.007812-0.4375-0.015625-0.53125-0.011719-0.10156-0.03125-0.17578-0.0625-0.21875-0.03125-0.0625-0.085937-0.10938-0.15625-0.14062-0.0625-0.039062-0.13281-0.0625-0.20312-0.0625-0.21094 0-0.37109 0.078125-0.48438 0.23438-0.10547 0.15625-0.15625 0.37109-0.15625 0.64062v1.4688h-0.96875v-4.1562h0.96875v1.6094c0.13281-0.17578 0.28516-0.30469 0.45312-0.39062 0.16406-0.082031 0.34375-0.125 0.53125-0.125 0.34375 0 0.60156 0.10938 0.78125 0.32812 0.1875 0.21094 0.28125 0.51172 0.28125 0.90625z"/>
  </symbol>
  <symbol id="v" overflow="visible">
   <path d="m0.45312-4.1562h0.96875v2.2656l1.0938-1.0938h1.1094l-1.4531 1.3594 1.5625 1.625h-1.1562l-1.1562-1.25v1.25h-0.96875z"/>
  </symbol>
  <symbol id="u" overflow="visible">
   <path d="m0.45312-4.1562h0.96875v4.1562h-0.96875z"/>
  </symbol>
  <symbol id="t" overflow="visible">
   <path d="m0.5625-1.0312h0.95312v1.0312h-0.95312z"/>
  </symbol>
  <symbol id="s" overflow="visible">
   <path d="m2.4219-4.1562v0.625h-0.51562c-0.13672 0-0.23438 0.027344-0.29688 0.078125-0.054687 0.054687-0.078125 0.13672-0.078125 0.25v0.21875h0.82812v0.67188h-0.82812v2.3125h-0.95312v-2.3125h-0.46875v-0.67188h0.46875v-0.21875c0-0.32031 0.085937-0.5625 0.26562-0.71875 0.1875-0.15625 0.47266-0.23438 0.85938-0.23438z"/>
  </symbol>
  <symbol id="d" overflow="visible">
   <path d="m1.875-2.375c-0.21094 0-0.37109 0.078125-0.48438 0.23438-0.10547 0.14844-0.15625 0.35938-0.15625 0.64062 0 0.29297 0.050781 0.51562 0.15625 0.67188 0.11328 0.14844 0.27344 0.21875 0.48438 0.21875 0.20703 0 0.36719-0.070313 0.48438-0.21875 0.11328-0.15625 0.17188-0.37891 0.17188-0.67188 0-0.28125-0.058594-0.49219-0.17188-0.64062-0.11719-0.15625-0.27734-0.23438-0.48438-0.23438zm0-0.6875c0.51953 0 0.92188 0.14062 1.2031 0.42188 0.28906 0.27344 0.4375 0.65234 0.4375 1.1406 0 0.5-0.14844 0.89062-0.4375 1.1719-0.28125 0.27344-0.68359 0.40625-1.2031 0.40625-0.51172 0-0.91406-0.13281-1.2031-0.40625-0.29297-0.28125-0.4375-0.67188-0.4375-1.1719 0-0.48828 0.14453-0.86719 0.4375-1.1406 0.28906-0.28125 0.69141-0.42188 1.2031-0.42188z"/>
  </symbol>
  <symbol id="r" overflow="visible">
   <path d="m3.2344-2.5c0.11328-0.17578 0.25391-0.3125 0.42188-0.40625 0.16406-0.10156 0.35156-0.15625 0.5625-0.15625 0.33203 0 0.58594 0.10938 0.76562 0.32812 0.1875 0.21094 0.28125 0.51172 0.28125 0.90625v1.8281h-0.96875v-1.5625c0.007813-0.019531 0.015625-0.039062 0.015625-0.0625v-0.10938c0-0.21875-0.03125-0.375-0.09375-0.46875s-0.16406-0.14062-0.29688-0.14062c-0.1875 0-0.33594 0.078125-0.4375 0.23438-0.09375 0.14844-0.14062 0.35938-0.14062 0.64062v1.4688h-0.96875v-1.5625c0-0.33203-0.03125-0.54688-0.09375-0.64062-0.054688-0.09375-0.15234-0.14062-0.29688-0.14062-0.17969 0-0.32031 0.078125-0.42188 0.23438-0.09375 0.14844-0.14062 0.35938-0.14062 0.64062v1.4688h-0.96875v-2.9844h0.96875v0.4375c0.11328-0.17578 0.24219-0.30469 0.39062-0.39062 0.15625-0.082031 0.32812-0.125 0.51562-0.125 0.20703 0 0.39062 0.054688 0.54688 0.15625 0.15625 0.09375 0.27344 0.23047 0.35938 0.40625z"/>
  </symbol>
  <symbol id="q" overflow="visible">
   <path d="m0.5-3.9844h1.1562l1.4375 2.7344v-2.7344h0.98438v3.9844h-1.1562l-1.4375-2.7344v2.7344h-0.98438z"/>
  </symbol>
  <symbol id="p" overflow="visible">
   <path d="m0.42188-1.1719v-1.8125h0.96875v0.29688 0.60938 0.48438c0 0.24219 0.003906 0.41797 0.015625 0.53125 0.007812 0.10547 0.03125 0.17969 0.0625 0.21875 0.039062 0.0625 0.09375 0.11719 0.15625 0.15625 0.0625 0.03125 0.13281 0.046875 0.21875 0.046875 0.19531 0 0.35156-0.078125 0.46875-0.23438 0.11328-0.15625 0.17188-0.36719 0.17188-0.64062v-1.4688h0.95312v2.9844h-0.95312v-0.4375c-0.14844 0.17969-0.30469 0.30859-0.46875 0.39062-0.15625 0.082031-0.33594 0.125-0.53125 0.125-0.34375 0-0.60938-0.10156-0.79688-0.3125-0.17969-0.21875-0.26562-0.53125-0.26562-0.9375z"/>
  </symbol>
  <symbol id="o" overflow="visible">
   <path d="m3.4688-1.8281v1.8281h-0.96875v-1.3906c0-0.25781-0.007812-0.4375-0.015625-0.53125-0.011719-0.10156-0.03125-0.17578-0.0625-0.21875-0.03125-0.0625-0.085937-0.10938-0.15625-0.14062-0.0625-0.039062-0.13281-0.0625-0.20312-0.0625-0.21094 0-0.37109 0.078125-0.48438 0.23438-0.10547 0.15625-0.15625 0.37109-0.15625 0.64062v1.4688h-0.96875v-2.9844h0.96875v0.4375c0.13281-0.17578 0.28516-0.30469 0.45312-0.39062 0.16406-0.082031 0.34375-0.125 0.53125-0.125 0.34375 0 0.60156 0.10938 0.78125 0.32812 0.1875 0.21094 0.28125 0.51172 0.28125 0.90625z"/>
  </symbol>
  <symbol id="n" overflow="visible">
   <path d="m0.5-3.9844h1.7031c0.50781 0 0.89844 0.11719 1.1719 0.34375 0.26953 0.21875 0.40625 0.53906 0.40625 0.95312 0 0.41797-0.13672 0.74219-0.40625 0.96875-0.27344 0.21875-0.66406 0.32812-1.1719 0.32812h-0.67188v1.3906h-1.0312zm1.0312 0.75v1.1094h0.5625c0.19531 0 0.34766-0.046875 0.45312-0.14062 0.11328-0.10156 0.17188-0.24219 0.17188-0.42188 0-0.17578-0.058594-0.3125-0.17188-0.40625-0.10547-0.09375-0.25781-0.14062-0.45312-0.14062z"/>
  </symbol>
  <symbol id="m" overflow="visible">
   <path d="m0.45312-2.9844h0.96875v2.9375c0 0.39453-0.10156 0.69531-0.29688 0.90625-0.1875 0.21875-0.46484 0.32812-0.82812 0.32812h-0.48438v-0.64062h0.17188c0.17578 0 0.29688-0.042969 0.35938-0.125 0.070312-0.074219 0.10938-0.23047 0.10938-0.46875zm0-1.1719h0.96875v0.78125h-0.96875z"/>
  </symbol>
  <symbol id="l" overflow="visible">
   <path d="m2.875-2.8906v0.76562c-0.125-0.082031-0.25781-0.14453-0.39062-0.1875-0.13672-0.039062-0.27344-0.0625-0.40625-0.0625-0.27344 0-0.48047 0.078125-0.625 0.23438-0.14844 0.15625-0.21875 0.37109-0.21875 0.64062 0 0.28125 0.070313 0.5 0.21875 0.65625 0.14453 0.15625 0.35156 0.23438 0.625 0.23438 0.14453 0 0.28516-0.019531 0.42188-0.0625 0.13281-0.039063 0.25781-0.10938 0.375-0.20312v0.78125c-0.14844 0.0625-0.29688 0.10156-0.45312 0.125-0.15625 0.03125-0.3125 0.046875-0.46875 0.046875-0.54297 0-0.96484-0.13281-1.2656-0.40625-0.30469-0.28125-0.45312-0.67188-0.45312-1.1719 0-0.48828 0.14844-0.86719 0.45312-1.1406 0.30078-0.28125 0.72266-0.42188 1.2656-0.42188 0.15625 0 0.3125 0.015625 0.46875 0.046875 0.15625 0.023437 0.30469 0.0625 0.45312 0.125z"/>
  </symbol>
 </defs>
 <g>
  <path d="m375.7 471.52c13.914-1.8984 22.48 4.8711 26.277 20.582 0.65234 2.7227 3.0859 4.5508 5.7695 4.5508 0.46484 0 0.92578-0.058594 1.3906-0.17578 3.1875-0.76953 5.1445-3.9844 4.3789-7.1602-7.1172-29.352-27.742-31.121-39.383-29.57-3.2617 0.43359-5.5352 3.4219-5.1016 6.668 0.4375 3.2773 3.6406 5.4375 6.668 5.1055z"/>
  <path d="m296.67 461.05c-27.562-2.3359-37.039 16.945-38.18 27.512-0.35547 3.2617 2 6.1914 5.2617 6.5391 0.21875 0.027344 0.43359 0.042969 0.64453 0.042969 2.9922 0 5.5664-2.2617 5.8906-5.3047 0.085938-0.78125 2.2461-18.902 25.363-16.957 3.2539 0.33203 6.1367-2.1172 6.4219-5.4062 0.28906-3.2656-2.1328-6.1484-5.4023-6.4258z"/>
  <path d="m562.86 317.09c-15.871-21.785-38.352-37.02-54.41-45.977-20.828-11.602-43.977-16.938-66.645-15.516-71.051 4.5586-79.008 70.609-79.703 78.539-4.1328 3.4297-8.1836 7.1484-12.133 11.172 1.9141-11.934 4.3203-24.285 7.2812-37.309 4.9805-21.941 9.7188-56.047 11.117-84.859h120.85c3.2773 0 5.9414-2.6602 5.9414-5.9375v-158.68c0-3.2773-2.668-5.9375-5.9414-5.9375l-21.727 0.003906v-11.871c0-3.2773-2.668-5.9375-5.9414-5.9375h-67.586c-11.238 0-22.188 3.4688-31.348 9.8555-9.1602-6.3828-20.109-9.8555-31.332-9.8555h-67.594c-3.2773 0-5.9375 2.6602-5.9375 5.9375v11.871h-22.805c-3.2773 0-5.9375 2.6602-5.9375 5.9375v158.69c0 3.2773 2.6602 5.9375 5.9375 5.9375h121.55c-1.3789 27.891-5.9844 60.918-10.828 82.219-4.3359 19.066-7.5156 36.746-9.6914 53.781-2.707-4.7617-5.5859-9.2695-8.6094-13.539 1.375-7.8438 10.715-73.57-56.602-96.266-21.59-7.2969-45.203-8.043-68.27-2.2188-17.793 4.4922-43.398 13.395-64.305 30.301-2.2461 1.8203-2.8633 4.9922-1.4492 7.5156 1.4219 2.5273 4.4492 3.6953 7.168 2.6953 0.25391-0.09375 27.605-9.3477 49.102 20.41 20.184 27.945 43.07 52.746 94.418 52.746 10.098 0 21.316-0.97266 33.809-3.0586 4.5547 7.0391 8.6953 14.719 12.27 23.121 0.03125 0.070313 0.070312 0.13281 0.10547 0.20312-0.92578 10.102-1.6016 19.773-2.0234 28.918-11.988 2.6875-22.371 11.816-28.57 25.207-5.9922-4.1016-12.594-6.2305-19.457-6.2305-18.277 0-34.352 15.219-39.867 36.945-4.6953-0.37891-9.2969 0.36328-13.754 1.9727-13.133 4.7695-20.285 17.496-17.801 31.641 2.1797 12.379 12.453 25.715 29.844 25.715h193.98c17.395 0 27.656-13.336 29.828-25.715 2.4922-14.148-4.6523-26.871-17.801-31.641-4.4336-1.6094-9-2.3633-13.742-1.9727-5.5078-21.727-21.582-36.945-39.859-36.945-6.8711 0-13.48 2.1289-19.465 6.2188-6.6914-14.426-18.234-23.914-31.422-25.699 0.58984-12.41 1.6641-25.828 3.1953-39.973 0.10156-0.94531 0.22266-1.9023 0.33203-2.8516 5.6328-7.2031 11.629-13.566 17.859-19.188 25.438 11.562 46.219 16.242 63.887 16.242 31.148-0.015625 52.66-14.496 73.094-31.176 28.266-23.047 51.875-7.6836 52.832-7.0312 2.3906 1.625 5.5938 1.3203 7.625-0.75391 2.0117-2.1016 2.2422-5.3203 0.53125-7.6562zm-360.22-16c-12.793-17.711-27.676-24.125-39.738-25.996 14.973-8.3555 30.598-13.449 42.512-16.457 20.871-5.2539 42.156-4.582 61.559 1.957 45.516 15.348 50.516 52.617 49.879 71.703-5.0352-5.7148-10.328-10.895-15.773-15.605l-1.5586-23.57c-0.21875-3.2773-3.168-5.8828-6.3125-5.5312-3.2695 0.21094-5.7461 3.043-5.5312 6.3125l0.85156 12.891c-3.8867-2.7852-7.8086-5.3516-11.727-7.7266l-5.5391-22.453c-0.78906-3.1875-3.9805-5.168-7.1797-4.3398-3.1836 0.78125-5.1289 4-4.3398 7.1797l2.9102 11.82c-8.1289-4.0508-16.062-7.3242-23.465-9.9492-3.1016-1.1094-6.4844 0.50781-7.582 3.6094-1.0938 3.0859 0.52344 6.4844 3.6094 7.582 5.6367 2 11.605 4.4062 17.73 7.2695l-8.8672 1.3281c-3.2461 0.47656-5.4805 3.5078-4.9922 6.7539 0.44141 2.9414 2.9727 5.0586 5.8633 5.0586 0.28906 0 0.58594-0.027343 0.88281-0.070312l24.676-3.6953c3.6289 2.1992 7.2578 4.5703 10.855 7.1406l-12.602 3.4727c-3.1602 0.87109-5.0156 4.1445-4.1445 7.3047 0.72656 2.6367 3.1172 4.3633 5.7266 4.3633 0.52344 0 1.0508-0.070312 1.5781-0.21875l21.043-5.8047c7.2422 6.2383 14.199 13.363 20.582 21.523-65.152 9.3789-88.059-14.207-110.91-45.852zm165.88-150.28v-0.45703c0-3.625 1.4336-7 4.0586-9.5078 2.6094-2.4922 6.1445-3.8477 10.145-3.6172 7.9883 0.45703 13.914 0.1875 18.277-0.32031-0.44922 1.3555-1.0156 2.7695-1.7266 4.168-3.5781 6.9922-9.0742 10.242-17.395 9.7344zm-25.562 0.003906c-7.8867 0.49219-13.48-2.7383-17.051-9.7383-0.71875-1.4062-1.2812-2.8281-1.7344-4.1875 4.4336 0.51562 10.551 0.76172 18.777 0.3125 3.5742-0.042969 7.0312 1.1367 9.6406 3.6445 2.6172 2.5078 4.0586 5.8828 4.0586 9.5156zm140.31-86.355v146.82l-114.52-0.003906c0.058594-4.0234 0.039063-7.8828-0.082031-11.5 4.8633-3.8164 10.824-5.8945 17.059-5.8945h75.82c3.2773 0 5.9414-2.6602 5.9414-5.9375l-0.003907-123.48zm-213.65-17.809h61.66c9.2227 0 18.199 3 25.582 8.4766l-0.003906 36.297c0 3.2773 2.6602 5.9375 5.9375 5.9375s5.9414-2.6602 5.9414-5.9375v-36.57c7.3086-5.3008 16.141-8.2031 25.223-8.2031h61.645v135.36h-69.879c-6.0312 0-11.875 1.3672-17.18 3.9336l-0.007813-23.266 13.012-0.003906c0.72656 0.035156 1.4219 0.058594 2.1172 0.058594 7.582 0 14.043-2.3633 19.234-7.0391 10.695-9.625 11.598-25.648 11.625-26.32 0.10156-2.0742-0.98438-4-2.7109-5.1602-1.7383-1.168-4.043-1.2891-5.8984-0.42188-0.042969 0.023438-5.625 2.5078-23.191 1.5508-6.5508-0.32422-13.395 2.1602-18.363 6.9336-0.625 0.60156-1.2188 1.2266-1.7734 1.8789-0.55859-0.65234-1.1484-1.2812-1.7773-1.8828-4.9727-4.7773-11.543-7.2617-19.031-6.8984-16.531 0.95703-22.258-1.4648-22.301-1.4727-1.875-1.0586-4.1875-1-6.0234 0.13672-1.8398 1.1328-2.9141 3.1758-2.8047 5.3359 0.03125 0.67188 0.93359 16.695 11.617 26.32 5.2031 4.6797 11.676 7.043 19.016 7.043 0.66016 0 1.332-0.015625 2.0078-0.058594h13.367l0.011719 23.254c-5.3008-2.5586-11.145-3.9258-17.168-3.9258h-69.887zm-28.738 17.809h16.863v123.48c0 3.2773 2.6602 5.9375 5.9375 5.9375h75.82c6.3359 0 12.395 2.1484 17.285 6.082 0.125 3.5508 0.15234 7.3438 0.09375 11.312l-116-0.003906zm125.79 382.36c0.60938 2.0156 2.2305 3.5664 4.2773 4.0586 2.0742 0.52344 4.2031-0.12891 5.668-1.6367 3.7266-3.8398 9.8125-8.4062 17.785-8.4062 14.004 0 26.336 13.77 29.324 32.758 0.26172 1.6523 1.2031 3.1172 2.6094 4.0312 1.3906 0.94141 3.1445 1.1719 4.7266 0.79688 4.8555-1.2188 8.8438-0.85547 12.898 0.60938 9.293 3.3789 11.336 11.727 10.16 18.422-1.3906 7.9141-7.5508 15.887-18.148 15.887l-193.98-0.003907c-10.602 0-16.754-7.9727-18.148-15.887-1.1797-6.6953 0.87109-15.047 10.152-18.422 2.457-0.88281 4.9922-1.332 7.5352-1.332 1.6875 0 3.4414 0.23047 5.3711 0.72656 1.5938 0.39062 3.3398 0.12891 4.7344-0.79688 1.3906-0.91406 2.3359-2.375 2.5938-4.0312 3-18.988 15.336-32.758 29.336-32.758 7.957 0 14.051 4.5664 17.762 8.4062 1.4727 1.5195 3.6328 2.1602 5.668 1.6367 2.0508-0.49219 3.6797-2.043 4.2812-4.0586 4.7188-15.684 15.59-25.801 27.699-25.801 12.117 0 22.988 10.117 27.699 25.801zm127.7-123.49c-30.309 24.715-58.637 41.625-119.22 15.68 10.332-7.7695 21.082-13.762 31.734-18.367l20.578 9.4844c0.79688 0.37891 1.6367 0.55078 2.4766 0.55078 2.2461 0 4.3906-1.2891 5.3906-3.4648 1.3789-2.9727 0.070313-6.4922-2.9141-7.8711l-9.8945-4.5586c6.0625-1.9375 11.996-3.4727 17.707-4.6797l17.695 11.355c0.98438 0.63672 2.1016 0.94141 3.2031 0.94141 1.9414 0 3.8711-0.97266 5-2.7383 1.7695-2.7539 0.97266-6.4375-1.7969-8.2031l-6.5742-4.2188c11.199-1.3086 20.77-1.4453 27.605-1.2305 3.5234 0.78125 6.0156-2.4766 6.1016-5.7539 0.10156-3.2891-2.4766-6.0156-5.7539-6.1094-7.7891-0.23438-18.641-0.054687-31.273 1.5234l3.7344-5.3359c1.8711-2.6836 1.2188-6.3867-1.4648-8.2617-2.7109-1.875-6.3906-1.2266-8.2773 1.4648l-10.398 14.863c-5.1836 1.082-10.539 2.418-16.008 4.0547l4.1133-5.3008c2-2.5938 1.5352-6.3203-1.0586-8.3281-2.6094-2.0078-6.3203-1.5508-8.3359 1.0508l-15.598 20.117c-0.042968 0.054688-0.078124 0.11719-0.11719 0.17188-8.4648 3.7266-16.984 8.2891-25.332 13.852 4.3086-18.629 18.773-53.48 66.863-56.559 20.582-1.332 41.293 3.543 60.125 14.039 10.754 5.9922 24.566 14.973 36.902 26.961-12.047-1.3203-28.207 1.0156-45.211 14.871z"/>
  <path d="m388.73 76.137h46.527c3.2773 0 5.9414-2.6602 5.9414-5.9375 0-3.2773-2.668-5.9375-5.9414-5.9375h-46.527c-3.2773 0-5.9414 2.6602-5.9414 5.9375 0 3.2773 2.668 5.9375 5.9414 5.9375z"/>
  <path d="m388.73 101.46h46.527c3.2773 0 5.9414-2.6602 5.9414-5.9375s-2.668-5.9375-5.9414-5.9375h-46.527c-3.2773 0-5.9414 2.6602-5.9414 5.9375s2.668 5.9375 5.9414 5.9375z"/>
  <path d="m334.88 101.69h-42.84c-3.2773 0-5.9375 2.6602-5.9375 5.9375s2.6602 5.9375 5.9375 5.9375h42.84c3.2773 0 5.9375-2.6602 5.9375-5.9375-0.003906-3.2773-2.6641-5.9375-5.9375-5.9375z"/>
  <path d="m290.01 91.543h46.797c3.2773 0 5.9375-2.6602 5.9375-5.9375l-0.003906-22.992c0-3.2773-2.6602-5.9375-5.9375-5.9375h-46.797c-3.2773 0-5.9375 2.6602-5.9375 5.9375v22.996c0.007813 3.2734 2.668 5.9336 5.9414 5.9336zm5.9375-22.996h34.926v11.125h-34.926z"/>
 </g>
</svg>
